<?xml version="1.0" encoding="UTF-8" standalone="no"?>
<!-- Created with Inkscape (http://www.inkscape.org/) -->

<svg
   width="210mm"
   height="297mm"
   viewBox="0 0 210 297"
   version="1.1"
   id="svg5"
   xml:space="preserve"
   inkscape:version="1.2.2 (b0a8486541, 2022-12-01)"
   sodipodi:docname="Toto.svg"
   xmlns:inkscape="http://www.inkscape.org/namespaces/inkscape"
   xmlns:sodipodi="http://sodipodi.sourceforge.net/DTD/sodipodi-0.dtd"
   xmlns="http://www.w3.org/2000/svg"
   xmlns:svg="http://www.w3.org/2000/svg"><sodipodi:namedview
     id="namedview7"
     pagecolor="#ffffff"
     bordercolor="#000000"
     borderopacity="0.25"
     inkscape:showpageshadow="2"
     inkscape:pageopacity="0.0"
     inkscape:pagecheckerboard="0"
     inkscape:deskcolor="#d1d1d1"
     inkscape:document-units="mm"
     showgrid="false"
     inkscape:zoom="1.6819304"
     inkscape:cx="289.84552"
     inkscape:cy="318.08688"
     inkscape:window-width="1866"
     inkscape:window-height="1003"
     inkscape:window-x="1945"
     inkscape:window-y="25"
     inkscape:window-maximized="1"
     inkscape:current-layer="g421" /><defs
     id="defs2">
	

		
	</defs><g
     inkscape:label="Calque 1"
     inkscape:groupmode="layer"
     id="layer1"><g
       id="g421"
       transform="matrix(0.26458333,0,0,0.26458333,18.603944,13.455497)">
			<path
   fill="#ffffff"
   d="m 446,111 -0.9,1 -1,-0.2 -1,2 -1,-0.6 -0.9,1.1 -2,-0.4 -0.3,-0.7 -0.1,-0.9 -1,-0.6 -1.9,0.2 -1.7,-0.8 -0.4,-0.6 v -0.6 l -0.7,-0.3 v -0.3 l -0.3,-0.3 -0.7,0.1 -0.7,-0.6 h -0.6 l 0.1,1 -0.6,0.4 -0.1,-0.7 -1.2,0.5 -1.6,-0.5 -1.2,1 -0.2,1.3 -2,-1 -3.3,1.9 -0.8,-1.3 0.6,-0.6 -0.7,-0.9 0.2,-1 -2.2,-2.7 -1.6,-0.5 -1.2,0.5 -0.1,-0.3 0.5,-1.7 -1.4,-1.7 -3.9,-0.3 -1,-1.2 -0.7,0.1 -1.5,-2.8 -2.6,-0.6 -1.1,-1.3 -0.6,0.1 -1.8,0.8 -2.3,-0.4 0.5,-1.3 -0.5,-2.2 1,-3 -1.4,-1.7 -2,-0.5 -0.1,-0.6 0.9,-1.4 0.1,-1.9 0.6,-0.6 -0.4,-1.3 0.5,-0.7 -0.1,-1.3 1,0.3 -0.2,-1.6 0.9,-0.7 -0.7,-0.9 -1.3,-0.2 -0.4,-0.6 -0.8,1 -1.2,0.5 -0.5,1.6 -1.5,0.7 -0.6,1.1 -0.2,0.6 0.4,1 -0.4,2.8 -3.4,1 -2.4,1.8 -2.8,0.3 -2.9,-0.4 -1.4,-0.8 -2.8,0.5 -0.4,2.3 1,0.9 0.2,1.6 -1.1,2.3 -0.2,1.3 0.1,0.6 -0.3,1 1,0.5 0.1,0.6 -0.8,1.4 -0.9,0.8 -0.2,0.9 -2.1,1.5 -0.5,2.2 -1.9,-0.1 -0.9,0.7 -0.3,0.3 1.9,2.5 -0.9,1.3 0.7,0.9 0.1,0.6 -1.2,0.7 0.2,2 0.7,1.1 -0.9,0.8 0.2,1.6 -0.4,2.5 h -0.3 l -1.1,-0.8 -1.3,-0.2 -1.1,-1.5 -0.8,0.7 -1,-0.5 -1,0.1 -0.2,0.7 0.6,0.5 -0.1,1.6 -1.7,-0.5 -1.2,0.4 -4.6,2.1 0.1,0.9 1,3.5 -0.6,1.2 1,0.6 h 0.4 l 0.4,1.2 1.3,0.2 v 0.6 l -1.1,1.1 -1,-0.6 -2.2,0.6 -0.8,1.3 1.1,2.4 -1.4,1.1 -0.3,1 1,0.3 1.6,-0.2 0.7,1.2 -1.5,0.8 -0.4,1.9 -1,0.1 0.1,1 -0.6,0.3 -0.5,1.4 -1.6,0.4 -0.7,2 -0.6,0.4 v 0.6 l -0.1,1.9 -1.9,0.5 0.4,0.9 -0.9,0.8 -0.5,1 2.3,1.3 0.3,2.6 -1.2,1.3 0.7,0.6 -0.2,1 1.9,-0.5 2,1.4 -1.8,0.8 v 0.6 l -1.5,1.1 0.5,1.9 -0.9,0.4 -1.6,0.1 0.8,1.9 -1.8,1.1 0.8,1.5 -0.2,1.3 0.7,0.6 -0.2,1.3 0.5,1.5 1.5,-0.4 1.3,0.5 4,5.3 -0.2,1.3 0.1,1 -1.1,2 0.4,0.3 0.6,-0.4 0.9,-0.1 1.5,2.4 1.6,-0.5 0.2,-0.9 1,0.2 -0.2,1.9 1.7,0.8 1.6,4 1.4,1.5 -0.2,0.6 -0.6,0.1 v 0.9 l 1,0.3 0.6,-0.7 0.7,0.2 v 1 l -0.1,2.2 3.8,-0.3 1.3,0.5 0.9,-1.1 1.7,0.8 1.7,-1.4 1.4,0.8 -0.1,-1.2 0.6,-0.4 1.1,2.1 1.9,0.1 0.2,-1.2 0.6,-0.4 1.3,0.2 2.2,-0.9 1.6,0.5 3.5,-0.6 0.2,-0.7 -0.7,-1.2 1.4,-1.4 1.3,-0.1 2.3,0.7 1.3,-0.1 1,0.6 1.9,0.1 0.7,0.9 -0.6,0.7 0.1,0.6 1.9,0.2 0.7,0.8 -1.1,1.7 v 0.4 l 1,0.5 0.6,-1 0.9,-0.1 1.2,2.4 1,0.6 0.1,1.2 1,0.6 0.1,0.9 -2.3,2.2 1.4,1.1 0.4,1.2 -0.5,1.4 0.4,0.9 2.1,-0.9 1,0.6 0.2,1.2 2.3,1.1 2.1,-1.5 0.4,1.3 2.4,1.7 -0.2,1.2 0.7,0.9 2.1,-1.4 1.3,0.5 0.9,-0.4 v -1 l 1.3,-3 1.5,-0.1 1,-0.4 1.6,0.5 1.4,-1.7 0.7,0.2 0.7,1.2 3.2,-0.6 -0.2,-1.6 0.8,-2.3 -0.1,-0.6 -1,-0.5 0.1,-2 0.6,-0.3 1.3,-0.2 0.8,-1.9 2.2,0.1 0.7,-2.3 1.6,-0.8 -0.1,-0.9 1.1,-1.4 0.2,-1.3 0.3,-0.4 h 0.6 l 0.4,0.6 -0.8,1.6 h 0.6 l 0.9,-1 0.9,-0.1 1.7,-2.7 3.1,-1 0.7,0.9 0.5,1.3 -0.3,0.9 1.7,0.8 0.4,0.6 h 0.9 l 1.8,-1.2 1.3,0.2 2.5,-0.5 1.7,0.8 1.1,1.5 v 0.6 l 0.7,0.9 2.2,-1.2 1.1,-1.7 1.2,-0.4 1,0.9 0.8,1.2 5,2.7 0.4,1.2 1.1,0.9 0.9,-0.7 0.1,0.9 0.7,1.2 2.6,0.7 3,1.3 0.7,0.9 -0.2,1.3 0.7,0.9 -0.1,1.6 -0.6,0.4 -0.5,1.3 v 1 l 0.7,0.5 1.3,-0.4 1,0.5 1.1,2.2 1.1,1.1 -0.2,1.3 2,0.8 -0.1,2.2 v 0.3 l 1.9,0.2 0.7,0.9 3.1,-1.3 h 0.3 l 0.4,0.3 1.2,0.2 1.5,-1.1 1.2,-1.4 -1,-0.5 -0.1,-0.7 1.7,0.8 1.1,-1.3 0.5,-1.4 -0.6,-0.5 1.7,-1.5 V 214 l 0.9,-0.1 0.2,-1 v -0.6 l -0.8,-1.5 -2.1,-1.7 -0.1,-1.9 0.8,-1.4 0.2,-0.9 -0.8,-2.2 1,-3.3 -0.2,-1.9 0.8,-1.3 -0.2,-1.9 1.4,-2.4 -0.4,-1.2 -1.8,-2.1 0.2,-4.1 v -0.3 l 1.9,-3.7 1.2,-3.9 0.2,-2 0.5,-1 1.5,-1.4 -0.7,-3.4 1,-3.3 0.1,-1.9 1.2,-1.4 -0.4,-4.1 1.3,-3 1.5,-1.4 2.5,-3.1 0.2,-2.2 1.5,-0.2 0.5,-1.6 1.6,-0.5 0.8,-1.3 2.7,-7.6 1.6,-0.8 -4.8,-0.8 -1.4,-0.5 -0.7,-0.9 -2.6,-0.7 -1.4,-1.1 -0.9,0.3 -0.9,0.2 -0.9,0.7 -2.4,-1.4 -1.5,1.1 -1.9,-0.4 -0.9,0.3 -1.3,-0.2 -0.8,-1.1 -2.2,-0.2 -1,-0.8 -1.5,-2.1 0.2,-1 -0.7,-0.6 -0.9,0.2 -1.4,-0.9 -1.8,0.5 v 0.6 l -0.5,1 -0.9,0.4 -1.2,1.4 -2,-0.8 -1.5,0.8 -0.7,-0.5 -0.9,0.3 -1,-0.8 h -0.6 l -0.1,-0.9 -1,0.4 0.2,1.2 -0.9,0.8 -1.2,-2.8 0.2,-1.2 h -1 l -1,-0.9 -1,0.1 -1,-0.8 -0.9,0.7 -1.6,-0.5 -0.3,0.4 0.5,1.8 -0.5,1.3 -2.3,-0.4 -1.3,0.1 -1,-1.1 0.5,-1.1 -0.4,-0.6 -0.6,0.1 -0.3,-0.3 -0.5,-1.5 -0.7,-0.6 -0.1,-0.9 -2,-1.4 -1.5,-2.4 v -0.4 h 0.6 l 0.3,-0.4 -0.8,-1.2 -1.3,-0.8 -0.1,-0.6 0.6,-0.4 -4.7,-2.7 -1.2,0.4 -1,-0.3 0.1,0.7 -1.4,-0.5 -1.3,-0.8 -0.7,-1 -1.3,-0.5 z"
   id="path173"
   style="fill:#d5d5d5;fill-opacity:1;stroke:#ffffff;stroke-opacity:1" />
			<path
   fill="#ffffff"
   d="m 370.8,68.9 -2.2,-2.6 -4.3,1.6 -2,-1 h -3.2 l -0.5,0.6 -0.2,1.4 -0.6,0.3 -1.5,-2.4 -0.5,-1.3 0.5,-1.9 -0.6,-2.8 -1.4,-1.8 -1.6,-0.5 -2.2,0.5 -0.4,-0.2 0.9,-1.4 -0.7,-0.2 -1,-0.3 -0.8,1.4 -2.5,0.8 -3,-1.9 -0.4,-0.6 v -3.2 l -1.2,-3.4 0.5,-1 -0.1,-1.2 -0.4,-0.9 -1.3,0.1 -1.2,-2.5 -1.1,-1.5 -0.9,-0.1 -0.6,0.6 -2.8,0.3 -2.5,1.1 -0.7,2.3 -0.6,0.7 -1.7,-0.8 -0.3,-0.6 -1.3,0.1 -0.7,-0.5 -0.4,-1.2 -1.8,-1.8 -0.4,-1.6 -0.7,-0.2 -2.2,-0.1 -1.1,-1.8 0.3,-3.6 -0.7,-0.2 1.4,-1.7 -0.8,-2.2 -1,-0.8 -1.1,-4.7 -3,1.5 -3.1,1 -1,-0.6 -2.5,1.2 -2.2,-0.1 -1,0.7 0.1,0.6 -1,-0.8 -1.5,1.1 -1.3,-0.2 -10.3,2.8 -2.6,1.9 -1.7,1.7 -2.2,1.2 0.5,5 -0.5,2 -0.8,1 -0.2,1.3 0.6,6.6 0.8,2.2 -0.9,0.4 -1,6.4 0.8,1.3 1.7,0.7 0.4,1.3 -0.7,-0.9 -2.2,0.2 -1,4.2 0.8,1.2 1.3,0.3 0.9,2.1 1.9,0.7 0.1,1.3 -0.6,0.4 -1.4,-0.9 -1.2,0.2 -1.1,-1.5 -1.2,0.4 -1.1,1.4 -1.6,3.9 -2.3,2.2 1,0.5 0.5,-0.7 1,0.2 0.2,1.6 1.7,1.5 2.9,3.5 2.7,1.7 1.4,1.7 0.7,4.1 1.6,3.1 -1.3,0.1 -0.2,1 -0.9,0.3 -0.3,1.3 -0.5,0.7 0.4,0.7 1.1,-0.8 0.4,0.3 -1.4,2.6 0.5,1.3 -0.8,1.3 0.7,0.6 0.1,2.2 0.8,0.6 -1.2,1.7 1,0.5 0.9,-1 0.7,0.9 -0.5,1.3 -1.7,1.7 -0.5,1.7 0.7,0.6 -0.3,0.3 1.1,1.5 0.4,1.5 v 2.6 l 0.6,0.2 0.4,1 -0.5,1 h -0.7 l -0.4,-0.9 -1.5,0.1 -0.6,1.1 0.1,0.9 1.2,0.2 -0.7,1.3 1.4,1.5 1.5,-0.5 1.7,0.8 1.3,-0.1 0.3,0.6 3.1,-0.9 0.9,0.3 2.8,-1.9 0.7,0.9 2,0.8 0.4,0.6 2.1,-0.3 0.4,0.4 -0.5,1 2.1,-0.5 1.2,-1.5 1.5,2.1 0.6,-0.3 2.2,0.4 0.1,0.6 h 0.6 l 1.7,0.8 -0.2,0.9 h 0.3 l 1,0.2 0.2,-0.9 0.6,-0.1 0.1,1.3 1.1,1.1 1.8,-1.4 1.3,0.8 0.7,1 0.1,0.2 0.9,-0.7 0.7,0.9 1.5,-0.4 -0.1,-1 0.9,-0.4 2.1,1.4 1.5,-0.8 1,0.6 1.2,-0.8 0.7,0.9 0.9,-1 1.6,0.1 0.5,-1.6 3.3,1 -0.3,0.9 1.2,2.2 -0.8,1.6 1.3,0.2 1.8,2.1 0.8,1.8 1.2,-0.4 0.8,2.1 1.5,-0.7 0.6,2.4 2.3,1.1 0.1,1 1.2,-0.8 v -0.6 l 0.6,-0.4 0.7,-2 1.6,-0.4 0.5,-1.4 0.6,-0.3 -0.1,-1 1,-0.1 0.4,-1.9 1.5,-0.8 -0.7,-1.2 -1.6,0.2 -1,-0.3 0.3,-1 1.4,-1.1 -1.1,-2.4 0.8,-1.3 2.2,-0.6 1,0.6 1.1,-1.1 v -0.6 l -1.3,-0.2 -0.4,-1.2 h -0.4 l -1,-0.6 0.6,-1.2 -1,-3.5 -0.1,-0.9 4.6,-2.1 1.2,-0.4 1.7,0.5 0.1,-1.6 -0.6,-0.5 0.2,-0.7 1,-0.1 1,0.5 0.8,-0.7 1.1,1.5 1.3,0.2 1.1,0.8 h 0.3 l 0.4,-2.5 -0.2,-1.6 0.9,-0.8 -0.7,-1.1 -0.2,-2 1.2,-0.7 -0.1,-0.6 -0.7,-0.9 0.9,-1.3 -1.9,-2.5 0.3,-0.3 0.9,-0.7 1.9,0.1 0.5,-2.2 2.1,-1.5 0.2,-0.9 0.9,-0.8 0.8,-1.4 -0.1,-0.6 -1,-0.5 0.3,-1 -0.1,-0.6 0.2,-1.3 1.1,-2.3 -0.2,-1.6 -1,-0.9 0.4,-2.3 -1.3,0.2 v -0.7 l -0.7,-0.2 v -0.3 h -1 l -0.3,-0.2 0.6,-0.7 -0.8,-1.2 0.5,-1.4 2.7,-1.7 -0.7,-1.6 -0.5,-1.9 h -2.3 l 0.9,-1.4 -0.3,-2.9 2.3,-2.4 -0.4,-0.9 -1.3,-0.6 -0.6,0.4 0.4,0.9 -0.6,0.1 -0.8,-0.9 -0.1,-1.3 z"
   id="path175"
   style="fill:#d5d5d5;fill-opacity:1;stroke:#ffffff;stroke-opacity:1" />
			<path
   fill="#ffffff"
   d="m 389.9,196 -0.2,0.7 -3.5,0.6 -1.6,-0.5 -2.2,0.9 -1.3,-0.2 -0.6,0.4 -0.2,1.2 -1.9,-0.1 -1.1,-2.1 -0.6,0.4 0.1,1.2 -1.4,-0.8 -1.7,1.4 -1.7,-0.8 -0.9,1.1 -1.3,-0.5 -3.8,0.3 0.1,-2.2 v -1 l -0.7,-0.2 -0.6,0.7 -1,-0.3 v -0.9 l 0.6,-0.1 0.2,-0.6 -1.4,-1.5 -1.6,-4 -1.7,-0.8 0.2,-1.9 -1,-0.2 -0.2,0.9 -1.6,0.5 -1.5,-2.4 -0.9,0.1 -0.6,0.4 -0.4,-0.3 1.1,-2 -0.1,-1 0.2,-1.3 -4,-5.3 -1.3,-0.5 -1.5,0.4 -0.5,-1.5 -1.3,-0.5 -0.5,1.3 -1,0.1 -2.2,-0.1 -0.9,0.4 -1.6,0.1 -1.3,-0.5 -1.6,0.4 -0.9,0.8 -1.9,-0.2 -1,2.7 0.1,1.5 0.7,0.6 0.1,1 -0.9,0.4 -0.8,1.9 -0.9,0.1 -1.2,1.1 -0.3,0.3 0.1,1 3,1.6 -0.2,1 0.6,0.3 0.9,2.1 2.4,2.3 -0.6,0.7 0.4,0.6 0.5,1.6 -0.8,1.6 -3.6,2.9 -0.1,1.6 0.7,0.9 -0.6,1 0.4,0.9 0.2,1.3 -1.3,0.4 -1.8,1.1 h -2.5 l -0.6,0.3 -0.1,2.3 0.9,-0.1 0.4,0.9 1,0.9 0.2,1.2 1,0.9 -0.5,1 0.1,1.6 1.4,1.7 -0.9,0.4 -1.3,-0.2 -2.4,0.9 v 0.6 l 0.7,0.9 2.1,4.6 -2.1,5 0.1,0.9 3.8,3.5 0.2,2.2 1.8,5.6 -0.4,2.9 1.7,1.4 0.4,0.9 -0.4,2.6 0.5,1.5 -1.1,2.4 0.5,1.5 0.2,1.6 -1.4,3 0.5,1.5 0.7,0.9 2.4,1.4 1.4,1.8 1,0.5 1,-0.1 2.4,-1.5 h 0.6 l 0.7,1.2 1,0.2 1,-0.1 0.8,-1.4 1.6,0.2 0.1,1 0.7,0.2 -0.2,1.3 0.6,0.6 0.7,-0.1 1.4,-1.7 1.3,0.2 -0.2,-1.9 1,0.2 0.9,-0.7 -0.8,-1.2 0.3,-0.3 1.7,0.4 -0.3,0.4 0.8,1.5 2.9,4.8 -0.2,0.7 0.7,0.6 0.4,1.5 -0.2,1 0.4,0.6 1.7,1.1 1.6,-0.1 1.7,2 2.6,-0.2 2,1.7 0.1,0.9 -0.7,2.7 0.4,3.7 -1.3,0.5 -0.8,1 -1.3,0.4 0.2,2.3 -0.4,1.9 1,0.5 1.9,0.2 0.8,1.8 1.6,-0.1 2.7,-1.6 1.4,1.2 1.3,0.2 0.5,-1 0.7,-0.1 0.7,0.6 1.2,-0.1 v 0.3 l -0.2,1 1,0.2 2.1,-1.5 1.2,-0.1 v -0.9 l 0.8,-1.1 0.2,-1.6 0.7,-2.6 1.9,0.2 1.7,1.4 1.3,-0.4 0.8,-1.1 0.8,1.2 1.3,0.2 0.7,-2 1.9,-0.1 0.8,1.5 -0.9,0.4 0.1,0.6 2,1.4 -0.6,0.4 0.4,0.6 -0.3,1 0.1,0.6 1,0.5 1.3,-0.1 2.4,-8.2 0.1,-1.9 1.1,-2.3 0.1,-2.2 1.5,-4 0.7,0.6 0.9,-0.7 1,0.2 1,0.8 1.3,0.6 1.3,-0.8 0.6,0.3 0.9,-0.8 h 0.9 l 0.3,-0.4 1,0.6 0.8,1.5 0.7,0.9 1.4,0.5 1.6,0.1 0.3,0.6 -0.2,1.3 2.1,1.4 0.4,1.6 1.2,1.8 0.5,-1 0.7,0.9 1,0.2 -0.1,1.9 1,0.9 1.9,-0.5 2,-1.5 0.9,-1.3 0.9,-0.7 0.7,0.5 2,1.1 0.8,2.2 5.4,-0.5 1.5,-1.1 5.3,-7.2 0.9,-1.4 -0.2,-1.5 2.5,-3.8 -0.4,-1.2 -1,-0.9 0.2,-0.6 5.8,-6 2.4,-1.5 3.6,-3.2 0.2,-0.9 -0.8,-1.2 0.8,-2.3 0.1,-2 -1.1,-2.1 2,-2.4 h 0.6 l 4.6,-1.7 0.8,-1.7 2.1,-1.2 -0.7,-0.9 0.6,-1 0.9,-0.7 0.2,-1 2.1,-1.1 2,-2.1 -0.3,-0.3 3.5,-3.8 -0.3,-2.5 1.9,-0.8 0.5,-1.4 0.9,-0.4 0.6,-0.7 -0.4,-0.9 -1.1,-0.5 -4.9,1.1 0.2,-1.3 0.5,-0.7 0.3,-0.7 0.9,-0.4 -0.1,-1.2 2.1,-1.5 -0.5,-2.2 1.2,-0.4 2.3,0.7 1.8,-1.1 0.2,-1.3 -1.1,-1.1 -1.1,-2.2 -1,-0.5 -1.3,0.4 -0.7,-0.5 v -1 l 0.5,-1.3 0.6,-0.4 0.1,-1.6 -0.7,-0.9 0.2,-1.3 -0.7,-0.9 -3,-1.3 -2.6,-0.7 -0.7,-1.2 -0.1,-0.9 -0.9,0.7 -1.1,-0.9 -0.4,-1.2 -5,-2.7 -0.8,-1.2 -1,-0.9 -1.2,0.4 -1.1,1.7 -2.2,1.2 -0.7,-0.9 v -0.6 l -1.1,-1.5 -1.7,-0.8 -2.5,0.5 -1.3,-0.2 -1.8,1.2 h -0.9 l -0.4,-0.6 -1.7,-0.8 0.3,-0.9 -0.5,-1.3 -0.7,-0.9 -3.1,1 -1.7,2.7 -0.9,0.1 -0.9,1 h -0.6 l 0.8,-1.6 -0.4,-0.6 h -0.6 l -0.3,0.4 -0.2,1.3 -1.1,1.4 0.1,0.9 -1.6,0.8 -0.7,2.3 -2.2,-0.1 -0.8,1.9 -1.3,0.2 -0.6,0.3 -0.1,2 1,0.5 0.1,0.6 -0.8,2.3 0.2,1.6 -3.2,0.6 -0.7,-1.2 -0.7,-0.2 -1.4,1.7 -1.6,-0.5 -1,0.4 -1.5,0.1 -1.3,3 v 1 l -0.9,0.4 -1.3,-0.5 -2.1,1.4 -0.7,-0.9 0.2,-1.2 -2.4,-1.7 -0.4,-1.3 -2.1,1.5 -2.3,-1.1 -0.2,-1.2 -1,-0.6 -2.1,0.9 -0.4,-0.9 0.5,-1.4 -0.4,-1.2 -1.4,-1.1 2.3,-2.2 -0.1,-0.9 -1,-0.6 -0.1,-1.2 -1,-0.6 -1.2,-2.4 -0.9,0.1 -0.6,1 -1,-0.5 v -0.4 l 1.1,-1.7 -0.7,-0.8 -1.9,-0.2 -0.1,-0.6 0.6,-0.7 -0.7,-0.9 -1.9,-0.1 -1,-0.6 -1.3,0.1 -2.3,-0.7 -1.3,0.1 -1.4,1.4 z"
   id="path177"
   style="fill:#d5d5d5;fill-opacity:1;stroke:#ffffff;stroke-opacity:1" />
			<path
   fill="#ffffff"
   d="m 476.7,280.9 0.7,-2.9 -5.5,-1.1 -6,0.2 -3.3,2.2 -3.4,1 -3,2.5 -0.5,1 v 0.3 l -0.3,0.4 -0.5,1 1,0.5 -0.2,1.3 1,1.2 1.6,0.1 -0.2,1.3 -2.7,1.6 -1.2,1 -0.5,1.3 -1.5,1.1 -2.9,-0.3 -0.8,0.7 -1.6,-0.2 -1.6,0.5 1,-2.7 -0.7,-0.9 0.2,-0.9 2.2,-1.2 2.1,-0.5 0.7,0.3 0.6,-0.7 -0.8,-1.9 0.7,-1.9 1.4,-2.1 v -0.6 l -2.7,-2 -1.4,-0.5 -5.3,7.2 -1.5,1.1 -5.4,0.5 -0.8,-2.2 -2,-1.1 -0.7,-0.5 -0.9,0.7 -0.9,1.3 -2,1.5 -1.9,0.5 -1,-0.9 0.1,-1.9 -1,-0.2 -0.7,-0.9 -0.5,1 -1.2,-1.8 -0.4,-1.6 -2.1,-1.4 0.2,-1.3 -0.3,-0.6 -1.6,-0.1 -1.4,-0.5 -0.7,-0.9 -0.8,-1.5 -1,-0.6 -0.3,0.4 h -0.9 l -0.9,0.8 -0.6,-0.3 -1.3,0.8 -1.3,-0.6 -1,-0.8 -1,-0.2 -0.9,0.7 -0.7,-0.6 -1.5,4 -0.1,2.2 -1.1,2.3 -0.1,1.9 -2.4,8.2 -1.3,0.1 -1,-0.5 -0.1,-0.6 0.3,-1 -0.4,-0.6 0.6,-0.4 -2,-1.4 -0.1,-0.6 0.9,-0.4 -0.8,-1.5 -1.9,0.1 -0.7,2 -1.3,-0.2 -0.8,-1.2 -0.8,1.1 -1.3,0.4 -1.7,-1.4 -1.9,-0.2 -0.7,2.6 -0.2,1.6 -0.8,1.1 v 0.9 l -1.2,0.1 -2.1,1.5 -1,-0.2 0.2,-1 v -0.3 l -1.2,0.1 -0.7,-0.6 -0.7,0.1 -0.5,1 -1.3,-0.2 -1.4,-1.2 -2.7,1.6 -1.6,0.1 -0.8,-1.8 -1.9,-0.2 -1,-0.5 0.4,-1.9 -0.2,-2.3 1.3,-0.4 0.8,-1 1.3,-0.5 -0.4,-3.7 0.7,-2.7 -0.1,-0.9 -2,-1.7 -2.6,0.2 -1.7,-2 -1.6,0.1 -1.7,-1.1 -0.4,-0.6 0.2,-1 -0.4,-1.5 -0.7,-0.6 0.2,-0.7 -2.9,-4.8 -0.8,-1.5 0.3,-0.4 -1.7,-0.4 -0.3,0.3 0.8,1.2 -0.9,0.7 -1,-0.2 0.2,1.9 -1.3,-0.2 -1.4,1.7 -0.7,0.1 -0.6,-0.6 0.2,-1.3 -0.7,-0.2 -0.1,-1 -1.6,-0.2 -0.8,1.4 -1,0.1 -1,-0.2 -0.7,-1.2 h -0.6 l -2.4,1.5 -1,0.1 -1,-0.5 -1.4,-1.8 -2.4,-1.4 -0.7,-0.9 -0.5,-1.5 -2.2,-0.5 -0.6,0.7 -1.3,0.1 -2.6,2.5 -0.2,1 -1.7,-0.5 -1.5,0.8 -1,-1.2 -1,0.1 -0.2,1 -0.3,0.3 -0.9,0.7 -1.8,0.8 0.4,1 -0.3,0.6 -1,-0.5 -1.2,0.7 1,0.9 -0.7,2 1,0.8 0.2,1.9 -2.4,1.5 -0.7,-0.2 -0.9,0.4 -0.4,-0.6 -1.5,0.4 -3.8,0.7 -0.8,1 -0.3,1 -0.6,0.1 -0.5,1 -0.5,1.9 0.2,1.9 1.6,0.8 -0.8,1 0.4,1.3 1.7,0.8 0.9,-0.7 1,1.1 0.1,1 1.3,-0.1 1,0.5 0.5,1.6 0.7,0.8 0.6,2.9 1.3,0.8 0.2,1.6 -0.5,1.6 0.1,1.6 0.5,1.8 1.4,1.2 -0.5,1.9 0.5,1.3 -1.2,0.7 -0.9,1.4 -0.2,1.3 -1.4,1.4 -0.6,1 -1.6,-0.2 h -0.3 l 0.1,1 -0.6,0.7 -1.2,0.1 -0.3,0.3 1.4,2.1 0.5,1.6 0.3,-0.1 1.4,0.9 1.4,2.1 0.2,1.2 -0.6,1 0.4,0.6 -0.2,1 -1.3,0.1 -0.7,2.3 1.1,1.8 0.7,0.9 -1,6.8 1.4,1.1 0.1,0.7 -1.9,0.8 -3.7,-2.2 h -0.9 l 0.4,1.3 -0.6,3.2 -1.6,0.5 -0.8,1.6 -0.9,0.1 -1.1,2 -1.8,1.8 -0.2,0.7 0.4,1.2 1.1,1.2 -0.7,0.3 -0.5,1 -0.6,0.1 0.1,1 -0.5,1.9 -1.3,-0.2 -1.7,1.8 0.8,1.8 0.7,0.9 0.1,1 -2.8,0.5 0.4,1.2 0.1,1 1.1,1.2 -0.9,0.7 v 0.9 l 3,4.2 0.2,1.6 -0.7,0.7 -0.1,1.9 -0.4,1.6 0.6,0.3 0.7,0.9 -0.1,2.3 1.4,1.4 0.3,-0.4 -0.1,-0.9 0.2,-0.6 2.5,-0.9 2,-0.2 0.4,1.2 0.6,0.3 1,-0.4 1.9,0.5 0.9,-0.5 h 1.3 l 0.5,-2 2.3,-1.9 -0.1,-1.9 0.5,-1.2 1.2,-0.8 0.4,-2.6 0.8,-1.4 0.9,-0.4 0.8,-1.3 0.6,-0.4 h 0.7 l 1.1,-1.7 1.4,1.1 -0.1,3.2 1.6,-0.7 1.9,0.1 0.1,0.9 0.9,3.1 0.7,0.6 0.9,-0.4 0.4,0.9 -0.2,0.6 -0.7,0.2 0.7,0.8 -0.2,1 0.5,1.8 0.8,1.9 1,0.8 1.3,-3.6 0.9,-0.4 -0.4,-0.9 0.5,-1.3 0.5,-2.3 0.8,-1.7 0.9,-0.1 0.4,-2.9 1.2,-0.7 1.1,1.5 1,0.6 1.5,-1.2 -0.2,-1.2 0.6,-0.7 0.2,-0.9 1.4,0.5 2.7,-1.5 0.2,-1 0.3,-0.1 0.4,0.9 1.4,0.5 0.2,2.6 1.6,3.9 0.7,0.9 1.6,-0.7 2.1,-0.5 0.7,0.2 0.4,-2.6 1.3,-0.1 0.6,0.2 0.8,1.3 -0.2,1.2 3.1,-0.2 0.8,1.5 1.4,1.1 0.4,0.9 1.2,-0.4 -0.2,1.3 1.7,0.8 -0.5,1.3 0.7,0.9 -0.2,1 0.8,1.8 0.1,1.6 0.9,2.2 1.3,0.8 1.2,2.7 0.2,1.9 0.4,0.9 1.7,0.8 0.1,1.3 1,0.8 -0.9,0.8 0.5,1.5 -0.2,1.3 -0.3,0.7 0.4,0.2 3.1,-0.6 0.7,0.9 1.3,0.2 0.4,0.6 2.7,2 0.9,-1 0.5,-1.7 0.9,-0.4 0.5,-1 2.5,-0.2 0.1,0.6 -0.1,1.9 1.6,0.5 0.6,-0.4 0.1,-2.5 1.9,-0.2 1.7,1.1 0.7,0.9 2.3,1.4 0.6,-0.4 0.4,0.9 v -3.5 l 1.4,0.5 2.8,-0.2 1,0.5 1,0.9 0.2,1.6 0.5,1.8 0.3,0.3 2.1,-1.8 1.9,-0.1 4.8,-2.4 1.1,1.2 1,-0.1 2.4,-1.5 0.1,0.9 -0.9,1.1 0.7,0.9 -0.2,1.2 v 0.4 l 2,0.7 1,-0.1 0.5,-1 2.3,1.1 2.3,0.1 1,0.5 0.2,2.3 1.9,0.4 0.8,1.5 1.6,0.2 3,-2.2 -0.4,-0.9 0.9,-1 0.6,-0.1 1.3,0.8 0.2,1.3 1.6,0.2 -0.1,-1 -1.3,-0.5 0.2,-0.7 0.9,-0.4 0.3,-0.3 -0.3,-3.5 -1.7,-0.8 -0.1,-0.9 -0.7,-0.9 0.2,-1 h -2.8 l -1.3,-0.6 -1.3,0.2 -2.1,-1.8 0.3,-0.9 -0.8,-1.5 0.6,-0.4 1.3,0.2 0.6,-0.4 -1.1,-1.5 0.1,-2.2 5.2,1.4 0.6,-0.3 0.6,-1 0.8,-0.8 -2.1,-2 1.6,-3.7 -0.2,-1.9 3.2,0.1 1.2,-0.7 1.3,-0.2 1.4,-1.7 -0.4,-0.6 -0.6,-0.3 1,-3 2.3,0.5 2.4,-0.9 1.2,-1.1 -1.1,-1.1 1.8,-1.1 0.6,-0.7 1.7,0.8 2.6,-2.5 4.5,0.2 1.8,-1.1 1.4,1.1 0.9,-0.1 -0.1,-4.7 -1,-0.5 -0.6,-2.5 -0.6,-0.3 -1.9,0.5 -1.7,-1.1 0.4,-2.6 0.6,-0.4 -0.2,-1.9 0.9,-1.3 1.3,0.8 1.9,-0.5 1,1.2 0.2,1.6 3.2,0.6 1.3,-0.4 -0.2,-1.6 0.9,-1 1.6,0.4 1.2,-1.3 1.2,0.2 0.7,0.2 1.5,-0.8 0.6,-0.6 2.5,-0.2 0.9,-1.1 3.3,1.3 1.2,-0.5 0.2,-1.6 1.8,-0.5 1.1,-2 2.8,-0.9 1,0.6 2.1,-2.1 0.1,-1.6 -0.8,-2.5 1.7,-2.1 0.7,-2.6 -2.7,-1.3 -0.7,-1.2 0.2,-0.7 -1.9,-0.1 -0.1,-1 -2,-0.7 -0.4,-1.6 -0.2,-2.2 -0.8,-0.9 0.8,-2.6 -1.4,-0.5 -1.5,0.1 -1.1,-1.4 -2,-0.5 -1.5,-2.1 -0.5,-2.8 0.2,-1.3 -0.1,-0.9 0.6,-0.7 0.9,-0.4 0.7,0.5 0.5,-1 1.3,0.2 0.9,-0.4 2.1,-1.4 0.8,-2 0.9,-0.7 -0.5,-1.9 -0.7,-0.6 0.2,-1 -1.4,-1.1 -2.2,-3 -1.4,1.1 -0.7,-0.2 -0.1,-0.7 0.6,-1 -0.4,-0.9 0.5,-1.6 H 478 l -0.7,-0.9 -0.1,-1 0.5,-1 -0.1,-1.6 1.6,-2.7 0.3,-0.9 -0.1,-0.7 -3.1,-2.5 -0.4,-1 z m -65.6,109.2 1.1,0.8 v 1 l 0.7,-0.1 0.7,0.6 0.9,-0.1 v 0.3 l -0.5,0.7 -1.3,0.1 -0.2,1 -0.3,0.7 0.1,0.3 -0.7,0.4 -0.2,0.3 0.1,1.3 -0.4,-0.3 -0.9,-0.3 -1.4,-0.5 -1.2,0.5 -0.1,-0.7 -0.3,-0.6 0.5,-0.7 -1,-0.5 0.9,-1 0.6,-0.4 -0.1,-1.3 0.2,-0.6 1.6,-0.8 v 0.4 l 0.6,-0.8 0.3,0.3 z"
   id="path179"
   style="fill:#d5d5d5;fill-opacity:1;stroke:#ffffff;stroke-opacity:1" />
			<path
   fill="#ffffff"
   d="m 412.2,390.9 -1.1,-0.8 h -0.3 l -0.3,-0.3 -0.6,0.8 v -0.4 l -1.6,0.8 -0.2,0.6 0.1,1.3 -0.6,0.4 -0.9,1 1,0.5 -0.5,0.7 0.3,0.6 0.1,0.7 1.2,-0.5 1.4,0.5 0.9,0.3 0.4,0.3 -0.1,-1.3 0.2,-0.3 0.7,-0.4 -0.1,-0.3 0.3,-0.7 0.2,-1 1.3,-0.1 0.5,-0.7 v -0.3 l -0.9,0.1 -0.7,-0.6 -0.7,0.1 z"
   id="path181"
   style="fill:#d5d5d5;fill-opacity:1;stroke:#ffffff;stroke-opacity:1" />
			<path
   fill="#ffffff"
   d="m 365.8,371.7 -1.2,0.4 -0.4,-0.9 -1.4,-1.1 -0.8,-1.5 -3.1,0.2 0.2,-1.2 -0.8,-1.3 -0.6,-0.2 -1.3,0.1 -0.4,2.6 -0.7,-0.2 -2.1,0.5 -1.6,0.7 -0.7,-0.9 -1.6,-3.9 -0.2,-2.6 -1.4,-0.5 -0.4,-0.9 -0.3,0.1 -0.2,1 -2.7,1.5 -1.4,-0.5 -0.2,0.9 -0.6,0.7 0.2,1.2 -1.5,1.2 -1,-0.6 -1.1,-1.5 -1.2,0.7 -0.4,2.9 -0.9,0.1 -0.8,1.7 -0.5,2.3 -0.5,1.3 0.4,0.9 -0.9,0.4 -1.3,3.6 -1,-0.8 -0.8,-1.9 -0.5,-1.8 0.2,-1 -0.7,-0.8 0.7,-0.2 0.2,-0.6 -0.4,-0.9 -0.9,0.4 -0.7,-0.6 -0.9,-3.1 -0.1,-0.9 -1.9,-0.1 -1.6,0.7 0.1,-3.2 -1.4,-1.1 -1.1,1.7 h -0.7 l -0.6,0.4 -0.8,1.3 -0.9,0.4 -0.8,1.4 -0.4,2.6 -1.2,0.8 -0.5,1.2 0.1,1.9 -2.3,1.9 -0.5,2 h -1.3 l -0.9,0.5 -1.9,-0.5 -1,0.4 -0.6,-0.3 -0.4,-1.2 -2,0.2 -2.5,0.9 -0.2,0.6 0.1,0.9 -0.3,0.4 -1.4,-1.4 0.1,-2.3 -0.7,-0.9 -0.6,-0.3 0.4,-1.6 0.1,-1.9 0.7,-0.7 -0.2,-1.6 -3,-4.2 v -0.9 l 0.9,-0.7 -1.1,-1.2 -0.1,-1 -0.4,-1.2 -1,-0.2 -1.9,0.2 -1.8,1.1 -0.4,-0.9 -1,-0.2 -0.8,1 -2.2,0.8 -0.5,0.7 -1.3,-0.2 -0.4,0.3 -1,-0.8 v -0.7 l -1.4,-1.1 -1.1,-1.5 -1.7,-1.7 -2.3,-0.5 -1.2,0.5 -0.8,-0.9 -2.4,1.5 -0.6,-0.3 -1.5,1.1 0.2,2.3 0.8,2.1 -1.2,0.7 1.1,1.2 0.1,0.6 -1,0.1 -0.5,1.3 -1.6,0.5 -0.1,1.6 -2.5,0.9 0.1,1 0.7,0.8 -1.1,2.3 -1,-0.1 -2,1.7 -2.8,0.9 0.2,1.9 -2,2.1 -0.2,1.3 -0.7,-0.3 -2.4,1.9 -0.6,-0.3 h -0.6 l 1.1,2.1 -0.2,1.3 0.4,0.6 0.1,1.6 1.1,1.2 -0.2,1.6 0.4,0.9 -0.6,0.7 -1.9,-0.1 -2.2,0.2 -0.7,-1.2 h -1 l -0.2,0.7 0.1,1.3 -1.1,1.7 1,0.8 1,-0.1 1.1,1.5 -0.7,0.4 -0.4,2.3 -0.8,1.6 -1.8,0.5 v 0.7 l 1,0.2 0.1,1.6 -0.8,0.7 -2.7,-1 -0.2,1.2 -1.5,0.8 -0.8,1.7 v 0.3 l 0.4,0.3 H 244 l -1.3,0.4 -1.8,1.2 -2.1,-1.7 -0.7,-0.9 -1.8,1.1 -0.9,0.1 -2.3,-0.1 -1.4,1.4 -1.9,0.8 -2.5,0.2 -0.6,0.7 -2.2,-0.7 -1.1,-0.9 -1.2,0.4 -1.4,1.8 h -0.4 l -0.4,-0.9 -2.5,0.5 -0.5,1.3 0.5,2.2 -0.8,1.1 -1,-0.3 -1.7,-1.4 0.8,-1.4 -1.4,-1.7 -1.7,2 -1,0.1 0.1,0.7 -1,-0.6 -2.2,0.2 -1.2,1.1 -0.9,0.4 -0.3,0.6 1.7,0.8 v 0.7 l -0.5,0.7 0.4,1.2 -0.2,1.3 -1.3,0.1 0.6,2.5 -0.3,0.7 0.7,0.2 v 0.3 l -2.1,1.5 0.4,0.9 -0.5,0.7 0.3,0.6 0.1,0.6 -1.2,1.1 -0.6,0.1 0.4,0.9 1,0.5 -0.3,0.7 0.4,0.9 2.5,-0.5 0.7,0.5 2.6,0.1 0.2,1.9 1.7,1.1 0.2,2.2 0.7,1.2 -1.5,0.8 -0.2,1 0.4,1.2 h 0.3 l 0.5,-1 1.3,-0.1 0.1,0.9 -0.1,2.6 0.8,1.5 -0.6,0.7 -1.2,0.4 -0.9,1 0.1,0.7 0.7,0.9 0.1,0.9 -1.4,2 -1,0.1 0.3,2.2 -1.3,0.5 -0.6,-0.3 -1.4,2.4 -1.8,0.8 -0.4,3.5 -0.8,0.7 -1.6,-0.1 -0.2,1.2 -1,0.4 v 3.5 l -1.7,1.5 0.5,2.5 -0.2,1 4.1,2.8 1.9,0.7 1.9,3 2.8,2.3 1,0.6 2.5,-0.6 5.5,-1.8 3,1.3 0.8,1.2 0.7,0.9 0.9,-0.4 1.4,-1.7 1,0.2 2.4,1.4 1.8,-0.5 1.4,0.5 0.2,-0.3 0.6,-0.4 2,0.5 0.6,-0.4 2.6,0.7 0.4,0.3 h 0.3 l -0.1,-0.7 0.3,-0.3 -0.4,-0.6 0.3,-0.4 -0.3,-0.2 -0.4,-1 -0.7,-0.5 0.8,-1.1 -0.7,-0.5 0.9,-1.1 -0.2,-1.9 0.9,-0.7 1.2,-0.4 2.4,1.4 3.2,0.6 2.8,2 1.5,-0.5 1,0.9 3.9,0.3 1.1,1.1 0.6,0.6 0.5,1.2 1.4,1.2 2.1,-0.9 1.3,0.6 3.8,-0.1 0.1,1 1.1,0.8 0.4,0.9 0.7,0.9 0.5,1.6 0.6,1.2 1.3,-0.4 -0.1,-1.3 0.6,-0.7 1.2,0.2 1.6,-0.5 2.1,1.4 5.1,0.8 0.1,1.3 2.1,1.1 -0.6,0.4 h -0.7 l -0.8,1 0.1,1 -0.6,0.7 v 0.6 l 0.4,0.6 3.9,0.6 2.4,2 1.9,-0.2 0.8,1.9 0.5,2.1 2.1,1.5 2.5,-0.6 2.8,-3.1 2.3,0.1 2.1,-0.9 1.9,0.5 2.4,1.4 2.7,0.7 2.1,2.6 2,0.5 0.6,-0.1 0.8,-1 4.2,0.6 0.3,-0.3 -0.8,-1.9 0.9,-1 0.6,-0.4 2.1,-0.8 1,0.5 1,-0.1 2,-2.1 1.2,-0.4 2,0.2 0.8,-1.1 1.1,0.8 2.8,-0.2 2.1,2.3 1.3,-0.4 2.2,0.1 -0.8,-2.1 -1,-0.6 0.1,-1.9 -2,-0.5 -1.4,-1.4 -0.5,-5.4 v -10.2 l 0.6,-4.2 -0.7,-1.2 0.2,-1.3 0.9,-3.5 3.3,-6.1 3.7,-4.1 3,-2.5 3.3,-1.6 4.5,0.5 5.2,-5.6 2.8,-1.2 0.5,-1 2.5,-1.2 2.6,-2.8 2.1,-1.4 3.9,-2 3.5,-0.3 1.3,0.5 0.4,0.9 -0.3,0.4 h -0.3 l -0.3,0.7 h -0.3 l 0.8,1.2 0.7,0.6 0.6,0.2 2.6,0.7 0.8,-2.3 2.7,-1.5 -0.1,-0.9 1,0.5 2.7,-1.5 0.6,-1 1.5,-0.5 0.2,-1.3 -0.9,0.1 -0.7,-0.6 0.8,-1.9 1.2,-0.8 0.2,-1.3 2.1,-0.5 2.3,0.7 1.3,-0.1 -0.5,-1.8 1.3,-3.3 0.2,-1.3 -0.4,-1.3 0.5,-1 -0.7,-0.9 2.1,-1.1 1.7,-2.1 2.7,-2.1 0.2,-1.3 0.9,-0.1 0.3,-1 -2.9,-3.2 -0.7,-1.2 -1.6,0.1 -0.4,-1.2 0.2,-4.2 -0.5,-1.5 -1.2,-0.2 -0.1,-1 -1.2,-1.8 -0.4,-0.9 -0.6,0.4 -2.3,-1.4 -0.7,-0.9 -1.7,-1.1 -1.9,0.2 -0.1,2.5 -0.6,0.4 -1.6,-0.5 0.1,-1.9 -0.1,-0.6 -2.5,0.2 -0.5,1 -0.9,0.4 -0.5,1.7 -0.9,1 -2.7,-2 -0.4,-0.6 -1.3,-0.2 -0.7,-0.9 -3.1,0.6 -0.4,-0.2 0.3,-0.7 0.2,-1.3 -0.5,-1.5 0.9,-0.8 -1,-0.8 -0.1,-1.3 -1.7,-0.8 -0.4,-0.9 -0.2,-1.9 -1.2,-2.7 -1.3,-0.8 -0.9,-2.2 -0.1,-1.6 -0.8,-1.8 0.2,-1 -0.7,-0.9 0.5,-1.3 -1.7,-0.8 z m -72.2,126.7 -0.3,0.3 -1,-0.2 -0.6,-0.3 -0.4,-0.3 0.2,-0.9 0.6,-0.4 0.3,-0.7 0.7,0.6 -0.6,0.7 0.4,0.6 z"
   id="path183"
   style="fill:#d5d5d5;fill-opacity:1;stroke:#ffffff;stroke-opacity:1" />
			<path
   fill="#ffffff"
   d="m 399.3,395.9 -1.4,-0.5 v 3.5 l 1.2,1.8 0.1,1 1.2,0.2 0.5,1.5 -0.2,4.2 0.4,1.2 1.6,-0.1 0.7,1.2 2.9,3.2 -0.3,1 -0.9,0.1 -0.2,1.3 -2.7,2.1 -1.7,2.1 -2.1,1.1 0.7,0.9 -0.5,1 0.4,1.3 -0.2,1.3 -1.3,3.3 0.5,1.8 -1.3,0.1 -2.3,-0.7 -2.1,0.5 -0.2,1.3 -1.2,0.8 -0.8,1.9 0.7,0.6 0.9,-0.1 -0.2,1.3 -1.5,0.5 -0.6,1 -2.7,1.5 -1,-0.5 0.1,0.9 -2.7,1.5 -0.8,2.3 7.1,0.7 2.2,-0.6 3.5,0.3 1.4,0.9 0.4,0.9 v 0.6 l -1.1,1.4 1.4,1.1 2.5,0.4 4.5,-0.1 2.6,1.1 1.8,-1.5 -1.1,-1.1 -0.3,-0.6 0.2,-1.3 0.6,-0.4 -0.1,-0.6 1.3,0.5 1.2,-0.8 1.3,0.5 0.4,0.3 0.4,0.6 0.6,0.3 -0.2,0.7 2.2,3.2 7.3,-0.3 3.3,-1.6 1.4,1.1 0.7,1.3 -0.1,1.6 0.8,1.8 -0.8,1.3 v 0.7 l 4.5,0.2 1.6,0.5 1.2,-0.8 1.5,1.8 1.3,0.8 1.2,-1.3 1.6,0.1 1.1,1.8 2.6,0.7 1.7,1.2 0.2,2.2 1.4,0.8 1.2,-0.4 1.1,-1.4 -0.1,-1.3 0.6,-0.4 3.6,0.7 1.4,1.1 h 3.1 l 0.5,1.3 -0.3,0.9 1.3,0.2 0.4,-2.9 1.5,-1.4 2.8,-0.5 3.3,1.2 0.7,-1.9 0.9,-0.8 4.4,-1 2.4,-1.8 2.6,0.7 1.4,-1.7 -0.2,-1.9 0.8,-1.7 -0.6,-0.2 -2.8,0.5 -0.4,-0.6 4.7,-4.2 1.2,-3.9 3.8,-0.1 2.7,-1.8 0.5,-1.7 0.9,-1 -0.5,-1.2 1.2,-1.4 1.5,-0.5 1,0.6 2.1,-1.8 1.7,1.1 -0.3,-3.5 0.2,-1.3 0.8,-1 1.9,-0.2 1.7,-2 1.9,-0.2 0.6,-0.4 0.4,0.6 0.8,-1.6 2.8,-0.6 -0.3,-0.3 0.8,-1 0.3,-0.1 0.9,-0.7 0.7,0.3 0.5,-1 1.2,-0.8 -1.3,-3.7 -0.1,-0.9 2.4,-1.8 0.4,-2.3 3,-2.2 0.6,-1 -0.5,-1.5 1.5,-1.1 0.5,-1 -0.4,-1.3 -1.5,-2.4 -0.2,-2.5 -1,0.1 -1.2,1.4 -4.3,0.7 -3,1.5 -2.2,0.2 -1.1,-1.1 -2.9,-0.1 -1.1,-1.5 -1.3,-0.2 -2,-1.4 -1,0.1 -2.3,-1.4 -1.6,0.5 -1,-0.5 -1.1,-2.5 -1.1,-0.8 -2.1,-2.7 -1,-0.5 0.2,-1 -0.2,-2.2 1.8,-1.1 -2.5,-2.4 -1.1,-2.4 0.8,-1.4 0.9,-0.4 0.9,-1 0.5,-1.3 0.8,-1.4 -0.8,-1.8 0.6,-1 0.8,-0.7 h 3.5 l -0.4,-1.6 -1,-0.2 -0.4,-0.9 -0.5,-1.9 -0.7,-0.9 0.4,-1.9 -0.7,-0.9 -2.6,-1 -0.9,0.7 -1.9,-0.2 -4.4,-2.7 0.3,-3.2 -1,-1.2 0.2,-1.3 -1.1,-0.6 -1.9,-0.1 -0.5,-2.2 -1.5,-2.4 -0.7,-0.2 -1.2,-0.2 -1.2,1.3 -1.6,-0.4 -0.9,1 0.2,1.6 -1.3,0.4 -3.2,-0.6 -0.2,-1.6 -1,-1.2 -1.9,0.5 -1.3,-0.8 -0.9,1.3 0.2,1.9 -0.6,0.4 -0.4,2.6 1.7,1.1 1.9,-0.5 0.6,0.3 0.6,2.5 1,0.5 0.1,4.7 -0.9,0.1 -1.4,-1.1 -1.8,1.1 -4.5,-0.2 -2.6,2.5 -1.7,-0.8 -0.6,0.7 -1.8,1.1 1.1,1.1 -1.2,1.1 -2.4,0.9 -2.3,-0.5 -1,3 0.6,0.3 0.4,0.6 -1.4,1.7 -1.3,0.2 -1.2,0.7 -3.2,-0.1 0.2,1.9 -1.6,3.7 2.1,2 -0.8,0.8 -0.6,1 -0.6,0.3 -5.2,-1.4 -0.1,2.2 1.1,1.5 -0.6,0.4 -1.3,-0.2 -0.6,0.4 0.8,1.5 -0.3,0.9 2.1,1.8 1.3,-0.2 1.3,0.6 h 2.8 l -0.2,1 0.7,0.9 0.1,0.9 1.7,0.8 0.3,3.5 -0.3,0.3 -0.9,0.4 -0.2,0.7 1.3,0.5 0.1,1 -1.6,-0.2 -0.2,-1.3 -1.3,-0.8 -0.6,0.1 -0.9,1 0.4,0.9 -3,2.2 -1.6,-0.2 -0.8,-1.5 -1.9,-0.4 -0.2,-2.3 -1,-0.5 -2.3,-0.1 -2.3,-1.1 -0.5,1 -1,0.1 -2,-0.7 v -0.4 l 0.2,-1.2 -0.7,-0.9 0.9,-1.1 -0.1,-0.9 -2.4,1.5 -1,0.1 -1.1,-1.2 -4.8,2.4 -1.9,0.1 -2.1,1.8 -0.3,-0.3 -0.5,-1.8 -0.2,-1.6 -1,-0.9 -1,-0.5 z"
   id="path185"
   style="fill:#d5d5d5;fill-opacity:1;stroke:#ffffff;stroke-opacity:1" />
			<path
   fill="#ffffff"
   d="m 288.3,98.9 1.3,-0.1 -1.6,-3.1 -0.7,-4.1 -1.4,-1.7 -2.7,-1.7 -2.9,-3.5 -1.7,-1.5 -0.2,-1.6 -1,-0.2 -0.5,0.7 -1,-0.5 -1.5,0.8 -5.1,4.2 -4.5,2.4 -1.9,0.5 -2.2,-0.1 -6.5,2.1 h -2.9 l -4,1 -9.3,5.6 -4.4,1.4 -0.8,1 -0.6,0.4 -0.7,2.6 -3.2,7 2.1,2 v 0.7 l 2,0.4 0.3,0.3 6.4,0.4 4.7,-1.7 0.6,0.3 0.3,-0.1 1.8,2.4 2.2,-0.2 -1.2,0.7 -0.6,0.1 -2.5,-2.7 -0.6,-0.5 -3.7,1.9 -6.6,0.9 -2.8,1 -2.1,1.4 -3.2,2.8 -3.4,1.3 -4.4,0.4 -0.5,1.1 -0.8,-1.3 -5,-2.7 -14.8,-2.1 -4.7,-2.4 -4.8,0.4 -1.1,1.4 -0.2,0.9 -0.7,-0.9 -1.3,-0.2 0.2,-0.9 0.2,-0.7 -0.1,-1.3 -2.9,-4.1 -1.6,-3.4 0.8,-2 0.6,-0.3 0.8,-1.1 0.6,-0.3 -0.1,-1.9 -0.9,-2.5 -4.5,-0.9 -2.5,0.6 -1.8,1.7 -3.4,0.4 -2.7,-1.7 -4.3,-1.2 -1.1,-1.5 -1.2,0.5 -1.7,-1.2 -0.3,0.4 -0.1,2.3 2.3,1.3 0.9,1.8 -0.1,2.6 -1.7,2.4 1.1,1.8 0.6,2.8 -0.1,2.5 0.4,1.3 0.4,0.2 1,0.6 1.4,1.8 1,0.2 -0.2,1.3 2.1,5.2 0.9,-0.7 0.7,0.6 -0.6,0.6 0.3,3.2 0.4,1 -0.6,0.6 -0.4,2 0.4,4.4 0.8,-1.4 h 0.6 l -0.6,3.2 -0.2,1.7 0.4,1.1 -0.2,1 -0.3,0.1 -1.6,3.6 0.8,1.8 v 3.2 l 1.4,1.2 0.8,1.8 0.7,0.6 1.4,1.4 1.8,-0.8 0.1,1 0.4,0.6 -4,1.3 -3,-0.7 0.8,1.5 0.1,1 0.4,0.9 -0.2,1 1.6,3.3 1.3,0.5 0.7,1.2 1.6,0.2 2.1,-1.8 1.5,-0.8 0.5,-1.3 1,-0.4 6.2,2.3 h 0.6 l 2.1,1 0.9,-0.1 0.9,-1 0.6,0.3 1.1,0.8 1.5,-0.1 1.4,1.4 0.1,1 1.3,-0.1 0.4,1.2 1.6,-0.5 -0.4,-0.6 0.3,-0.3 1.6,-0.1 0.5,-0.7 0.4,0.6 0.2,1.5 2.1,-1.1 1.5,-0.5 1.8,-1.4 1,0.2 0.9,-0.4 2.3,0.4 1.3,1.2 1.5,-1.7 1.6,0.4 0.9,-1 -0.4,-0.9 0.5,-1 1.3,0.2 2.1,2 -0.6,1 0.6,2.8 1,0.6 2.3,0.1 v 3.8 l 1.8,-0.8 0.8,0.9 1.3,0.2 0.5,-1.3 0.9,-0.4 0.8,-1.4 1.3,-0.1 0.2,-1 0.7,0.3 0.2,-0.7 h 0.3 l 2.8,-0.9 1.3,0.2 2,1.4 0.8,1.5 0.1,0.3 -0.3,0.7 0.1,0.9 v 3.2 l 0.7,0.9 0.6,0.3 1,0.5 1.7,0.2 0.3,0.3 -0.2,0.9 0.7,0.9 1,0.9 3.3,0.9 -0.1,-0.9 0.6,-0.4 1,0.6 2.6,3.6 0.3,0.2 0.3,-0.3 1.2,-0.4 1.2,-0.8 -1.5,-3 0.5,-1.3 -0.7,-0.6 h -0.6 l 0.2,-1.3 0.8,-1 3.5,-0.6 1.1,-1.1 1.2,-1.4 0.2,-0.9 0.8,-1.1 -0.6,-0.5 -0.4,-1.3 0.5,-0.7 -0.3,-0.6 0.8,-1.6 -1.4,-0.6 -0.1,-0.9 -2.3,-1.7 -0.5,-1.5 -1,-0.3 0.3,-0.9 -0.3,-2.2 1.6,-0.8 0.8,-1.4 0.3,-0.3 1.3,0.5 1.8,-1.1 2.2,-0.2 0.8,-1.1 2,0.2 0.5,-2 0.9,0.2 0.4,1 2,0.4 0.9,-0.4 0.7,0.6 1.2,-0.4 1.3,0.2 1.5,-1.1 -0.5,-1.9 0.3,-0.7 3.5,-2.5 0.3,-1 -0.5,-1.5 0.5,-0.7 1.3,-0.2 -0.1,-1.2 0.6,-0.7 -1.6,-0.2 0.5,-1.6 -0.7,-0.9 -0.2,-1.6 0.3,-0.3 0.9,0.2 0.9,-1 h 3.5 l 1.6,-3 0.9,-4.3 0.9,-1 -0.1,-0.9 0.6,-1.1 1.5,-0.1 0.4,0.9 h 0.7 l 0.5,-1 -0.4,-1 -0.6,-0.2 v -2.6 l -0.4,-1.5 -1.1,-1.5 0.3,-0.3 -0.7,-0.6 0.5,-1.7 1.7,-1.7 0.5,-1.3 -0.7,-0.9 -0.9,1 -1,-0.5 1.2,-1.7 -0.8,-0.6 -0.1,-2.2 -0.7,-0.6 0.8,-1.3 -0.5,-1.3 1.4,-2.6 -0.4,-0.3 -1.1,0.8 -0.4,-0.7 0.5,-0.7 0.3,-1.3 0.9,-0.3 z m -2.3,9.7 0.3,-0.3 0.4,0.3 v 0.3 l -0.3,0.3 z"
   id="path187"
   style="fill:#d5d5d5;fill-opacity:1;stroke:#ffffff;stroke-opacity:1" />
			<path
   fill="#ffffff"
   d="m 286.3,108.3 -0.3,0.3 0.4,0.6 0.3,-0.3 v -0.3 z"
   id="path189"
   style="fill:#d5d5d5;fill-opacity:1;stroke:#ffffff;stroke-opacity:1" />
			<path
   fill="#ffffff"
   d="m 279.3,136 -0.9,1 -0.9,-0.2 -0.3,0.3 0.2,1.6 0.7,0.9 -0.5,1.6 1.6,0.2 -0.6,0.7 0.1,1.2 0.4,0.7 1,0.5 0.1,0.9 0.7,0.9 -0.5,1 1,0.6 v 0.9 l 0.4,0.3 -0.3,0.4 0.1,0.9 -0.2,1.6 0.2,1.3 1,0.2 0.3,0.6 -1.4,2 -0.3,0.4 1.1,0.8 0.1,1.3 1,0.9 0.8,1.8 2,0.1 -0.2,2 1.6,0.1 0.8,1.2 -0.1,2.3 0.8,2.4 1,0.3 0.7,0.8 1,0.6 1,-0.1 0.5,-1 0.8,1.5 -0.2,1.3 1.3,0.5 0.1,1 0.4,0.9 -0.5,1.3 0.4,0.9 -0.9,1.1 0.4,0.9 1,0.2 1.6,-0.1 2.5,-0.9 0.3,0.3 1.6,0.1 -0.1,-0.9 0.7,-0.1 1.1,-1.3 1.3,0.8 0.2,1.3 0.9,-0.5 h 0.9 l 0.9,-1.1 1.4,1.2 1.5,-0.5 0.9,3.1 2.7,1.3 0.5,1.9 0.1,1 -0.2,1.3 -1.2,0.4 -1.2,1.4 0.4,0.2 1.9,-0.1 1.5,-0.5 5.2,0.8 3.3,-2.2 0.6,0.2 0.1,1 0.7,0.6 1.8,-1.2 2.5,-0.5 -0.1,-1 0.3,-0.3 1.2,-1.1 0.9,-0.1 0.8,-1.9 0.9,-0.4 -0.1,-1 -0.7,-0.6 -0.1,-1.5 1,-2.7 1.9,0.2 0.9,-0.8 1.6,-0.4 1.3,0.5 1.6,-0.1 0.9,-0.4 2.2,0.1 1,-0.1 0.5,-1.3 1.3,0.5 0.2,-1.3 -0.7,-0.6 0.2,-1.3 -0.8,-1.5 1.8,-1.1 -0.8,-1.9 1.6,-0.1 0.9,-0.4 -0.5,-1.9 1.5,-1.1 v -0.6 l 1.8,-0.8 -2,-1.4 -1.9,0.5 0.2,-1 -0.7,-0.6 1.2,-1.3 -0.3,-2.6 -2.3,-1.3 0.5,-1 0.9,-0.8 -0.4,-0.9 1.9,-0.5 0.1,-1.9 -1.2,0.8 -0.1,-1 -2.3,-1.1 -0.6,-2.4 -1.5,0.7 -0.8,-2.1 -1.2,0.4 -0.8,-1.8 -1.8,-2.1 -1.3,-0.2 0.8,-1.6 -1.2,-2.2 0.3,-0.9 -3.3,-1 -0.5,1.6 -1.6,-0.1 -0.9,1 -0.7,-0.9 -1.2,0.8 -1,-0.6 -1.5,0.8 -2.1,-1.4 -0.9,0.4 0.1,1 -1.5,0.4 -0.7,-0.9 -0.9,0.7 -0.1,-0.2 -0.7,-1 -1.3,-0.8 -1.8,1.4 -1.1,-1.1 -0.1,-1.3 -0.6,0.1 -0.2,0.9 -1,-0.2 h -0.3 l 0.2,-0.9 -1.7,-0.8 h -0.6 l -0.1,-0.6 -2.2,-0.4 -0.6,0.3 -1.5,-2.1 -1.2,1.5 -2.1,0.5 0.5,-1 -0.4,-0.4 -2.1,0.3 -0.4,-0.6 -2,-0.8 -0.7,-0.9 -2.8,1.9 -0.9,-0.3 -3.1,0.9 -0.3,-0.6 -1.3,0.1 -1.7,-0.8 -1.5,0.5 -1.4,-1.5 0.7,-1.3 -1.2,-0.2 -0.9,1 -0.9,4.3 -1.6,3 z"
   id="path191"
   style="fill:#d5d5d5;fill-opacity:1;stroke:#ffffff;stroke-opacity:1" />
			<path
   fill="#ffffff"
   d="m 278.7,143.3 -1.3,0.2 -0.5,0.7 0.5,1.5 -0.3,1 -3.5,2.5 -0.3,0.7 0.5,1.9 -1.5,1.1 -1.3,-0.2 -1.2,0.4 -0.7,-0.6 -0.9,0.4 -2,-0.4 -0.4,-1 -0.9,-0.2 -0.5,2 -2,-0.2 -0.8,1.1 -2.2,0.2 -1.8,1.1 -1.3,-0.5 -0.3,0.3 -0.8,1.4 -1.6,0.8 0.3,2.2 -0.3,0.9 1,0.3 0.5,1.5 2.3,1.7 0.1,0.9 1.4,0.6 -0.8,1.6 0.3,0.6 -0.5,0.7 0.4,1.3 0.6,0.5 -0.8,1.1 -0.2,0.9 -1.2,1.4 -1.1,1.1 -3.5,0.6 -0.8,1 -0.2,1.3 h 0.6 l 0.7,0.6 -0.5,1.3 1.5,3 -1.2,0.8 0.4,0.6 1.1,1.1 1.6,0.2 1,0.9 -0.2,0.6 -1.9,0.2 -0.5,1.6 -0.3,0.4 0.3,0.3 -0.2,0.6 -1.3,0.5 -0.2,0.9 0.1,1 1.3,0.5 -0.7,2.3 0.8,2.1 -0.9,0.8 -0.4,1.9 -1.1,-0.8 -0.5,0.6 v 3.2 l -2.7,2.8 -0.2,1 -2.4,0.9 -1.4,2 0.1,1.3 0.6,-0.1 -0.3,0.7 -0.6,0.3 -4.6,1.4 -0.8,1.4 -1,-0.3 -0.7,-0.8 -0.7,-0.3 -0.2,0.7 -0.3,0.3 0.3,0.6 0.9,1.8 -1,0.4 -4.3,-2.4 -0.9,0.4 0.1,1.2 -0.9,0.8 -0.5,1.6 0.7,0.9 -0.2,1 -0.5,1.3 -0.9,1.3 -0.1,1.6 -0.5,1.4 0.1,1.2 -0.9,1.1 -0.5,1 -0.9,0.7 -1.1,2 -1.3,6.8 0.9,2.1 1.2,-0.1 1.4,1.5 0.9,-0.4 0.8,1.2 -0.6,0.7 h -0.3 l 0.1,0.6 1,0.6 1.5,-0.8 0.7,0.3 v 0.9 l 1.3,-0.1 0.1,0.9 -0.3,3.6 0.4,1.5 0.4,0.6 1.9,-0.8 2.3,1.1 2.4,-1.5 0.9,-0.1 2.6,0.4 0.2,-1 -0.6,-0.6 -0.2,-1.2 1.6,0.1 0.8,0.9 1.9,0.8 0.5,1.9 -0.1,2.2 1.8,2.1 1.4,0.8 0.9,3.1 1.8,2.7 1.4,0.8 0.8,1.8 -0.6,1 0.2,1.6 -0.9,1.1 0.5,1.5 2.1,1.7 1.9,0.5 0.1,1.6 h 2.6 l 1.7,1.5 0.3,3.1 1.4,1.5 1,-0.1 -1.4,2.3 1.2,-0.1 0.8,1.2 1.2,-0.4 1.7,0.2 0.8,-1.4 0.9,-0.1 2.1,2.1 0.4,0.9 3,-2.5 1.1,-1.7 0.7,0.6 0.3,0.9 2.5,-1.2 0.1,1.3 0.7,0.5 h 0.3 l 1.5,-1.4 1.1,1.2 0.6,0.2 1.1,-2 -0.1,-0.9 0.6,-0.4 1,-0.1 1.6,1.4 2.5,-0.5 0.8,0.2 2.2,-0.2 4.2,1.5 2.8,-0.5 4.2,0.2 0.5,-1.9 0.5,-1 0.6,-0.1 0.3,-1 0.8,-1 3.8,-0.7 1.5,-0.4 0.4,0.6 0.9,-0.4 0.7,0.2 2.4,-1.5 -0.2,-1.9 -1,-0.8 0.7,-2 -1,-0.9 1.2,-0.7 1,0.5 0.3,-0.6 -0.4,-1 1.8,-0.8 0.9,-0.7 0.3,-0.3 0.2,-1 1,-0.1 1,1.2 1.5,-0.8 1.7,0.5 0.2,-1 2.6,-2.5 1.3,-0.1 0.6,-0.7 2.2,0.5 1.4,-3 -0.2,-1.6 -0.5,-1.5 1.1,-2.4 -0.5,-1.5 0.4,-2.6 -0.4,-0.9 -1.7,-1.4 0.4,-2.9 -1.8,-5.6 -0.2,-2.2 -3.8,-3.5 -0.1,-0.9 2.1,-5 -2.1,-4.6 -0.7,-0.9 v -0.6 l 2.4,-0.9 1.3,0.2 0.9,-0.4 -1.4,-1.7 -0.1,-1.6 0.5,-1 -1,-0.9 -0.2,-1.2 -1,-0.9 -0.4,-0.9 -0.9,0.1 0.1,-2.3 0.6,-0.3 h 2.5 l 1.8,-1.1 1.3,-0.4 -0.2,-1.3 -0.4,-0.9 0.6,-1 -0.7,-0.9 0.1,-1.6 3.6,-2.9 0.8,-1.6 -0.5,-1.6 -0.4,-0.6 0.6,-0.7 -2.4,-2.3 -0.9,-2.1 -0.6,-0.3 0.2,-1 -3,-1.6 -2.5,0.5 -1.8,1.2 -0.7,-0.6 -0.1,-1 -0.6,-0.2 -3.3,2.2 -5.2,-0.8 -1.5,0.5 -1.9,0.1 -0.4,-0.2 1.2,-1.4 1.2,-0.4 0.2,-1.3 -0.1,-1 -0.5,-1.9 -2.7,-1.3 -0.9,-3.1 -1.5,0.5 -1.4,-1.2 -0.9,1.1 h -0.9 l -0.9,0.5 -0.2,-1.3 -1.3,-0.8 -1.1,1.3 -0.7,0.1 0.1,0.9 -1.6,-0.1 -0.3,-0.3 -2.5,0.9 -1.6,0.1 -1,-0.2 -0.4,-0.9 0.9,-1.1 -0.4,-0.9 0.5,-1.3 -0.4,-0.9 -0.1,-1 -1.3,-0.5 0.2,-1.3 -0.8,-1.5 -0.5,1 -1,0.1 -1,-0.6 -0.7,-0.8 -1,-0.3 -0.8,-2.4 0.1,-2.3 -0.8,-1.2 -1.6,-0.1 0.2,-2 -2,-0.1 -0.8,-1.8 -1,-0.9 -0.1,-1.3 -1.1,-0.8 0.3,-0.4 1.4,-2 -0.3,-0.6 -1,-0.2 -0.2,-1.3 0.2,-1.6 -0.1,-0.9 0.3,-0.4 -0.4,-0.3 v -0.9 l -1,-0.6 0.5,-1 -0.7,-0.9 -0.1,-0.9 -1,-0.5 z"
   id="path193"
   style="fill:#d5d5d5;fill-opacity:1;stroke:#ffffff;stroke-opacity:1" />
			<path
   fill="#ffffff"
   d="m 216.2,161.9 -1.3,-0.2 -0.5,1 0.4,0.9 -0.9,1 -1.6,-0.4 -1.5,1.7 -1.3,-1.2 -2.3,-0.4 -0.9,0.4 -1,-0.2 -1.8,1.4 -1.5,0.5 -2.1,1.1 -0.2,-1.5 -0.4,-0.6 -0.5,0.7 -1.6,0.1 -0.3,0.3 0.4,0.6 -1.6,0.5 -0.4,-1.2 -1.3,0.1 -0.1,-1 -1.4,-1.4 -1.5,0.1 -1.1,-0.8 -0.6,-0.3 -0.9,1 -0.9,0.1 -2.1,-1 h -0.6 l -0.2,1 0.2,1.9 -0.5,1.6 0.8,2.5 -0.2,0.6 0.2,2.2 -1.4,2.1 -0.5,1.3 0.2,2.8 0.4,1 -0.1,1.6 0.4,0.9 0.3,3.5 0.7,1.2 -0.1,1.9 0.2,1.9 -1.5,0.8 -2,-0.2 -0.5,0.7 -0.9,0.4 -1,3.3 -0.9,0.7 0.1,1.3 -0.9,0.7 -0.2,1.3 -0.8,1 -0.2,1.6 -4.2,-1.2 -1.2,-1.8 -2.9,-0.4 -0.3,0.1 0.4,0.9 -0.2,0.6 -4.1,1.1 -1.5,0.7 -1.3,2.7 -1.6,-0.2 -0.9,0.8 -5.3,-0.8 -3.6,1.6 v -0.3 l -0.4,-0.6 -1.5,1.1 -1.2,0.1 -0.6,0.7 h -0.9 l -0.6,1.1 0.4,0.9 -0.8,1 -0.1,3.2 -0.6,0.4 -0.6,-0.3 -0.6,0.4 -0.9,1.6 -0.6,-0.2 -0.1,-1 -2.1,0.9 -0.4,-0.3 V 215 l -1.3,-0.2 -1.4,2.6 h -2.8 l -0.8,-0.9 -0.8,0.7 -0.7,0.7 0.2,1.6 -1.2,0.4 -2.4,1.5 1.1,1.8 0.2,1.9 1,0.5 -0.3,0.7 -1.6,-0.5 -0.3,0.1 v 0.3 l 3.7,1.9 0.9,-0.8 0.9,-0.1 3.4,2.6 3.4,-1.6 1.2,-1.1 2.5,-0.5 1.2,-0.1 2.6,0.1 2.3,0.7 3.1,2.6 -0.4,0.3 -2.3,-1.7 -3.9,-0.9 -1.3,0.5 -3.4,0.6 -0.8,1.3 0.5,1.9 -0.5,2 -0.5,0.7 -1.3,0.1 -0.9,0.7 6.3,2.6 0.4,0.3 1.7,2 0.8,1.9 -1.8,0.8 -1.3,3 -0.3,0.3 -1.7,1.8 -0.6,1 -1.2,0.4 0.3,3.2 0.3,0.9 4.3,4.3 1.5,2.5 1,0.5 2.2,3.9 2,6.8 1.6,0.5 5.2,4.3 3.9,1.2 1.9,3.1 4.2,0.5 1.8,2.4 0.3,0.3 v -0.6 l 0.3,-0.1 2.4,2 1.1,-2.3 4.4,0.2 0.9,-1.3 1.5,-0.5 1.3,0.2 1.5,-0.8 0.1,1 -0.8,1.3 0.7,0.6 2.5,-0.5 0.6,0.2 0.6,-1 1.6,0.2 v 0.6 l 1.8,1.4 0.9,-0.1 0.9,-0.7 0.3,-0.3 1.9,0.4 1.8,-2 1.5,-0.2 0.9,-1.3 -2.4,-1.4 -0.8,1 -0.4,-0.2 -0.2,-1.9 1.2,-1.4 -0.9,-3.1 0.2,-0.7 1,-0.1 0.2,-0.9 -0.5,-1.6 0.1,-2.5 -0.4,-1 -0.9,0.1 0.4,-1.6 -1,-1.2 0.5,-1 -1.1,-1.8 -0.1,-0.6 -0.3,-0.3 -0.7,-0.9 0.2,-1 0.5,-1.3 v -0.3 l -2.4,-1.4 -1.8,-2.7 0.5,-1.6 -1.8,-2.4 -0.3,0.7 -0.1,-1.3 -0.7,-0.2 0.3,-0.4 1,0.2 3.1,-1.2 2.6,1 0.3,-0.3 1.5,-0.5 2,0.5 2.4,-1.8 0.1,-2 2.2,-0.8 0.6,0.3 -0.2,0.9 2.5,-0.2 0.9,-1 2.2,0.1 3.1,-0.6 1.6,0.1 1,-0.4 1.3,0.5 -0.8,1.7 1.3,0.5 0.9,-0.4 0.2,-1 0.6,-0.6 2,0.4 -0.2,-1.9 1.4,-2 0.9,-0.4 1.3,0.5 1.3,-6.8 1.1,-2 0.9,-0.7 0.5,-1 0.9,-1.1 -0.1,-1.2 0.5,-1.4 0.1,-1.6 0.9,-1.3 0.5,-1.3 0.2,-1 -0.7,-0.9 0.5,-1.6 0.9,-0.8 -0.1,-1.2 0.9,-0.4 4.3,2.4 1,-0.4 -0.9,-1.8 -0.3,-0.6 0.3,-0.3 0.2,-0.7 0.7,0.3 0.7,0.8 1,0.3 0.8,-1.4 4.6,-1.4 0.6,-0.3 0.3,-0.7 -0.6,0.1 -0.1,-1.3 1.4,-2 2.4,-0.9 0.2,-1 2.7,-2.8 v -3.2 l 0.5,-0.6 1.1,0.8 0.4,-1.9 0.9,-0.8 -0.8,-2.1 0.7,-2.3 -1.3,-0.5 -0.1,-1 0.2,-0.9 1.3,-0.5 0.2,-0.6 -0.3,-0.3 0.3,-0.4 0.5,-1.6 1.9,-0.2 0.2,-0.6 -1,-0.9 -1.6,-0.2 -1.1,-1.1 -0.4,-0.6 -1.2,0.4 -0.3,0.3 -0.3,-0.2 -2.6,-3.6 -1,-0.6 -0.6,0.4 0.1,0.9 -3.3,-0.9 -1,-0.9 -0.7,-0.9 0.2,-0.9 -0.3,-0.3 -1.7,-0.2 -1,-0.5 -0.6,-0.3 -0.7,-0.9 V 172 l -0.1,-0.9 0.3,-0.7 -0.1,-0.3 -0.8,-1.5 -2,-1.4 -1.3,-0.2 -2.8,0.9 h -0.3 l -0.2,0.7 -0.7,-0.3 -0.2,1 -1.3,0.1 -0.8,1.4 -0.9,0.4 -0.5,1.3 -1.3,-0.2 -0.8,-0.9 -1.8,0.8 v -3.8 l -2.3,-0.1 -1,-0.6 -0.6,-2.8 0.6,-1 z"
   id="path195"
   style="fill:#d5d5d5;fill-opacity:1;stroke:#ffffff;stroke-opacity:1" />
			<path
   fill="#ffffff"
   d="m 104.7,139.5 -3.4,1.6 -2.1,-2.1 -1.6,0.2 -1.1,1.3 -1,0.1 -0.1,1.6 1.1,2.2 -1.5,0.7 -0.1,2 -1,0.4 -1,-0.6 -0.8,1.1 0.2,-1 -0.4,-0.9 -5.2,-1.5 -1.2,1.1 -1.3,3 -1.5,-1.8 -1.2,-0.2 -0.6,-2.8 -0.4,-0.6 -1.5,0.5 -1.5,1.1 -3.6,-0.4 -2.4,1.9 -1.8,0.1 -1,-0.2 -0.4,-0.9 -1.3,-0.5 -4,1.6 h -3.2 l -0.9,1 -2.4,1.2 -2.2,0.5 -2.4,1.5 -0.8,1.7 -0.1,2.2 -1,2.4 0.2,2.2 -0.6,1 1.4,1.4 2.5,-0.5 2.3,0.7 4.3,-1.3 3.5,-0.7 v 0.3 l -0.8,1.7 -0.2,1 1,0.5 3.1,-0.6 0.2,1.6 1.6,1.4 -0.2,0.4 -2,-0.5 -2.4,0.6 -4.3,-0.9 -1,-0.6 -0.4,-1.5 -0.7,-0.3 -0.8,1.7 -0.9,1 1.5,1.8 0.3,3.2 2.6,-2.2 4.7,1.8 1,1.2 0.8,1.2 -0.4,2.6 -1.2,1 -2.9,-0.6 -9.8,0.9 -1.5,1.1 4.4,2.4 2,0.8 3,2.2 1.6,2.8 0.5,2.1 0.2,1.9 -0.5,1.7 v 0.6 l 3.3,1 2.2,-0.2 1.4,-1.1 -0.1,-1.6 0.3,-0.3 h 2.9 l 2.9,0.7 0.7,-0.1 0.8,-1.3 0.6,-0.4 1.4,1.5 1.2,2.1 1.4,1.8 2.3,0.7 1.9,-0.2 2,1.4 3.9,0.9 1.2,-1 0.1,-2.3 0.5,-1 -0.5,1.4 0.3,2.8 1.6,3.3 1,0.6 1.6,0.2 2.4,-1.5 -0.2,1.6 1.7,0.8 2.1,2.3 3,4.8 4.1,-0.4 2.4,1.4 0.4,-2.2 1.7,0.8 2.1,-0.9 2.8,-0.6 2.7,1.7 -1.9,2.7 h -3.5 l -1.4,-0.5 -0.6,0.4 1.8,2.4 1.4,0.8 4.1,-0.4 2.4,-1.8 1.5,-0.5 0.5,1.6 2.5,0.1 1.4,1.1 -1.1,2 v 0.7 l 1,0.5 0.7,-0.7 0.8,-0.7 0.8,0.9 h 2.8 l 1.4,-2.6 1.3,0.2 v 0.6 l 0.4,0.3 2.1,-0.9 0.1,1 0.6,0.2 0.9,-1.6 0.6,-0.4 0.6,0.3 0.6,-0.4 0.1,-3.2 0.8,-1 -0.4,-0.9 0.6,-1.1 h 0.9 l 0.6,-0.7 1.2,-0.1 1.5,-1.1 0.4,0.6 v 0.3 l 3.6,-1.6 5.3,0.8 0.9,-0.8 1.6,0.2 1.3,-2.7 1.5,-0.7 4.1,-1.1 0.2,-0.6 -0.4,-0.9 0.3,-0.1 2.9,0.4 1.2,1.8 4.2,1.2 0.2,-1.6 0.8,-1 0.2,-1.3 0.9,-0.7 -0.1,-1.3 0.9,-0.7 1,-3.3 0.9,-0.4 0.5,-0.7 2,0.2 1.5,-0.8 -0.2,-1.9 0.1,-1.9 -0.7,-1.2 -0.3,-3.5 -0.4,-0.9 0.1,-1.6 -0.4,-1 -0.2,-2.8 0.5,-1.3 1.4,-2.1 -0.2,-2.2 0.2,-0.6 -0.8,-2.5 0.5,-1.6 -0.2,-1.9 0.2,-1 -6.2,-2.3 -1,0.4 -0.5,1.3 -1.5,0.8 -2.1,1.8 -1.6,-0.2 -0.7,-1.2 -1.3,-0.5 -1.6,-3.3 0.2,-1 -0.4,-0.9 -0.1,-1 -0.8,-1.5 -5,0.8 -4.2,-0.6 -1,-0.5 -0.4,-1.2 0.2,-1 0.9,-1.1 -0.4,-1.2 -1.9,0.5 -1,-0.2 -0.9,0.4 h -0.3 l -0.6,0.4 -1.8,1.7 0.5,2.5 1,0.6 0.4,0.3 -0.6,0.3 0.6,2.2 h 0.6 l -1.2,1.3 -0.3,-0.6 0.5,-1 -1.1,-1.1 0.3,-1 -0.7,-0.6 -0.5,-1.9 -1,-0.8 -2.6,0.2 -0.3,0.4 0.8,1.2 -1,-0.3 -0.9,1.1 -1.2,-0.2 -1.5,-2.4 -2,-0.2 0.2,-1.6 -0.7,-0.9 -3,1.6 -2.3,-0.1 -0.8,1.3 -2.4,1.2 -3,2.8 -1.5,0.2 -0.9,1.3 -1.2,-3 -3.1,-2.6 -0.3,-3.2 -3.5,-3.8 0.1,-1.9 -2.7,-1.4 -0.3,-0.6 0.5,-0.6 v -0.7 l -2,-0.4 -0.5,-2.2 -0.3,-0.3 -2.2,0.5 -1.5,1.1 -0.5,-1.5 -0.4,-0.6 -1.4,1.1 z"
   id="path197"
   style="fill:#d5d5d5;fill-opacity:1;stroke:#ffffff;stroke-opacity:1" />
			<path
   fill="#ffffff"
   d="m 106,209 -1,2.7 0.5,2.5 0.1,0.3 0.6,-0.4 0.3,0.3 0.7,0.2 -0.1,-0.3 -0.7,-1.2 z"
   id="path199"
   style="fill:#d5d5d5;fill-opacity:1;stroke:#ffffff;stroke-opacity:1" />
			<path
   fill="#ffffff"
   d="m 186.9,247.7 0.7,0.2 0.1,1.3 0.3,-0.7 1.8,2.4 -0.5,1.6 1.8,2.7 2.4,1.4 v 0.3 l -0.5,1.3 -0.2,1 0.7,0.9 0.3,0.3 0.1,0.6 1.1,1.8 -0.5,1 1,1.2 -0.4,1.6 0.9,-0.1 0.4,1 -0.1,2.5 0.5,1.6 -0.2,0.9 -1,0.1 -0.2,0.7 0.9,3.1 -1.2,1.4 0.2,1.9 0.4,0.2 0.8,-1 2.4,1.4 -0.9,1.3 -1.5,0.2 -1.8,2 -1.9,-0.4 -0.3,0.3 -0.9,0.7 -0.9,0.1 -1.8,-1.4 v -0.6 l -1.6,-0.2 -0.6,1 -0.6,-0.2 -2.5,0.5 -0.7,-0.6 0.8,-1.3 -0.1,-1 -1.5,0.8 -1.3,-0.2 -1.5,0.5 -0.9,1.3 -1.5,0.8 -0.7,2.3 -2.3,2.4 -1.1,2.4 0.4,0.9 2.1,1.4 2.7,5.1 -1.3,7.5 -2.2,3.1 0.9,2.7 2.2,3 -4.8,-3.1 -1.8,1.2 v 3.5 l 7.2,5 2.5,3 4.5,4 2.9,4.2 1.5,5.3 1.3,10.4 1,4.4 -1,-0.6 -1.1,-1.5 -2.5,-10.3 -1.7,-4 -8.4,-8.7 -0.3,-2.9 -1.6,0.5 -1.6,2.7 -0.8,2 -6.1,44.1 0.4,0.3 1.3,-3.3 2.5,-3.1 3.5,3.2 1.2,2.4 -2.1,1.2 -1.6,-0.2 -1.4,-0.8 -1.2,0.5 -2.7,5.3 -0.2,4.4 -4.1,21.4 -0.3,0.4 -5.8,22.8 -6.6,11.1 -2.7,2.1 -0.9,-0.2 -2.5,0.6 -1.5,1.4 1.7,1.4 0.5,1.9 2.5,-0.9 1.6,0.5 0.2,1.9 0.4,0.6 v 0.3 l 1.3,0.2 0.3,-0.3 0.5,-1.7 2.2,-0.2 1.7,1.4 1.9,0.2 0.7,0.6 0.5,1.5 -0.1,2.2 -1.6,3.4 -2.1,2.4 1.2,2.1 3,1 0.5,-1 0.4,-2.6 0.9,-0.7 1.2,-0.1 -0.7,2.3 1.4,1.4 2.2,-0.2 2.1,1.4 0.7,0.9 1.2,-0.1 1.4,1.1 2.3,0.5 2.7,1.9 1.6,-0.1 3.2,0.7 2.8,-0.6 0.8,1.2 0.5,1.5 -0.6,0.4 0.4,0.9 0.6,0.6 1.7,0.8 2.1,2 0.5,1.6 1,0.5 0.7,0.9 1.2,-0.7 0.8,-1.4 2.4,1.4 2.2,0.1 3.3,-2.5 0.2,-1 -0.5,-2.5 1.7,-1.5 v -3.5 l 1,-0.4 0.2,-1.2 1.6,0.1 0.8,-0.7 0.4,-3.5 1.8,-0.8 1.4,-2.4 0.6,0.3 1.3,-0.5 -0.3,-2.2 1,-0.1 1.4,-2 -0.1,-0.9 -0.7,-0.9 -0.1,-0.7 0.9,-1 1.2,-0.4 0.6,-0.7 -0.8,-1.5 0.1,-2.6 -0.1,-0.9 -1.3,0.1 -0.5,1 h -0.3 l -0.4,-1.2 0.2,-1 1.5,-0.8 -0.7,-1.2 -0.2,-2.2 -1.7,-1.1 -0.2,-1.9 -2.6,-0.1 -0.7,-0.5 -2.5,0.5 -0.4,-0.9 0.3,-0.7 -1,-0.5 -0.4,-0.9 0.6,-0.1 1.2,-1.1 -0.1,-0.6 -0.3,-0.6 0.5,-0.7 -0.4,-0.9 2.1,-1.5 v -0.3 l -0.7,-0.2 0.3,-0.7 -0.6,-2.5 1.3,-0.1 0.2,-1.3 -0.4,-1.2 0.5,-0.7 v -0.7 l -1.7,-0.8 0.3,-0.6 0.9,-0.4 1.2,-1.1 2.2,-0.2 1,0.6 -0.1,-0.7 1,-0.1 1.7,-2 1.4,1.7 -0.8,1.4 1.7,1.4 1,0.3 0.8,-1.1 -0.5,-2.2 0.5,-1.3 2.5,-0.5 0.4,0.9 h 0.4 l 1.4,-1.8 1.2,-0.4 1.1,0.9 2.2,0.7 0.6,-0.7 2.5,-0.2 1.9,-0.8 1.4,-1.4 2.3,0.1 0.9,-0.1 1.8,-1.1 0.7,0.9 2.1,1.7 1.8,-1.2 1.3,-0.4 h 0.3 l -0.4,-0.3 v -0.3 l 0.8,-1.7 1.5,-0.8 0.2,-1.2 2.7,1 0.8,-0.7 -0.1,-1.6 -1,-0.2 v -0.7 l 1.8,-0.5 0.8,-1.6 0.4,-2.3 0.7,-0.4 -1.1,-1.5 -1,0.1 -1,-0.8 1.1,-1.7 -0.1,-1.3 0.2,-0.7 h 1 l 0.7,1.2 2.2,-0.2 1.9,0.1 0.6,-0.7 -0.4,-0.9 0.2,-1.6 -1.1,-1.2 -0.1,-1.6 -0.4,-0.6 0.2,-1.3 -1.1,-2.1 h 0.6 l 0.6,0.3 2.4,-1.9 0.7,0.3 0.2,-1.3 2,-2.1 -0.2,-1.9 2.8,-0.9 2,-1.7 1,0.1 1.1,-2.3 -0.7,-0.8 -0.1,-1 2.5,-0.9 0.1,-1.6 1.6,-0.5 0.5,-1.3 1,-0.1 -0.1,-0.6 -1.1,-1.2 1.2,-0.7 -0.8,-2.1 -0.2,-2.3 1.5,-1.1 0.6,0.3 2.4,-1.5 0.8,0.9 1.2,-0.5 2.3,0.5 1.7,1.7 1.1,1.5 1.4,1.1 v 0.7 l 1,0.8 0.4,-0.3 1.3,0.2 0.5,-0.7 2.2,-0.8 0.8,-1 1,0.2 0.4,0.9 1.8,-1.1 1.9,-0.2 1,0.2 2.8,-0.5 -0.1,-1 -0.7,-0.9 -0.8,-1.8 1.7,-1.8 1.3,0.2 0.5,-1.9 -0.1,-1 0.6,-0.1 0.5,-1 0.7,-0.3 -1.1,-1.2 -0.4,-1.2 0.2,-0.7 1.8,-1.8 1.1,-2 0.9,-0.1 0.8,-1.6 1.6,-0.5 0.6,-3.2 -0.4,-1.3 h 0.9 l 3.7,2.2 1.9,-0.8 -0.1,-0.7 -1.4,-1.1 1,-6.8 -0.7,-0.9 -1.1,-1.8 0.7,-2.3 1.3,-0.1 0.2,-1 -0.4,-0.6 0.6,-1 -0.2,-1.2 -1.4,-2.1 -1.4,-0.9 -0.3,0.1 -0.5,-1.6 -1.4,-2.1 0.3,-0.3 1.2,-0.1 0.6,-0.7 -0.1,-1 h 0.3 l 1.6,0.2 0.6,-1 1.4,-1.4 0.2,-1.3 0.9,-1.4 1.2,-0.7 -0.5,-1.3 0.5,-1.9 -1.4,-1.2 -0.5,-1.8 -0.1,-1.6 0.5,-1.6 -0.2,-1.6 -1.3,-0.8 -0.6,-2.9 -0.7,-0.8 -0.5,-1.6 -1,-0.5 -1.3,0.1 -0.1,-1 -1,-1.1 -0.9,0.7 -1.7,-0.8 -0.4,-1.3 0.8,-1 -1.6,-0.8 -0.2,-1.9 -4.2,-0.2 -2.8,0.5 -4.2,-1.5 -2.2,0.2 -0.8,-0.2 -2.5,0.5 -1.6,-1.4 -1,0.1 -0.6,0.4 0.1,0.9 -1.1,2 -0.6,-0.2 -1.1,-1.2 -1.5,1.4 h -0.3 l -0.7,-0.5 -0.1,-1.3 -2.5,1.2 -0.3,-0.9 -0.7,-0.6 -1.1,1.7 -3,2.5 -0.4,-0.9 -2.1,-2.1 -0.9,0.1 -0.8,1.4 -1.7,-0.2 -1.2,0.4 -0.8,-1.2 -1.2,0.1 1.4,-2.3 -1,0.1 -1.4,-1.5 -0.3,-3.1 -1.7,-1.5 h -2.6 l -0.1,-1.6 -1.9,-0.5 -2.1,-1.7 -0.5,-1.5 0.9,-1.1 -0.2,-1.6 0.6,-1 -0.8,-1.8 -1.4,-0.8 -1.8,-2.7 -0.9,-3.1 -1.4,-0.8 -1.8,-2.1 0.1,-2.2 -0.5,-1.9 -1.9,-0.8 -0.8,-0.9 -1.6,-0.1 0.2,1.2 0.6,0.6 -0.2,1 -2.6,-0.4 -0.9,0.1 -2.4,1.5 -2.3,-1.1 -1.9,0.8 -0.4,-0.6 -0.4,-1.5 0.3,-3.6 -0.1,-0.9 -1.3,0.1 v -0.9 l -0.7,-0.3 -1.5,0.8 -1,-0.6 -0.1,-0.6 h 0.3 l 0.6,-0.7 -0.8,-1.2 -0.9,0.4 -1.4,-1.5 -1.2,0.1 -0.9,-2.1 -1.3,-0.5 -0.9,0.4 -1.4,2 0.2,1.9 -2,-0.4 -0.6,0.6 -0.2,1 -0.9,0.4 -1.3,-0.5 0.8,-1.7 -1.3,-0.5 -1,0.4 -1.6,-0.1 -3.1,0.6 -2.2,-0.1 -0.9,1 -2.5,0.2 0.2,-0.9 -0.6,-0.3 -2.2,0.8 -0.1,2 -2.4,1.8 -2,-0.5 -1.5,0.5 -0.3,0.3 -2.6,-1 -3.1,1.2 -1,-0.2 z m 22.9,198 0.7,0.6 0.4,0.9 -0.2,1.9 -1.2,0.1 0.3,0.6 0.2,2.2 -0.2,0.4 h -0.7 l 0.1,0.3 -0.7,0.1 -0.4,-0.9 -0.1,-1.3 1.1,-1.7 -0.1,-0.9 1,-0.1 -0.1,-1 -0.7,-0.5 z"
   id="path201"
   style="fill:#d5d5d5;fill-opacity:1;stroke:#ffffff;stroke-opacity:1" />
			<path
   fill="#ffffff"
   d="m 210.5,446.3 -0.7,-0.6 -0.6,0.7 0.7,0.5 0.1,1 -1,0.1 0.1,0.9 -1.1,1.7 0.1,1.3 0.4,0.9 0.7,-0.1 -0.1,-0.3 h 0.7 l 0.2,-0.4 -0.2,-2.2 -0.3,-0.6 1.2,-0.1 0.2,-1.9 z"
   id="path203"
   style="fill:#d5d5d5;fill-opacity:1;stroke:#ffffff;stroke-opacity:1" />
			<path
   fill="#ffffff"
   d="m 116.7,139 h -0.6 l -0.3,1 0.4,0.3 h 0.3 l 0.3,-0.7 z"
   id="path205"
   style="fill:#d5d5d5;fill-opacity:1;stroke:#ffffff;stroke-opacity:1" />
			<path
   fill="#ffffff"
   d="m 78.8,141.9 0.4,0.6 0.2,-0.4 h 0.7 l -0.1,-0.7 -0.6,0.1 z"
   id="path207"
   style="fill:#d5d5d5;fill-opacity:1;stroke:#ffffff;stroke-opacity:1" />
			<path
   fill="#ffffff"
   d="m 39.4,152.5 -0.7,0.1 0.1,0.3 -1,0.4 -0.2,0.4 v 0.3 l 0.5,-0.4 0.7,-0.1 0.1,0.7 h -0.3 v 0.3 h 0.6 l 0.3,-0.4 1,-0.1 0.2,-0.3 -0.3,-0.6 0.3,-0.4 -0.7,-0.2 -0.3,0.3 z"
   id="path209"
   style="fill:#d5d5d5;fill-opacity:1;stroke:#ffffff;stroke-opacity:1" />
			<path
   fill="#ffffff"
   d="m 43.4,157.9 0.6,-0.1 -0.4,-0.9 -0.3,0.4 z"
   id="path211"
   style="fill:#d5d5d5;fill-opacity:1;stroke:#ffffff;stroke-opacity:1" />
			<path
   fill="#ffffff"
   d="m 75.1,198.5 -0.3,-0.3 -0.3,1 h 0.7 z"
   id="path213"
   style="fill:#d5d5d5;fill-opacity:1;stroke:#ffffff;stroke-opacity:1" />
			<path
   fill="#ffffff"
   d="m 96.1,204.9 -0.7,-0.6 -0.7,-0.3 -0.3,-0.3 -1.3,-0.5 -0.6,0.4 v 0.6 l 0.7,0.6 1,0.6 0.9,-0.5 0.7,0.6 z"
   id="path215"
   style="fill:#d5d5d5;fill-opacity:1;stroke:#ffffff;stroke-opacity:1" />
			<path
   fill="#ffffff"
   d="m 118.1,208.9 0.1,0.6 0.8,-0.7 -0.3,-0.3 z"
   id="path217"
   style="fill:#d5d5d5;fill-opacity:1;stroke:#ffffff;stroke-opacity:1" />
			<path
   fill="#ffffff"
   d="m 116.5,209 h 0.3 v -0.7 l -0.6,0.7 -0.2,1 h 0.3 z"
   id="path219"
   style="fill:#d5d5d5;fill-opacity:1;stroke:#ffffff;stroke-opacity:1" />
			<path
   fill="#ffffff"
   d="m 98.7,202.1 0.2,-0.7 -0.3,-0.3 -0.3,0.1 z"
   id="path221"
   style="fill:#d5d5d5;fill-opacity:1;stroke:#ffffff;stroke-opacity:1" />
			<path
   fill="#ffffff"
   d="m 102.9,220.1 -0.7,-0.5 -1.3,-0.9 0.1,1 h -0.4 l -0.2,1 0.1,0.6 0.7,0.9 -0.6,0.7 0.4,0.6 0.7,0.6 0.6,-0.4 0.6,0.3 0.3,-0.4 0.7,0.6 0.7,0.2 1,0.3 0.7,0.5 0.6,-0.3 0.8,-1.1 -0.4,-0.6 -1.3,-0.2 -0.6,-0.2 v -0.3 l -0.7,-0.6 -0.1,-0.3 -0.3,-0.3 -0.1,-1 -0.3,0.1 z"
   id="path223"
   style="fill:#d5d5d5;fill-opacity:1;stroke:#ffffff;stroke-opacity:1" />
			<path
   fill="#ffffff"
   d="m 111.1,219.7 0.7,0.2 0.3,-0.3 -0.4,-0.3 h -0.3 l -0.3,-0.6 -0.3,0.4 z"
   id="path225"
   style="fill:#d5d5d5;fill-opacity:1;stroke:#ffffff;stroke-opacity:1" />
			<path
   fill="#ffffff"
   d="m 115.2,222.2 -1,0.1 -0.2,0.3 0.3,0.3 0.6,-0.1 z"
   id="path227"
   style="fill:#d5d5d5;fill-opacity:1;stroke:#ffffff;stroke-opacity:1" />
			<path
   fill="#ffffff"
   d="m 158.7,142.1 0.3,-0.4 -0.1,-0.6 -0.3,0.4 -0.2,0.6 z"
   id="path229"
   style="fill:#d5d5d5;fill-opacity:1;stroke:#ffffff;stroke-opacity:1" />
			<path
   fill="#ffffff"
   d="m 124.7,214.6 0.5,-1 -0.6,0.1 -0.3,0.6 z"
   id="path231"
   style="fill:#d5d5d5;fill-opacity:1;stroke:#ffffff;stroke-opacity:1" />
			<path
   fill="#ffffff"
   d="m 139.6,248.2 v 0.3 l 0.5,-1.3 v -0.6 l -0.4,-0.6 -2.4,-1.7 -0.3,-0.3 0.2,-0.6 0.3,-0.1 0.3,-0.6 -0.4,-0.6 -0.7,-0.3 -0.3,-0.3 -0.7,-0.2 -0.9,0.1 v 0.9 l -0.2,0.7 0.1,0.3 0.6,0.6 0.8,1.2 0.6,-0.4 0.6,0.2 1,0.9 z"
   id="path233"
   style="fill:#d5d5d5;fill-opacity:1;stroke:#ffffff;stroke-opacity:1" />
			<path
   fill="#ffffff"
   d="m 132.8,258.1 -0.6,-0.3 -0.4,-0.3 -1,-0.5 -0.9,0.4 0.1,0.6 0.3,0.6 v 0.4 l 0.7,-0.1 v 0.3 l 1,0.2 0.3,0.3 0.7,-0.4 0.9,0.3 -0.3,-0.6 z"
   id="path235"
   style="fill:#d5d5d5;fill-opacity:1;stroke:#ffffff;stroke-opacity:1" />
			<path
   fill="#ffffff"
   d="m 162.4,285.6 -0.6,-0.3 -1.2,0.8 H 160 v 0.3 l 0.8,1.9 1,0.5 1.2,-0.4 0.7,0.2 2.3,1.4 1.4,1.5 1.7,0.8 1,-0.1 0.5,-0.7 -0.3,-0.6 -0.5,-1.2 -0.6,-0.3 -0.3,0.3 -1.7,-1.4 -2.3,0.2 -0.6,-0.2 0.3,-0.4 0.6,-0.4 0.3,-0.3 -0.7,-0.3 -0.9,0.1 -0.9,0.7 -0.3,0.1 -0.3,0.6 -0.1,-0.6 -0.3,-0.3 -0.4,-0.6 0.6,-0.4 0.4,0.6 0.6,-0.3 -0.4,-0.9 z"
   id="path237"
   style="fill:#d5d5d5;fill-opacity:1;stroke:#ffffff;stroke-opacity:1" />
			<path
   fill="#ffffff"
   d="m 166.4,297.6 -1.3,-0.5 0.6,2.8 -0.2,1 0.1,1.2 1.4,2.1 2.1,1.4 0.7,0.9 0.5,1.6 0.2,2.5 0.3,0.3 1.5,-1.4 -0.1,-1.3 0.8,-1.7 -0.4,-0.9 -1.1,-1.5 -0.3,-3.1 -2.6,-0.7 z"
   id="path239"
   style="fill:#d5d5d5;fill-opacity:1;stroke:#ffffff;stroke-opacity:1" />
			<path
   fill="#ffffff"
   d="m 176.5,303 -0.4,-0.6 -0.6,0.1 0.3,0.6 z"
   id="path241"
   style="fill:#d5d5d5;fill-opacity:1;stroke:#ffffff;stroke-opacity:1" />
			<path
   fill="#ffffff"
   d="m 174.1,298.5 -0.6,0.4 0.1,0.3 1,0.2 z"
   id="path243"
   style="fill:#d5d5d5;fill-opacity:1;stroke:#ffffff;stroke-opacity:1" />
			<path
   fill="#ffffff"
   d="m 190,346.1 -0.2,-2 h -0.3 l -0.2,0.7 0.4,1.3 z"
   id="path245"
   style="fill:#d5d5d5;fill-opacity:1;stroke:#ffffff;stroke-opacity:1" />
			<path
   fill="#ffffff"
   d="m 190.4,347.2 -0.2,0.4 0.1,1 0.2,-0.4 z"
   id="path247"
   style="fill:#d5d5d5;fill-opacity:1;stroke:#ffffff;stroke-opacity:1" />
			
			
			<path
   fill="#ffffff"
   d="m 495,436.4 0.3,-0.4 -1,-0.2 v 0.6 z"
   id="path253"
   style="fill:#d5d5d5;fill-opacity:1;stroke:#ffffff;stroke-opacity:1" />
			<path
   fill="#ffffff"
   d="m 451.9,463 0.3,-0.4 -0.7,-0.5 -0.6,0.3 -0.3,-0.6 -0.6,0.7 0.4,0.6 0.9,-0.4 z"
   id="path255"
   style="fill:#d5d5d5;fill-opacity:1;stroke:#ffffff;stroke-opacity:1" />
			<path
   fill="#ffffff"
   d="m 444.9,463 h 0.4 l 0.2,-0.4 -0.3,-0.3 -0.3,0.1 z"
   id="path257"
   style="fill:#d5d5d5;fill-opacity:1;stroke:#ffffff;stroke-opacity:1" />
			<path
   fill="#ffffff"
   d="m 462.7,465.5 v 0.3 l -0.3,0.3 -1,-0.5 -0.6,0.7 1.4,0.5 0.3,0.3 0.3,-0.7 1.5,-0.4 -0.1,-1 -0.3,-0.3 -0.6,0.7 z"
   id="path259"
   style="fill:#d5d5d5;fill-opacity:1;stroke:#ffffff;stroke-opacity:1" />
			<path
   fill="#ffffff"
   d="m 470,465.1 h -0.4 l -0.5,0.7 0.9,0.3 0.7,-0.1 0.2,-0.7 -0.3,-0.6 z"
   id="path261"
   style="fill:#d5d5d5;fill-opacity:1;stroke:#ffffff;stroke-opacity:1" />
			<path
   fill="#ffffff"
   d="m 471.8,464.3 -0.2,1 0.3,0.3 0.3,-0.7 0.9,-0.1 v -0.6 l 0.5,-0.7 0.9,-0.4 v -0.3 l -1.5,0.4 -0.6,1 z"
   id="path263"
   style="fill:#d5d5d5;fill-opacity:1;stroke:#ffffff;stroke-opacity:1" />
			<path
   fill="#ffffff"
   d="m 425.8,452.7 0.3,-0.7 -0.3,-0.3 -0.3,0.4 v 0.6 z"
   id="path265"
   style="fill:#d5d5d5;fill-opacity:1;stroke:#ffffff;stroke-opacity:1" />
			<path
   fill="#ffffff"
   d="m 425.2,452.4 -0.6,0.4 0.4,0.9 0.3,-0.3 z"
   id="path267"
   style="fill:#d5d5d5;fill-opacity:1;stroke:#ffffff;stroke-opacity:1" />
			<path
   fill="#ffffff"
   d="m 429.5,457.4 -0.4,-0.3 -0.2,0.7 0.6,0.3 z"
   id="path269"
   style="fill:#d5d5d5;fill-opacity:1;stroke:#ffffff;stroke-opacity:1" />
			<polyline
   fill="none"
   stroke="#828282"
   stroke-width="0.5"
   stroke-linecap="round"
   stroke-linejoin="round"
   points="485.9,218.6      487.9,219.4 487.8,221.6 487.8,221.9 489.7,222.1 490.4,223 493.5,221.7 493.8,221.7 494.2,222 495.4,222.2 496.9,221.1      498.1,219.7 497.1,219.2 497,218.5 498.7,219.3 499.8,218 500.3,216.6 499.7,216.1 501.4,214.6 501.4,214 502.3,213.9      502.5,212.9 502.5,212.3 501.7,210.8 499.6,209.1 499.5,207.2 500.3,205.8 500.5,204.9 499.7,202.7 500.7,199.4 500.5,197.5      501.3,196.2 501.1,194.3 502.5,191.9 502.1,190.7 500.3,188.6 500.5,184.5 500.5,184.2 502.4,180.5 503.6,176.6 503.8,174.6      504.3,173.6 505.8,172.2 505.1,168.8 506.1,165.5 506.2,163.6 507.4,162.2 507,158.1 508.3,155.1 509.8,153.7 512.3,150.6      512.5,148.4 514,148.2 514.5,146.6 516.1,146.1 516.9,144.8 519.6,137.2 521.2,136.4 516.4,135.6 515,135.1 514.3,134.2      511.7,133.5 510.3,132.4 509.4,132.7 508.5,132.9 507.6,133.6 505.2,132.2 503.7,133.3 501.8,132.9 500.9,133.2 499.6,133      498.8,131.9 496.6,131.7 495.6,130.9 494.1,128.8 494.3,127.8 493.6,127.2 492.7,127.4 491.3,126.5 489.5,127 489.5,127.6      489,128.6 488.1,129 486.9,130.4 484.9,129.6 483.4,130.4 482.7,129.9 481.8,130.2 480.8,129.4 480.2,129.4 480.1,128.5      479.1,128.9 479.3,130.1 478.4,130.9 477.2,128.1 477.4,126.9 476.4,126.9 475.4,126 474.4,126.1 473.4,125.3 472.5,126      470.9,125.5 470.6,125.9 471.1,127.7 470.6,129 468.3,128.6 467,128.7 466,127.6 466.5,126.5 466.1,125.9 465.5,126 465.2,125.7      464.7,124.2 464,123.6 463.9,122.7 461.9,121.3 460.4,118.9 460.4,118.5 461,118.5 461.3,118.1 460.5,116.9 459.2,116.1      459.1,115.5 459.7,115.1 455,112.4 453.8,112.8 452.8,112.5 452.9,113.2 451.5,112.7 450.2,111.9 449.5,110.9 448.2,110.4      446,111 445.1,112 444.1,111.8 443.1,113.8 442.1,113.2 441.2,114.3 439.2,113.9 438.9,113.2 438.8,112.3 437.8,111.7      435.9,111.9 434.2,111.1 433.8,110.5 433.8,109.9 433.1,109.6 433.1,109.3 432.8,109 432.1,109.1 431.4,108.5 430.8,108.5      430.9,109.5 430.3,109.9 430.2,109.2 429,109.7 427.4,109.2 426.2,110.2 426,111.5 424,110.5 420.7,112.4 419.9,111.1      420.5,110.5 419.8,109.6 420,108.6 417.8,105.9 416.2,105.4 415,105.9 414.9,105.6 415.4,103.9 414,102.2 410.1,101.9      409.1,100.7 408.4,100.8 406.9,98 404.3,97.4 403.2,96.1 402.6,96.2 400.8,97 398.5,96.6 399,95.3 398.5,93.1 399.5,90.1      398.1,88.4 396.1,87.9 396,87.3 396.9,85.9 397,84 397.6,83.4 397.2,82.1 397.7,81.4 397.6,80.1 398.6,80.4 398.4,78.8      399.3,78.1 398.6,77.2 397.3,77 396.9,76.4 396.1,77.4 394.9,77.9 394.4,79.5 392.9,80.2 392.3,81.3 392.1,81.9 392.5,82.9      392.1,85.7 388.7,86.7 386.3,88.5 383.5,88.8 380.6,88.4 379.2,87.6 376.4,88.1    "
   id="polyline271"
   style="fill:#d5d5d5;fill-opacity:1;stroke:#ffffff;stroke-opacity:1" />
			<polyline
   fill="none"
   stroke="#828282"
   stroke-width="0.5"
   stroke-linecap="round"
   stroke-linejoin="round"
   points="376.4,88.1      375.1,88.3 375.1,87.6 374.4,87.4 374.4,87.1 373.4,87.1 373.1,86.9 373.7,86.2 372.9,85 373.4,83.6 376.1,81.9 375.4,80.3      374.9,78.4 372.6,78.4 373.5,77 373.2,74.1 375.5,71.7 375.1,70.8 373.8,70.2 373.2,70.6 373.6,71.5 373,71.6 372.2,70.7      372.1,69.4 370.8,68.9 368.6,66.3 364.3,67.9 362.3,66.9 359.1,66.9 358.6,67.5 358.4,68.9 357.8,69.2 356.3,66.8 355.8,65.5      356.3,63.6 355.7,60.8 354.3,59 352.7,58.5 350.5,59 350.1,58.8 351,57.4 350.3,57.2 349.3,56.9 348.5,58.3 346,59.1 343,57.2      342.6,56.6 342.6,53.4 341.4,50 341.9,49 341.8,47.8 341.4,46.9 340.1,47 338.9,44.5 337.8,43 336.9,42.9 336.3,43.5 333.5,43.8      331,44.9 330.3,47.2 329.7,47.9 328,47.1 327.7,46.5 326.4,46.6 325.7,46.1 325.3,44.9 323.5,43.1 323.1,41.5 322.4,41.3      320.2,41.2 319.1,39.4 319.4,35.8 318.7,35.6 320.1,33.9 319.3,31.7 318.3,30.9 317.2,26.2 314.2,27.7 311.1,28.7 310.1,28.1      307.6,29.3 305.4,29.2 304.4,29.9 304.5,30.5 303.5,29.7 302,30.8 300.7,30.6 290.4,33.4 287.8,35.3 286.1,37 283.9,38.2      284.4,43.2 283.9,45.2 283.1,46.2 282.9,47.5 283.5,54.1 284.3,56.3 283.4,56.7 282.4,63.1 283.2,64.4 284.9,65.1 285.3,66.4      284.6,65.5 282.4,65.7 281.4,69.9 282.2,71.1 283.5,71.4 284.4,73.5 286.3,74.2 286.4,75.5 285.8,75.9 284.4,75 283.2,75.2      282.1,73.7 280.9,74.1 279.8,75.5 278.2,79.4 275.9,81.6    "
   id="polyline273"
   style="fill:#d5d5d5;fill-opacity:1;stroke:#ffffff;stroke-opacity:1" />
			<polyline
   fill="none"
   stroke="#828282"
   stroke-width="0.5"
   stroke-linecap="round"
   stroke-linejoin="round"
   points="350.2,148.8      350.2,148.2 350.8,147.8 351.5,145.8 353.1,145.4 353.6,144 354.2,143.7 354.1,142.7 355.1,142.6 355.5,140.7 357,139.9      356.3,138.7 354.7,138.9 353.7,138.6 354,137.6 355.4,136.5 354.3,134.1 355.1,132.8 357.3,132.2 358.3,132.8 359.4,131.7      359.4,131.1 358.1,130.9 357.7,129.7 357.3,129.7 356.3,129.1 356.9,127.9 355.9,124.4 355.8,123.5 360.4,121.4 361.6,121      363.3,121.5 363.4,119.9 362.8,119.4 363,118.7 364,118.6 365,119.1 365.8,118.4 366.9,119.9 368.2,120.1 369.3,120.9      369.6,120.9 370,118.4 369.8,116.8 370.7,116 370,114.9 369.8,112.9 371,112.2 370.9,111.6 370.2,110.7 371.1,109.4 369.2,106.9      369.5,106.6 370.4,105.9 372.3,106 372.8,103.8 374.9,102.3 375.1,101.4 376,100.6 376.8,99.2 376.7,98.6 375.7,98.1 376,97.1      375.9,96.5 376.1,95.2 377.2,92.9 377,91.3 376,90.4 376.4,88.1    "
   id="polyline275"
   style="fill:#d5d5d5;fill-opacity:1;stroke:#ffffff;stroke-opacity:1" />
			<polyline
   fill="none"
   stroke="#828282"
   stroke-width="0.5"
   stroke-linecap="round"
   stroke-linejoin="round"
   points="485.9,218.6      486.1,217.3 485,216.2 483.9,214 482.9,213.5 481.6,213.9 480.9,213.4 480.9,212.4 481.4,211.1 482,210.7 482.1,209.1      481.4,208.2 481.6,206.9 480.9,206 477.9,204.7 475.3,204 474.6,202.8 474.5,201.9 473.6,202.6 472.5,201.7 472.1,200.5      467.1,197.8 466.3,196.6 465.3,195.7 464.1,196.1 463,197.8 460.8,199 460.1,198.1 460.1,197.5 459,196 457.3,195.2 454.8,195.7      453.5,195.5 451.7,196.7 450.8,196.7 450.4,196.1 448.7,195.3 449,194.4 448.5,193.1 447.8,192.2 444.7,193.2 443,195.9      442.1,196 441.2,197 440.6,197 441.4,195.4 441,194.8 440.4,194.8 440.1,195.2 439.9,196.5 438.8,197.9 438.9,198.8 437.3,199.6      436.6,201.9 434.4,201.8 433.6,203.7 432.3,203.9 431.7,204.2 431.6,206.2 432.6,206.7 432.7,207.3 431.9,209.6 432.1,211.2      428.9,211.8 428.2,210.6 427.5,210.4 426.1,212.1 424.5,211.6 423.5,212 422,212.1 420.7,215.1 420.7,216.1 419.8,216.5      418.5,216 416.4,217.4 415.7,216.5 415.9,215.3 413.5,213.6 413.1,212.3 411,213.8 408.7,212.7 408.5,211.5 407.5,210.9      405.4,211.8 405,210.9 405.5,209.5 405.1,208.3 403.7,207.2 406,205 405.9,204.1 404.9,203.5 404.8,202.3 403.8,201.7      402.6,199.3 401.7,199.4 401.1,200.4 400.1,199.9 400.1,199.5 401.2,197.8 400.5,197 398.6,196.8 398.5,196.2 399.1,195.5      398.4,194.6 396.5,194.5 395.5,193.9 394.2,194 391.9,193.3 390.6,193.4 389.2,194.8 389.9,196 389.7,196.7 386.2,197.3      384.6,196.8 382.4,197.7 381.1,197.5 380.5,197.9 380.3,199.1 378.4,199 377.3,196.9 376.7,197.3 376.8,198.5 375.4,197.7      373.7,199.1 372,198.3 371.1,199.4 369.8,198.9 366,199.2 366.1,197 366.1,196 365.4,195.8 364.8,196.5 363.8,196.2 363.8,195.3      364.4,195.2 364.6,194.6 363.2,193.1 361.6,189.1 359.9,188.3 360.1,186.4 359.1,186.2 358.9,187.1 357.3,187.6 355.8,185.2      354.9,185.3 354.3,185.7 353.9,185.4 355,183.4 354.9,182.4 355.1,181.1 351.1,175.8 349.8,175.3 348.3,175.7 347.8,174.2    "
   id="polyline277"
   style="fill:#d5d5d5;fill-opacity:1;stroke:#ffffff;stroke-opacity:1" />
			
			
			<polyline
   fill="none"
   stroke="#828282"
   stroke-width="0.5"
   stroke-linecap="round"
   stroke-linejoin="round"
   points="333.9,261.4      334.4,262.9 335.1,263.8 337.5,265.2 338.9,267 339.9,267.5 340.9,267.4 343.3,265.9 343.9,265.9 344.6,267.1 345.6,267.3      346.6,267.2 347.4,265.8 349,266 349.1,267 349.8,267.2 349.6,268.5 350.2,269.1 350.9,269 352.3,267.3 353.6,267.5 353.4,265.6      354.4,265.8 355.3,265.1 354.5,263.9 354.8,263.6 356.5,264 356.2,264.4 357,265.9 359.9,270.7 359.7,271.4 360.4,272      360.8,273.5 360.6,274.5 361,275.1 362.7,276.2 364.3,276.1 366,278.1 368.6,277.9 370.6,279.6 370.7,280.5 370,283.2      370.4,286.9 369.1,287.4 368.3,288.4 367,288.8 367.2,291.1 366.8,293 367.8,293.5 369.7,293.7 370.5,295.5 372.1,295.4      374.8,293.8 376.2,295 377.5,295.2 378,294.2 378.7,294.1 379.4,294.7 380.6,294.6 380.6,294.9 380.4,295.9 381.4,296.1      383.5,294.6 384.7,294.5 384.7,293.6 385.5,292.5 385.7,290.9 386.4,288.3 388.3,288.5 390,289.9 391.3,289.5 392.1,288.4      392.9,289.6 394.2,289.8 394.9,287.8 396.8,287.7 397.6,289.2 396.7,289.6 396.8,290.2 398.8,291.6 398.2,292 398.6,292.6      398.3,293.6 398.4,294.2 399.4,294.7 400.7,294.6 403.1,286.4 403.2,284.5 404.3,282.2 404.4,280 405.9,276 406.6,276.6      407.5,275.9 408.5,276.1 409.5,276.9 410.8,277.5 412.1,276.7 412.7,277 413.6,276.2 414.5,276.2 414.8,275.8 415.8,276.4      416.6,277.9 417.3,278.8 418.7,279.3 420.3,279.4 420.6,280 420.4,281.3 422.5,282.7 422.9,284.3 424.1,286.1 424.6,285.1      425.3,286 426.3,286.2 426.2,288.1 427.2,289 429.1,288.5 431.1,287 432,285.7 432.9,285 433.6,285.5 435.6,286.6 436.4,288.8      441.8,288.3 443.3,287.2 448.6,280    "
   id="polyline283"
   style="fill:#d5d5d5;fill-opacity:1;stroke:#ffffff;stroke-opacity:1" />
			<polyline
   fill="none"
   stroke="#828282"
   stroke-width="0.5"
   stroke-linecap="round"
   stroke-linejoin="round"
   points="397.9,398.9      397.5,398 396.9,398.4 394.6,397 393.9,396.1 392.2,395 390.3,395.2 390.2,397.7 389.6,398.1 388,397.6 388.1,395.7 388,395.1      385.5,395.3 385,396.3 384.1,396.7 383.6,398.4 382.7,399.4 380,397.4 379.6,396.8 378.3,396.6 377.6,395.7 374.5,396.3      374.1,396.1 374.4,395.4 374.6,394.1 374.1,392.6 375,391.8 374,391 373.9,389.7 372.2,388.9 371.8,388 371.6,386.1 370.4,383.4      369.1,382.6 368.2,380.4 368.1,378.8 367.3,377 367.5,376 366.8,375.1 367.3,373.8 365.6,373 365.8,371.7 364.6,372.1      364.2,371.2 362.8,370.1 362,368.6 358.9,368.8 359.1,367.6 358.3,366.3 357.7,366.1 356.4,366.2 356,368.8 355.3,368.6      353.2,369.1 351.6,369.8 350.9,368.9 349.3,365 349.1,362.4 347.7,361.9 347.3,361 347,361.1 346.8,362.1 344.1,363.6      342.7,363.1 342.5,364 341.9,364.7 342.1,365.9 340.6,367.1 339.6,366.5 338.5,365 337.3,365.7 336.9,368.6 336,368.7      335.2,370.4 334.7,372.7 334.2,374 334.6,374.9 333.7,375.3 332.4,378.9 331.4,378.1 330.6,376.2 330.1,374.4 330.3,373.4      329.6,372.6 330.3,372.4 330.5,371.8 330.1,370.9 329.2,371.3 328.5,370.7 327.6,367.6 327.5,366.7 325.6,366.6 324,367.3      324.1,364.1 322.7,363 321.6,364.7 320.9,364.7 320.3,365.1 319.5,366.4 318.6,366.8 317.8,368.2 317.4,370.8 316.2,371.6      315.7,372.8 315.8,374.7 313.5,376.6 313,378.6 311.7,378.6 310.8,379.1 308.9,378.6 307.9,379 307.3,378.7 306.9,377.5      304.9,377.7 302.4,378.6 302.2,379.2 302.3,380.1 302,380.5 300.6,379.1 300.7,376.8 300,375.9 299.4,375.6 299.8,374      299.9,372.1 300.6,371.4 300.4,369.8 297.4,365.6 297.4,364.7 298.3,364 297.2,362.8 297.1,361.8 296.7,360.6    "
   id="polyline285"
   style="fill:#d5d5d5;fill-opacity:1;stroke:#ffffff;stroke-opacity:1" />
			<polyline
   fill="none"
   stroke="#828282"
   stroke-width="0.5"
   stroke-linecap="round"
   stroke-linejoin="round"
   points="473.6,350.2      472.9,350 471.7,349.8 470.5,351.1 468.9,350.7 468,351.7 468.2,353.3 466.9,353.7 463.7,353.1 463.5,351.5 462.5,350.3      460.6,350.8 459.3,350 458.4,351.3 458.6,353.2 458,353.6 457.6,356.2 459.3,357.3 461.2,356.8 461.8,357.1 462.4,359.6      463.4,360.1 463.5,364.8 462.6,364.9 461.2,363.8 459.4,364.9 454.9,364.7 452.3,367.2 450.6,366.4 450,367.1 448.2,368.2      449.3,369.3 448.1,370.4 445.7,371.3 443.4,370.8 442.4,373.8 443,374.1 443.4,374.7 442,376.4 440.7,376.6 439.5,377.3      436.3,377.2 436.5,379.1 434.9,382.8 437,384.8 436.2,385.6 435.6,386.6 435,386.9 429.8,385.5 429.7,387.7 430.8,389.2      430.2,389.6 428.9,389.4 428.3,389.8 429.1,391.3 428.8,392.2 430.9,394 432.2,393.8 433.5,394.4 436.3,394.4 436.1,395.4      436.8,396.3 436.9,397.2 438.6,398 438.9,401.5 438.6,401.8 437.7,402.2 437.5,402.9 438.8,403.4 438.9,404.4 437.3,404.2      437.1,402.9 435.8,402.1 435.2,402.2 434.3,403.2 434.7,404.1 431.7,406.3 430.1,406.1 429.3,404.6 427.4,404.2 427.2,401.9      426.2,401.4 423.9,401.3 421.6,400.2 421.1,401.2 420.1,401.3 418.1,400.6 418.1,400.2 418.3,399 417.6,398.1 418.5,397      418.4,396.1 416,397.6 415,397.7 413.9,396.5 409.1,398.9 407.2,399 405.1,400.8 404.8,400.5 404.3,398.7 404.1,397.1      403.1,396.2 402.1,395.7 399.3,395.9 397.9,395.4 397.9,398.9    "
   id="polyline287"
   style="fill:#d5d5d5;fill-opacity:1;stroke:#ffffff;stroke-opacity:1" />
			<polyline
   fill="none"
   stroke="#828282"
   stroke-width="0.5"
   stroke-linecap="round"
   stroke-linejoin="round"
   points="397.9,398.9      399.1,400.7 399.2,401.7 400.4,401.9 400.9,403.4 400.7,407.6 401.1,408.8 402.7,408.7 403.4,409.9 406.3,413.1 406,414.1      405.1,414.2 404.9,415.5 402.2,417.6 400.5,419.7 398.4,420.8 399.1,421.7 398.6,422.7 399,424 398.8,425.3 397.5,428.6      398,430.4 396.7,430.5 394.4,429.8 392.3,430.3 392.1,431.6 390.9,432.4 390.1,434.3 390.8,434.9 391.7,434.8 391.5,436.1      390,436.6 389.4,437.6 386.7,439.1 385.7,438.6 385.8,439.5 383.1,441 382.3,443.3    "
   id="polyline289"
   style="fill:#d5d5d5;fill-opacity:1;stroke:#ffffff;stroke-opacity:1" />
			<polyline
   fill="none"
   stroke="#828282"
   stroke-width="0.5"
   stroke-linecap="round"
   stroke-linejoin="round"
   points="411.1,390.1      410.8,390.1 410.5,389.8 409.9,390.6 409.9,390.2 408.3,391 408.1,391.6 408.2,392.9 407.6,393.3 406.7,394.3 407.7,394.8      407.2,395.5 407.5,396.1 407.6,396.8 408.8,396.3 410.2,396.8 411.1,397.1 411.5,397.4 411.4,396.1 411.6,395.8 412.3,395.4      412.2,395.1 412.5,394.4 412.7,393.4 414,393.3 414.5,392.6 414.5,392.3 413.6,392.4 412.9,391.8 412.2,391.9 412.2,390.9      411.1,390.1    "
   id="polyline291"
   style="fill:#d5d5d5;fill-opacity:1;stroke:#ffffff;stroke-opacity:1" />
			
			<polyline
   fill="none"
   stroke="#828282"
   stroke-width="0.5"
   stroke-linecap="round"
   stroke-linejoin="round"
   points="286.2,127.7      286.1,126.8 286.7,125.7 288.2,125.6 288.6,126.5 289.3,126.5 289.8,125.5 289.4,124.5 288.8,124.3 288.8,121.7 288.4,120.2      287.3,118.7 287.6,118.4 286.9,117.8 287.4,116.1 289.1,114.4 289.6,113.1 288.9,112.2 288,113.2 287,112.7 288.2,111      287.4,110.4 287.3,108.2 286.6,107.6 287.4,106.3 286.9,105 288.3,102.4 287.9,102.1 286.8,102.9 286.4,102.2 286.9,101.5      287.2,100.2 288.1,99.9 288.3,98.9 289.6,98.8 288,95.7 287.3,91.6 285.9,89.9 283.2,88.2 280.3,84.7 278.6,83.2 278.4,81.6      277.4,81.4 276.9,82.1 275.9,81.6    "
   id="polyline295"
   style="fill:#d5d5d5;fill-opacity:1;stroke:#ffffff;stroke-opacity:1" />
			<polyline
   fill="none"
   stroke="#828282"
   stroke-width="0.5"
   stroke-linecap="round"
   stroke-linejoin="round"
   points="286.3,108.3      286.7,108.6 286.7,108.9 286.4,109.2 286,108.6 286.3,108.3    "
   id="polyline297"
   style="fill:#d5d5d5;fill-opacity:1;stroke:#ffffff;stroke-opacity:1" />
			<polyline
   fill="none"
   stroke="#828282"
   stroke-width="0.5"
   stroke-linecap="round"
   stroke-linejoin="round"
   points="275.9,81.6      274.4,82.4 269.3,86.6 264.8,89 262.9,89.5 260.7,89.4 254.2,91.5 251.3,91.5 247.3,92.5 238,98.1 233.6,99.5 232.8,100.5      232.2,100.9 231.5,103.5 228.3,110.5 230.4,112.5 230.4,113.2 232.4,113.6 232.7,113.9 239.1,114.3 243.8,112.6    "
   id="polyline299"
   style="fill:#d5d5d5;fill-opacity:1;stroke:#ffffff;stroke-opacity:1" />
			<polyline
   fill="none"
   stroke="#828282"
   stroke-width="0.5"
   stroke-linecap="round"
   stroke-linejoin="round"
   points="243.8,112.6      240.1,114.5 233.5,115.4 230.7,116.4 228.6,117.8 225.4,120.6 222,121.9 217.6,122.3 217.1,123.4 216.3,122.1 211.3,119.4      196.5,117.3 191.8,114.9 187,115.3 185.9,116.7 185.7,117.6 185,116.7 183.7,116.5 183.9,115.6 184.1,114.9 184,113.6      181.1,109.5 179.5,106.1 180.3,104.1 180.9,103.8 181.7,102.7 182.3,102.4 182.2,100.5 181.3,98 176.8,97.1 174.3,97.7      172.5,99.4 169.1,99.8 166.4,98.1 162.1,96.9 161,95.4 159.8,95.9 158.1,94.7 157.8,95.1 157.7,97.4 160,98.7 160.9,100.5      160.8,103.1 159.1,105.5 160.2,107.3 160.8,110.1 160.7,112.6 161.1,113.9 161.5,114.1 162.5,114.7 163.9,116.5 164.9,116.7      164.7,118 166.8,123.2 167.7,122.5 168.4,123.1 167.8,123.7 168.1,126.9 168.5,127.9 167.9,128.5 167.5,130.5 167.9,134.9      168.7,133.5 169.3,133.5 168.7,136.7 168.5,138.4 168.9,139.5 168.7,140.5 168.4,140.6 166.8,144.2 167.6,146 167.6,149.2      169,150.4 169.8,152.2 170.5,152.8 171.9,154.2 173.7,153.4 173.8,154.4 174.2,155 170.2,156.3 167.2,155.6    "
   id="polyline301"
   style="fill:#d5d5d5;fill-opacity:1;stroke:#ffffff;stroke-opacity:1" />
			<polyline
   fill="none"
   stroke="#828282"
   stroke-width="0.5"
   stroke-linecap="round"
   stroke-linejoin="round"
   points="243.8,112.6      244.4,112.9 244.7,112.8 246.5,115.2 248.7,115 247.5,115.7 246.9,115.8 244.4,113.1 243.8,112.6    "
   id="polyline303"
   style="fill:#d5d5d5;fill-opacity:1;stroke:#ffffff;stroke-opacity:1" />
			<polyline
   fill="none"
   stroke="#828282"
   stroke-width="0.5"
   stroke-linecap="round"
   stroke-linejoin="round"
   points="278.7,143.3      278.6,142.1 279.2,141.4 277.6,141.2 278.1,139.6 277.4,138.7 277.2,137.1 277.5,136.8 278.4,137 279.3,136 282.8,136 284.4,133      285.3,128.7 286.2,127.7    "
   id="polyline305"
   style="fill:#d5d5d5;fill-opacity:1;stroke:#ffffff;stroke-opacity:1" />
			<polyline
   fill="none"
   stroke="#828282"
   stroke-width="0.5"
   stroke-linecap="round"
   stroke-linejoin="round"
   points="252.2,183.4      253.4,182.6 251.9,179.6 252.4,178.3 251.7,177.7 251.1,177.7 251.3,176.4 252.1,175.4 255.6,174.8 256.7,173.7 257.9,172.3      258.1,171.4 258.9,170.3 258.3,169.8 257.9,168.5 258.4,167.8 258.1,167.2 258.9,165.6 257.5,165 257.4,164.1 255.1,162.4      254.6,160.9 253.6,160.6 253.9,159.7 253.6,157.5 255.2,156.7 256,155.3 256.3,155 257.6,155.5 259.4,154.4 261.6,154.2      262.4,153.1 264.4,153.3 264.9,151.3 265.8,151.5 266.2,152.5 268.2,152.9 269.1,152.5 269.8,153.1 271,152.7 272.3,152.9      273.8,151.8 273.3,149.9 273.6,149.2 277.1,146.7 277.4,145.7 276.9,144.2 277.4,143.5 278.7,143.3    "
   id="polyline307"
   style="fill:#d5d5d5;fill-opacity:1;stroke:#ffffff;stroke-opacity:1" />
			<polyline
   fill="none"
   stroke="#828282"
   stroke-width="0.5"
   stroke-linecap="round"
   stroke-linejoin="round"
   points="278.7,143.3      279.1,144 280.1,144.5 280.2,145.4 280.9,146.3 280.4,147.3 281.4,147.9 281.4,148.8 281.8,149.1 281.5,149.5 281.6,150.4      281.4,152 281.6,153.3 282.6,153.5 282.9,154.1 281.5,156.1 281.2,156.5 282.3,157.3 282.4,158.6 283.4,159.5 284.2,161.3      286.2,161.4 286,163.4 287.6,163.5 288.4,164.7 288.3,167 289.1,169.4 290.1,169.7 290.8,170.5 291.8,171.1 292.8,171 293.3,170      294.1,171.5 293.9,172.8 295.2,173.3 295.3,174.3 295.7,175.2 295.2,176.5 295.6,177.4 294.7,178.5 295.1,179.4 296.1,179.6      297.7,179.5 300.2,178.6 300.5,178.9 302.1,179 302,178.1 302.7,178 303.8,176.7 305.1,177.5 305.3,178.8 306.2,178.3      307.1,178.3 308,177.2 309.4,178.4 310.9,177.9 311.8,181 314.5,182.3 315,184.2 315.1,185.2 314.9,186.5 313.7,186.9      312.5,188.3 312.9,188.5 314.8,188.4 316.3,187.9 321.5,188.7 324.8,186.5 325.4,186.7 325.5,187.7 326.2,188.3 328,187.1      330.5,186.6    "
   id="polyline309"
   style="fill:#d5d5d5;fill-opacity:1;stroke:#ffffff;stroke-opacity:1" />
			<polyline
   fill="none"
   stroke="#828282"
   stroke-width="0.5"
   stroke-linecap="round"
   stroke-linejoin="round"
   points="184.8,163.2      185.4,163.2 187.5,164.2 188.4,164.1 189.3,163.1 189.9,163.4 191,164.2 192.5,164.1 193.9,165.5 194,166.5 195.3,166.4      195.7,167.6 197.3,167.1 196.9,166.5 197.2,166.2 198.8,166.1 199.3,165.4 199.7,166 199.9,167.5 202,166.4 203.5,165.9      205.3,164.5 206.3,164.7 207.2,164.3 209.5,164.7 210.8,165.9 212.3,164.2 213.9,164.6 214.8,163.6 214.4,162.7 214.9,161.7      216.2,161.9 218.3,163.9 217.7,164.9 218.3,167.7 219.3,168.3 221.6,168.4 221.6,172.2 223.4,171.4 224.2,172.3 225.5,172.5      226,171.2 226.9,170.8 227.7,169.4 229,169.3 229.2,168.3 229.9,168.6 230.1,167.9 230.4,167.9 233.2,167 234.5,167.2      236.5,168.6 237.3,170.1 237.4,170.4 237.1,171.1 237.2,172 237.2,175.2 237.9,176.1 238.5,176.4 239.5,176.9 241.2,177.1      241.5,177.4 241.3,178.3 242,179.2 243,180.1 246.3,181 246.2,180.1 246.8,179.7 247.8,180.3 250.4,183.9 250.7,184.1 251,183.8      252.2,183.4    "
   id="polyline311"
   style="fill:#d5d5d5;fill-opacity:1;stroke:#ffffff;stroke-opacity:1" />
			<polyline
   fill="none"
   stroke="#828282"
   stroke-width="0.5"
   stroke-linecap="round"
   stroke-linejoin="round"
   points="252.2,183.4      252.6,184 253.7,185.1 255.3,185.3 256.3,186.2 256.1,186.8 254.2,187 253.7,188.6 253.4,189 253.7,189.3 253.5,189.9      252.2,190.4 252,191.3 252.1,192.3 253.4,192.8 252.7,195.1 253.5,197.2 252.6,198 252.2,199.9 251.1,199.1 250.6,199.7      250.6,202.9 247.9,205.7 247.7,206.7 245.3,207.6 243.9,209.6 244,210.9 244.6,210.8 244.3,211.5 243.7,211.8 239.1,213.2      238.3,214.6 237.3,214.3 236.6,213.5 235.9,213.2 235.7,213.9 235.4,214.2 235.7,214.8 236.6,216.6 235.6,217 231.3,214.6      230.4,215 230.5,216.2 229.6,217 229.1,218.6 229.8,219.5 229.6,220.5 229.1,221.8 228.2,223.1 228.1,224.7 227.6,226.1      227.7,227.3 226.8,228.4 226.3,229.4 225.4,230.1 224.3,232.1 223,238.9    "
   id="polyline313"
   style="fill:#d5d5d5;fill-opacity:1;stroke:#ffffff;stroke-opacity:1" />
			<polyline
   fill="none"
   stroke="#828282"
   stroke-width="0.5"
   stroke-linecap="round"
   stroke-linejoin="round"
   points="350.2,148.8      349,149.6 348.9,148.6 346.6,147.5 346,145.1 344.5,145.8 343.7,143.7 342.5,144.1 341.7,142.3 339.9,140.2 338.6,140      339.4,138.4 338.2,136.2 338.5,135.3 335.2,134.3 334.7,135.9 333.1,135.8 332.2,136.8 331.5,135.9 330.3,136.7 329.3,136.1      327.8,136.9 325.7,135.5 324.8,135.9 324.9,136.9 323.4,137.3 322.7,136.4 321.8,137.1 321.7,136.9 321,135.9 319.7,135.1      317.9,136.5 316.8,135.4 316.7,134.1 316.1,134.2 315.9,135.1 314.9,134.9 314.6,134.9 314.8,134 313.1,133.2 312.5,133.2      312.4,132.6 310.2,132.2 309.6,132.5 308.1,130.4 306.9,131.9 304.8,132.4 305.3,131.4 304.9,131 302.8,131.3 302.4,130.7      300.4,129.9 299.7,129 296.9,130.9 296,130.6 292.9,131.5 292.6,130.9 291.3,131 289.6,130.2 288.1,130.7 286.7,129.2      287.4,127.9 286.2,127.7    "
   id="polyline315"
   style="fill:#d5d5d5;fill-opacity:1;stroke:#ffffff;stroke-opacity:1" />
			<polyline
   fill="none"
   stroke="#828282"
   stroke-width="0.5"
   stroke-linecap="round"
   stroke-linejoin="round"
   points="347.8,174.2      348,172.9 347.3,172.3 347.5,171 346.7,169.5 348.5,168.4 347.7,166.5 349.3,166.4 350.2,166 349.7,164.1 351.2,163 351.2,162.4      353,161.6 351,160.2 349.1,160.7 349.3,159.7 348.6,159.1 349.8,157.8 349.5,155.2 347.2,153.9 347.7,152.9 348.6,152.1      348.2,151.2 350.1,150.7 350.2,148.8    "
   id="polyline317"
   style="fill:#d5d5d5;fill-opacity:1;stroke:#ffffff;stroke-opacity:1" />
			<polyline
   fill="none"
   stroke="#828282"
   stroke-width="0.5"
   stroke-linecap="round"
   stroke-linejoin="round"
   points="347.8,174.2      346.5,173.7 346,175 345,175.1 342.8,175 341.9,175.4 340.3,175.5 339,175 337.4,175.4 336.5,176.2 334.6,176 333.6,178.7      333.7,180.2 334.4,180.8 334.5,181.8 333.6,182.2 332.8,184.1 331.9,184.2 330.7,185.3 330.4,185.6 330.5,186.6    "
   id="polyline319"
   style="fill:#d5d5d5;fill-opacity:1;stroke:#ffffff;stroke-opacity:1" />
			<polyline
   fill="none"
   stroke="#828282"
   stroke-width="0.5"
   stroke-linecap="round"
   stroke-linejoin="round"
   points="330.5,186.6      333.5,188.2 333.3,189.2 333.9,189.5 334.8,191.6 337.2,193.9 336.6,194.6 337,195.2 337.5,196.8 336.7,198.4 333.1,201.3      333,202.9 333.7,203.8 333.1,204.8 333.5,205.7 333.7,207 332.4,207.4 330.6,208.5 328.1,208.5 327.5,208.8 327.4,211.1      328.3,211 328.7,211.9 329.7,212.8 329.9,214 330.9,214.9 330.4,215.9 330.5,217.5 331.9,219.2 331,219.6 329.7,219.4      327.3,220.3 327.3,220.9 328,221.8 330.1,226.4 328,231.4 328.1,232.3 331.9,235.8 332.1,238 333.9,243.6 333.5,246.5      335.2,247.9 335.6,248.8 335.2,251.4 335.7,252.9 334.6,255.3 335.1,256.8 335.3,258.4 333.9,261.4    "
   id="polyline321"
   style="fill:#d5d5d5;fill-opacity:1;stroke:#ffffff;stroke-opacity:1" />
			<polyline
   fill="none"
   stroke="#828282"
   stroke-width="0.5"
   stroke-linecap="round"
   stroke-linejoin="round"
   points="167.2,155.6      162.2,156.4 158,155.8 157,155.3 156.6,154.1 156.8,153.1 157.7,152 157.3,150.8 155.4,151.3 154.4,151.1 153.5,151.5      153.2,151.5 152.6,151.9 150.8,153.6 151.3,156.1 152.3,156.7 152.7,157 152.1,157.3 152.7,159.5 153.3,159.5 152.1,160.8      151.8,160.2 152.3,159.2 151.2,158.1 151.5,157.1 150.8,156.5 150.3,154.6 149.3,153.8 146.7,154 146.4,154.4 147.2,155.6      146.2,155.3 145.3,156.4 144.1,156.2 142.6,153.8 140.6,153.6 140.8,152 140.1,151.1 137.1,152.7 134.8,152.6 134,153.9      131.6,155.1 128.6,157.9 127.1,158.1 126.2,159.4 125,156.4 121.9,153.8 121.6,150.6 118.1,146.8 118.2,144.9 115.5,143.5      115.2,142.9 115.7,142.3 115.7,141.6 113.7,141.2 113.2,139 112.9,138.7 110.7,139.2 109.2,140.3 108.7,138.8 108.3,138.2      106.9,139.3 104.7,139.5 101.3,141.1 99.2,139 97.6,139.2 96.5,140.5 95.5,140.6 95.4,142.2 96.5,144.4 95,145.1 94.9,147.1      93.9,147.5 92.9,146.9 92.1,148 92.3,147 91.9,146.1 86.7,144.6 85.5,145.7 84.2,148.7 82.7,146.9 81.5,146.7 80.9,143.9      80.5,143.3 79,143.8 77.5,144.9 73.9,144.5 71.5,146.4 69.7,146.5 68.7,146.3 68.3,145.4 67,144.9 63,146.5 59.8,146.5      58.9,147.5 56.5,148.7 54.3,149.2 51.9,150.7 51.1,152.4 51,154.6 50,157 50.2,159.2 49.6,160.2 51,161.6 53.5,161.1 55.8,161.8      60.1,160.5 63.6,159.8 63.6,160.1 62.8,161.8 62.6,162.8 63.6,163.3 66.7,162.7 66.9,164.3 68.5,165.7 68.3,166.1 66.3,165.6      63.9,166.2 59.6,165.3 58.6,164.7 58.2,163.2 57.5,162.9 56.7,164.6 55.8,165.6 57.3,167.4 57.6,170.6 60.2,168.4 64.9,170.2      65.9,171.4 66.7,172.6 66.3,175.2 65.1,176.2 62.2,175.6 52.4,176.5 50.9,177.6 55.3,180 57.3,180.8 60.3,183 61.9,185.8      62.4,187.9 62.6,189.8 62.1,191.5 62.1,192.1 65.4,193.1 67.6,192.9 69,191.8 68.9,190.2 69.2,189.9 72.1,189.9 75,190.6      75.7,190.5 76.5,189.2 77.1,188.8 78.5,190.3 79.7,192.4 81.1,194.2 83.4,194.9 85.3,194.7 87.3,196.1 91.2,197 92.4,196      92.5,193.7 93,192.7 92.5,194.1 92.8,196.9 94.4,200.2 95.4,200.8 97,201 99.4,199.5 99.2,201.1 100.9,201.9 103,204.2 106,209         "
   id="polyline323"
   style="fill:#d5d5d5;fill-opacity:1;stroke:#ffffff;stroke-opacity:1" />
			<polyline
   fill="none"
   stroke="#828282"
   stroke-width="0.5"
   stroke-linecap="round"
   stroke-linejoin="round"
   points="116.1,139      115.8,140 116.2,140.3 116.5,140.3 116.8,139.6 116.7,139 116.1,139    "
   id="polyline325"
   style="fill:#d5d5d5;fill-opacity:1;stroke:#ffffff;stroke-opacity:1" />
			<polyline
   fill="none"
   stroke="#828282"
   stroke-width="0.5"
   stroke-linecap="round"
   stroke-linejoin="round"
   points="79.2,142.5      79.4,142.1 80.1,142.1 80,141.4 79.4,141.5 78.8,141.9 79.2,142.5    "
   id="polyline327"
   style="fill:#d5d5d5;fill-opacity:1;stroke:#ffffff;stroke-opacity:1" />
			<polyline
   fill="none"
   stroke="#828282"
   stroke-width="0.5"
   stroke-linecap="round"
   stroke-linejoin="round"
   points="38.7,152.6      38.8,152.9 37.8,153.3 37.6,153.7 37.6,154 38.1,153.6 38.8,153.5 38.9,154.2 38.6,154.2 38.6,154.5 39.2,154.5 39.5,154.1      40.5,154 40.7,153.7 40.4,153.1 40.7,152.7 40,152.5 39.7,152.8 39.4,152.5 38.7,152.6    "
   id="polyline329"
   style="fill:#d5d5d5;fill-opacity:1;stroke:#ffffff;stroke-opacity:1" />
			<polyline
   fill="none"
   stroke="#828282"
   stroke-width="0.5"
   stroke-linecap="round"
   stroke-linejoin="round"
   points="44,157.8      43.6,156.9 43.3,157.3 43.4,157.9 44,157.8    "
   id="polyline331"
   style="fill:#d5d5d5;fill-opacity:1;stroke:#ffffff;stroke-opacity:1" />
			<polyline
   fill="none"
   stroke="#828282"
   stroke-width="0.5"
   stroke-linecap="round"
   stroke-linejoin="round"
   points="74.8,198.2      74.5,199.2 75.2,199.2 75.1,198.5 74.8,198.2    "
   id="polyline333"
   style="fill:#d5d5d5;fill-opacity:1;stroke:#ffffff;stroke-opacity:1" />
			<polyline
   fill="none"
   stroke="#828282"
   stroke-width="0.5"
   stroke-linecap="round"
   stroke-linejoin="round"
   points="95.4,204.3      94.7,204 94.4,203.7 93.1,203.2 92.5,203.6 92.5,204.2 93.2,204.8 94.2,205.4 95.1,204.9 95.8,205.5 96.1,204.9 95.4,204.3         "
   id="polyline335"
   style="fill:#d5d5d5;fill-opacity:1;stroke:#ffffff;stroke-opacity:1" />
			
			<polyline
   fill="none"
   stroke="#828282"
   stroke-width="0.5"
   stroke-linecap="round"
   stroke-linejoin="round"
   points="118.2,209.5      119,208.8 118.7,208.5 118.1,208.9 118.2,209.5    "
   id="polyline339"
   style="fill:#d5d5d5;fill-opacity:1;stroke:#ffffff;stroke-opacity:1" />
			<polyline
   fill="none"
   stroke="#828282"
   stroke-width="0.5"
   stroke-linecap="round"
   stroke-linejoin="round"
   points="116.8,209      116.8,208.3 116.2,209 116,210 116.3,210 116.5,209 116.8,209    "
   id="polyline341"
   style="fill:#d5d5d5;fill-opacity:1;stroke:#ffffff;stroke-opacity:1" />
			<polyline
   fill="none"
   stroke="#828282"
   stroke-width="0.5"
   stroke-linecap="round"
   stroke-linejoin="round"
   points="106,209      105,211.7 105.5,214.2 105.6,214.5 106.2,214.1 106.5,214.4 107.2,214.6 107.1,214.3 106.4,213.1 106,209    "
   id="polyline343"
   style="fill:#d5d5d5;fill-opacity:1;stroke:#ffffff;stroke-opacity:1" />
			<polyline
   fill="none"
   stroke="#828282"
   stroke-width="0.5"
   stroke-linecap="round"
   stroke-linejoin="round"
   points="98.9,201.4      98.6,201.1 98.3,201.2 98.7,202.1 98.9,201.4    "
   id="polyline345"
   style="fill:#d5d5d5;fill-opacity:1;stroke:#ffffff;stroke-opacity:1" />
			<polyline
   fill="none"
   stroke="#828282"
   stroke-width="0.5"
   stroke-linecap="round"
   stroke-linejoin="round"
   points="102.2,219.6      100.9,218.7 101,219.7 100.6,219.7 100.4,220.7 100.5,221.3 101.2,222.2 100.6,222.9 101,223.5 101.7,224.1 102.3,223.7      102.9,224 103.2,223.6 103.9,224.2 104.6,224.4 105.6,224.7 106.3,225.2 106.9,224.9 107.7,223.8 107.3,223.2 106,223      105.4,222.8 105.4,222.5 104.7,221.9 104.6,221.6 104.3,221.3 104.2,220.3 103.9,220.4 102.9,220.1 102.2,219.6    "
   id="polyline347"
   style="fill:#d5d5d5;fill-opacity:1;stroke:#ffffff;stroke-opacity:1" />
			<polyline
   fill="none"
   stroke="#828282"
   stroke-width="0.5"
   stroke-linecap="round"
   stroke-linejoin="round"
   points="111.8,219.9      112.1,219.6 111.7,219.3 111.4,219.3 111.1,218.7 110.8,219.1 111.1,219.7 111.8,219.9    "
   id="polyline349"
   style="fill:#d5d5d5;fill-opacity:1;stroke:#ffffff;stroke-opacity:1" />
			<polyline
   fill="none"
   stroke="#828282"
   stroke-width="0.5"
   stroke-linecap="round"
   stroke-linejoin="round"
   points="114.2,222.3      114,222.6 114.3,222.9 114.9,222.8 115.2,222.2 114.2,222.3    "
   id="polyline351"
   style="fill:#d5d5d5;fill-opacity:1;stroke:#ffffff;stroke-opacity:1" />
			<polyline
   fill="none"
   stroke="#828282"
   stroke-width="0.5"
   stroke-linecap="round"
   stroke-linejoin="round"
   points="167.2,155.6      168,157.1 168.1,158.1 168.5,159 168.3,160 169.9,163.3 171.2,163.8 171.9,165 173.5,165.2 175.6,163.4 177.1,162.6 177.6,161.3      178.6,160.9 184.8,163.2    "
   id="polyline353"
   style="fill:#d5d5d5;fill-opacity:1;stroke:#ffffff;stroke-opacity:1" />
			<polyline
   fill="none"
   stroke="#828282"
   stroke-width="0.5"
   stroke-linecap="round"
   stroke-linejoin="round"
   points="184.8,163.2      184.6,164.2 184.8,166.1 184.3,167.7 185.1,170.2 184.9,170.8 185.1,173 183.7,175.1 183.2,176.4 183.4,179.2 183.8,180.2      183.7,181.8 184.1,182.7 184.4,186.2 185.1,187.4 185,189.3 185.2,191.2 183.7,192 181.7,191.8 181.2,192.5 180.3,192.9      179.3,196.2 178.4,196.9 178.5,198.2 177.6,198.9 177.4,200.2 176.6,201.2 176.4,202.8 172.2,201.6 171,199.8 168.1,199.4      167.8,199.5 168.2,200.4 168,201 163.9,202.1 162.4,202.8 161.1,205.5 159.5,205.3 158.6,206.1 153.3,205.3 149.7,206.9      149.7,206.6 149.3,206 147.8,207.1 146.6,207.2 146,207.9 145.1,207.9 144.5,209 144.9,209.9 144.1,210.9 144,214.1 143.4,214.5      142.8,214.2 142.2,214.6 141.3,216.2 140.7,216 140.6,215 138.5,215.9 138.1,215.6 138.1,215 136.8,214.8 135.4,217.4      132.6,217.4 131.8,216.5 131,217.2 130.3,217.9    "
   id="polyline355"
   style="fill:#d5d5d5;fill-opacity:1;stroke:#ffffff;stroke-opacity:1" />
			<polyline
   fill="none"
   stroke="#828282"
   stroke-width="0.5"
   stroke-linecap="round"
   stroke-linejoin="round"
   points="159,141.7      158.9,141.1 158.6,141.5 158.4,142.1 158.7,142.1 159,141.7    "
   id="polyline357"
   style="fill:#d5d5d5;fill-opacity:1;stroke:#ffffff;stroke-opacity:1" />
			
			<polyline
   fill="none"
   stroke="#828282"
   stroke-width="0.5"
   stroke-linecap="round"
   stroke-linejoin="round"
   points="125.2,213.6      124.6,213.7 124.3,214.3 124.7,214.6 125.2,213.6    "
   id="polyline361"
   style="fill:#d5d5d5;fill-opacity:1;stroke:#ffffff;stroke-opacity:1" />
			<polyline
   fill="none"
   stroke="#828282"
   stroke-width="0.5"
   stroke-linecap="round"
   stroke-linejoin="round"
   points="178.4,283.1      179.3,281.8 180.8,281.3 182.1,281.5 183.6,280.7 183.7,281.7 182.9,283 183.6,283.6 186.1,283.1 186.7,283.3 187.3,282.3      188.9,282.5 188.9,283.1 190.7,284.5 191.6,284.4 192.5,283.7 192.8,283.4 194.7,283.8 196.5,281.8 198,281.6 198.9,280.3      196.5,278.9 195.7,279.9 195.3,279.7 195.1,277.8 196.3,276.4 195.4,273.3 195.6,272.6 196.6,272.5 196.8,271.6 196.3,270      196.4,267.5 196,266.5 195.1,266.6 195.5,265 194.5,263.8 195,262.8 193.9,261 193.8,260.4 193.5,260.1 192.8,259.2 193,258.2      193.5,256.9 193.5,256.6 191.1,255.2 189.3,252.5 189.8,250.9 188,248.5 187.7,249.2 187.6,247.9 186.9,247.7 187.2,247.3      188.2,247.5 191.3,246.3 193.9,247.3 194.2,247 195.7,246.5 197.7,247 200.1,245.2 200.2,243.2 202.4,242.4 203,242.7      202.8,243.6 205.3,243.4 206.2,242.4 208.4,242.5 211.5,241.9 213.1,242 214.1,241.6 215.4,242.1 214.6,243.8 215.9,244.3      216.8,243.9 217,242.9 217.6,242.3 219.6,242.7 219.4,240.8 220.8,238.8 221.7,238.4 223,238.9    "
   id="polyline363"
   style="fill:#d5d5d5;fill-opacity:1;stroke:#ffffff;stroke-opacity:1" />
			<polyline
   fill="none"
   stroke="#828282"
   stroke-width="0.5"
   stroke-linecap="round"
   stroke-linejoin="round"
   points="139.6,248.5      140.1,247.2 140.1,246.6 139.7,246 137.3,244.3 137,244 137.2,243.4 137.5,243.3 137.8,242.7 137.4,242.1 136.7,241.8      136.4,241.5 135.7,241.3 134.8,241.4 134.8,242.3 134.6,243 134.7,243.3 135.3,243.9 136.1,245.1 136.7,244.7 137.3,244.9      138.3,245.8 139.6,248.2 139.6,248.5    "
   id="polyline365"
   style="fill:#d5d5d5;fill-opacity:1;stroke:#ffffff;stroke-opacity:1" />
			<polyline
   fill="none"
   stroke="#828282"
   stroke-width="0.5"
   stroke-linecap="round"
   stroke-linejoin="round"
   points="132.2,257.8      131.8,257.5 130.8,257 129.9,257.4 130,258 130.3,258.6 130.3,259 131,258.9 131,259.2 132,259.4 132.3,259.7 133,259.3      133.9,259.6 133.6,259 132.8,258.1 132.2,257.8    "
   id="polyline367"
   style="fill:#d5d5d5;fill-opacity:1;stroke:#ffffff;stroke-opacity:1" />
			
			<polyline
   fill="none"
   stroke="#828282"
   stroke-width="0.5"
   stroke-linecap="round"
   stroke-linejoin="round"
   points="161.8,285.3      160.6,286.1 160,286.1 160,286.4 160.8,288.3 161.8,288.8 163,288.4 163.7,288.6 166,290 167.4,291.5 169.1,292.3 170.1,292.2      170.6,291.5 170.3,290.9 169.8,289.7 169.2,289.4 168.9,289.7 167.2,288.3 164.9,288.5 164.3,288.3 164.6,287.9 165.2,287.5      165.5,287.2 164.8,286.9 163.9,287 163,287.7 162.7,287.8 162.4,288.4 162.3,287.8 162,287.5 161.6,286.9 162.2,286.5      162.6,287.1 163.2,286.8 162.8,285.9 162.4,285.6 161.8,285.3    "
   id="polyline371"
   style="fill:#d5d5d5;fill-opacity:1;stroke:#ffffff;stroke-opacity:1" />
			<polyline
   fill="none"
   stroke="#828282"
   stroke-width="0.5"
   stroke-linecap="round"
   stroke-linejoin="round"
   points="165.1,297.1      165.7,299.9 165.5,300.9 165.6,302.1 167,304.2 169.1,305.6 169.8,306.5 170.3,308.1 170.5,310.6 170.8,310.9 172.3,309.5      172.2,308.2 173,306.5 172.6,305.6 171.5,304.1 171.2,301 168.6,300.3 166.4,297.6 165.1,297.1    "
   id="polyline373"
   style="fill:#d5d5d5;fill-opacity:1;stroke:#ffffff;stroke-opacity:1" />
			<polyline
   fill="none"
   stroke="#828282"
   stroke-width="0.5"
   stroke-linecap="round"
   stroke-linejoin="round"
   points="176.1,302.4      175.5,302.5 175.8,303.1 176.5,303 176.1,302.4    "
   id="polyline375"
   style="fill:#d5d5d5;fill-opacity:1;stroke:#ffffff;stroke-opacity:1" />
			<polyline
   fill="none"
   stroke="#828282"
   stroke-width="0.5"
   stroke-linecap="round"
   stroke-linejoin="round"
   points="173.5,298.9      173.6,299.2 174.6,299.4 174.1,298.5 173.5,298.9    "
   id="polyline377"
   style="fill:#d5d5d5;fill-opacity:1;stroke:#ffffff;stroke-opacity:1" />
			<polyline
   fill="none"
   stroke="#828282"
   stroke-width="0.5"
   stroke-linecap="round"
   stroke-linejoin="round"
   points="189.8,344.1      189.5,344.1 189.3,344.8 189.7,346.1 190,346.1 189.8,344.1    "
   id="polyline379"
   style="fill:#d5d5d5;fill-opacity:1;stroke:#ffffff;stroke-opacity:1" />
			<polyline
   fill="none"
   stroke="#828282"
   stroke-width="0.5"
   stroke-linecap="round"
   stroke-linejoin="round"
   points="190.2,347.6      190.3,348.6 190.5,348.2 190.4,347.2 190.2,347.6    "
   id="polyline381"
   style="fill:#d5d5d5;fill-opacity:1;stroke:#ffffff;stroke-opacity:1" />
			<polyline
   fill="none"
   stroke="#828282"
   stroke-width="0.5"
   stroke-linecap="round"
   stroke-linejoin="round"
   points="305.6,281.8      306.1,279.9 306.6,278.9 307.2,278.8 307.5,277.8 308.3,276.8 312.1,276.1 313.6,275.7 314,276.3 314.9,275.9 315.6,276.1      318,274.6 317.8,272.7 316.8,271.9 317.5,269.9 316.5,269 317.7,268.3 318.7,268.8 319,268.2 318.6,267.2 320.4,266.4      321.3,265.7 321.6,265.4 321.8,264.4 322.8,264.3 323.8,265.5 325.3,264.7 327,265.2 327.2,264.2 329.8,261.7 331.1,261.6      331.7,260.9 333.9,261.4    "
   id="polyline383"
   style="fill:#d5d5d5;fill-opacity:1;stroke:#ffffff;stroke-opacity:1" />
			<polyline
   fill="none"
   stroke="#828282"
   stroke-width="0.5"
   stroke-linecap="round"
   stroke-linejoin="round"
   points="223,238.9      223.9,241 225.1,240.9 226.5,242.4 227.4,242 228.2,243.2 227.6,243.9 227.3,243.9 227.4,244.5 228.4,245.1 229.9,244.3      230.6,244.6 230.6,245.5 231.9,245.4 232,246.3 231.7,249.9 232.1,251.4 232.5,252 234.4,251.2 236.7,252.3 239.1,250.8      240,250.7 242.6,251.1 242.8,250.1 242.2,249.5 242,248.3 243.6,248.4 244.4,249.3 246.3,250.1 246.8,252 246.7,254.2      248.5,256.3 249.9,257.1 250.8,260.2 252.6,262.9 254,263.7 254.8,265.5 254.2,266.5 254.4,268.1 253.5,269.2 254,270.7      256.1,272.4 258,272.9 258.1,274.5 260.7,274.5 262.4,276 262.7,279.1 264.1,280.6 265.1,280.5 263.7,282.8 264.9,282.7      265.7,283.9 266.9,283.5 268.6,283.7 269.4,282.3 270.3,282.2 272.4,284.3 272.8,285.2 275.8,282.7 276.9,281 277.6,281.6      277.9,282.5 280.4,281.3 280.5,282.6 281.2,283.1 281.5,283.1 283,281.7 284.1,282.9 284.7,283.1 285.8,281.1 285.7,280.2      286.3,279.8 287.3,279.7 288.9,281.1 291.4,280.6 292.2,280.8 294.4,280.6 298.6,282.1 301.4,281.6 305.6,281.8    "
   id="polyline385"
   style="fill:#d5d5d5;fill-opacity:1;stroke:#ffffff;stroke-opacity:1" />
			<polyline
   fill="none"
   stroke="#828282"
   stroke-width="0.5"
   stroke-linecap="round"
   stroke-linejoin="round"
   points="296.7,360.6      299.5,360.1 299.4,359.1 298.7,358.2 297.9,356.4 299.6,354.6 300.9,354.8 301.4,352.9 301.3,351.9 301.9,351.8 302.4,350.8      303.1,350.5 302,349.3 301.6,348.1 301.8,347.4 303.6,345.6 304.7,343.6 305.6,343.5 306.4,341.9 308,341.4 308.6,338.2      308.2,336.9 309.1,336.9 312.8,339.1 314.7,338.3 314.6,337.6 313.2,336.5 314.2,329.7 313.5,328.8 312.4,327 313.1,324.7      314.4,324.6 314.6,323.6 314.2,323 314.8,322 314.6,320.8 313.2,318.7 311.8,317.8 311.5,317.9 311,316.3 309.6,314.2      309.9,313.9 311.1,313.8 311.7,313.1 311.6,312.1 311.9,312.1 313.5,312.3 314.1,311.3 315.5,309.9 315.7,308.6 316.6,307.2      317.8,306.5 317.3,305.2 317.8,303.3 316.4,302.1 315.9,300.3 315.8,298.7 316.3,297.1 316.1,295.5 314.8,294.7 314.2,291.8      313.5,291 313,289.4 312,288.9 310.7,289 310.6,288 309.6,286.9 308.7,287.6 307,286.8 306.6,285.5 307.4,284.5 305.8,283.7      305.6,281.8    "
   id="polyline387"
   style="fill:#d5d5d5;fill-opacity:1;stroke:#ffffff;stroke-opacity:1" />
			<polyline
   fill="none"
   stroke="#828282"
   stroke-width="0.5"
   stroke-linecap="round"
   stroke-linejoin="round"
   points="200,474      200.2,473 199.7,470.5 201.4,469 201.4,465.5 202.4,465.1 202.6,463.9 204.2,464 205,463.3 205.4,459.8 207.2,459 208.6,456.6      209.2,456.9 210.5,456.4 210.2,454.2 211.2,454.1 212.6,452.1 212.5,451.2 211.8,450.3 211.7,449.6 212.6,448.6 213.8,448.2      214.4,447.5 213.6,446 213.7,443.4 213.6,442.5 212.3,442.6 211.8,443.6 211.5,443.6 211.1,442.4 211.3,441.4 212.8,440.6      212.1,439.4 211.9,437.2 210.2,436.1 210,434.2 207.4,434.1 206.7,433.6 204.2,434.1 203.8,433.2 204.1,432.5 203.1,432      202.7,431.1 203.3,431 204.5,429.9 204.4,429.3 204.1,428.7 204.6,428 204.2,427.1 206.3,425.6 206.3,425.3 205.6,425.1      205.9,424.4 205.3,421.9 206.6,421.8 206.8,420.5 206.4,419.3 206.9,418.6 206.9,417.9 205.2,417.1 205.5,416.5 206.4,416.1      207.6,415 209.8,414.8 210.8,415.4 210.7,414.7 211.7,414.6 213.4,412.6 214.8,414.3 214,415.7 215.7,417.1 216.7,417.4      217.5,416.3 217,414.1 217.5,412.8 220,412.3 220.4,413.2 220.8,413.2 222.2,411.4 223.4,411 224.5,411.9 226.7,412.6      227.3,411.9 229.8,411.7 231.7,410.9 233.1,409.5 235.4,409.6 236.3,409.5 238.1,408.4 238.8,409.3 240.9,411 242.7,409.8      244,409.4 244.3,409.4 243.9,409.1 243.9,408.8 244.7,407.1 246.2,406.3 246.4,405.1 249.1,406.1 249.9,405.4 249.8,403.8      248.8,403.6 248.8,402.9 250.6,402.4 251.4,400.8 251.8,398.5 252.5,398.1 251.4,396.6 250.4,396.7 249.4,395.9 250.5,394.2      250.4,392.9 250.6,392.2 251.6,392.2 252.3,393.4 254.5,393.2 256.4,393.3 257,392.6 256.6,391.7 256.8,390.1 255.7,388.9      255.6,387.3 255.2,386.7 255.4,385.4 254.3,383.3 254.9,383.3 255.5,383.6 257.9,381.7 258.6,382 258.8,380.7 260.8,378.6      260.6,376.7 263.4,375.8 265.4,374.1 266.4,374.2 267.5,371.9 266.8,371.1 266.7,370.1 269.2,369.2 269.3,367.6 270.9,367.1      271.4,365.8 272.4,365.7 272.3,365.1 271.2,363.9 272.4,363.2 271.6,361.1 271.4,358.8 272.9,357.7 273.5,358 275.9,356.5      276.7,357.4 277.9,356.9 280.2,357.4 281.9,359.1 283,360.6 284.4,361.7 284.4,362.4 285.4,363.2 285.8,362.9 287.1,363.1      287.6,362.4 289.8,361.6 290.6,360.6 291.6,360.8 292,361.7 293.8,360.6 295.7,360.4 296.7,360.6    "
   id="polyline389"
   style="fill:#d5d5d5;fill-opacity:1;stroke:#ffffff;stroke-opacity:1" />
			
			<polyline
   fill="none"
   stroke="#828282"
   stroke-width="0.5"
   stroke-linecap="round"
   stroke-linejoin="round"
   points="293.3,498.7      292.3,498.5 291.7,498.2 291.3,497.9 291.5,497 292.1,496.6 292.4,495.9 293.1,496.5 292.5,497.2 292.9,497.8 293.6,498.4      293.3,498.7    "
   id="polyline393"
   style="fill:#d5d5d5;fill-opacity:1;stroke:#ffffff;stroke-opacity:1" />
			<polyline
   fill="none"
   stroke="#828282"
   stroke-width="0.5"
   stroke-linecap="round"
   stroke-linejoin="round"
   points="210.5,446.3      210.9,447.2 210.7,449.1 209.5,449.2 209.8,449.8 210,452 209.8,452.4 209.1,452.4 209.2,452.7 208.5,452.8 208.1,451.9      208,450.6 209.1,448.9 209,448 210,447.9 209.9,446.9 209.2,446.4 209.8,445.7 210.5,446.3    "
   id="polyline395"
   style="fill:#d5d5d5;fill-opacity:1;stroke:#ffffff;stroke-opacity:1" />
			
			
			
			<polyline
   fill="none"
   stroke="#828282"
   stroke-width="0.5"
   stroke-linecap="round"
   stroke-linejoin="round"
   points="495.3,436      494.3,435.8 494.3,436.4 495,436.4 495.3,436    "
   id="polyline403"
   style="fill:#d5d5d5;fill-opacity:1;stroke:#ffffff;stroke-opacity:1" />
			<polyline
   fill="none"
   stroke="#828282"
   stroke-width="0.5"
   stroke-linecap="round"
   stroke-linejoin="round"
   points="452.2,462.6      451.5,462.1 450.9,462.4 450.6,461.8 450,462.5 450.4,463.1 451.3,462.7 451.9,463 452.2,462.6    "
   id="polyline405"
   style="fill:#d5d5d5;fill-opacity:1;stroke:#ffffff;stroke-opacity:1" />
			<polyline
   fill="none"
   stroke="#828282"
   stroke-width="0.5"
   stroke-linecap="round"
   stroke-linejoin="round"
   points="445.3,463      445.5,462.6 445.2,462.3 444.9,462.4 444.9,463 445.3,463    "
   id="polyline407"
   style="fill:#d5d5d5;fill-opacity:1;stroke:#ffffff;stroke-opacity:1" />
			<polyline
   fill="none"
   stroke="#828282"
   stroke-width="0.5"
   stroke-linecap="round"
   stroke-linejoin="round"
   points="462.7,465.8      462.4,466.1 461.4,465.6 460.8,466.3 462.2,466.8 462.5,467.1 462.8,466.4 464.3,466 464.2,465 463.9,464.7 463.3,465.4      462.7,465.5 462.7,465.8    "
   id="polyline409"
   style="fill:#d5d5d5;fill-opacity:1;stroke:#ffffff;stroke-opacity:1" />
			<polyline
   fill="none"
   stroke="#828282"
   stroke-width="0.5"
   stroke-linecap="round"
   stroke-linejoin="round"
   points="469.6,465.1      469.1,465.8 470,466.1 470.7,466 470.9,465.3 470.6,464.7 470,465.1 469.6,465.1    "
   id="polyline411"
   style="fill:#d5d5d5;fill-opacity:1;stroke:#ffffff;stroke-opacity:1" />
			<polyline
   fill="none"
   stroke="#828282"
   stroke-width="0.5"
   stroke-linecap="round"
   stroke-linejoin="round"
   points="471.6,465.3      471.9,465.6 472.2,464.9 473.1,464.8 473.1,464.2 473.6,463.5 474.5,463.1 474.5,462.8 473,463.2 472.4,464.2 471.8,464.3      471.6,465.3    "
   id="polyline413"
   style="fill:#d5d5d5;fill-opacity:1;stroke:#ffffff;stroke-opacity:1" />
			<polyline
   fill="none"
   stroke="#828282"
   stroke-width="0.5"
   stroke-linecap="round"
   stroke-linejoin="round"
   points="426.1,452      425.8,451.7 425.5,452.1 425.5,452.7 425.8,452.7 426.1,452    "
   id="polyline415"
   style="fill:#d5d5d5;fill-opacity:1;stroke:#ffffff;stroke-opacity:1" />
			<polyline
   fill="none"
   stroke="#828282"
   stroke-width="0.5"
   stroke-linecap="round"
   stroke-linejoin="round"
   points="424.6,452.8      425,453.7 425.3,453.4 425.2,452.4 424.6,452.8    "
   id="polyline417"
   style="fill:#d5d5d5;fill-opacity:1;stroke:#ffffff;stroke-opacity:1" />
			<polyline
   fill="none"
   stroke="#828282"
   stroke-width="0.5"
   stroke-linecap="round"
   stroke-linejoin="round"
   points="429.1,457.1      428.9,457.8 429.5,458.1 429.5,457.4 429.1,457.1    "
   id="polyline419"
   style="fill:#d5d5d5;fill-opacity:1;stroke:#ffffff;stroke-opacity:1" />
		</g><g
       id="Cadre"
       transform="matrix(0.26458333,0,0,0.26458333,18.603944,13.455497)">
	<g
   id="g521">
		<polyline
   fill="none"
   stroke="#ffffff"
   stroke-linecap="round"
   stroke-linejoin="round"
   points="629.5,0.5 0.5,0.5 0.5,650.5     629.5,650.5 629.5,0.5   "
   id="polyline519" />
	</g>
</g></g></svg>
