<?xml version="1.0" encoding="UTF-8" standalone="no"?>
<!-- Created with Inkscape (http://www.inkscape.org/) -->

<svg
   version="1.1"
   id="svg132"
   width="604.724"
   height="302.36267"
   viewBox="0 0 604.724 302.36267"
   sodipodi:docname="Banner.pdf"
   xmlns:inkscape="http://www.inkscape.org/namespaces/inkscape"
   xmlns:sodipodi="http://sodipodi.sourceforge.net/DTD/sodipodi-0.dtd"
   xmlns="http://www.w3.org/2000/svg"
   xmlns:svg="http://www.w3.org/2000/svg">
  <defs
     id="defs136" />
  <sodipodi:namedview
     id="namedview134"
     pagecolor="#ffffff"
     bordercolor="#000000"
     borderopacity="0.25"
     inkscape:showpageshadow="2"
     inkscape:pageopacity="0.0"
     inkscape:pagecheckerboard="0"
     inkscape:deskcolor="#d1d1d1"
     showgrid="false" />
  <g
     id="g140"
     inkscape:groupmode="layer"
     inkscape:label="Page 1"
     transform="matrix(1.3333333,0,0,-1.3333333,0,302.36267)">
    <g
       id="g882"
       transform="translate(0,-10.228366)">
      <path
         id="path941"
         style="font-size:70.0498px;font-family:'Explore Sans';-inkscape-font-specification:ExploreSans"
         d="m 229.56885,197.16395 v -46.72266 c 0,-4.17289 2.1901,-6.36182 6.08936,-6.36182 1.50497,0 3.00982,0.20567 4.30957,0.75293 l -0.75293,3.28272 h -2.12109 c -1.7786,0 -2.53125,0.75309 -2.53125,2.6001 v 46.44873 z m -120.0293,-4.17188 v -48.36475 h 4.92481 25.03711 v 4.17188 h -25.03711 v 19.771 h 19.70215 v 4.51465 h -19.70215 v 15.73388 h 25.03711 v 4.17334 H 114.46436 Z M 203.7085,180.6786 c -5.5304,0 -8.89058,-2.67102 -10.87793,-5.37452 l -0.88769,4.82666 h -3.89942 v -48.97998 h 4.99365 v 17.22657 c 1.86879,-2.21399 5.10796,-4.29786 10.39893,-4.29786 8.6878,0 16.34912,6.49853 16.34912,18.19629 0,13.06591 -7.59408,18.40284 -16.07666,18.40284 z m 59.11524,0 c -9.23507,0 -16.41797,-6.77363 -16.41797,-18.19776 0,-11.42413 7.79857,-18.40137 16.41797,-18.40137 9.23507,0 16.69189,6.97724 16.69189,18.40137 0,11.42413 -7.45682,18.19776 -16.69189,18.19776 z m 40.65527,0 c -4.56629,0 -7.18006,-2.15115 -8.57959,-5.50782 l -0.65625,4.95996 h -3.89941 v -35.50342 h 4.99511 v 18.5376 c 0,7.86692 0.75178,13.13526 7.86622,13.13526 h 4.10449 l 0.95801,3.69433 c -1.7102,0.54726 -2.66793,0.68409 -4.78858,0.68409 z m 27.58008,0 c -9.91915,0 -16.14404,-7.18408 -16.14404,-18.19776 0,-11.1505 6.43026,-18.40137 15.93896,-18.40137 6.36195,0 10.26095,2.12111 14.0918,6.22559 l -3.0791,2.80518 c -2.53109,-3.48881 -6.29313,-4.92627 -10.87647,-4.92627 -7.11442,0 -11.08154,5.5408 -11.08154,12.72363 h 24.42188 c 0.75248,1.29976 0.88916,2.87417 0.88916,4.72119 0,9.57711 -6.70419,15.04981 -14.16065,15.04981 z m -184.63038,-0.54786 12.92872,-17.71728 -12.92872,-17.78614 h 6.15674 l 9.85108,14.57081 9.78222,-14.57081 h 6.15674 l -12.86133,17.78614 12.86133,17.71728 h -6.15674 l -9.78222,-14.36572 -9.85108,14.36572 z m 116.39503,-3.55664 c 6.29352,0 11.76562,-4.92646 11.76562,-14.29834 0,-9.37189 -5.4721,-14.09179 -11.76562,-14.09179 -6.29354,0 -11.49317,4.7199 -11.49317,14.09179 0,9.37188 5.19963,14.29834 11.49317,14.29834 z m 68.1665,0 c 5.33582,0 9.57715,-3.48987 9.57715,-10.19384 v -1.23047 H 319.9087 c 0,6.29353 3.76189,11.42431 11.08154,11.42431 z m -127.5542,-0.0688 c 6.9092,0 11.35547,-4.30932 11.35547,-14.29688 0,-9.09826 -5.19905,-13.95557 -11.6294,-13.95557 -5.88308,0 -10.125,3.35159 -10.125,8.82422 v 10.19239 c 0,5.33581 4.37903,9.23584 10.39893,9.23584 z M 182.24561,111.58338 V 99.902714 c 0,-1.043217 0.54716,-1.59082 1.52197,-1.59082 0.37625,0 0.75172,0.05215 1.07666,0.188965 l -0.1875,0.820313 h -0.53027 c -0.44465,0 -0.63281,0.188638 -0.63281,0.65039 v 11.611818 z m 77.85791,0 V 99.902714 c 0,-1.043217 0.54717,-1.59082 1.52197,-1.59082 0.37624,0 0.75319,0.05215 1.07813,0.188965 l -0.18896,0.820313 h -0.53028 c -0.44465,0 -0.63281,0.188638 -0.63281,0.65039 v 11.611818 z m 76.79737,0 V 99.902714 c 0,-1.043217 0.54716,-1.59082 1.52197,-1.59082 0.37624,0 0.75319,0.05215 1.07813,0.188965 l -0.18897,0.820313 h -0.53027 c -0.44465,0 -0.63282,0.188638 -0.63282,0.65039 V 111.58338 Z M 178.20557,111.0868 c -0.49595,0 -0.89062,-0.40932 -0.89062,-0.90528 0,-0.49596 0.39467,-0.88916 0.89062,-0.88916 0.49596,0 0.88916,0.3932 0.88916,0.88916 0,0.49596 -0.3932,0.90528 -0.88916,0.90528 z m 101.34668,0 c -0.49596,0 -0.88916,-0.40932 -0.88916,-0.90528 0,-0.49596 0.3932,-0.88916 0.88916,-0.88916 0.49596,0 0.89063,0.3932 0.89063,0.88916 0,0.49596 -0.39467,0.90528 -0.89063,0.90528 z M 66.143556,110.96814 c -1.470766,0 -2.600097,-0.8382 -2.600097,-2.47998 v -1.16308 l -1.709473,-0.27393 v -0.76904 h 1.709473 v -7.832521 h 1.265625 v 7.832521 h 1.026855 1.419434 v 1.04297 h -2.446289 v 1.23047 c 0,1.04322 0.479815,1.4209 1.40332,1.4209 h 1.145508 l 0.153808,0.82031 c -0.530159,0.13682 -0.889309,0.17138 -1.368164,0.17138 z m 83.493164,0 c -1.47077,0 -2.59863,-0.8382 -2.59863,-2.47998 v -1.16308 l -1.71094,-0.27393 v -0.76904 h 1.71094 v -7.832521 h 1.26562 v 7.832521 h 1.0254 1.41943 v 1.04297 h -2.44483 v 1.23047 c 0,1.04322 0.47835,1.4209 1.40186,1.4209 h 1.14551 l 0.15381,0.82031 c -0.53016,0.13682 -0.88932,0.17138 -1.36817,0.17138 z m 153.84815,-0.13769 v -4.45606 c -0.48059,0.55834 -1.31676,1.08692 -2.6499,1.08692 -2.17195,0 -4.03711,-1.48768 -4.03711,-4.41211 0,-3.266476 1.89888,-4.737306 4.01953,-4.737306 1.37862,0 2.21843,0.697622 2.71582,1.391602 l 0.22559,-1.253907 h 0.9917 V 110.83045 Z M 51.24463,110.54041 46.952638,98.449589 h 1.230469 l 1.104492,3.146481 h 5.20166 l 0.997559,-3.146481 h 1.230469 l -3.864258,12.090821 h -0.427735 z m 40.545411,-0.35889 -1.249511,-0.87304 v -1.9834 h -1.760743 v -1.02686 h 1.760743 v -5.28369 c 0,-1.470763 0.154811,-2.702636 2.189941,-2.702636 0.61567,0 0.992326,0.0687 1.488281,0.273926 l -0.188964,0.735352 h -0.974122 c -1.026116,0 -1.265625,0.358597 -1.265625,1.453128 v 5.52392 h 2.222168 v 1.02686 h -2.222168 z m 163.264169,0 -1.24805,-0.87304 v -1.9834 h -1.76221 v -1.02686 h 1.76221 v -5.28369 c 0,-1.470763 0.15335,-2.702636 2.18848,-2.702636 0.61566,0 0.99233,0.0687 1.48828,0.273926 l -0.1875,0.735352 h -0.97559 c -1.02612,0 -1.26562,0.358597 -1.26562,1.453128 v 5.52392 h 2.22363 v 1.02686 h -2.22363 z m 144.03662,0 -1.24805,-0.87304 v -1.9834 h -1.7622 v -1.02686 h 1.7622 v -5.28369 c 0,-1.470763 0.15335,-2.702636 2.18848,-2.702636 0.61567,0 0.99232,0.0687 1.48828,0.273926 l -0.1875,0.735352 h -0.97558 c -1.02612,0 -1.26563,0.358597 -1.26563,1.453128 v 5.52392 h 2.22363 v 1.02686 h -2.22363 z m -347.069833,-0.79541 2.132813,-6.72949 h -4.494141 z m 20.852052,-1.9248 c -2.308761,0 -4.104493,-1.69231 -4.104493,-4.54834 0,-2.85603 1.949649,-4.601076 4.104493,-4.601076 2.308761,0 4.17334,1.745046 4.17334,4.601076 0,2.85603 -1.864579,4.54834 -4.17334,4.54834 z m 10.744629,0 c -1.198255,0 -2.157789,-0.61471 -2.638184,-1.30078 l -0.269531,1.16455 h -0.974121 v -8.875491 h 1.248047 v 5.352541 c 0,1.29975 0.667247,2.61621 2.377441,2.61621 1.419461,0 2.257324,-0.88953 2.257324,-2.42871 v -5.540041 h 1.265626 v 5.575191 c 0,1.86411 -1.04335,3.43653 -3.266602,3.43653 z m 19.236332,0 c -1.96672,0 -3.231449,-1.02642 -3.231449,-2.32617 0,-1.19713 0.751949,-2.10279 2.137209,-2.44483 l 1.62451,-0.34277 c 0.97482,-0.20523 1.55713,-0.68397 1.55713,-1.52197 0,-0.957711 -0.63373,-1.504398 -2.0874,-1.504398 -1.29975,0 -1.98402,0.410165 -2.47998,1.094238 l -0.837895,-0.666504 c 0.684075,-0.906402 1.796745,-1.453125 3.353025,-1.453125 1.93252,0 3.28272,0.836725 3.28272,2.478519 0,1.43656 -1.07722,2.22389 -2.35987,2.54882 l -1.67578,0.35889 c -0.8893,0.22232 -1.2832,0.71775 -1.2832,1.45313 0,0.76959 0.85609,1.30078 2.03613,1.30078 0.9235,0 1.69252,-0.46147 2.18848,-1.09424 l 0.83789,0.6665 c -0.85509,0.95771 -1.79597,1.45313 -3.06152,1.45313 z m 19.88379,0 c -1.38201,0 -2.22183,-0.66623 -2.71875,-1.3418 l -0.22266,1.20557 h -0.97412 V 95.080449 h 1.24805 v 4.305176 c 0.46734,-0.553065 1.27828,-1.073731 2.60009,-1.073731 2.17195,0 4.08692,1.625378 4.08692,4.549806 0,3.26648 -1.8989,4.59961 -4.01953,4.59961 z m 10.21728,0 c -2.47978,0 -4.03711,-1.79493 -4.03711,-4.54834 0,-2.78762 1.60867,-4.601076 3.98584,-4.601076 1.59048,0 2.56524,0.531013 3.52295,1.557129 l -0.77051,0.700197 c -0.63277,-0.872198 -1.57292,-1.23047 -2.71875,-1.23047 -1.77859,0 -2.77002,1.38448 -2.77002,3.18018 h 6.10547 c 0.18812,0.32494 0.22119,0.71891 0.22119,1.18066 0,2.39427 -1.67494,3.76172 -3.53906,3.76172 z m 9.51416,0 c -1.14133,0 -1.79606,-0.53663 -2.14599,-1.37549 l -0.1626,1.23926 h -0.97559 v -8.875491 h 1.24805 v 4.634771 c 0,1.96671 0.18869,3.28271 1.96728,3.28271 h 1.02686 l 0.23877,0.92432 c -0.42755,0.13682 -0.66662,0.16992 -1.19678,0.16992 z m 13.68457,0 c -1.35105,0 -2.44443,-0.56332 -3.00879,-1.48682 l 0.75147,-0.6167 c 0.53016,0.68408 1.19751,1.06055 2.22363,1.06055 1.31685,0 2.15479,-0.61569 2.15479,-2.05225 v -0.59765 h -1.94971 c -2.39427,0 -3.65918,-1.00948 -3.65918,-2.80518 0,-1.624685 1.17932,-2.651366 3.07764,-2.651366 1.14583,0 2.13739,0.564156 2.56494,1.675781 l 0.22265,-1.538086 h 0.9917 v 2.085941 3.59179 c 0,2.42848 -1.50502,3.33399 -3.36914,3.33399 z m 10.07813,0 c -1.48882,0 -2.25148,-0.76111 -2.55469,-1.33301 l -0.21533,1.19678 h -0.97412 v -8.875491 h 1.24804 v 5.813961 c 0,0.99192 0.6674,2.15479 2.17237,2.15479 0.94061,0 1.6582,-0.66629 1.6582,-1.6582 v -6.310551 h 1.24805 v 6.019041 c 0.0171,0.9406 0.64993,1.94971 2.00097,1.94971 0.94061,0 1.89844,-0.61528 1.89844,-1.93213 v -6.036621 h 1.24951 v 6.054201 c 0,1.79571 -1.23227,2.95752 -2.82275,2.95752 -1.50577,0 -2.25543,-0.82068 -2.57666,-1.54248 -0.36562,0.89732 -1.16777,1.54248 -2.33203,1.54248 z m 37.56592,0 c -2.30876,0 -4.1045,-1.69231 -4.1045,-4.54834 0,-2.85603 1.94966,-4.601076 4.1045,-4.601076 1.48787,0 2.80513,0.718334 3.54052,2.000976 l -0.9917,0.63281 c -0.51304,-1.077424 -1.4885,-1.60693 -2.54882,-1.60693 -1.57338,0 -2.87256,1.17999 -2.87256,3.52295 0,2.34297 1.29918,3.57422 2.87256,3.57422 1.07743,0 2.05188,-0.58173 2.56494,-1.69336 0,0.0171 1.04297,0.59912 1.04297,0.59912 -0.71829,1.38526 -2.06873,2.11963 -3.60791,2.11963 z m 19.3872,0 c -1.14127,0 -1.79458,-0.5367 -2.14453,-1.37549 l -0.16406,1.23926 h -0.97412 v -8.875491 h 1.24805 v 4.634771 c 0,1.96671 0.18868,3.28271 1.96728,3.28271 h 1.02539 l 0.24024,0.92432 c -0.42755,0.13682 -0.66809,0.16992 -1.19825,0.16992 z m 6.68995,0 c -1.14127,0 -1.79459,-0.5367 -2.14454,-1.37549 l -0.16406,1.23926 h -0.97412 v -8.875491 h 1.24805 v 4.634771 c 0,1.96671 0.18721,3.28271 1.96582,3.28271 h 1.02685 l 0.23877,0.92432 c -0.42755,0.13682 -0.6666,0.16992 -1.19677,0.16992 z m 6.89502,0 c -2.47979,0 -4.03565,-1.79493 -4.03565,-4.54834 0,-2.78762 1.60721,-4.601076 3.98438,-4.601076 1.59047,0 2.56524,0.531013 3.52295,1.557129 l -0.76905,0.700197 c -0.63277,-0.872198 -1.57437,-1.23047 -2.72021,-1.23047 -1.7786,0 -2.77002,1.38448 -2.77002,3.18018 h 6.10547 c 0.18812,0.32494 0.22265,0.71891 0.22265,1.18066 0,2.39427 -1.67642,3.76172 -3.54052,3.76172 z m 10.11328,0 c -1.19742,0 -2.15745,-0.61383 -2.63819,-1.29932 l -0.26953,1.16309 h -0.97412 v -8.875491 h 1.24805 v 5.352541 c 0,1.29975 0.66724,2.61621 2.37744,2.61621 1.41946,0 2.25732,-0.88953 2.25732,-2.42871 v -5.540041 h 1.26563 v 5.575191 c 0,1.86411 -1.04336,3.43653 -3.2666,3.43653 z m 40.5747,0 c -1.19727,0 -2.15739,-0.61392 -2.63818,-1.29932 l -0.26953,1.16309 h -0.97559 v -8.875491 h 1.24952 v 5.352541 c 0,1.29975 0.66724,2.61621 2.37744,2.61621 1.41946,0 2.25732,-0.88953 2.25732,-2.42871 v -5.540041 h 1.26563 v 5.575191 c 0,1.86411 -1.04336,3.43653 -3.26661,3.43653 z m 24.03663,0 c -2.47978,0 -4.03711,-1.79493 -4.03711,-4.54834 0,-2.78762 1.60867,-4.601076 3.98584,-4.601076 1.59048,0 2.56524,0.531013 3.52295,1.557129 l -0.77051,0.700197 c -0.63277,-0.872198 -1.57292,-1.23047 -2.71875,-1.23047 -1.7786,0 -2.77002,1.38448 -2.77002,3.18018 h 6.10547 c 0.18812,0.32494 0.22119,0.71891 0.22119,1.18066 0,2.39427 -1.67495,3.76172 -3.53906,3.76172 z m 19.19238,0 c -2.47979,0 -4.03564,-1.79493 -4.03564,-4.54834 0,-2.78762 1.6072,-4.601076 3.98437,-4.601076 1.59048,0 2.56524,0.531013 3.52295,1.557129 l -0.76904,0.700197 c -0.63278,-0.872198 -1.57292,-1.23047 -2.71875,-1.23047 -1.77861,0 -2.77149,1.38448 -2.77149,3.18018 h 6.10547 c 0.18812,0.32494 0.22266,0.71891 0.22266,1.18066 0,2.39427 -1.67642,3.76172 -3.54053,3.76172 z m 14.56201,0 c -2.30876,0 -4.10449,-1.69231 -4.10449,-4.54834 0,-2.85603 1.94965,-4.601076 4.10449,-4.601076 2.30877,0 4.17334,1.745046 4.17334,4.601076 0,2.85603 -1.86457,4.54834 -4.17334,4.54834 z m 10.79737,0 c -1.38302,0 -2.22344,-0.66718 -2.72022,-1.34326 l -0.22119,1.20703 H 352.1294 V 95.080449 h 1.24805 v 4.308105 c 0.46704,-0.553941 1.27641,-1.07666 2.6001,-1.07666 2.17195,0 4.08691,1.625378 4.08691,4.549806 0,3.26648 -1.89743,4.59961 -4.01806,4.59961 z m 10.47216,0 c -1.48881,0 -2.25147,-0.76111 -2.55468,-1.33301 l -0.21534,1.19678 h -0.97412 v -8.875491 h 1.24805 v 5.813961 c 0,0.99192 0.66739,2.15479 2.17236,2.15479 0.94061,0 1.65821,-0.66629 1.65821,-1.6582 v -6.310551 h 1.24804 v 6.019041 c 0.0171,0.9406 0.64992,1.94971 2.00098,1.94971 0.94061,0 1.89844,-0.61528 1.89844,-1.93213 v -6.036621 h 1.24804 v 6.054201 c 0,1.79571 -1.23081,2.95752 -2.82128,2.95752 -1.50578,0 -2.25544,-0.82068 -2.57666,-1.54248 -0.36562,0.89732 -1.16778,1.54248 -2.33204,1.54248 z m 14.28809,0 c -2.47978,0 -4.03564,-1.79493 -4.03564,-4.54834 0,-2.78762 1.6072,-4.601076 3.98437,-4.601076 1.59048,0 2.56524,0.531013 3.52295,1.557129 l -0.76904,0.700197 c -0.63277,-0.872198 -1.57439,-1.23047 -2.72022,-1.23047 -1.7786,0 -2.77002,1.38448 -2.77002,3.18018 h 6.10547 c 0.18812,0.32494 0.22266,0.71891 0.22266,1.18066 0,2.39427 -1.67641,3.76172 -3.54053,3.76172 z m 10.11328,0 c -1.19727,0 -2.15739,-0.61392 -2.63818,-1.29932 l -0.26953,1.16309 h -0.97559 v -8.875491 h 1.24951 v 5.352541 c 0,1.29975 0.66578,2.61621 2.37598,2.61621 1.41946,0 2.25879,-0.88953 2.25879,-2.42871 v -5.540041 h 1.26562 v 5.575191 c 0,1.86411 -1.04335,3.43653 -3.2666,3.43653 z m -282.36622,-0.13623 v -5.55762 c 0,-1.864112 1.00966,-3.455566 3.23291,-3.455566 1.29112,0 2.1209,0.623629 2.65137,1.536621 l 0.27246,-1.398926 h 0.9917 v 8.875491 h -1.26416 v -5.31885 c 0,-1.43657 -0.87284,-2.651367 -2.54883,-2.651367 -1.41946,0 -2.08593,0.907117 -2.08593,2.446287 v 5.52393 z m 67.23926,0 v -1.02686 h 1.76221 v -7.848631 h 1.26563 v 8.875491 h -0.97559 z m 10.67871,0 3.24903,-8.449221 -1.48828,-3.710449 h 1.2832 l 4.85742,12.15967 h -1.43701 l -2.42871,-6.5669 -0.1875,-0.63281 -0.17139,0.63281 -2.29101,6.5669 z m 23.17969,0 v -5.55762 c 0,-1.864112 1.00966,-3.455566 3.23291,-3.455566 1.29112,0 2.1209,0.623629 2.65137,1.536621 l 0.27246,-1.398926 h 0.9917 v 8.875491 h -1.26416 v -5.31885 c 0,-1.43657 -0.87284,-2.651367 -2.54883,-2.651367 -1.41946,0 -2.08594,0.907117 -2.08594,2.446287 v 5.52393 z m 54.67823,0 3.25048,-8.449221 -1.48828,-3.710449 h 1.28174 l 4.85742,12.15967 h -1.43701 l -2.42724,-6.5669 -0.18897,-0.63281 -0.17139,0.63281 -2.29101,6.5669 z m 12.81152,0 v -1.02686 h 1.76221 v -7.848631 h 1.26562 v 8.875491 h -0.97558 z m 39.76318,0 3.38526,-8.875491 h 1.12939 0.34131 l 3.28418,8.875491 h -1.36816 l -2.65723,-7.747561 -2.74658,7.747561 z M 72.873049,106.43592 c 1.573378,0 2.941406,-1.23125 2.941406,-3.57422 0,-2.34296 -1.368028,-3.52295 -2.941406,-3.52295 -1.573378,0 -2.872559,1.17999 -2.872559,3.52295 0,2.34297 1.299181,3.57422 2.872559,3.57422 z m 60.064451,0 c 1.33395,0 2.39502,-0.87284 2.39502,-2.54883 v -0.30762 h -5.16504 c 0,1.57338 0.94012,2.85645 2.77002,2.85645 z m 103.81495,0 c 1.33396,0 2.39502,-0.87284 2.39502,-2.54883 v -0.30762 h -5.16504 c 0,1.57338 0.94012,2.85645 2.77002,2.85645 z m 74.72461,0 c 1.33395,0 2.39355,-0.87284 2.39355,-2.54883 v -0.30762 h -5.16357 c 0,1.57338 0.94011,2.85645 2.77002,2.85645 z m 19.19385,0 c 1.33395,0 2.39355,-0.87284 2.39355,-2.54883 v -0.30762 h -5.16504 c 0,1.57338 0.94158,2.85645 2.77149,2.85645 z m 14.57812,0 c 1.57338,0 2.94141,-1.23125 2.94141,-3.57422 0,-2.34296 -1.36803,-3.52295 -2.94141,-3.52295 -1.57338,0 -2.87256,1.17999 -2.87256,3.52295 0,2.34297 1.29918,3.57422 2.87256,3.57422 z m 35.54004,0 c 1.33395,0 2.39502,-0.87284 2.39502,-2.54883 v -0.30762 h -5.16504 c 0,1.57338 0.94011,2.85645 2.77002,2.85645 z m -258.11866,-0.0176 c 1.7273,0 2.83887,-1.07733 2.83887,-3.57422 0,-2.27456 -1.30013,-3.489257 -2.90771,-3.489257 -1.47077,0 -2.53125,0.837897 -2.53125,2.206057 v 2.54883 c 0,1.33394 1.09512,2.30859 2.60009,2.30859 z m 178.23194,0 c 1.47076,0 2.58252,-0.83791 2.58252,-2.20606 v -2.54882 c 0,-1.33396 -1.07755,-2.308597 -2.58252,-2.308597 -1.7273,0 -2.83887,1.146177 -2.83887,3.643067 0,2.27456 1.23128,3.42041 2.83887,3.42041 z m 55.0752,0 c 1.7273,0 2.83887,-1.07733 2.83887,-3.57422 0,-2.27456 -1.30014,-3.489257 -2.90772,-3.489257 -1.47077,0 -2.53125,0.837897 -2.53125,2.206057 v 2.54883 c 0,1.33394 1.09513,2.30859 2.6001,2.30859 z M 156.56543,102.724 h 1.70948 v -0.59765 c 0,-1.84701 -0.97454,-2.7876 -2.46241,-2.7876 -1.28263,0 -1.89843,0.547086 -1.89843,1.62451 0,1.35105 0.80436,1.76074 2.65136,1.76074 z m 248.15626,-2.34228 c -0.63277,0 -1.02686,-0.478607 -1.02686,-1.04297 0,-0.564365 0.39409,-1.026856 1.02686,-1.026856 0.63278,0 1.04297,0.462491 1.04297,1.026856 0,0.564363 -0.41019,1.04297 -1.04297,1.04297 z M 78.424807,89.055546 v -0.855469 h 2.564941 v -8.821289 -0.855469 h 1.025391 3.021973 v 0.855469 h -3.021973 v 8.821289 0.855469 z m 148.847173,0 v -0.855469 h 2.56494 v -8.821289 -0.855469 h 1.02539 3.02197 v 0.855469 h -3.02197 v 8.821289 0.855469 z m 136.66992,0 c -1.56767,0 -2.50781,-0.884315 -2.50781,-2.551758 l -0.001,-0.755859 h -0.0132 -2.26611 v -0.854004 h 2.27783 l -0.0117,-6.370606 h 1.02686 l 0.0117,6.370606 h 2.88134 v 0.854004 h -2.87988 l 0.001,0.855469 c 0,1.054622 0.4692,1.596679 1.53808,1.596679 h 1.58203 v 0.855469 z m -167.94141,-0.0293 c -0.39904,0 -0.72656,-0.327516 -0.72656,-0.726562 0,-0.399046 0.32752,-0.726563 0.72656,-0.726563 0.39905,0 0.72657,0.327517 0.72657,0.726563 0,0.399046 -0.32752,0.726562 -0.72657,0.726562 z m 52.34473,-0.313476 c -1.63894,0 -2.55029,-1.139715 -2.55029,-2.194336 0,-0.748624 0.2846,-1.423613 0.63867,-1.980469 l -0.001,-0.0015 c -0.90293,-0.561743 -1.53516,-1.552222 -1.53516,-2.849121 0,-2.194754 1.45383,-3.27832 3.3208,-3.27832 1.01921,0 1.88711,0.394083 2.51953,1.095703 l 0.95801,-1.095703 0.81152,0.612304 -1.18652,1.349121 c 0.34128,0.687239 0.53174,1.531673 0.53174,2.499024 v 1.069336 h -1.02686 v -1.069336 c 0,-0.651373 -0.0762,-1.213048 -0.21826,-1.6875 l -2.77441,3.155273 c -0.58432,0.669829 -1.01221,1.226292 -1.01221,2.181153 0,0.655575 0.59973,1.338867 1.56885,1.338867 0.76959,0 1.2822,-0.484622 1.66699,-1.054687 l 0.79834,0.55664 c -0.65557,0.969112 -1.4119,1.353516 -2.50928,1.353516 z M 53.157716,88.598515 v -0.79834 h 2.280762 v -8.478516 h -2.280762 v -0.79834 h 5.529785 v 0.79834 h -2.223632 v 8.478516 h 2.223632 v 0.79834 z m 48.662114,0 v -3.61377 c -0.3697,0.452057 -1.00793,0.877442 -2.080081,0.877442 -1.767205,0 -3.19336,-1.210308 -3.19336,-3.590332 0,-2.665059 1.454262,-3.862793 3.178711,-3.862793 1.09175,0 1.72958,0.386638 2.11523,0.84082 l 0.20801,-0.726563 h 0.79834 v 10.075196 z m 245.18116,0 v -3.61377 c -0.3697,0.452057 -1.00794,0.877442 -2.08008,0.877442 -1.76721,0 -3.1919,-1.210308 -3.1919,-3.590332 0,-2.665059 1.45279,-3.862793 3.17725,-3.862793 1.09119,0 1.72951,0.386938 2.11523,0.84082 l 0.20801,-0.726563 h 0.79834 v 10.075196 z m -160.04005,-0.527344 -1.02685,-0.711914 v -1.611328 h -1.89551 v -0.854004 h 1.89551 v -4.004883 c 0,-1.439416 0.84144,-2.365723 2.49463,-2.365723 h 1.70947 v 0.855469 h -1.70947 c -0.84085,0 -1.46778,0.35587 -1.46778,1.510254 v 4.004883 h 1.58203 1.51026 v 0.854004 h -3.09229 z m 201.39259,0 -1.0254,-0.711914 v -1.611328 h -1.8955 v -0.854004 h 1.8955 v -4.004883 c 0,-1.439416 0.83998,-2.365723 2.49317,-2.365723 h 1.71094 v 0.855469 h -1.71094 c -0.84085,0 -1.46777,0.35587 -1.46777,1.510254 v 4.004883 h 1.58203 1.51172 v 0.854004 h -3.09375 z M 65.005373,85.862187 c -0.980783,0 -1.802653,-0.50805 -2.211914,-1.072266 l -0.225586,0.958008 h -0.79834 v -7.22461 h 1.026855 v 4.36084 c 0,1.054622 0.683417,2.124024 2.080078,2.124024 1.154383,0 1.681641,-0.727789 1.681641,-1.981934 v -4.50293 h 1.026856 v 4.532227 c 0,1.510675 -0.769631,2.806641 -2.57959,2.806641 z m 8.583984,0 c -1.923972,0 -3.42041,-1.324565 -3.42041,-3.70459 0,-2.380025 1.624703,-3.748535 3.42041,-3.748535 1.239894,0 2.337375,0.598118 2.950196,1.666992 l -0.827637,0.527344 c -0.42755,-0.897853 -1.238957,-1.338868 -2.122559,-1.338868 -1.31115,0 -2.395019,0.898111 -2.395019,2.850586 0,1.952476 1.083869,2.893067 2.395019,2.893067 0.897854,0 1.709659,-0.498936 2.137207,-1.425293 l 0.868653,0.498047 c -0.59857,1.154383 -1.723211,1.78125 -3.00586,1.78125 z m 34.946783,0 c -2.02374,0 -3.30616,-1.467081 -3.30616,-3.70459 0,-2.380025 1.45435,-3.748535 3.39258,-3.748535 1.31115,0 2.2511,0.51282 2.76416,1.253906 l -0.68408,0.556641 c -0.45605,-0.612822 -1.14026,-0.955079 -2.10938,-0.955079 -1.45366,0 -2.33642,0.997413 -2.33642,2.465332 h 5.01562 l 0.39991,0.855469 c -0.11401,1.966727 -1.31203,3.276856 -3.13623,3.276856 z m 8.7832,0 c -1.88122,0 -2.70703,-0.898015 -2.70703,-1.952637 0,-0.883602 0.41261,-1.766267 2.23681,-2.122559 1.38242,-0.27078 2.25293,-0.513066 2.25293,-1.368164 0,-0.940609 -0.77096,-1.183593 -1.83984,-1.183593 -1.01187,0 -1.68076,0.427493 -2.12256,0.997558 l -0.72656,-0.654785 c 0.71258,-0.798092 1.51024,-1.168945 3.03516,-1.168945 1.48217,0 2.67919,0.655462 2.67919,1.995117 0,1.097377 -0.84024,1.795442 -2.45068,2.094726 -1.66744,0.313537 -2.03906,0.669682 -2.03906,1.467774 0,0.712582 0.79884,1.027252 1.71094,1.041504 0.82659,0 1.41064,-0.21509 2.09472,-0.785156 l 0.49951,0.755859 c -0.79809,0.669827 -1.46915,0.883301 -2.62353,0.883301 z m 17.59717,0 c -1.09055,0 -1.72945,-0.385822 -2.11524,-0.839356 l -0.208,0.725098 h -0.79834 v -9.960938 h 1.02685 v 3.484864 c 0.35479,-0.445984 0.96364,-0.862793 2.02295,-0.862793 1.76721,0 3.25049,1.32603 3.25049,3.706054 0,2.665059 -1.45426,3.747071 -3.17871,3.747071 z m 10.53662,0 c -1.30169,0 -2.1776,-0.587967 -2.60596,-1.393067 l -0.17431,1.278809 h -0.79688 -1.96729 v -0.854004 h 1.96729 v -5.515137 h -1.46777 v -0.855469 h 4.06054 v 0.855469 h -1.56738 v 2.736328 c 0,1.596185 0.84156,2.835938 2.55176,2.835938 h 1.1543 l 0.0425,0.911133 z m 6.78808,0 c -1.75295,0 -3.36328,-1.125438 -3.36328,-3.719239 0,-2.593799 1.61033,-3.733886 3.36328,-3.733886 1.75295,0 3.36329,1.13969 3.36329,3.719238 0,2.608051 -1.61034,3.733887 -3.36329,3.733887 z m 8.95459,0 c -1.09174,0 -1.73104,-0.386638 -2.11669,-0.840821 l -0.20655,0.726563 h -0.79834 v -9.960938 h 1.02539 v 3.486328 c 0.35467,-0.44636 0.96432,-0.864257 2.02442,-0.864257 1.76721,0 3.24902,1.32603 3.24902,3.706054 0,2.665059 -1.4528,3.747071 -3.17725,3.747071 z m 8.55469,0 c -1.75296,0 -3.36328,-1.125438 -3.36328,-3.719239 0,-2.593799 1.61032,-3.733886 3.36328,-3.733886 1.75295,0 3.36328,1.13969 3.36328,3.719238 0,2.608051 -1.61033,3.733887 -3.36328,3.733887 z m 10.73584,0 c -1.30169,0 -2.17759,-0.587967 -2.60595,-1.393067 l -0.17286,1.278809 h -0.79834 -1.96728 v -0.854004 h 1.96728 v -5.515137 h -1.46777 v -0.855469 h 4.06201 v 0.855469 h -1.56885 v 2.736328 c 0,1.596185 0.84156,2.835938 2.55176,2.835938 h 1.1543 l 0.0425,0.911133 z m 24.28272,0 c -1.75295,0 -3.36328,-1.125438 -3.36328,-3.719239 0,-2.593799 1.61033,-3.733886 3.36328,-3.733886 1.75295,0 3.36328,1.13969 3.36328,3.719238 0,2.608051 -1.61033,3.733887 -3.36328,3.733887 z m 9.08349,0 c -0.98078,0 -1.80265,-0.50805 -2.21191,-1.072266 l -0.22559,0.958008 h -0.79834 v -7.22461 h 1.02686 v 4.36084 c 0,1.054622 0.68342,2.124024 2.08008,2.124024 1.15439,0 1.68164,-0.727789 1.68164,-1.981934 v -4.50293 h 1.02685 v 4.532227 c 0,1.510675 -0.76963,2.806641 -2.57959,2.806641 z m 8.44043,0 c -1.16862,0 -2.06677,-0.38416 -2.69384,-1.239258 l 0.75586,-0.499512 c 0.4418,0.584318 1.19702,0.884766 1.99511,0.884766 1.06887,0 1.7959,-0.584632 1.7959,-1.853028 v -0.355957 h -1.81055 c -2.03798,0 -3.09228,-0.755713 -3.09228,-2.223632 0,-1.325403 0.9831,-2.166504 2.77881,-2.166504 1.06888,0 1.73922,0.540775 2.12402,1.338867 l 0.22852,-1.22461 h 0.79834 v 3.905274 0.669434 c 0,1.980979 -1.2837,2.76416 -2.87989,2.76416 z m 42.62256,0 c -0.53353,0 -0.93768,-0.291545 -1.13671,-0.667969 l -0.2168,0.553711 h -0.79834 v -7.22461 h 1.02685 v 5.800782 c 0.14251,0.427549 0.46934,0.684082 0.91114,0.684082 0.51306,0 0.81299,-0.400058 0.81299,-0.984375 v -5.500489 h 1.02539 v 5.786133 c 0.11401,0.399047 0.54284,0.698731 0.94189,0.698731 0.64132,0 0.86865,-0.499667 0.86865,-1.083985 v -5.400879 h 1.02686 v 5.600098 c 0,0.912105 -0.6425,1.73877 -1.56885,1.73877 -0.86225,0 -1.28996,-0.406272 -1.50879,-0.823242 -0.20408,0.467483 -0.73996,0.823242 -1.38428,0.823242 z m 9.90967,0 c -1.75295,0 -3.36328,-1.125438 -3.36328,-3.719239 0,-2.593799 1.61033,-3.733886 3.36328,-3.733886 1.75296,0 3.36328,1.13969 3.36328,3.719238 0,2.608051 -1.61032,3.733887 -3.36328,3.733887 z m 9.08203,0 c -0.98078,0 -1.80265,-0.50805 -2.21191,-1.072266 l -0.22412,0.958008 h -0.79834 v -7.22461 h 1.02539 v 4.36084 c 0,1.054622 0.68488,2.124024 2.08154,2.124024 1.15439,0 1.68164,-0.727789 1.68164,-1.981934 v -4.50293 h 1.02539 v 4.532227 c 0,1.510675 -0.76963,2.806641 -2.57959,2.806641 z m 8.42725,0 c -1.75295,0 -3.36328,-1.125438 -3.36328,-3.719239 0,-2.593799 1.61033,-3.733886 3.36328,-3.733886 1.75295,0 3.36328,1.13969 3.36328,3.719238 0,2.608051 -1.61033,3.733887 -3.36328,3.733887 z m 8.86963,0 c -1.88122,0 -2.7085,-0.898015 -2.7085,-1.952637 0,-0.883602 0.41408,-1.766267 2.23828,-2.122559 1.38242,-0.27078 2.25147,-0.513066 2.25147,-1.368164 0,-0.940609 -0.7695,-1.183593 -1.83838,-1.183593 -1.01187,0 -1.68222,0.427493 -2.12402,0.997558 l -0.72657,-0.654785 c 0.71258,-0.798092 1.51024,-1.168945 3.03516,-1.168945 1.48218,0 2.6792,0.655462 2.6792,1.995117 0,1.097377 -0.84025,1.795442 -2.45068,2.094726 -1.66744,0.313537 -2.0376,0.669682 -2.0376,1.467774 0,0.712582 0.79737,1.027252 1.70947,1.041504 0.8266,0 1.41065,-0.21509 2.09473,-0.785156 l 0.49951,0.755859 c -0.79809,0.669827 -1.46769,0.883301 -2.62207,0.883301 z m 8.84033,0 c -1.09175,0 -1.73104,-0.386638 -2.1167,-0.840821 l -0.20654,0.726563 h -0.79834 v -9.960938 h 1.02539 v 3.484864 c 0.35478,-0.445984 0.96511,-0.862793 2.02441,-0.862793 1.76721,0 3.24903,1.32603 3.24903,3.706054 0,2.665059 -1.4528,3.747071 -3.17725,3.747071 z m 8.56934,0 c -1.16863,0 -2.06678,-0.38416 -2.69385,-1.239258 l 0.75586,-0.499512 c 0.4418,0.584318 1.19703,0.884766 1.99512,0.884766 1.06888,0 1.79443,-0.584632 1.79443,-1.853028 v -0.355957 h -1.80908 c -2.03799,0 -3.09229,-0.755713 -3.09229,-2.223632 0,-1.325403 0.9831,-2.166504 2.77881,-2.166504 1.06888,0 1.73777,0.540775 2.12256,1.338867 l 0.22852,-1.22461 h 0.79834 v 3.905274 0.669434 c 0,1.980979 -1.28223,2.76416 -2.87842,2.76416 z m 8.89746,0 c -1.92397,0 -3.42041,-1.324565 -3.42041,-3.70459 0,-2.380025 1.6247,-3.748535 3.42041,-3.748535 1.2399,0 2.3359,0.598118 2.94873,1.666992 l -0.82617,0.527344 c -0.42755,-0.897853 -1.23896,-1.338868 -2.12256,-1.338868 -1.31115,0 -2.39502,0.898111 -2.39502,2.850586 0,1.952476 1.08387,2.893067 2.39502,2.893067 0.89786,0 1.70966,-0.498936 2.13721,-1.425293 l 0.86865,0.498047 c -0.59857,1.154383 -1.72321,1.78125 -3.00586,1.78125 z m 8.68213,0 c -2.02373,0 -3.30615,-1.467081 -3.30615,-3.70459 0,-2.380025 1.45436,-3.748535 3.39257,-3.748535 1.31116,0 2.2511,0.51282 2.76416,1.253906 l -0.68408,0.556641 c -0.45606,-0.612822 -1.14026,-0.955079 -2.10937,-0.955079 -1.45367,0 -2.33643,0.997413 -2.33643,2.465332 h 5.01563 l 0.3999,0.855469 c -0.11401,1.966727 -1.31201,3.276856 -3.13623,3.276856 z m 34.94971,0 c -1.75295,0 -3.36329,-1.125438 -3.36329,-3.719239 0,-2.593799 1.61034,-3.733886 3.36329,-3.733886 1.75294,0 3.36474,1.13969 3.36474,3.719238 0,2.608051 -1.6118,3.733887 -3.36474,3.733887 z m 9.08349,0 c -0.98078,0 -1.80265,-0.50805 -2.21191,-1.072266 l -0.22559,0.958008 h -0.79834 v -7.22461 h 1.02686 v 4.36084 c 0,1.054622 0.68342,2.124024 2.08008,2.124024 1.15438,0 1.68164,-0.727789 1.68164,-1.981934 v -4.50293 h 1.02685 v 4.532227 c 0,1.510675 -0.76963,2.806641 -2.57959,2.806641 z m 17.29541,0 c -1.88122,0 -2.70849,-0.898015 -2.70849,-1.952637 0,-0.883602 0.41407,-1.766267 2.23828,-2.122559 1.38241,-0.27078 2.25146,-0.513066 2.25146,-1.368164 0,-0.940609 -0.76951,-1.183593 -1.83838,-1.183593 -1.01187,0 -1.68222,0.427493 -2.12402,0.997558 l -0.72656,-0.654785 c 0.71258,-0.798092 1.51169,-1.168945 3.03662,-1.168945 1.48217,0 2.6792,0.655462 2.6792,1.995117 0,1.097377 -0.84172,1.795442 -2.45215,2.094726 -1.66745,0.313537 -2.0376,0.669682 -2.0376,1.467774 0,0.712582 0.79737,1.027252 1.70947,1.041504 0.8266,0 1.41212,-0.21509 2.0962,-0.785156 l 0.49804,0.755859 c -0.79809,0.669827 -1.46769,0.883301 -2.62207,0.883301 z M 88.034182,85.747929 v -4.530762 c 0,-1.510674 0.826761,-2.808105 2.636719,-2.808105 1.047795,0 1.724502,0.50453 2.154785,1.240722 l 0.225586,-1.126465 h 0.79834 v 7.22461 h -1.026856 v -4.331543 c 0,-1.168635 -0.656255,-2.151856 -2.024414,-2.151856 -1.154383,0 -1.737305,0.726324 -1.737305,1.980469 v 4.50293 z m 104.874028,0 v -0.854004 h 2.33642 v -5.515137 -0.855469 h 1.02686 2.73633 v 0.855469 h -2.73633 v 5.985352 0.383789 h -1.02686 z M 99.795413,85.008183 c 1.197137,0 2.024417,-0.68427 2.024417,-1.795899 V 81.14539 c 0,-1.083125 -0.79877,-1.88086 -2.024417,-1.88086 -1.410913,0 -2.222168,0.925393 -2.222168,2.963379 0,1.852715 0.911016,2.780274 2.222168,2.780274 z m 8.740727,0 c 1.21138,0 2.10937,-0.94068 2.10937,-2.422852 h -4.38867 c 0,1.282649 0.69736,2.422852 2.2793,2.422852 z m 26.30859,0 c 1.41091,0 2.22363,-0.86973 2.22363,-2.907715 0,-1.852714 -0.9696,-2.835938 -2.28076,-2.835938 -1.19714,0 -1.96582,0.68427 -1.96582,1.795899 v 2.06543 c 0,1.083126 0.79731,1.882324 2.02295,1.882324 z m 17.39648,0 c 1.28265,0 2.33643,-0.983743 2.33643,-2.907715 0,-1.895469 -1.05378,-2.835938 -2.33643,-2.835938 -1.28264,0 -2.33789,0.940866 -2.33789,2.850586 0,1.909721 1.05525,2.893067 2.33789,2.893067 z m 8.88282,0 c 1.41092,0 2.22363,-0.86973 2.22363,-2.907715 0,-1.852714 -0.96961,-2.835938 -2.28076,-2.835938 -1.19714,0 -1.96729,0.68427 -1.96729,1.795899 v 2.06543 c 0,1.083126 0.79878,1.882324 2.02442,1.882324 z m 8.62646,0 c 1.28265,0 2.33789,-0.983743 2.33789,-2.907715 0,-1.895469 -1.05524,-2.835938 -2.33789,-2.835938 -1.28265,0 -2.33789,0.940866 -2.33789,2.850586 0,1.909721 1.05524,2.893067 2.33789,2.893067 z m 35.01856,0 c 1.28265,0 2.33789,-0.983743 2.33789,-2.907715 0,-1.895469 -1.05524,-2.835938 -2.33789,-2.835938 -1.28265,0 -2.33643,0.940866 -2.33643,2.850586 0,1.909721 1.05378,2.893067 2.33643,2.893067 z m 70.05615,0 c 1.28265,0 2.33789,-0.983743 2.33789,-2.907715 0,-1.895469 -1.05524,-2.835938 -2.33789,-2.835938 -1.28265,0 -2.33789,0.940866 -2.33789,2.850586 0,1.909721 1.05524,2.893067 2.33789,2.893067 z m 17.50928,0 c 1.28265,0 2.33789,-0.983743 2.33789,-2.907715 0,-1.895469 -1.05524,-2.835938 -2.33789,-2.835938 -1.28265,0 -2.33643,0.940866 -2.33643,2.850586 0,1.909721 1.05378,2.893067 2.33643,2.893067 z m 17.63818,0 c 1.41092,0 2.22364,-0.86973 2.22364,-2.907715 0,-1.852714 -0.96962,-2.835938 -2.28076,-2.835938 -1.19714,0 -1.96729,0.68427 -1.96729,1.795899 v 2.06543 c 0,1.083126 0.79878,1.882324 2.02441,1.882324 z m 26.22071,0 c 1.2114,0 2.10937,-0.94068 2.10937,-2.422852 h -4.38867 c 0,1.282649 0.69737,2.422852 2.2793,2.422852 z m 8.78467,0 c 1.19713,0 2.02295,-0.68427 2.02295,-1.795899 V 81.14539 c 0,-1.083125 -0.79731,-1.88086 -2.02295,-1.88086 -1.41091,0 -2.22364,0.925393 -2.22364,2.963379 0,1.852715 0.91249,2.780274 2.22364,2.780274 z m 26.16504,0 c 1.28264,0 2.33789,-0.983743 2.33789,-2.907715 0,-1.895469 -1.05525,-2.835938 -2.33789,-2.835938 -1.28265,0 -2.33643,0.940866 -2.33643,2.850586 0,1.909721 1.05378,2.893067 2.33643,2.893067 z M 246.89649,83.90955 c 0.0611,-0.07381 0.12119,-0.147502 0.18018,-0.213867 l 3.05566,-3.498047 c -0.45706,-0.622158 -1.11662,-0.933106 -1.91455,-0.933106 -1.42517,0 -2.29541,0.840919 -2.29541,2.422852 0,1.124848 0.40448,1.815888 0.97412,2.222168 z m -24.53174,-1.96582 h 1.78125 v -0.499512 c 0,-1.026118 -0.64173,-2.179688 -2.06689,-2.179688 -1.04037,0 -1.80908,0.427433 -1.80908,1.311036 0,1.097376 0.6268,1.368164 2.09472,1.368164 z m 96.31934,0 h 1.78125 v -0.499512 c 0,-1.026118 -0.64026,-2.179688 -2.06543,-2.179688 -1.04037,0 -1.81055,0.427433 -1.81055,1.311036 0,1.097376 0.62681,1.368164 2.09473,1.368164 z M 172.83985,69.206913 V 56.228397 c 0,-1.159136 0.6073,-1.768066 1.69043,-1.768066 0.41805,0 0.83573,0.05746 1.19678,0.209472 l -0.20801,0.912598 h -0.58887 c -0.49406,0 -0.70312,0.209107 -0.70312,0.722168 v 12.902344 z m -51.96826,-0.550781 c -0.55106,0 -0.98731,-0.456748 -0.98731,-1.007813 0,-0.551065 0.43625,-0.987305 0.98731,-0.987305 0.55106,0 0.98876,0.43624 0.98876,0.987305 0,0.551065 -0.4377,1.007813 -0.98876,1.007813 z M 108.1919,68.048222 V 54.612674 h 1.38574 v 6.726563 h 5.64404 v 1.255371 h -5.64404 v 4.293457 h 7.12646 v 1.160157 h -7.12646 z m 36.49365,-0.399903 -1.38721,-0.968262 v -2.204589 h -1.95703 v -1.141114 h 1.95703 V 57.46326 c 0,-1.634191 0.17038,-3.002929 2.43164,-3.002929 0.68408,0 1.10275,0.07666 1.65381,0.304687 l -0.20947,0.817383 h -1.08252 c -1.14014,0 -1.40625,0.398116 -1.40625,1.614258 v 6.137695 h 2.46973 v 1.141114 h -2.46973 z m 129.08789,0 -1.3872,-0.968262 v -2.204589 h -1.95703 v -1.141114 h 1.95703 V 57.46326 c 0,-1.634191 0.17037,-3.002929 2.43164,-3.002929 0.68408,0 1.10275,0.07666 1.65381,0.304687 l -0.20948,0.817383 h -1.08252 c -1.14013,0 -1.40625,0.398116 -1.40625,1.614258 v 6.137695 h 2.46973 v 1.141114 h -2.46973 z M 128.79932,64.627811 c -1.2686,0 -1.99458,-0.598123 -2.3833,-1.530761 l -0.18164,1.378418 h -1.08399 v -9.862794 h 1.38721 v 5.150391 c 0,2.185256 0.20931,3.647461 2.18555,3.647461 h 1.14111 l 0.26514,1.026856 c -0.47505,0.152017 -0.74101,0.190429 -1.33008,0.190429 z m 7.24512,0 c -2.18526,0 -3.5918,-1.141279 -3.5918,-2.585449 0,-1.330156 0.83679,-2.337241 2.37598,-2.717285 l 1.80468,-0.379395 c 1.08313,-0.228027 1.72998,-0.760785 1.72998,-1.691894 0,-1.064125 -0.70365,-1.671387 -2.31884,-1.671387 -1.44417,0 -2.2043,0.455731 -2.75537,1.21582 l -0.93164,-0.741211 c 0.76008,-1.007118 1.99588,-1.615722 3.72509,-1.615722 2.14725,0 3.64893,0.931158 3.64893,2.755371 0,1.596187 -1.19838,2.4705 -2.62354,2.831543 l -1.86181,0.399902 c -0.98812,0.247029 -1.4253,0.797162 -1.4253,1.614258 0,0.8551 0.95056,1.444336 2.26172,1.444336 1.02612,0 1.88058,-0.512738 2.43164,-1.21582 l 0.93164,0.741211 c -0.9501,1.064124 -1.99519,1.615722 -3.40136,1.615722 z m 21.5625,0 c -1.26781,0 -1.99294,-0.597657 -2.38184,-1.529297 l -0.1831,1.376954 h -1.08252 v -9.862794 h 1.3872 v 5.150391 c 0,2.185256 0.20786,3.647461 2.18409,3.647461 h 1.14111 l 0.26514,1.026856 c -0.47506,0.152017 -0.74101,0.190429 -1.33008,0.190429 z m 8.31006,0 c -2.75533,0 -4.48536,-1.995817 -4.48536,-5.055176 0,-3.097363 1.78692,-5.112304 4.42823,-5.112304 1.76721,0 2.84994,0.589847 3.91406,1.72998 l -0.85547,0.779297 c -0.70308,-0.969114 -1.74736,-1.368164 -3.02051,-1.368164 -1.97622,0 -3.0791,1.539435 -3.0791,3.534668 h 6.78369 c 0.20903,0.361043 0.24756,0.797976 0.24756,1.311035 0,2.660312 -1.86187,4.180664 -3.9331,4.180664 z m 16.80761,0 c -2.75532,0 -4.48388,-1.995817 -4.48388,-5.055176 0,-3.097363 1.78545,-5.112304 4.42676,-5.112304 1.7672,0 2.84993,0.589847 3.91406,1.72998 l -0.85401,0.779297 c -0.70308,-0.969114 -1.74882,-1.368164 -3.02197,-1.368164 -1.97624,0 -3.0791,1.539435 -3.0791,3.534668 h 6.78516 c 0.20902,0.361043 0.24609,0.797976 0.24609,1.311035 0,2.660312 -1.86187,4.180664 -3.93311,4.180664 z m 10.19092,0 c -1.50118,0 -2.71716,-0.627688 -3.34424,-1.653808 l 0.83643,-0.684082 c 0.58907,0.760089 1.3296,1.177734 2.46973,1.177734 1.46316,0 2.39502,-0.68311 2.39502,-2.279297 v -0.665039 h -2.16651 c -2.66032,0 -4.0664,-1.121954 -4.0664,-3.117188 0,-1.805211 1.31116,-2.9458 3.42041,-2.9458 1.27314,0 2.37552,0.628136 2.85058,1.863281 l 0.2461,-1.710938 h 1.10302 v 2.318848 3.990234 c 0,2.698316 -1.6729,3.706055 -3.74414,3.706055 z m 9.83057,0 c -2.18526,0 -3.5918,-1.141279 -3.5918,-2.585449 0,-1.330156 0.83534,-2.337241 2.37451,-2.717285 l 1.80616,-0.379395 c 1.08312,-0.228027 1.72851,-0.760785 1.72851,-1.691894 0,-1.064125 -0.70219,-1.671387 -2.31738,-1.671387 -1.44417,0 -2.2043,0.455731 -2.75537,1.21582 l -0.93164,-0.741211 c 0.76009,-1.007118 1.99443,-1.615722 3.72363,-1.615722 2.14726,0 3.64893,0.931158 3.64893,2.755371 0,1.596187 -1.19691,2.4705 -2.62207,2.831543 l -1.86182,0.399902 c -0.98811,0.247029 -1.42529,0.797162 -1.42529,1.614258 0,0.8551 0.9491,1.444336 2.26025,1.444336 1.02612,0 1.88204,-0.512738 2.43311,-1.21582 l 0.93164,0.741211 c -0.95011,1.064124 -1.99521,1.615722 -3.40137,1.615722 z m 10.53223,0 c -2.75532,0 -4.48536,-1.995817 -4.48536,-5.055176 0,-3.097363 1.78691,-5.112304 4.42823,-5.112304 1.76719,0 2.84993,0.589847 3.91406,1.72998 l -0.85547,0.779297 c -0.70309,-0.969114 -1.74736,-1.368164 -3.02051,-1.368164 -1.97623,0 -3.0791,1.539435 -3.0791,3.534668 h 6.78369 c 0.20902,0.361043 0.24756,0.797976 0.24756,1.311035 0,2.660312 -1.86186,4.180664 -3.9331,4.180664 z m 13.62597,0 c -2.18526,0 -3.59033,-1.141279 -3.59033,-2.585449 0,-1.330156 0.83533,-2.337241 2.37451,-2.717285 l 1.80469,-0.379395 c 1.08313,-0.228027 1.72998,-0.760785 1.72998,-1.691894 0,-1.064125 -0.70366,-1.671387 -2.31885,-1.671387 -1.44417,0 -2.2043,0.455731 -2.75537,1.21582 l -0.93017,-0.741211 c 0.76008,-1.007118 1.99443,-1.615722 3.72363,-1.615722 2.14726,0 3.64892,0.931158 3.64892,2.755371 0,1.596187 -1.1969,2.4705 -2.62207,2.831543 l -1.86181,0.399902 c -0.98811,0.247029 -1.4253,0.797162 -1.4253,1.614258 0,0.8551 0.94911,1.444336 2.26026,1.444336 1.02612,0 1.88204,-0.512738 2.4331,-1.21582 l 0.93018,0.741211 c -0.95011,1.064124 -1.99521,1.615722 -3.40137,1.615722 z m 10.16162,0 c -2.56529,0 -4.56005,-1.881804 -4.56005,-5.055176 0,-3.173371 2.16578,-5.112304 4.56005,-5.112304 2.56531,0 4.63623,1.938933 4.63623,5.112304 0,3.173372 -2.07092,5.055176 -4.63623,5.055176 z m 11.50196,0 c -2.5653,0 -4.56153,-1.881804 -4.56153,-5.055176 0,-3.173371 2.16725,-5.112304 4.56153,-5.112304 2.5653,0 4.63623,1.938933 4.63623,5.112304 0,3.173372 -2.07093,5.055176 -4.63623,5.055176 z m 11.88135,0 c -1.33073,0 -2.39564,-0.683964 -2.92969,-1.445801 l -0.3003,1.293458 h -1.08251 v -9.862794 h 1.3872 v 5.948731 c 0,1.444169 0.7409,2.90625 2.64112,2.90625 1.57718,0 2.50781,-0.988042 2.50781,-2.698242 v -6.156739 h 1.40625 v 6.194825 c 0,2.071243 -1.1596,3.820312 -3.62988,3.820312 z m 22.07519,0 c -2.5653,0 -4.56006,-1.881804 -4.56006,-5.055176 0,-3.173371 2.16578,-5.112304 4.56006,-5.112304 2.5653,0 4.63623,1.938933 4.63623,5.112304 0,3.173372 -2.07093,5.055176 -4.63623,5.055176 z m 15.39258,0 c -2.56531,0 -4.56006,-1.881804 -4.56006,-5.055176 0,-3.173371 2.16577,-5.112304 4.56006,-5.112304 1.65319,0 3.11748,0.798465 3.93457,2.223632 l -1.10303,0.703125 c -0.57007,-1.19714 -1.6534,-1.785644 -2.83154,-1.785644 -1.74821,0 -3.19189,1.310758 -3.19189,3.914062 0,2.603306 1.44368,3.971192 3.19189,3.971192 1.19714,0 2.28053,-0.645715 2.85059,-1.880859 0,0.019 1.16015,0.665039 1.16015,0.665039 -0.79809,1.53918 -2.30054,2.356933 -4.01074,2.356933 z m 10.51465,0 c -2.5653,0 -4.56153,-1.881804 -4.56153,-5.055176 0,-3.173371 2.16725,-5.112304 4.56153,-5.112304 2.56531,0 4.63623,1.938933 4.63623,5.112304 0,3.173372 -2.07092,5.055176 -4.63623,5.055176 z m 11.729,0 c -1.65511,0 -2.50232,-0.84833 -2.83886,-1.483886 l -0.23877,1.331543 h -1.08252 v -9.862794 h 1.38574 V 61.0741 c 0,1.102129 0.74186,2.393555 2.41406,2.393555 1.04512,0 1.84277,-0.740645 1.84277,-1.842773 v -7.012208 h 1.38721 v 6.688477 c 0.019,1.045123 0.72246,2.166504 2.22363,2.166504 1.04512,0 2.10938,-0.684289 2.10938,-2.147461 v -6.70752 h 1.38721 v 6.726563 c 0,1.995234 -1.36903,3.288574 -3.13623,3.288574 -1.67289,0 -2.50532,-0.913403 -2.86231,-1.715332 -0.4062,0.997161 -1.29757,1.715332 -2.59131,1.715332 z m 16.75196,0 c -2.75533,0 -4.48536,-1.995817 -4.48536,-5.055176 0,-3.097363 1.78692,-5.112304 4.42823,-5.112304 1.76721,0 2.84993,0.589847 3.91406,1.72998 l -0.85547,0.779297 c -0.70309,-0.969114 -1.74736,-1.368164 -3.02051,-1.368164 -1.97623,0 -3.0791,1.539435 -3.0791,3.534668 h 6.78369 c 0.20902,0.361043 0.24756,0.797976 0.24756,1.311035 0,2.660312 -1.86186,4.180664 -3.9331,4.180664 z M 118.19239,64.475468 v -1.141114 h 1.95849 v -8.72168 h 1.40479 v 9.862794 h -1.08252 z m 47.70556,-0.98877 c 1.48217,0 2.66016,-0.969325 2.66016,-2.831543 v -0.341309 h -5.73926 c 0,1.748205 1.04587,3.172852 3.0791,3.172852 z m 16.80762,0 c 1.48217,0 2.66016,-0.969325 2.66016,-2.831543 v -0.341309 h -5.73926 c 0,1.748205 1.04586,3.172852 3.0791,3.172852 z m 30.55371,0 c 1.48218,0 2.66016,-0.969325 2.66016,-2.831543 v -0.341309 h -5.73926 c 0,1.748205 1.04586,3.172852 3.0791,3.172852 z m 23.80664,0 c 1.74821,0 3.26807,-1.367886 3.26807,-3.971192 0,-2.603304 -1.51986,-3.914062 -3.26807,-3.914062 -1.74819,0 -3.19189,1.310758 -3.19189,3.914062 0,2.603306 1.4437,3.971192 3.19189,3.971192 z m 11.50196,0 c 1.74821,0 3.26806,-1.367886 3.26806,-3.971192 0,-2.603304 -1.51985,-3.914062 -3.26806,-3.914062 -1.7482,0 -3.19336,1.310758 -3.19336,3.914062 0,2.603306 1.44516,3.971192 3.19336,3.971192 z m 33.95654,0 c 1.74821,0 3.26807,-1.367886 3.26807,-3.971192 0,-2.603304 -1.51986,-3.914062 -3.26807,-3.914062 -1.74821,0 -3.19189,1.310758 -3.19189,3.914062 0,2.603306 1.44368,3.971192 3.19189,3.971192 z m 25.90723,0 c 1.74821,0 3.26806,-1.367886 3.26806,-3.971192 0,-2.603304 -1.51985,-3.914062 -3.26806,-3.914062 -1.7482,0 -3.19336,1.310758 -3.19336,3.914062 0,2.603306 1.44516,3.971192 3.19336,3.971192 z m 28.46191,0 c 1.48217,0 2.66016,-0.969325 2.66016,-2.831543 v -0.341309 h -5.73926 c 0,1.748205 1.04587,3.172852 3.0791,3.172852 z m -143.521,-4.123535 h 1.89991 v -0.665039 c 0,-2.052241 -1.08313,-3.09668 -2.73633,-3.09668 -1.42517,0 -2.10938,0.607548 -2.10938,1.804687 0,1.501176 0.89357,1.957032 2.9458,1.957032 z m 151.10889,-2.603028 c -0.70309,0 -1.14111,-0.531618 -1.14111,-1.158691 0,-0.627074 0.43802,-1.141113 1.14111,-1.141113 0.70308,0 1.1587,0.514039 1.1587,1.141113 0,0.627073 -0.45562,1.158691 -1.1587,1.158691 z" />
    </g>
  </g>
</svg>
