<?xml version="1.0" encoding="UTF-8" standalone="no"?>
<!-- Created with Inkscape (http://www.inkscape.org/) -->

<svg
   version="1.1"
   id="svg132"
   width="604.724"
   height="302.36267"
   viewBox="0 0 604.724 302.36267"
   sodipodi:docname="Banner.pdf"
   xmlns:inkscape="http://www.inkscape.org/namespaces/inkscape"
   xmlns:sodipodi="http://sodipodi.sourceforge.net/DTD/sodipodi-0.dtd"
   xmlns="http://www.w3.org/2000/svg"
   xmlns:svg="http://www.w3.org/2000/svg">
  <defs
     id="defs136" />
  <sodipodi:namedview
     id="namedview134"
     pagecolor="#ffffff"
     bordercolor="#000000"
     borderopacity="0.25"
     inkscape:showpageshadow="2"
     inkscape:pageopacity="0.0"
     inkscape:pagecheckerboard="0"
     inkscape:deskcolor="#d1d1d1"
     showgrid="false" />
  <g
     id="g140"
     inkscape:groupmode="layer"
     inkscape:label="Page 1"
     transform="matrix(1.3333333,0,0,-1.3333333,0,302.36267)">
    <g
       id="g882"
       transform="translate(0,-10.228366)">
      <text
         xml:space="preserve"
         transform="matrix(1,0,0,-1,103.519,144.627)"
         style="font-variant:normal;font-weight:normal;font-size:70.0498px;font-family:'Explore Sans';-inkscape-font-specification:ExploreSans;writing-mode:lr-tb;fill:#000000;fill-opacity:1;fill-rule:nonzero;stroke:none"
         id="text148"><tspan
           x="0 40.173565 78.504822 120.03035 139.05588 180.80556 207.56459"
           y="0"
           sodipodi:role="line"
           id="tspan146">Explore</tspan></text>
      <text
         xml:space="preserve"
         transform="matrix(1,0,0,-1,46.542,98.449)"
         style="font-variant:normal;font-weight:normal;font-size:17.5124px;font-family:'Explore Sans';-inkscape-font-specification:ExploreSans;writing-mode:lr-tb;fill:#000000;fill-opacity:1;fill-rule:nonzero;stroke:none"
         id="text152"><tspan
           x="0 14.333941 21.268871 31.688778 41.553543 52.276413 60.507267 70.774818 81.418884 91.13829 97.828049 105.16576 114.44036 128.70425 134.19791 138.9718 152.1937 161.60489 171.85492 178.54468 185.23444 194.95384 204.8186 212.0565 216.8304 230.05229 235.52844 249.29848 259.95831 269.67773 279.15195 288.85385 293.64526 304.08267 314.72675 329.27084 338.99023 348.85501 356.0929"
           y="0"
           sodipodi:role="line"
           id="tspan150">Afontsuperfamilycurrentlyindevelopment.</tspan></text>
      <text
         xml:space="preserve"
         transform="matrix(1,0,0,-1,51.647,78.523)"
         style="font-variant:normal;font-weight:normal;font-size:14.5937px;font-family:'Explore Mono';-inkscape-font-specification:ExploreMonoSans;writing-mode:lr-tb;fill:#000000;fill-opacity:1;fill-rule:nonzero;stroke:none"
         id="text156"><tspan
           x="0 8.7547665 17.509533 26.264299 35.019066 43.773834 52.528599 61.283367 78.794357 87.549126 96.318489 105.07325 113.82802 122.58279 131.33755 140.09232 148.84709 157.60185 166.35661 175.11139 192.63698 210.14796 218.90273 227.6575 236.41226 245.16704 253.9218 262.67657 271.43134 280.1861 288.95544 306.46646 315.22122 323.97598 332.73074 341.4855"
           y="0"
           sodipodi:role="line"
           id="tspan154">Includesproportional&amp;monospacedfonts</tspan></text>
      <text
         xml:space="preserve"
         transform="matrix(1,0,0,-1,106.519,54.613)"
         style="font-variant:normal;font-weight:normal;font-size:19.4583px;font-family:'Explore Sans';-inkscape-font-specification:ExploreSans;writing-mode:lr-tb;fill:#000000;fill-opacity:1;fill-rule:nonzero;stroke:none"
         id="text160"><tspan
           x="0 11.065924 16.959837 25.040861 34.061718 45.767822 53.848843 64.648186 70.656906 81.456253 91.741898 101.2103 115.9013 124.92216 136.42395 147.94519 163.14989 170.38058 185.77403 196.28734 207.80859 224.84431 235.64366"
           y="0"
           sodipodi:role="line"
           id="tspan158">Firstreleasesoontocome.</tspan></text>
    </g>
  </g>
</svg>
