<?xml version="1.0"?>
<!-- Created by MetaPost 2.11 on 2025.09.07:1145 -->
<svg version="1.1" xmlns="http://www.w3.org/2000/svg" xmlns:xlink="http://www.w3.org/1999/xlink" width="1133.268936" height="1783.268311" viewBox="0 0 1133.268936 1783.268311">
<!-- Original BoundingBox: -26.170517 -348.291428 1107.098419 1434.976883 -->
  <path d="M486.858963 453.443314C722.175995 453.443314,903.474792 541.785294,903.474792 754.601364C903.474792 967.417496,722.175995 1055.759415,486.858963 1055.759415C251.541931 1055.759415,70.243073 967.417496,70.243073 754.601364C70.243073 541.785233,251.541931 453.443314,486.858963 453.443314L486.858963 541.587540C390.979523 541.587540,392.452393 643.069778,392.452393 754.601364C392.452393 866.133011,390.979523 967.615189,486.858963 967.615189C582.738388 967.615189,581.265472 866.133011,581.265472 754.601364C581.265472 643.069778,582.738388 541.587540,486.858963 541.587540Z" style="fill: rgb(69.999695%,69.999695%,69.999695%);stroke: none;"></path>
  <path d="M486.858963 967.615189C262.396210 967.615189,70.243073 1001.594589,70.243073 1195.315796C70.243073 1353.203720,201.364120 1423.016479,374.370865 1423.016479L622.257843 1423.016479C711.540497 1423.016479,770.864288 1474.602982,770.864288 1561.841354C770.864288 1695.037827,624.858368 1731.518372,471.016205 1731.518372C313.268280 1731.518372,160.362625 1677.028824,38.165756 1577.267426L0.000000 1599.302414C189.639969 1742.305511,289.053696 1775.588287,526.568405 1775.588287C834.282516 1775.588287,1093.073608 1715.707260,1093.073608 1448.724701C1093.073608 1264.062378,953.419754 1167.402145,757.656723 1167.402145L486.858963 1167.402145C430.447006 1167.402145,381.712448 1160.165176,381.712448 1111.580719C381.712448 1062.996338,430.447052 1055.759415,486.858963 1055.759415Z" style="fill: rgb(69.999695%,69.999695%,69.999695%);stroke: none;"></path>
  <path d="M1107.764542 468.134125L1107.764542 754.601364L742.370163 754.601364L1034.686768 468.134125Z" style="fill: rgb(69.999695%,69.999695%,69.999695%);stroke: none;"></path>
  <path d="M0.000000 1599.302414L336.205109 1400.981552L374.370865 1423.016479L38.165756 1621.337341Z" style="fill: rgb(69.999695%,69.999695%,69.999695%);stroke: none;"></path>
  <g transform="matrix(5.120010,-0.000000,-0.000000,5.120010,474.106659 438.083298)" style="fill: rgb(0.000000%,0.000000%,0.000000%);">
    <text font-size="9.962646">1</text>
  </g>
  <path d="M486.858963 453.443314l0 0" style="stroke:rgb(0.000000%,0.000000%,0.000000%); stroke-width: 15.360031;stroke-linecap: round;stroke-linejoin: round;stroke-miterlimit: 10.000000;fill: none;"></path>
  <g transform="matrix(5.120010,-0.000000,-0.000000,5.120010,890.722488 739.241394)" style="fill: rgb(0.000000%,0.000000%,0.000000%);">
    <text font-size="9.962646">2</text>
  </g>
  <path d="M903.474792 754.601364l0 0" style="stroke:rgb(0.000000%,0.000000%,0.000000%); stroke-width: 15.360031;stroke-linecap: round;stroke-linejoin: round;stroke-miterlimit: 10.000000;fill: none;"></path>
  <g transform="matrix(5.120010,-0.000000,-0.000000,5.120010,474.106659 1040.399384)" style="fill: rgb(0.000000%,0.000000%,0.000000%);">
    <text font-size="9.962646">3</text>
  </g>
  <path d="M486.858963 1055.759415l0 0" style="stroke:rgb(0.000000%,0.000000%,0.000000%); stroke-width: 15.360031;stroke-linecap: round;stroke-linejoin: round;stroke-miterlimit: 10.000000;fill: none;"></path>
  <g transform="matrix(5.120010,-0.000000,-0.000000,5.120010,57.490768 739.241394)" style="fill: rgb(0.000000%,0.000000%,0.000000%);">
    <text font-size="9.962646">4</text>
  </g>
  <path d="M70.243073 754.601364l0 0" style="stroke:rgb(0.000000%,0.000000%,0.000000%); stroke-width: 15.360031;stroke-linecap: round;stroke-linejoin: round;stroke-miterlimit: 10.000000;fill: none;"></path>
  <g transform="matrix(5.120010,-0.000000,-0.000000,5.120010,474.106659 1040.399384)" style="fill: rgb(0.000000%,0.000000%,0.000000%);">
    <text font-size="9.962646">5</text>
  </g>
  <path d="M486.858963 1055.759415l0 0" style="stroke:rgb(0.000000%,0.000000%,0.000000%); stroke-width: 15.360031;stroke-linecap: round;stroke-linejoin: round;stroke-miterlimit: 10.000000;fill: none;"></path>
  <g transform="matrix(5.120010,-0.000000,-0.000000,5.120010,57.490768 1224.027893)" style="fill: rgb(0.000000%,0.000000%,0.000000%);">
    <text font-size="9.962646">6</text>
  </g>
  <path d="M70.243073 1239.387924l0 0" style="stroke:rgb(0.000000%,0.000000%,0.000000%); stroke-width: 15.360031;stroke-linecap: round;stroke-linejoin: round;stroke-miterlimit: 10.000000;fill: none;"></path>
  <g transform="matrix(5.120010,-0.000000,-0.000000,5.120010,474.106659 1407.656448)" style="fill: rgb(0.000000%,0.000000%,0.000000%);">
    <text font-size="9.962646">7</text>
  </g>
  <path d="M486.858963 1423.016479l0 0" style="stroke:rgb(0.000000%,0.000000%,0.000000%); stroke-width: 15.360031;stroke-linecap: round;stroke-linejoin: round;stroke-miterlimit: 10.000000;fill: none;"></path>
  <g transform="matrix(5.120010,-0.000000,-0.000000,5.120010,744.904419 1407.656448)" style="fill: rgb(0.000000%,0.000000%,0.000000%);">
    <text font-size="9.962646">8</text>
  </g>
  <path d="M757.656723 1423.016479l0 0" style="stroke:rgb(0.000000%,0.000000%,0.000000%); stroke-width: 15.360031;stroke-linecap: round;stroke-linejoin: round;stroke-miterlimit: 10.000000;fill: none;"></path>
  <g transform="matrix(5.120010,-0.000000,-0.000000,5.120010,1080.321320 1525.180389)" style="fill: rgb(0.000000%,0.000000%,0.000000%);">
    <text font-size="9.962646">9</text>
  </g>
  <path d="M1093.073608 1540.540421l0 0" style="stroke:rgb(0.000000%,0.000000%,0.000000%); stroke-width: 15.360031;stroke-linecap: round;stroke-linejoin: round;stroke-miterlimit: 10.000000;fill: none;"></path>
  <g transform="matrix(5.120010,-0.000000,-0.000000,5.120010,556.153763 1760.228256)" style="fill: rgb(0.000000%,0.000000%,0.000000%);">
    <text font-size="9.962646">10</text>
  </g>
  <path d="M581.658371 1775.588287l0 0" style="stroke:rgb(0.000000%,0.000000%,0.000000%); stroke-width: 15.360031;stroke-linecap: round;stroke-linejoin: round;stroke-miterlimit: 10.000000;fill: none;"></path>
  <g transform="matrix(5.120010,-0.000000,-0.000000,5.120010,30.047592 1583.942383)" style="fill: rgb(0.000000%,0.000000%,0.000000%);">
    <text font-size="9.962646">11</text>
  </g>
  <path d="M55.552200 1599.302414l0 0" style="stroke:rgb(0.000000%,0.000000%,0.000000%); stroke-width: 15.360031;stroke-linecap: round;stroke-linejoin: round;stroke-miterlimit: 10.000000;fill: none;"></path>
  <g transform="matrix(5.120010,-0.000000,-0.000000,5.120010,1082.259933 452.774109)" style="fill: rgb(0.000000%,0.000000%,0.000000%);">
    <text font-size="9.962646">13</text>
  </g>
  <path d="M1107.764542 468.134125l0 0" style="stroke:rgb(0.000000%,0.000000%,0.000000%); stroke-width: 15.360031;stroke-linecap: round;stroke-linejoin: round;stroke-miterlimit: 10.000000;fill: none;"></path>
  <path d="M25.810440 -0.000000L25.810440 0.720154L26.530594 0.720154L1111.465561 0.720154L1110.745407 0.720154L1110.745407 1779.644669L1110.745407 1778.924515L25.810440 1778.924515L26.530594 1778.924515L26.530594 -0.000000L25.810440 -0.000000L25.810440 0.720154L25.810440 1779.644669L26.530594 1779.644669L1111.465561 1779.644669L1111.465561 1778.924515L1111.465561 -0.000000L1110.745407 -0.000000Z" style="fill: rgb(69.999695%,69.999695%,69.999695%);stroke: none;"></path>
</svg>
