<?xml version="1.0"?>
<!-- Created by MetaPost 2.02 on 2025.05.22:2341 -->
<svg version="1.1" xmlns="http://www.w3.org/2000/svg" xmlns:xlink="http://www.w3.org/1999/xlink" width="97.236511" height="367.662094" viewBox="0 0 97.236511 367.662094">
<!-- Original BoundingBox: -0.199997 -80.538742 97.036514 287.123352 -->
  <path d="M34.072052 100.499924L34.072052 294.172974C34.072052 315.883057,26.620285 332.907700,7.172974 332.907700L0.000000 332.907700L0.000000 355.861542L7.172974 355.861542C42.588791 355.861542,62.764481 330.857559,62.764481 294.172974L62.764481 100.499924Z" style="fill: rgb(69.999695%,69.999695%,69.999695%);stroke: none;"></path>
  <path d="M66.351044 46.701782C66.351044 41.945496,64.461334 37.384598,61.098389 34.021652C57.735458 30.658722,53.174545 28.768997,48.418274 28.768997C43.661987 28.768997,39.101074 30.658722,35.738144 34.021652C32.375198 37.384598,30.485489 41.945496,30.485489 46.701782C30.485489 51.458069,32.375198 56.018967,35.738144 59.381912C39.101074 62.744858,43.661987 64.634567,48.418274 64.634567C53.174545 64.634567,57.735458 62.744858,61.098389 59.381912C64.461334 56.018967,66.351044 51.458069,66.351044 46.701782Z" style="fill: rgb(69.999695%,69.999695%,69.999695%);stroke: none;"></path>
  <path d="M0.000000 287.000000L96.836517 287.000000" style="stroke:rgb(0.000000%,0.000000%,0.000000%); stroke-width: 0.399994;stroke-linecap: square;stroke-linejoin: round;stroke-miterlimit: 10.000000;fill: none;"></path>
  <path d="M0.000000 0.076645L96.836517 0.076645" style="stroke:rgb(0.000000%,0.000000%,0.000000%); stroke-width: 0.399994;stroke-linecap: square;stroke-linejoin: round;stroke-miterlimit: 10.000000;fill: none;"></path>
  <path d="M0.000000 367.338745L96.836517 367.338745" style="stroke:rgb(0.000000%,0.000000%,0.000000%); stroke-width: 0.399994;stroke-linecap: square;stroke-linejoin: round;stroke-miterlimit: 10.000000;fill: none;"></path>
  <path d="M0.000000 367.338745L0.000000 0.076645" style="stroke:rgb(0.000000%,0.000000%,0.000000%); stroke-width: 0.399994;stroke-linecap: square;stroke-linejoin: round;stroke-miterlimit: 10.000000;fill: none;"></path>
  <path d="M96.836517 367.338745L96.836517 0.076645" style="stroke:rgb(0.000000%,0.000000%,0.000000%); stroke-width: 0.399994;stroke-linecap: square;stroke-linejoin: round;stroke-miterlimit: 10.000000;fill: none;"></path>
</svg>
