<?xml version="1.0"?>
<!-- Created by MetaPost 2.11 on 2025.09.07:1145 -->
<svg version="1.1" xmlns="http://www.w3.org/2000/svg" xmlns:xlink="http://www.w3.org/1999/xlink" width="1095.519547" height="1779.644669" viewBox="0 0 1095.519547 1779.644669">
<!-- Original BoundingBox: -0.360077 -344.667786 1095.159470 1434.976883 -->
  <path d="M704.662125 468.134125L576.120773 468.134125L576.120773 761.945374L704.662125 761.945374Z" style="fill: rgb(69.999695%,69.999695%,69.999695%);stroke: none;"></path>
  <g transform="matrix(5.120010,-0.000000,-0.000000,5.120010,679.157562 452.774109)" style="fill: rgb(0.000000%,0.000000%,0.000000%);">
    <text font-size="9.962646">1a</text>
  </g>
  <path d="M704.662125 468.134125l0 0" style="stroke:rgb(0.000000%,0.000000%,0.000000%); stroke-width: 15.360031;stroke-linecap: round;stroke-linejoin: round;stroke-miterlimit: 10.000000;fill: none;"></path>
  <g transform="matrix(5.120010,-0.000000,-0.000000,5.120010,549.199295 452.774109)" style="fill: rgb(0.000000%,0.000000%,0.000000%);">
    <text font-size="9.962646">1b</text>
  </g>
  <path d="M576.120773 468.134125l0 0" style="stroke:rgb(0.000000%,0.000000%,0.000000%); stroke-width: 15.360031;stroke-linecap: round;stroke-linejoin: round;stroke-miterlimit: 10.000000;fill: none;"></path>
  <g transform="matrix(5.120010,-0.000000,-0.000000,5.120010,552.033096 746.585403)" style="fill: rgb(0.000000%,0.000000%,0.000000%);">
    <text font-size="9.962646">1c</text>
  </g>
  <path d="M576.120773 761.945374l0 0" style="stroke:rgb(0.000000%,0.000000%,0.000000%); stroke-width: 15.360031;stroke-linecap: round;stroke-linejoin: round;stroke-miterlimit: 10.000000;fill: none;"></path>
  <g transform="matrix(5.120010,-0.000000,-0.000000,5.120010,677.740631 746.585403)" style="fill: rgb(0.000000%,0.000000%,0.000000%);">
    <text font-size="9.962646">1d</text>
  </g>
  <path d="M704.662125 761.945374l0 0" style="stroke:rgb(0.000000%,0.000000%,0.000000%); stroke-width: 15.360031;stroke-linecap: round;stroke-linejoin: round;stroke-miterlimit: 10.000000;fill: none;"></path>
  <path d="M883.668564 468.134125L1012.209915 468.134125L1012.209915 761.945374L883.668564 761.945374Z" style="fill: rgb(69.999695%,69.999695%,69.999695%);stroke: none;"></path>
  <g transform="matrix(5.120010,-0.000000,-0.000000,5.120010,858.163956 452.774109)" style="fill: rgb(0.000000%,0.000000%,0.000000%);">
    <text font-size="9.962646">2a</text>
  </g>
  <path d="M883.668564 468.134125l0 0" style="stroke:rgb(0.000000%,0.000000%,0.000000%); stroke-width: 15.360031;stroke-linecap: round;stroke-linejoin: round;stroke-miterlimit: 10.000000;fill: none;"></path>
  <g transform="matrix(5.120010,-0.000000,-0.000000,5.120010,985.288422 452.774109)" style="fill: rgb(0.000000%,0.000000%,0.000000%);">
    <text font-size="9.962646">2b</text>
  </g>
  <path d="M1012.209915 468.134125l0 0" style="stroke:rgb(0.000000%,0.000000%,0.000000%); stroke-width: 15.360031;stroke-linecap: round;stroke-linejoin: round;stroke-miterlimit: 10.000000;fill: none;"></path>
  <g transform="matrix(5.120010,-0.000000,-0.000000,5.120010,988.122238 746.585403)" style="fill: rgb(0.000000%,0.000000%,0.000000%);">
    <text font-size="9.962646">2c</text>
  </g>
  <path d="M1012.209915 761.945374l0 0" style="stroke:rgb(0.000000%,0.000000%,0.000000%); stroke-width: 15.360031;stroke-linecap: round;stroke-linejoin: round;stroke-miterlimit: 10.000000;fill: none;"></path>
  <g transform="matrix(5.120010,-0.000000,-0.000000,5.120010,856.747086 746.585403)" style="fill: rgb(0.000000%,0.000000%,0.000000%);">
    <text font-size="9.962646">2d</text>
  </g>
  <path d="M883.668564 761.945374l0 0" style="stroke:rgb(0.000000%,0.000000%,0.000000%); stroke-width: 15.360031;stroke-linecap: round;stroke-linejoin: round;stroke-miterlimit: 10.000000;fill: none;"></path>
  <path d="M238.128464 468.134125L109.587128 468.134125L109.587128 761.945374L238.128464 761.945374Z" style="fill: rgb(69.999695%,69.999695%,69.999695%);stroke: none;"></path>
  <g transform="matrix(5.120010,-0.000000,-0.000000,5.120010,212.623856 452.774109)" style="fill: rgb(0.000000%,0.000000%,0.000000%);">
    <text font-size="9.962646">3a</text>
  </g>
  <path d="M238.128464 468.134125l0 0" style="stroke:rgb(0.000000%,0.000000%,0.000000%); stroke-width: 15.360031;stroke-linecap: round;stroke-linejoin: round;stroke-miterlimit: 10.000000;fill: none;"></path>
  <g transform="matrix(5.120010,-0.000000,-0.000000,5.120010,82.665588 452.774109)" style="fill: rgb(0.000000%,0.000000%,0.000000%);">
    <text font-size="9.962646">3b</text>
  </g>
  <path d="M109.587128 468.134125l0 0" style="stroke:rgb(0.000000%,0.000000%,0.000000%); stroke-width: 15.360031;stroke-linecap: round;stroke-linejoin: round;stroke-miterlimit: 10.000000;fill: none;"></path>
  <g transform="matrix(5.120010,-0.000000,-0.000000,5.120010,85.499390 746.585403)" style="fill: rgb(0.000000%,0.000000%,0.000000%);">
    <text font-size="9.962646">3c</text>
  </g>
  <path d="M109.587128 761.945374l0 0" style="stroke:rgb(0.000000%,0.000000%,0.000000%); stroke-width: 15.360031;stroke-linecap: round;stroke-linejoin: round;stroke-miterlimit: 10.000000;fill: none;"></path>
  <g transform="matrix(5.120010,-0.000000,-0.000000,5.120010,211.206985 746.585403)" style="fill: rgb(0.000000%,0.000000%,0.000000%);">
    <text font-size="9.962646">3d</text>
  </g>
  <path d="M238.128464 761.945374l0 0" style="stroke:rgb(0.000000%,0.000000%,0.000000%); stroke-width: 15.360031;stroke-linecap: round;stroke-linejoin: round;stroke-miterlimit: 10.000000;fill: none;"></path>
  <path d="M417.134857 468.134125L545.676208 468.134125L545.676208 761.945374L417.134857 761.945374Z" style="fill: rgb(69.999695%,69.999695%,69.999695%);stroke: none;"></path>
  <g transform="matrix(5.120010,-0.000000,-0.000000,5.120010,391.630264 452.774109)" style="fill: rgb(0.000000%,0.000000%,0.000000%);">
    <text font-size="9.962646">4a</text>
  </g>
  <path d="M417.134857 468.134125l0 0" style="stroke:rgb(0.000000%,0.000000%,0.000000%); stroke-width: 15.360031;stroke-linecap: round;stroke-linejoin: round;stroke-miterlimit: 10.000000;fill: none;"></path>
  <g transform="matrix(5.120010,-0.000000,-0.000000,5.120010,518.754730 452.774109)" style="fill: rgb(0.000000%,0.000000%,0.000000%);">
    <text font-size="9.962646">4b</text>
  </g>
  <path d="M545.676208 468.134125l0 0" style="stroke:rgb(0.000000%,0.000000%,0.000000%); stroke-width: 15.360031;stroke-linecap: round;stroke-linejoin: round;stroke-miterlimit: 10.000000;fill: none;"></path>
  <g transform="matrix(5.120010,-0.000000,-0.000000,5.120010,521.588531 746.585403)" style="fill: rgb(0.000000%,0.000000%,0.000000%);">
    <text font-size="9.962646">4c</text>
  </g>
  <path d="M545.676208 761.945374l0 0" style="stroke:rgb(0.000000%,0.000000%,0.000000%); stroke-width: 15.360031;stroke-linecap: round;stroke-linejoin: round;stroke-miterlimit: 10.000000;fill: none;"></path>
  <g transform="matrix(5.120010,-0.000000,-0.000000,5.120010,390.213379 746.585403)" style="fill: rgb(0.000000%,0.000000%,0.000000%);">
    <text font-size="9.962646">4d</text>
  </g>
  <path d="M417.134857 761.945374l0 0" style="stroke:rgb(0.000000%,0.000000%,0.000000%); stroke-width: 15.360031;stroke-linecap: round;stroke-linejoin: round;stroke-miterlimit: 10.000000;fill: none;"></path>
  <path d="M59.122070 468.134125L381.892090 1423.016479L632.499985 1423.016479L417.134857 468.134125Z" style="fill: rgb(69.999695%,69.999695%,69.999695%);stroke: none;"></path>
  <path d="M704.662125 468.134125L489.296997 1423.016479L739.904892 1423.016479L1062.674957 468.134125Z" style="fill: rgb(69.999695%,69.999695%,69.999695%);stroke: none;"></path>
  <g transform="matrix(5.120010,-0.000000,-0.000000,5.120010,39.285156 452.774109)" style="fill: rgb(0.000000%,0.000000%,0.000000%);">
    <text font-size="9.962646">1l</text>
  </g>
  <path d="M59.122070 468.134125l0 0" style="stroke:rgb(0.000000%,0.000000%,0.000000%); stroke-width: 15.360031;stroke-linecap: round;stroke-linejoin: round;stroke-miterlimit: 10.000000;fill: none;"></path>
  <g transform="matrix(5.120010,-0.000000,-0.000000,5.120010,362.055176 1407.656448)" style="fill: rgb(0.000000%,0.000000%,0.000000%);">
    <text font-size="9.962646">2l</text>
  </g>
  <path d="M381.892090 1423.016479l0 0" style="stroke:rgb(0.000000%,0.000000%,0.000000%); stroke-width: 15.360031;stroke-linecap: round;stroke-linejoin: round;stroke-miterlimit: 10.000000;fill: none;"></path>
  <g transform="matrix(5.120010,-0.000000,-0.000000,5.120010,684.825256 452.774109)" style="fill: rgb(0.000000%,0.000000%,0.000000%);">
    <text font-size="9.962646">3l</text>
  </g>
  <path d="M704.662125 468.134125l0 0" style="stroke:rgb(0.000000%,0.000000%,0.000000%); stroke-width: 15.360031;stroke-linecap: round;stroke-linejoin: round;stroke-miterlimit: 10.000000;fill: none;"></path>
  <g transform="matrix(5.120010,-0.000000,-0.000000,5.120010,349.302933 1407.656448)" style="fill: rgb(0.000000%,0.000000%,0.000000%);">
    <text font-size="9.962646">31l</text>
  </g>
  <path d="M381.892090 1423.016479l0 0" style="stroke:rgb(0.000000%,0.000000%,0.000000%); stroke-width: 15.360031;stroke-linecap: round;stroke-linejoin: round;stroke-miterlimit: 10.000000;fill: none;"></path>
  <g transform="matrix(5.120010,-0.000000,-0.000000,5.120010,456.707825 1407.656448)" style="fill: rgb(0.000000%,0.000000%,0.000000%);">
    <text font-size="9.962646">32l</text>
  </g>
  <path d="M489.296997 1423.016479l0 0" style="stroke:rgb(0.000000%,0.000000%,0.000000%); stroke-width: 15.360031;stroke-linecap: round;stroke-linejoin: round;stroke-miterlimit: 10.000000;fill: none;"></path>
  <g transform="matrix(5.120010,-0.000000,-0.000000,5.120010,225.376114 452.774109)" style="fill: rgb(0.000000%,0.000000%,0.000000%);">
    <text font-size="9.962646">1</text>
  </g>
  <path d="M238.128464 468.134125l0 0" style="stroke:rgb(0.000000%,0.000000%,0.000000%); stroke-width: 15.360031;stroke-linecap: round;stroke-linejoin: round;stroke-miterlimit: 10.000000;fill: none;"></path>
  <g transform="matrix(5.120010,-0.000000,-0.000000,5.120010,548.146194 1407.656448)" style="fill: rgb(0.000000%,0.000000%,0.000000%);">
    <text font-size="9.962646">2</text>
  </g>
  <path d="M560.898483 1423.016479l0 0" style="stroke:rgb(0.000000%,0.000000%,0.000000%); stroke-width: 15.360031;stroke-linecap: round;stroke-linejoin: round;stroke-miterlimit: 10.000000;fill: none;"></path>
  <g transform="matrix(5.120010,-0.000000,-0.000000,5.120010,870.916214 452.774109)" style="fill: rgb(0.000000%,0.000000%,0.000000%);">
    <text font-size="9.962646">3</text>
  </g>
  <path d="M883.668564 468.134125l0 0" style="stroke:rgb(0.000000%,0.000000%,0.000000%); stroke-width: 15.360031;stroke-linecap: round;stroke-linejoin: round;stroke-miterlimit: 10.000000;fill: none;"></path>
  <g transform="matrix(5.120010,-0.000000,-0.000000,5.120010,481.691513 1407.656448)" style="fill: rgb(0.000000%,0.000000%,0.000000%);">
    <text font-size="9.962646">31</text>
  </g>
  <path d="M507.196060 1423.016479l0 0" style="stroke:rgb(0.000000%,0.000000%,0.000000%); stroke-width: 15.360031;stroke-linecap: round;stroke-linejoin: round;stroke-miterlimit: 10.000000;fill: none;"></path>
  <g transform="matrix(5.120010,-0.000000,-0.000000,5.120010,589.096420 1407.656448)" style="fill: rgb(0.000000%,0.000000%,0.000000%);">
    <text font-size="9.962646">32</text>
  </g>
  <path d="M614.600967 1423.016479l0 0" style="stroke:rgb(0.000000%,0.000000%,0.000000%); stroke-width: 15.360031;stroke-linecap: round;stroke-linejoin: round;stroke-miterlimit: 10.000000;fill: none;"></path>
  <g transform="matrix(5.120010,-0.000000,-0.000000,5.120010,394.393250 452.774109)" style="fill: rgb(0.000000%,0.000000%,0.000000%);">
    <text font-size="9.962646">1r</text>
  </g>
  <path d="M417.134857 468.134125l0 0" style="stroke:rgb(0.000000%,0.000000%,0.000000%); stroke-width: 15.360031;stroke-linecap: round;stroke-linejoin: round;stroke-miterlimit: 10.000000;fill: none;"></path>
  <g transform="matrix(5.120010,-0.000000,-0.000000,5.120010,717.163330 1407.656448)" style="fill: rgb(0.000000%,0.000000%,0.000000%);">
    <text font-size="9.962646">2r</text>
  </g>
  <path d="M739.904892 1423.016479l0 0" style="stroke:rgb(0.000000%,0.000000%,0.000000%); stroke-width: 15.360031;stroke-linecap: round;stroke-linejoin: round;stroke-miterlimit: 10.000000;fill: none;"></path>
  <g transform="matrix(5.120010,-0.000000,-0.000000,5.120010,1039.933350 452.774109)" style="fill: rgb(0.000000%,0.000000%,0.000000%);">
    <text font-size="9.962646">3r</text>
  </g>
  <path d="M1062.674957 468.134125l0 0" style="stroke:rgb(0.000000%,0.000000%,0.000000%); stroke-width: 15.360031;stroke-linecap: round;stroke-linejoin: round;stroke-miterlimit: 10.000000;fill: none;"></path>
  <g transform="matrix(5.120010,-0.000000,-0.000000,5.120010,597.006119 1407.656448)" style="fill: rgb(0.000000%,0.000000%,0.000000%);">
    <text font-size="9.962646">31r</text>
  </g>
  <path d="M632.499985 1423.016479l0 0" style="stroke:rgb(0.000000%,0.000000%,0.000000%); stroke-width: 15.360031;stroke-linecap: round;stroke-linejoin: round;stroke-miterlimit: 10.000000;fill: none;"></path>
  <g transform="matrix(5.120010,-0.000000,-0.000000,5.120010,704.411026 1407.656448)" style="fill: rgb(0.000000%,0.000000%,0.000000%);">
    <text font-size="9.962646">32r</text>
  </g>
  <path d="M739.904892 1423.016479l0 0" style="stroke:rgb(0.000000%,0.000000%,0.000000%); stroke-width: 15.360031;stroke-linecap: round;stroke-linejoin: round;stroke-miterlimit: 10.000000;fill: none;"></path>
  <path d="M0.000000 -0.000000L0.000000 0.720154L0.720154 0.720154L1095.519547 0.720154L1094.799393 0.720154L1094.799393 1779.644669L1094.799393 1778.924515L0.000000 1778.924515L0.720154 1778.924515L0.720154 -0.000000L0.000000 -0.000000L0.000000 0.720154L0.000000 1779.644669L0.720154 1779.644669L1095.519547 1779.644669L1095.519547 1778.924515L1095.519547 -0.000000L1094.799393 -0.000000Z" style="fill: rgb(69.999695%,69.999695%,69.999695%);stroke: none;"></path>
</svg>
