<?xml version="1.0"?>
<!-- Created by MetaPost 2.11 on 2025.09.07:1145 -->
<svg version="1.1" xmlns="http://www.w3.org/2000/svg" xmlns:xlink="http://www.w3.org/1999/xlink" width="1114.796722" height="1783.269791" viewBox="0 0 1114.796722 1783.269791">
<!-- Original BoundingBox: -0.360077 -348.292908 1114.436646 1434.976883 -->
  <path d="M29.741760 468.134125L205.816879 945.575302L381.892090 1423.016479L632.499985 1423.016479L563.829712 945.575302L387.754547 468.134125Z" style="fill: rgb(69.999695%,69.999695%,69.999695%);stroke: none;"></path>
  <path d="M734.042435 468.134125L557.967316 945.575302L489.296997 1423.016479L739.904892 1423.016479L915.980103 945.575302L1092.055267 468.134125Z" style="fill: rgb(69.999695%,69.999695%,69.999695%);stroke: none;"></path>
  <path d="M381.892090 1423.016479L251.866837 1775.589767L609.879623 1775.589767L739.904892 1423.016479Z" style="fill: rgb(69.999695%,69.999695%,69.999695%);stroke: none;"></path>
  <g transform="matrix(5.120010,-0.000000,-0.000000,5.120010,9.904846 452.774109)" style="fill: rgb(0.000000%,0.000000%,0.000000%);">
    <text font-size="9.962646">1l</text>
  </g>
  <path d="M29.741760 468.134125l0 0" style="stroke:rgb(0.000000%,0.000000%,0.000000%); stroke-width: 15.360031;stroke-linecap: round;stroke-linejoin: round;stroke-miterlimit: 10.000000;fill: none;"></path>
  <g transform="matrix(5.120010,-0.000000,-0.000000,5.120010,714.205566 452.774109)" style="fill: rgb(0.000000%,0.000000%,0.000000%);">
    <text font-size="9.962646">2l</text>
  </g>
  <path d="M734.042435 468.134125l0 0" style="stroke:rgb(0.000000%,0.000000%,0.000000%); stroke-width: 15.360031;stroke-linecap: round;stroke-linejoin: round;stroke-miterlimit: 10.000000;fill: none;"></path>
  <g transform="matrix(5.120010,-0.000000,-0.000000,5.120010,362.055176 1407.656448)" style="fill: rgb(0.000000%,0.000000%,0.000000%);">
    <text font-size="9.962646">3l</text>
  </g>
  <path d="M381.892090 1423.016479l0 0" style="stroke:rgb(0.000000%,0.000000%,0.000000%); stroke-width: 15.360031;stroke-linecap: round;stroke-linejoin: round;stroke-miterlimit: 10.000000;fill: none;"></path>
  <g transform="matrix(5.120010,-0.000000,-0.000000,5.120010,232.029922 1760.229736)" style="fill: rgb(0.000000%,0.000000%,0.000000%);">
    <text font-size="9.962646">4l</text>
  </g>
  <path d="M251.866837 1775.589767l0 0" style="stroke:rgb(0.000000%,0.000000%,0.000000%); stroke-width: 15.360031;stroke-linecap: round;stroke-linejoin: round;stroke-miterlimit: 10.000000;fill: none;"></path>
  <g transform="matrix(5.120010,-0.000000,-0.000000,5.120010,173.227707 930.215286)" style="fill: rgb(0.000000%,0.000000%,0.000000%);">
    <text font-size="9.962646">11l</text>
  </g>
  <path d="M205.816879 945.575302l0 0" style="stroke:rgb(0.000000%,0.000000%,0.000000%); stroke-width: 15.360031;stroke-linecap: round;stroke-linejoin: round;stroke-miterlimit: 10.000000;fill: none;"></path>
  <g transform="matrix(5.120010,-0.000000,-0.000000,5.120010,525.378143 930.215286)" style="fill: rgb(0.000000%,0.000000%,0.000000%);">
    <text font-size="9.962646">21l</text>
  </g>
  <path d="M557.967316 945.575302l0 0" style="stroke:rgb(0.000000%,0.000000%,0.000000%); stroke-width: 15.360031;stroke-linecap: round;stroke-linejoin: round;stroke-miterlimit: 10.000000;fill: none;"></path>
  <g transform="matrix(5.120010,-0.000000,-0.000000,5.120010,349.302933 1407.656448)" style="fill: rgb(0.000000%,0.000000%,0.000000%);">
    <text font-size="9.962646">31l</text>
  </g>
  <path d="M381.892090 1423.016479l0 0" style="stroke:rgb(0.000000%,0.000000%,0.000000%); stroke-width: 15.360031;stroke-linecap: round;stroke-linejoin: round;stroke-miterlimit: 10.000000;fill: none;"></path>
  <g transform="matrix(5.120010,-0.000000,-0.000000,5.120010,456.707825 1407.656448)" style="fill: rgb(0.000000%,0.000000%,0.000000%);">
    <text font-size="9.962646">32l</text>
  </g>
  <path d="M489.296997 1423.016479l0 0" style="stroke:rgb(0.000000%,0.000000%,0.000000%); stroke-width: 15.360031;stroke-linecap: round;stroke-linejoin: round;stroke-miterlimit: 10.000000;fill: none;"></path>
  <g transform="matrix(5.120010,-0.000000,-0.000000,5.120010,195.995804 452.774109)" style="fill: rgb(0.000000%,0.000000%,0.000000%);">
    <text font-size="9.962646">1</text>
  </g>
  <path d="M208.748154 468.134125l0 0" style="stroke:rgb(0.000000%,0.000000%,0.000000%); stroke-width: 15.360031;stroke-linecap: round;stroke-linejoin: round;stroke-miterlimit: 10.000000;fill: none;"></path>
  <g transform="matrix(5.120010,-0.000000,-0.000000,5.120010,900.296524 452.774109)" style="fill: rgb(0.000000%,0.000000%,0.000000%);">
    <text font-size="9.962646">2</text>
  </g>
  <path d="M913.048874 468.134125l0 0" style="stroke:rgb(0.000000%,0.000000%,0.000000%); stroke-width: 15.360031;stroke-linecap: round;stroke-linejoin: round;stroke-miterlimit: 10.000000;fill: none;"></path>
  <g transform="matrix(5.120010,-0.000000,-0.000000,5.120010,548.146194 1407.656448)" style="fill: rgb(0.000000%,0.000000%,0.000000%);">
    <text font-size="9.962646">3</text>
  </g>
  <path d="M560.898483 1423.016479l0 0" style="stroke:rgb(0.000000%,0.000000%,0.000000%); stroke-width: 15.360031;stroke-linecap: round;stroke-linejoin: round;stroke-miterlimit: 10.000000;fill: none;"></path>
  <g transform="matrix(5.120010,-0.000000,-0.000000,5.120010,418.120926 1760.229736)" style="fill: rgb(0.000000%,0.000000%,0.000000%);">
    <text font-size="9.962646">4</text>
  </g>
  <path d="M430.873230 1775.589767l0 0" style="stroke:rgb(0.000000%,0.000000%,0.000000%); stroke-width: 15.360031;stroke-linecap: round;stroke-linejoin: round;stroke-miterlimit: 10.000000;fill: none;"></path>
  <g transform="matrix(5.120010,-0.000000,-0.000000,5.120010,359.318726 930.215286)" style="fill: rgb(0.000000%,0.000000%,0.000000%);">
    <text font-size="9.962646">11</text>
  </g>
  <path d="M384.823273 945.575302l0 0" style="stroke:rgb(0.000000%,0.000000%,0.000000%); stroke-width: 15.360031;stroke-linecap: round;stroke-linejoin: round;stroke-miterlimit: 10.000000;fill: none;"></path>
  <g transform="matrix(5.120010,-0.000000,-0.000000,5.120010,711.469101 930.215286)" style="fill: rgb(0.000000%,0.000000%,0.000000%);">
    <text font-size="9.962646">21</text>
  </g>
  <path d="M736.973709 945.575302l0 0" style="stroke:rgb(0.000000%,0.000000%,0.000000%); stroke-width: 15.360031;stroke-linecap: round;stroke-linejoin: round;stroke-miterlimit: 10.000000;fill: none;"></path>
  <g transform="matrix(5.120010,-0.000000,-0.000000,5.120010,481.691513 1407.656448)" style="fill: rgb(0.000000%,0.000000%,0.000000%);">
    <text font-size="9.962646">31</text>
  </g>
  <path d="M507.196060 1423.016479l0 0" style="stroke:rgb(0.000000%,0.000000%,0.000000%); stroke-width: 15.360031;stroke-linecap: round;stroke-linejoin: round;stroke-miterlimit: 10.000000;fill: none;"></path>
  <g transform="matrix(5.120010,-0.000000,-0.000000,5.120010,589.096420 1407.656448)" style="fill: rgb(0.000000%,0.000000%,0.000000%);">
    <text font-size="9.962646">32</text>
  </g>
  <path d="M614.600967 1423.016479l0 0" style="stroke:rgb(0.000000%,0.000000%,0.000000%); stroke-width: 15.360031;stroke-linecap: round;stroke-linejoin: round;stroke-miterlimit: 10.000000;fill: none;"></path>
  <g transform="matrix(5.120010,-0.000000,-0.000000,5.120010,365.012939 452.774109)" style="fill: rgb(0.000000%,0.000000%,0.000000%);">
    <text font-size="9.962646">1r</text>
  </g>
  <path d="M387.754547 468.134125l0 0" style="stroke:rgb(0.000000%,0.000000%,0.000000%); stroke-width: 15.360031;stroke-linecap: round;stroke-linejoin: round;stroke-miterlimit: 10.000000;fill: none;"></path>
  <g transform="matrix(5.120010,-0.000000,-0.000000,5.120010,1069.313660 452.774109)" style="fill: rgb(0.000000%,0.000000%,0.000000%);">
    <text font-size="9.962646">2r</text>
  </g>
  <path d="M1092.055267 468.134125l0 0" style="stroke:rgb(0.000000%,0.000000%,0.000000%); stroke-width: 15.360031;stroke-linecap: round;stroke-linejoin: round;stroke-miterlimit: 10.000000;fill: none;"></path>
  <g transform="matrix(5.120010,-0.000000,-0.000000,5.120010,717.163330 1407.656448)" style="fill: rgb(0.000000%,0.000000%,0.000000%);">
    <text font-size="9.962646">3r</text>
  </g>
  <path d="M739.904892 1423.016479l0 0" style="stroke:rgb(0.000000%,0.000000%,0.000000%); stroke-width: 15.360031;stroke-linecap: round;stroke-linejoin: round;stroke-miterlimit: 10.000000;fill: none;"></path>
  <g transform="matrix(5.120010,-0.000000,-0.000000,5.120010,587.138016 1760.229736)" style="fill: rgb(0.000000%,0.000000%,0.000000%);">
    <text font-size="9.962646">4r</text>
  </g>
  <path d="M609.879623 1775.589767l0 0" style="stroke:rgb(0.000000%,0.000000%,0.000000%); stroke-width: 15.360031;stroke-linecap: round;stroke-linejoin: round;stroke-miterlimit: 10.000000;fill: none;"></path>
  <g transform="matrix(5.120010,-0.000000,-0.000000,5.120010,528.335861 930.215286)" style="fill: rgb(0.000000%,0.000000%,0.000000%);">
    <text font-size="9.962646">11r</text>
  </g>
  <path d="M563.829712 945.575302l0 0" style="stroke:rgb(0.000000%,0.000000%,0.000000%); stroke-width: 15.360031;stroke-linecap: round;stroke-linejoin: round;stroke-miterlimit: 10.000000;fill: none;"></path>
  <g transform="matrix(5.120010,-0.000000,-0.000000,5.120010,880.486252 930.215286)" style="fill: rgb(0.000000%,0.000000%,0.000000%);">
    <text font-size="9.962646">21r</text>
  </g>
  <path d="M915.980103 945.575302l0 0" style="stroke:rgb(0.000000%,0.000000%,0.000000%); stroke-width: 15.360031;stroke-linecap: round;stroke-linejoin: round;stroke-miterlimit: 10.000000;fill: none;"></path>
  <g transform="matrix(5.120010,-0.000000,-0.000000,5.120010,597.006119 1407.656448)" style="fill: rgb(0.000000%,0.000000%,0.000000%);">
    <text font-size="9.962646">31r</text>
  </g>
  <path d="M632.499985 1423.016479l0 0" style="stroke:rgb(0.000000%,0.000000%,0.000000%); stroke-width: 15.360031;stroke-linecap: round;stroke-linejoin: round;stroke-miterlimit: 10.000000;fill: none;"></path>
  <g transform="matrix(5.120010,-0.000000,-0.000000,5.120010,704.411026 1407.656448)" style="fill: rgb(0.000000%,0.000000%,0.000000%);">
    <text font-size="9.962646">32r</text>
  </g>
  <path d="M739.904892 1423.016479l0 0" style="stroke:rgb(0.000000%,0.000000%,0.000000%); stroke-width: 15.360031;stroke-linecap: round;stroke-linejoin: round;stroke-miterlimit: 10.000000;fill: none;"></path>
  <path d="M0.000000 -0.000000L0.000000 0.720154L0.720154 0.720154L1095.519547 0.720154L1094.799393 0.720154L1094.799393 1779.644669L1094.799393 1778.924515L0.000000 1778.924515L0.720154 1778.924515L0.720154 -0.000000L0.000000 -0.000000L0.000000 0.720154L0.000000 1779.644669L0.720154 1779.644669L1095.519547 1779.644669L1095.519547 1778.924515L1095.519547 -0.000000L1094.799393 -0.000000Z" style="fill: rgb(69.999695%,69.999695%,69.999695%);stroke: none;"></path>
</svg>
