<?xml version="1.0"?>
<!-- Created by MetaPost 2.11 on 2025.09.07:1145 -->
<svg version="1.1" xmlns="http://www.w3.org/2000/svg" xmlns:xlink="http://www.w3.org/1999/xlink" width="713.386139" height="1873.911133" viewBox="0 0 713.386139 1873.911133">
<!-- Original BoundingBox: -0.360077 -344.667786 713.026062 1529.243347 -->
  <path d="M44.432632 342.043594L44.432632 48.232361C336.504135 48.232361,540.168961 200.977859,540.168961 479.767136L540.168961 589.944153C540.168961 674.458710,593.377823 727.667633,677.892441 727.667633L677.892441 1021.478867C385.820923 1021.478867,182.156113 868.733368,182.156113 589.944153L182.156113 479.767136C182.156113 395.252518,128.947250 342.043594,44.432632 342.043594Z" style="fill: rgb(69.999695%,69.999695%,69.999695%);stroke: none;"></path>
  <path d="M677.892441 1021.478867C593.377823 1021.478867,540.168961 1074.687790,540.168961 1159.202408L540.168961 1269.379532C540.168961 1548.168762,336.504135 1700.914246,44.432632 1700.914246L44.432632 1407.103012C128.947250 1407.103012,182.156113 1353.894089,182.156113 1269.379532L182.156113 1159.202408C182.156113 910.571823,400.173294 815.811859,677.892441 815.811859Z" style="fill: rgb(69.999695%,69.999695%,69.999695%);stroke: none;"></path>
  <g transform="matrix(5.120010,-0.000000,-0.000000,5.120010,24.595703 326.683624)" style="fill: rgb(0.000000%,0.000000%,0.000000%);">
    <text font-size="9.962646">1l</text>
  </g>
  <path d="M44.432632 342.043594l0 0" style="stroke:rgb(0.000000%,0.000000%,0.000000%); stroke-width: 15.360031;stroke-linecap: round;stroke-linejoin: round;stroke-miterlimit: 10.000000;fill: none;"></path>
  <g transform="matrix(5.120010,-0.000000,-0.000000,5.120010,162.319244 464.407104)" style="fill: rgb(0.000000%,0.000000%,0.000000%);">
    <text font-size="9.962646">2l</text>
  </g>
  <path d="M182.156113 479.767136l0 0" style="stroke:rgb(0.000000%,0.000000%,0.000000%); stroke-width: 15.360031;stroke-linecap: round;stroke-linejoin: round;stroke-miterlimit: 10.000000;fill: none;"></path>
  <g transform="matrix(5.120010,-0.000000,-0.000000,5.120010,162.319244 574.584122)" style="fill: rgb(0.000000%,0.000000%,0.000000%);">
    <text font-size="9.962646">3l</text>
  </g>
  <path d="M182.156113 589.944153l0 0" style="stroke:rgb(0.000000%,0.000000%,0.000000%); stroke-width: 15.360031;stroke-linecap: round;stroke-linejoin: round;stroke-miterlimit: 10.000000;fill: none;"></path>
  <g transform="matrix(5.120010,-0.000000,-0.000000,5.120010,658.055527 1006.118851)" style="fill: rgb(0.000000%,0.000000%,0.000000%);">
    <text font-size="9.962646">4l</text>
  </g>
  <path d="M677.892441 1021.478867l0 0" style="stroke:rgb(0.000000%,0.000000%,0.000000%); stroke-width: 15.360031;stroke-linecap: round;stroke-linejoin: round;stroke-miterlimit: 10.000000;fill: none;"></path>
  <g transform="matrix(5.120010,-0.000000,-0.000000,5.120010,162.319244 1143.842377)" style="fill: rgb(0.000000%,0.000000%,0.000000%);">
    <text font-size="9.962646">5l</text>
  </g>
  <path d="M182.156113 1159.202408l0 0" style="stroke:rgb(0.000000%,0.000000%,0.000000%); stroke-width: 15.360031;stroke-linecap: round;stroke-linejoin: round;stroke-miterlimit: 10.000000;fill: none;"></path>
  <g transform="matrix(5.120010,-0.000000,-0.000000,5.120010,162.319244 1254.019501)" style="fill: rgb(0.000000%,0.000000%,0.000000%);">
    <text font-size="9.962646">6l</text>
  </g>
  <path d="M182.156113 1269.379532l0 0" style="stroke:rgb(0.000000%,0.000000%,0.000000%); stroke-width: 15.360031;stroke-linecap: round;stroke-linejoin: round;stroke-miterlimit: 10.000000;fill: none;"></path>
  <g transform="matrix(5.120010,-0.000000,-0.000000,5.120010,24.595703 1391.742996)" style="fill: rgb(0.000000%,0.000000%,0.000000%);">
    <text font-size="9.962646">7l</text>
  </g>
  <path d="M44.432632 1407.103012l0 0" style="stroke:rgb(0.000000%,0.000000%,0.000000%); stroke-width: 15.360031;stroke-linecap: round;stroke-linejoin: round;stroke-miterlimit: 10.000000;fill: none;"></path>
  <g transform="matrix(5.120010,-0.000000,-0.000000,5.120010,645.303268 917.974609)" style="fill: rgb(0.000000%,0.000000%,0.000000%);">
    <text font-size="9.962646">41l</text>
  </g>
  <path d="M677.892441 933.334641l0 0" style="stroke:rgb(0.000000%,0.000000%,0.000000%); stroke-width: 15.360031;stroke-linecap: round;stroke-linejoin: round;stroke-miterlimit: 10.000000;fill: none;"></path>
  <g transform="matrix(5.120010,-0.000000,-0.000000,5.120010,645.303268 1006.118851)" style="fill: rgb(0.000000%,0.000000%,0.000000%);">
    <text font-size="9.962646">42l</text>
  </g>
  <path d="M677.892441 1021.478867l0 0" style="stroke:rgb(0.000000%,0.000000%,0.000000%); stroke-width: 15.360031;stroke-linecap: round;stroke-linejoin: round;stroke-miterlimit: 10.000000;fill: none;"></path>
  <g transform="matrix(5.120010,-0.000000,-0.000000,5.120010,31.680328 179.777954)" style="fill: rgb(0.000000%,0.000000%,0.000000%);">
    <text font-size="9.962646">1</text>
  </g>
  <path d="M44.432632 195.137985l0 0" style="stroke:rgb(0.000000%,0.000000%,0.000000%); stroke-width: 15.360031;stroke-linecap: round;stroke-linejoin: round;stroke-miterlimit: 10.000000;fill: none;"></path>
  <g transform="matrix(5.120010,-0.000000,-0.000000,5.120010,348.410202 464.407104)" style="fill: rgb(0.000000%,0.000000%,0.000000%);">
    <text font-size="9.962646">2</text>
  </g>
  <path d="M361.162506 479.767136l0 0" style="stroke:rgb(0.000000%,0.000000%,0.000000%); stroke-width: 15.360031;stroke-linecap: round;stroke-linejoin: round;stroke-miterlimit: 10.000000;fill: none;"></path>
  <g transform="matrix(5.120010,-0.000000,-0.000000,5.120010,348.410202 574.584122)" style="fill: rgb(0.000000%,0.000000%,0.000000%);">
    <text font-size="9.962646">3</text>
  </g>
  <path d="M361.162506 589.944153l0 0" style="stroke:rgb(0.000000%,0.000000%,0.000000%); stroke-width: 15.360031;stroke-linecap: round;stroke-linejoin: round;stroke-miterlimit: 10.000000;fill: none;"></path>
  <g transform="matrix(5.120010,-0.000000,-0.000000,5.120010,665.140137 859.213287)" style="fill: rgb(0.000000%,0.000000%,0.000000%);">
    <text font-size="9.962646">4</text>
  </g>
  <path d="M677.892441 874.573303l0 0" style="stroke:rgb(0.000000%,0.000000%,0.000000%); stroke-width: 15.360031;stroke-linecap: round;stroke-linejoin: round;stroke-miterlimit: 10.000000;fill: none;"></path>
  <g transform="matrix(5.120010,-0.000000,-0.000000,5.120010,348.410202 1143.842377)" style="fill: rgb(0.000000%,0.000000%,0.000000%);">
    <text font-size="9.962646">5</text>
  </g>
  <path d="M361.162506 1159.202408l0 0" style="stroke:rgb(0.000000%,0.000000%,0.000000%); stroke-width: 15.360031;stroke-linecap: round;stroke-linejoin: round;stroke-miterlimit: 10.000000;fill: none;"></path>
  <g transform="matrix(5.120010,-0.000000,-0.000000,5.120010,348.410202 1254.019501)" style="fill: rgb(0.000000%,0.000000%,0.000000%);">
    <text font-size="9.962646">6</text>
  </g>
  <path d="M361.162506 1269.379532l0 0" style="stroke:rgb(0.000000%,0.000000%,0.000000%); stroke-width: 15.360031;stroke-linecap: round;stroke-linejoin: round;stroke-miterlimit: 10.000000;fill: none;"></path>
  <g transform="matrix(5.120010,-0.000000,-0.000000,5.120010,31.680328 1538.648666)" style="fill: rgb(0.000000%,0.000000%,0.000000%);">
    <text font-size="9.962646">7</text>
  </g>
  <path d="M44.432632 1554.008682l0 0" style="stroke:rgb(0.000000%,0.000000%,0.000000%); stroke-width: 15.360031;stroke-linecap: round;stroke-linejoin: round;stroke-miterlimit: 10.000000;fill: none;"></path>
  <g transform="matrix(5.120010,-0.000000,-0.000000,5.120010,652.387894 815.141113)" style="fill: rgb(0.000000%,0.000000%,0.000000%);">
    <text font-size="9.962646">41</text>
  </g>
  <path d="M677.892441 830.501129l0 0" style="stroke:rgb(0.000000%,0.000000%,0.000000%); stroke-width: 15.360031;stroke-linecap: round;stroke-linejoin: round;stroke-miterlimit: 10.000000;fill: none;"></path>
  <g transform="matrix(5.120010,-0.000000,-0.000000,5.120010,652.387894 903.285400)" style="fill: rgb(0.000000%,0.000000%,0.000000%);">
    <text font-size="9.962646">42</text>
  </g>
  <path d="M677.892441 918.645370l0 0" style="stroke:rgb(0.000000%,0.000000%,0.000000%); stroke-width: 15.360031;stroke-linecap: round;stroke-linejoin: round;stroke-miterlimit: 10.000000;fill: none;"></path>
  <g transform="matrix(5.120010,-0.000000,-0.000000,5.120010,21.691025 32.872330)" style="fill: rgb(0.000000%,0.000000%,0.000000%);">
    <text font-size="9.962646">1r</text>
  </g>
  <path d="M44.432632 48.232361l0 0" style="stroke:rgb(0.000000%,0.000000%,0.000000%); stroke-width: 15.360031;stroke-linecap: round;stroke-linejoin: round;stroke-miterlimit: 10.000000;fill: none;"></path>
  <g transform="matrix(5.120010,-0.000000,-0.000000,5.120010,517.427353 464.407104)" style="fill: rgb(0.000000%,0.000000%,0.000000%);">
    <text font-size="9.962646">2r</text>
  </g>
  <path d="M540.168961 479.767136l0 0" style="stroke:rgb(0.000000%,0.000000%,0.000000%); stroke-width: 15.360031;stroke-linecap: round;stroke-linejoin: round;stroke-miterlimit: 10.000000;fill: none;"></path>
  <g transform="matrix(5.120010,-0.000000,-0.000000,5.120010,517.427353 574.584122)" style="fill: rgb(0.000000%,0.000000%,0.000000%);">
    <text font-size="9.962646">3r</text>
  </g>
  <path d="M540.168961 589.944153l0 0" style="stroke:rgb(0.000000%,0.000000%,0.000000%); stroke-width: 15.360031;stroke-linecap: round;stroke-linejoin: round;stroke-miterlimit: 10.000000;fill: none;"></path>
  <g transform="matrix(5.120010,-0.000000,-0.000000,5.120010,655.150833 712.307602)" style="fill: rgb(0.000000%,0.000000%,0.000000%);">
    <text font-size="9.962646">4r</text>
  </g>
  <path d="M677.892441 727.667633l0 0" style="stroke:rgb(0.000000%,0.000000%,0.000000%); stroke-width: 15.360031;stroke-linecap: round;stroke-linejoin: round;stroke-miterlimit: 10.000000;fill: none;"></path>
  <g transform="matrix(5.120010,-0.000000,-0.000000,5.120010,517.427353 1143.842377)" style="fill: rgb(0.000000%,0.000000%,0.000000%);">
    <text font-size="9.962646">5r</text>
  </g>
  <path d="M540.168961 1159.202408l0 0" style="stroke:rgb(0.000000%,0.000000%,0.000000%); stroke-width: 15.360031;stroke-linecap: round;stroke-linejoin: round;stroke-miterlimit: 10.000000;fill: none;"></path>
  <g transform="matrix(5.120010,-0.000000,-0.000000,5.120010,517.427353 1254.019501)" style="fill: rgb(0.000000%,0.000000%,0.000000%);">
    <text font-size="9.962646">6r</text>
  </g>
  <path d="M540.168961 1269.379532l0 0" style="stroke:rgb(0.000000%,0.000000%,0.000000%); stroke-width: 15.360031;stroke-linecap: round;stroke-linejoin: round;stroke-miterlimit: 10.000000;fill: none;"></path>
  <g transform="matrix(5.120010,-0.000000,-0.000000,5.120010,21.691025 1685.554230)" style="fill: rgb(0.000000%,0.000000%,0.000000%);">
    <text font-size="9.962646">7r</text>
  </g>
  <path d="M44.432632 1700.914246l0 0" style="stroke:rgb(0.000000%,0.000000%,0.000000%); stroke-width: 15.360031;stroke-linecap: round;stroke-linejoin: round;stroke-miterlimit: 10.000000;fill: none;"></path>
  <g transform="matrix(5.120010,-0.000000,-0.000000,5.120010,642.398575 712.307602)" style="fill: rgb(0.000000%,0.000000%,0.000000%);">
    <text font-size="9.962646">41r</text>
  </g>
  <path d="M677.892441 727.667633l0 0" style="stroke:rgb(0.000000%,0.000000%,0.000000%); stroke-width: 15.360031;stroke-linecap: round;stroke-linejoin: round;stroke-miterlimit: 10.000000;fill: none;"></path>
  <g transform="matrix(5.120010,-0.000000,-0.000000,5.120010,642.398575 800.451889)" style="fill: rgb(0.000000%,0.000000%,0.000000%);">
    <text font-size="9.962646">42r</text>
  </g>
  <path d="M677.892441 815.811859l0 0" style="stroke:rgb(0.000000%,0.000000%,0.000000%); stroke-width: 15.360031;stroke-linecap: round;stroke-linejoin: round;stroke-miterlimit: 10.000000;fill: none;"></path>
  <path d="M0.000000 94.266464L0.000000 94.986618L0.720154 94.986618L691.133331 94.986618L690.413177 94.986618L690.413177 1873.911133L690.413177 1873.190979L0.000000 1873.190979L0.720154 1873.190979L0.720154 94.266464L0.000000 94.266464L0.000000 94.986618L0.000000 1873.911133L0.720154 1873.911133L691.133331 1873.911133L691.133331 1873.190979L691.133331 94.266464L690.413177 94.266464Z" style="fill: rgb(69.999695%,69.999695%,69.999695%);stroke: none;"></path>
</svg>
