<?xml version="1.0"?>
<!-- Created by MetaPost 2.11 on 2025.09.07:1145 -->
<svg version="1.1" xmlns="http://www.w3.org/2000/svg" xmlns:xlink="http://www.w3.org/1999/xlink" width="592.502884" height="1779.644669" viewBox="0 0 592.502884 1779.644669">
<!-- Original BoundingBox: -0.360077 -344.667786 592.142807 1434.976883 -->
  <path d="M124.347061 137.597198L142.248810 998.825760L464.458191 998.825760L482.359909 137.597198Z" style="fill: rgb(69.999695%,69.999695%,69.999695%);stroke: none;"></path>
  <path d="M491.310730 1235.059204C491.310730 1185.207657,471.504349 1137.403778,436.256638 1102.156067C401.008865 1066.908356,353.205063 1047.101990,303.353455 1047.101990C253.501892 1047.101990,205.698090 1066.908356,170.450317 1102.156067C135.202606 1137.403778,115.396225 1185.207657,115.396225 1235.059204C115.396225 1284.910812,135.202606 1332.714630,170.450317 1367.962341C205.698090 1403.210052,253.501892 1423.016479,303.353455 1423.016479C353.205063 1423.016479,401.008865 1403.210052,436.256638 1367.962341C471.504349 1332.714630,491.310730 1284.910812,491.310730 1235.059204Z" style="fill: rgb(69.999695%,69.999695%,69.999695%);stroke: none;"></path>
  <path d="M0.000000 -0.000000L0.000000 0.720154L0.720154 0.720154L592.502884 0.720154L591.782730 0.720154L591.782730 1779.644669L591.782730 1778.924515L0.000000 1778.924515L0.720154 1778.924515L0.720154 -0.000000L0.000000 -0.000000L0.000000 0.720154L0.000000 1779.644669L0.720154 1779.644669L592.502884 1779.644669L592.502884 1778.924515L592.502884 -0.000000L591.782730 -0.000000Z" style="fill: rgb(69.999695%,69.999695%,69.999695%);stroke: none;"></path>
</svg>
