<?xml version="1.0"?>
<!-- Created by MetaPost 2.11 on 2025.07.28:2346 -->
<svg version="1.1" xmlns="http://www.w3.org/2000/svg" xmlns:xlink="http://www.w3.org/1999/xlink" width="215.592514" height="367.662094" viewBox="0 0 215.592514 367.662094">
<!-- Original BoundingBox: -0.199997 -80.538742 215.392517 287.123352 -->
  <path d="M93.450043 36.065414L96.319229 204.273773L119.273285 204.273773L122.142471 36.065414Z" style="fill: rgb(69.999695%,69.999695%,69.999695%);stroke: none;"></path>
  <path d="M125.729034 269.190567C125.729034 264.434280,123.839325 259.873383,120.476379 256.510437C117.113449 253.147507,112.552536 251.257782,107.796265 251.257782C103.039978 251.257782,98.479065 253.147507,95.116135 256.510437C91.753189 259.873383,89.863480 264.434280,89.863480 269.190567C89.863480 273.946854,91.753189 278.507751,95.116135 281.870697C98.479065 285.233643,103.039978 287.123352,107.796265 287.123352C112.552536 287.123352,117.113449 285.233643,120.476379 281.870697C123.839325 278.507751,125.729034 273.946854,125.729034 269.190567Z" style="fill: rgb(69.999695%,69.999695%,69.999695%);stroke: none;"></path>
  <path d="M0.199997 0.199997L215.392517 0.199997" style="stroke:rgb(0.000000%,0.000000%,0.000000%); stroke-width: 0.399994;stroke-linecap: square;stroke-linejoin: round;stroke-miterlimit: 10.000000;fill: none;"></path>
  <path d="M0.199997 367.462097L215.392517 367.462097" style="stroke:rgb(0.000000%,0.000000%,0.000000%); stroke-width: 0.399994;stroke-linecap: square;stroke-linejoin: round;stroke-miterlimit: 10.000000;fill: none;"></path>
</svg>
