<?xml version="1.0"?>
<!-- Created by MetaPost 2.11 on 2025.09.01:1856 -->
<svg version="1.1" xmlns="http://www.w3.org/2000/svg" xmlns:xlink="http://www.w3.org/1999/xlink" width="119.076706" height="356.505051" viewBox="0 0 119.076706 356.505051">
<!-- Original BoundingBox: -0.360077 -69.221619 118.716629 287.283432 -->
  <path d="M25.157471 27.807495L28.737823 200.053207L93.179703 200.053207L96.760040 27.807495Z" style="fill: rgb(69.999695%,69.999695%,69.999695%);stroke: none;"></path>
  <path d="M98.550201 247.299896C98.550201 237.329590,94.588928 227.768814,87.539383 220.719269C80.489838 213.669724,70.929077 209.708450,60.958755 209.708450C50.988434 209.708450,41.427673 213.669724,34.378128 220.719269C27.328583 227.768814,23.367310 237.329590,23.367310 247.299896C23.367310 257.270218,27.328583 266.830978,34.378128 273.880524C41.427673 280.930069,50.988434 284.891357,60.958755 284.891357C70.929077 284.891357,80.489838 280.930069,87.539383 273.880524C94.588928 266.830978,98.550201 257.270218,98.550201 247.299896Z" style="fill: rgb(69.999695%,69.999695%,69.999695%);stroke: none;"></path>
  <path d="M0.000000 -0.000000L0.000000 0.720154L0.720154 0.720154L119.076706 0.720154L118.356552 0.720154L118.356552 356.505051L118.356552 355.784897L0.000000 355.784897L0.720154 355.784897L0.720154 -0.000000L0.000000 -0.000000L0.000000 0.720154L0.000000 356.505051L0.720154 356.505051L119.076706 356.505051L119.076706 355.784897L119.076706 -0.000000L118.356552 -0.000000Z" style="fill: rgb(69.999695%,69.999695%,69.999695%);stroke: none;"></path>
</svg>
