<?xml version="1.0"?>
<!-- Created by MetaPost 2.11 on 2025.09.07:1145 -->
<svg version="1.1" xmlns="http://www.w3.org/2000/svg" xmlns:xlink="http://www.w3.org/1999/xlink" width="1085.655121" height="1844.041672" viewBox="0 0 1085.655121 1844.041672">
<!-- Original BoundingBox: -0.360077 -344.667786 1085.295044 1499.373886 -->
  <path d="M517.126312 486.432922L594.569489 248.092300L261.879547 83.526779L151.246063 424.014832Z" style="fill: rgb(69.999695%,69.999695%,69.999695%);stroke: none;"></path>
  <path d="M657.221420 440.914261L454.474319 293.611023L195.156921 559.168777L484.796799 769.602905Z" style="fill: rgb(69.999695%,69.999695%,69.999695%);stroke: none;"></path>
  <path d="M657.221420 293.611023L454.474319 440.914261L626.899002 769.602905L916.538879 559.168777Z" style="fill: rgb(69.999695%,69.999695%,69.999695%);stroke: none;"></path>
  <path d="M517.126312 248.092361L594.569489 486.432983L960.449738 424.014832L849.816254 83.526779Z" style="fill: rgb(69.999695%,69.999695%,69.999695%);stroke: none;"></path>
  <path d="M430.543961 367.262665L681.151901 367.262665L734.854324 -0.000000L376.841476 -0.000000Z" style="fill: rgb(69.999695%,69.999695%,69.999695%);stroke: none;"></path>
  <path d="M0.000000 64.397003L0.000000 65.117157L0.720154 65.117157L1085.655121 65.117157L1084.934967 65.117157L1084.934967 1844.041672L1084.934967 1843.321518L0.000000 1843.321518L0.720154 1843.321518L0.720154 64.397003L0.000000 64.397003L0.000000 65.117157L0.000000 1844.041672L0.720154 1844.041672L1085.655121 1844.041672L1085.655121 1843.321518L1085.655121 64.397003L1084.934967 64.397003Z" style="fill: rgb(69.999695%,69.999695%,69.999695%);stroke: none;"></path>
</svg>
