<?xml version="1.0"?>
<!-- Created by MetaPost 2.11 on 2025.09.01:1856 -->
<svg version="1.1" xmlns="http://www.w3.org/2000/svg" xmlns:xlink="http://www.w3.org/1999/xlink" width="217.707153" height="369.096390" viewBox="0 0 217.707153 369.096390">
<!-- Original BoundingBox: -0.360077 -69.221619 217.347076 299.874771 -->
  <path d="M103.713318 97.286575L119.201965 49.618454L52.663971 16.705353L30.537277 84.802963Z" style="fill: rgb(69.999695%,69.999695%,69.999695%);stroke: none;"></path>
  <path d="M131.732346 88.182846L91.182922 58.722198L39.319443 111.833755L97.247421 153.920578Z" style="fill: rgb(69.999695%,69.999695%,69.999695%);stroke: none;"></path>
  <path d="M131.732346 58.722198L91.182922 88.182846L125.667862 153.920578L183.595840 111.833755Z" style="fill: rgb(69.999695%,69.999695%,69.999695%);stroke: none;"></path>
  <path d="M103.713318 49.618469L119.201965 97.286591L192.378006 84.802963L170.251312 16.705353Z" style="fill: rgb(69.999695%,69.999695%,69.999695%);stroke: none;"></path>
  <path d="M86.396851 73.452530L136.518448 73.452530L147.258926 -0.000000L75.656357 -0.000000Z" style="fill: rgb(69.999695%,69.999695%,69.999695%);stroke: none;"></path>
  <path d="M0.000000 12.591339L0.000000 13.311493L0.720154 13.311493L217.707153 13.311493L216.987000 13.311493L216.987000 369.096390L216.987000 368.376236L0.000000 368.376236L0.720154 368.376236L0.720154 12.591339L0.000000 12.591339L0.000000 13.311493L0.000000 369.096390L0.720154 369.096390L217.707153 369.096390L217.707153 368.376236L217.707153 12.591339L216.987000 12.591339Z" style="fill: rgb(69.999695%,69.999695%,69.999695%);stroke: none;"></path>
</svg>
