<?xml version="1.0"?>
<!-- Created by MetaPost 2.11 on 2025.09.01:1856 -->
<svg version="1.1" xmlns="http://www.w3.org/2000/svg" xmlns:xlink="http://www.w3.org/1999/xlink" width="237.433243" height="356.505051" viewBox="0 0 237.433243 356.505051">
<!-- Original BoundingBox: -0.360077 -69.221619 237.073166 287.283432 -->
  <path d="M30.659409 211.440491L212.455429 211.440491L212.455429 152.678253L30.659409 152.678253Z" style="fill: rgb(69.999695%,69.999695%,69.999695%);stroke: none;"></path>
  <path d="M85.756149 272.957382L85.756149 91.161377L157.358704 91.161377L157.358704 272.957382Z" style="fill: rgb(69.999695%,69.999695%,69.999695%);stroke: none;"></path>
  <g transform="matrix(1.024002,-0.000000,-0.000000,1.024002,26.692047 208.368500)" style="fill: rgb(0.000000%,0.000000%,0.000000%);">
    <text font-size="9.962646">1l</text>
  </g>
  <path d="M30.659409 211.440491l0 0" style="stroke:rgb(0.000000%,0.000000%,0.000000%); stroke-width: 3.072006;stroke-linecap: round;stroke-linejoin: round;stroke-miterlimit: 10.000000;fill: none;"></path>
  <g transform="matrix(1.024002,-0.000000,-0.000000,1.024002,208.488037 208.368500)" style="fill: rgb(0.000000%,0.000000%,0.000000%);">
    <text font-size="9.962646">2l</text>
  </g>
  <path d="M212.455429 211.440491l0 0" style="stroke:rgb(0.000000%,0.000000%,0.000000%); stroke-width: 3.072006;stroke-linecap: round;stroke-linejoin: round;stroke-miterlimit: 10.000000;fill: none;"></path>
  <g transform="matrix(1.024002,-0.000000,-0.000000,1.024002,81.788757 269.885376)" style="fill: rgb(0.000000%,0.000000%,0.000000%);">
    <text font-size="9.962646">3l</text>
  </g>
  <path d="M85.756149 272.957382l0 0" style="stroke:rgb(0.000000%,0.000000%,0.000000%); stroke-width: 3.072006;stroke-linecap: round;stroke-linejoin: round;stroke-miterlimit: 10.000000;fill: none;"></path>
  <g transform="matrix(1.024002,-0.000000,-0.000000,1.024002,81.788757 88.089371)" style="fill: rgb(0.000000%,0.000000%,0.000000%);">
    <text font-size="9.962646">4l</text>
  </g>
  <path d="M85.756149 91.161377l0 0" style="stroke:rgb(0.000000%,0.000000%,0.000000%); stroke-width: 3.072006;stroke-linecap: round;stroke-linejoin: round;stroke-miterlimit: 10.000000;fill: none;"></path>
  <g transform="matrix(1.024002,-0.000000,-0.000000,1.024002,28.108948 178.987381)" style="fill: rgb(0.000000%,0.000000%,0.000000%);">
    <text font-size="9.962646">1</text>
  </g>
  <path d="M30.659409 182.059372l0 0" style="stroke:rgb(0.000000%,0.000000%,0.000000%); stroke-width: 3.072006;stroke-linecap: round;stroke-linejoin: round;stroke-miterlimit: 10.000000;fill: none;"></path>
  <g transform="matrix(1.024002,-0.000000,-0.000000,1.024002,209.904953 178.987381)" style="fill: rgb(0.000000%,0.000000%,0.000000%);">
    <text font-size="9.962646">2</text>
  </g>
  <path d="M212.455429 182.059372l0 0" style="stroke:rgb(0.000000%,0.000000%,0.000000%); stroke-width: 3.072006;stroke-linecap: round;stroke-linejoin: round;stroke-miterlimit: 10.000000;fill: none;"></path>
  <g transform="matrix(1.024002,-0.000000,-0.000000,1.024002,119.006973 269.885376)" style="fill: rgb(0.000000%,0.000000%,0.000000%);">
    <text font-size="9.962646">3</text>
  </g>
  <path d="M121.557434 272.957382l0 0" style="stroke:rgb(0.000000%,0.000000%,0.000000%); stroke-width: 3.072006;stroke-linecap: round;stroke-linejoin: round;stroke-miterlimit: 10.000000;fill: none;"></path>
  <g transform="matrix(1.024002,-0.000000,-0.000000,1.024002,119.006973 88.089371)" style="fill: rgb(0.000000%,0.000000%,0.000000%);">
    <text font-size="9.962646">4</text>
  </g>
  <path d="M121.557434 91.161377l0 0" style="stroke:rgb(0.000000%,0.000000%,0.000000%); stroke-width: 3.072006;stroke-linecap: round;stroke-linejoin: round;stroke-miterlimit: 10.000000;fill: none;"></path>
  <g transform="matrix(1.024002,-0.000000,-0.000000,1.024002,26.111099 149.606247)" style="fill: rgb(0.000000%,0.000000%,0.000000%);">
    <text font-size="9.962646">1r</text>
  </g>
  <path d="M30.659409 152.678253l0 0" style="stroke:rgb(0.000000%,0.000000%,0.000000%); stroke-width: 3.072006;stroke-linecap: round;stroke-linejoin: round;stroke-miterlimit: 10.000000;fill: none;"></path>
  <g transform="matrix(1.024002,-0.000000,-0.000000,1.024002,207.907104 149.606247)" style="fill: rgb(0.000000%,0.000000%,0.000000%);">
    <text font-size="9.962646">2r</text>
  </g>
  <path d="M212.455429 152.678253l0 0" style="stroke:rgb(0.000000%,0.000000%,0.000000%); stroke-width: 3.072006;stroke-linecap: round;stroke-linejoin: round;stroke-miterlimit: 10.000000;fill: none;"></path>
  <g transform="matrix(1.024002,-0.000000,-0.000000,1.024002,152.810379 269.885376)" style="fill: rgb(0.000000%,0.000000%,0.000000%);">
    <text font-size="9.962646">3r</text>
  </g>
  <path d="M157.358704 272.957382l0 0" style="stroke:rgb(0.000000%,0.000000%,0.000000%); stroke-width: 3.072006;stroke-linecap: round;stroke-linejoin: round;stroke-miterlimit: 10.000000;fill: none;"></path>
  <g transform="matrix(1.024002,-0.000000,-0.000000,1.024002,152.810379 88.089371)" style="fill: rgb(0.000000%,0.000000%,0.000000%);">
    <text font-size="9.962646">4r</text>
  </g>
  <path d="M157.358704 91.161377l0 0" style="stroke:rgb(0.000000%,0.000000%,0.000000%); stroke-width: 3.072006;stroke-linecap: round;stroke-linejoin: round;stroke-miterlimit: 10.000000;fill: none;"></path>
  <path d="M0.000000 -0.000000L0.000000 0.720154L0.720154 0.720154L237.433243 0.720154L236.713089 0.720154L236.713089 356.505051L236.713089 355.784897L0.000000 355.784897L0.720154 355.784897L0.720154 -0.000000L0.000000 -0.000000L0.000000 0.720154L0.000000 356.505051L0.720154 356.505051L237.433243 356.505051L237.433243 355.784897L237.433243 -0.000000L236.713089 -0.000000Z" style="fill: rgb(69.999695%,69.999695%,69.999695%);stroke: none;"></path>
</svg>
