<?xml version="1.0"?>
<!-- Created by MetaPost 2.11 on 2025.09.01:1856 -->
<svg version="1.1" xmlns="http://www.w3.org/2000/svg" xmlns:xlink="http://www.w3.org/1999/xlink" width="99.350616" height="356.505051" viewBox="0 0 99.350616 356.505051">
<!-- Original BoundingBox: -0.360077 -69.221619 98.990540 287.283432 -->
  <path d="M88.450424 250.238068C88.450424 240.267746,84.489136 230.706985,77.439606 223.657440C70.390060 216.607895,60.829285 212.646622,50.858978 212.646622C40.888657 212.646622,31.327881 216.607895,24.278351 223.657440C17.228806 230.706985,13.267517 240.267746,13.267517 250.238068C13.267517 260.208374,17.228806 269.769150,24.278351 276.818695C31.327881 283.868240,40.888657 287.829514,50.858978 287.829514C60.829285 287.829514,70.390060 283.868240,77.439606 276.818695C84.489136 269.769150,88.450424 260.208374,88.450424 250.238068Z" style="fill: rgb(69.999695%,69.999695%,69.999695%);stroke: none;"></path>
  <path d="M0.000000 -0.000000L0.000000 0.720154L0.720154 0.720154L99.350616 0.720154L98.630463 0.720154L98.630463 356.505051L98.630463 355.784897L0.000000 355.784897L0.720154 355.784897L0.720154 -0.000000L0.000000 -0.000000L0.000000 0.720154L0.000000 356.505051L0.720154 356.505051L99.350616 356.505051L99.350616 355.784897L99.350616 -0.000000L98.630463 -0.000000Z" style="fill: rgb(69.999695%,69.999695%,69.999695%);stroke: none;"></path>
</svg>
