<?xml version="1.0"?>
<!-- Created by MetaPost 2.11 on 2025.09.07:1145 -->
<svg version="1.1" xmlns="http://www.w3.org/2000/svg" xmlns:xlink="http://www.w3.org/1999/xlink" width="493.872437" height="1779.644669" viewBox="0 0 493.872437 1779.644669">
<!-- Original BoundingBox: -0.360077 -344.667786 493.512360 1434.976883 -->
  <path d="M440.811829 1249.750076C440.811829 1199.898468,421.005402 1152.094650,385.757690 1116.846939C350.509979 1081.599167,302.706116 1061.792801,252.854553 1061.792801C203.003006 1061.792801,155.199127 1081.599167,119.951416 1116.846939C84.703705 1152.094650,64.897278 1199.898468,64.897278 1249.750076C64.897278 1299.601624,84.703705 1347.405441,119.951416 1382.653214C155.199127 1417.900925,203.003006 1437.707291,252.854553 1437.707291C302.706116 1437.707291,350.509979 1417.900925,385.757690 1382.653214C421.005402 1347.405441,440.811829 1299.601624,440.811829 1249.750076Z" style="fill: rgb(69.999695%,69.999695%,69.999695%);stroke: none;"></path>
  <path d="M0.000000 -0.000000L0.000000 0.720154L0.720154 0.720154L493.872437 0.720154L493.152283 0.720154L493.152283 1779.644669L493.152283 1778.924515L0.000000 1778.924515L0.720154 1778.924515L0.720154 -0.000000L0.000000 -0.000000L0.000000 0.720154L0.000000 1779.644669L0.720154 1779.644669L493.872437 1779.644669L493.872437 1778.924515L493.872437 -0.000000L493.152283 -0.000000Z" style="fill: rgb(69.999695%,69.999695%,69.999695%);stroke: none;"></path>
</svg>
