<?xml version="1.0"?>
<!-- Created by MetaPost 2.11 on 2025.09.07:1145 -->
<svg version="1.1" xmlns="http://www.w3.org/2000/svg" xmlns:xlink="http://www.w3.org/1999/xlink" width="1085.655121" height="1779.644669" viewBox="0 0 1085.655121 1779.644669">
<!-- Original BoundingBox: -0.360077 -344.667786 1085.295044 1434.976883 -->
  <path d="M555.847931 122.906387C903.589935 122.906387,1067.263168 403.268097,1067.263168 780.306839C1067.263168 1157.345596,903.589935 1437.707291,555.847931 1437.707291C208.105865 1437.707291,44.432632 1157.345596,44.432632 780.306839C44.432632 403.268097,208.105865 122.906387,555.847931 122.906387L555.847931 211.050613C364.673279 211.050613,366.641953 564.253387,366.641953 780.306839C366.641953 996.360291,364.673218 1349.563065,555.847931 1349.563065C747.022583 1349.563065,745.053848 996.360291,745.053848 780.306839C745.053848 564.253387,747.022522 211.050613,555.847931 211.050613L555.847931 122.906387Z" style="fill: rgb(69.999695%,69.999695%,69.999695%);stroke: none;"></path>
  <g transform="matrix(5.120010,-0.000000,-0.000000,5.120010,543.095566 107.546371)" style="fill: rgb(0.000000%,0.000000%,0.000000%);">
    <text font-size="9.962646">1</text>
  </g>
  <path d="M555.847931 122.906387l0 0" style="stroke:rgb(0.000000%,0.000000%,0.000000%); stroke-width: 15.360031;stroke-linecap: round;stroke-linejoin: round;stroke-miterlimit: 10.000000;fill: none;"></path>
  <g transform="matrix(5.120010,-0.000000,-0.000000,5.120010,1054.510880 764.946823)" style="fill: rgb(0.000000%,0.000000%,0.000000%);">
    <text font-size="9.962646">2</text>
  </g>
  <path d="M1067.263168 780.306839l0 0" style="stroke:rgb(0.000000%,0.000000%,0.000000%); stroke-width: 15.360031;stroke-linecap: round;stroke-linejoin: round;stroke-miterlimit: 10.000000;fill: none;"></path>
  <g transform="matrix(5.120010,-0.000000,-0.000000,5.120010,543.095566 1422.347321)" style="fill: rgb(0.000000%,0.000000%,0.000000%);">
    <text font-size="9.962646">3</text>
  </g>
  <path d="M555.847931 1437.707291l0 0" style="stroke:rgb(0.000000%,0.000000%,0.000000%); stroke-width: 15.360031;stroke-linecap: round;stroke-linejoin: round;stroke-miterlimit: 10.000000;fill: none;"></path>
  <g transform="matrix(5.120010,-0.000000,-0.000000,5.120010,31.680328 764.946823)" style="fill: rgb(0.000000%,0.000000%,0.000000%);">
    <text font-size="9.962646">4</text>
  </g>
  <path d="M44.432632 780.306839l0 0" style="stroke:rgb(0.000000%,0.000000%,0.000000%); stroke-width: 15.360031;stroke-linecap: round;stroke-linejoin: round;stroke-miterlimit: 10.000000;fill: none;"></path>
  <path d="M0.000000 -0.000000L0.000000 0.720154L0.720154 0.720154L1085.655121 0.720154L1084.934967 0.720154L1084.934967 1779.644669L1084.934967 1778.924515L0.000000 1778.924515L0.720154 1778.924515L0.720154 -0.000000L0.000000 -0.000000L0.000000 0.720154L0.000000 1779.644669L0.720154 1779.644669L1085.655121 1779.644669L1085.655121 1778.924515L1085.655121 -0.000000L1084.934967 -0.000000Z" style="fill: rgb(69.999695%,69.999695%,69.999695%);stroke: none;"></path>
</svg>
