<?xml version="1.0"?>
<!-- Created by MetaPost 2.11 on 2025.09.01:1856 -->
<svg version="1.1" xmlns="http://www.w3.org/2000/svg" xmlns:xlink="http://www.w3.org/1999/xlink" width="109.213928" height="356.505051" viewBox="0 0 109.213928 356.505051">
<!-- Original BoundingBox: -0.360077 -69.221619 108.853851 287.283432 -->
  <path d="M93.500458 250.238068C93.500458 240.267746,89.539169 230.706985,82.489639 223.657440C75.440094 216.607895,65.879318 212.646622,55.909012 212.646622C45.938690 212.646622,36.377914 216.607895,29.328384 223.657440C22.278839 230.706985,18.317551 240.267746,18.317551 250.238068C18.317551 260.208374,22.278839 269.769150,29.328384 276.818695C36.377914 283.868240,45.938690 287.829514,55.909012 287.829514C65.879318 287.829514,75.440094 283.868240,82.489639 276.818695C89.539169 269.769150,93.500458 260.208374,93.500458 250.238068Z" style="fill: rgb(69.999695%,69.999695%,69.999695%);stroke: none;"></path>
  <path d="M93.500458 128.568176C93.500458 118.597855,89.539169 109.037094,82.489639 101.987549C75.440094 94.938004,65.879318 90.976715,55.909012 90.976715C45.938690 90.976715,36.377914 94.938004,29.328384 101.987549C22.278839 109.037094,18.317551 118.597855,18.317551 128.568176C18.317551 138.538483,22.278839 148.099258,29.328384 155.148804C36.377914 162.198349,45.938690 166.159622,55.909012 166.159622C65.879318 166.159622,75.440094 162.198349,82.489639 155.148804C89.539169 148.099258,93.500458 138.538483,93.500458 128.568176Z" style="fill: rgb(69.999695%,69.999695%,69.999695%);stroke: none;"></path>
  <path d="M0.000000 -0.000000L0.000000 0.720154L0.720154 0.720154L109.213928 0.720154L108.493774 0.720154L108.493774 356.505051L108.493774 355.784897L0.000000 355.784897L0.720154 355.784897L0.720154 -0.000000L0.000000 -0.000000L0.000000 0.720154L0.000000 356.505051L0.720154 356.505051L109.213928 356.505051L109.213928 355.784897L109.213928 -0.000000L108.493774 -0.000000Z" style="fill: rgb(69.999695%,69.999695%,69.999695%);stroke: none;"></path>
</svg>
