<?xml version="1.0"?>
<!-- Created by MetaPost 2.11 on 2025.07.28:2346 -->
<svg version="1.1" xmlns="http://www.w3.org/2000/svg" xmlns:xlink="http://www.w3.org/1999/xlink" width="215.592514" height="367.662094" viewBox="0 0 215.592514 367.662094">
<!-- Original BoundingBox: -0.199997 -80.538742 215.392517 287.123352 -->
  <path d="M125.729034 272.059860C125.729034 267.303589,123.839325 262.742676,120.476379 259.379745C117.113449 256.016800,112.552536 254.127090,107.796265 254.127090C103.039978 254.127090,98.479065 256.016800,95.116135 259.379745C91.753189 262.742676,89.863480 267.303589,89.863480 272.059860C89.863480 276.816147,91.753189 281.377060,95.116135 284.739990C98.479065 288.102936,103.039978 289.992645,107.796265 289.992645C112.552536 289.992645,117.113449 288.102936,120.476379 284.739990C123.839325 281.377060,125.729034 276.816147,125.729034 272.059860Z" style="fill: rgb(69.999695%,69.999695%,69.999695%);stroke: none;"></path>
  <path d="M125.729034 115.686752C125.729034 110.930481,123.839325 106.369568,120.476379 103.006622C117.113449 99.643692,112.552536 97.753983,107.796265 97.753983C103.039978 97.753983,98.479065 99.643692,95.116135 103.006622C91.753189 106.369568,89.863480 110.930481,89.863480 115.686752C89.863480 120.443039,91.753189 125.003952,95.116135 128.366882C98.479065 131.729828,103.039978 133.619537,107.796265 133.619537C112.552536 133.619537,117.113449 131.729828,120.476379 128.366882C123.839325 125.003952,125.729034 120.443039,125.729034 115.686752Z" style="fill: rgb(69.999695%,69.999695%,69.999695%);stroke: none;"></path>
  <path d="M0.199997 0.199997L215.392517 0.199997" style="stroke:rgb(0.000000%,0.000000%,0.000000%); stroke-width: 0.399994;stroke-linecap: square;stroke-linejoin: round;stroke-miterlimit: 10.000000;fill: none;"></path>
  <path d="M0.199997 367.462097L215.392517 367.462097" style="stroke:rgb(0.000000%,0.000000%,0.000000%); stroke-width: 0.399994;stroke-linecap: square;stroke-linejoin: round;stroke-miterlimit: 10.000000;fill: none;"></path>
</svg>
