<?xml version="1.0"?>
<!-- Created by MetaPost 2.11 on 2025.09.07:1145 -->
<svg version="1.1" xmlns="http://www.w3.org/2000/svg" xmlns:xlink="http://www.w3.org/1999/xlink" width="543.189011" height="1779.644669" viewBox="0 0 543.189011 1779.644669">
<!-- Original BoundingBox: -0.360077 -344.667786 542.828934 1434.976883 -->
  <path d="M466.061996 1249.750076C466.061996 1199.898468,446.255569 1152.094650,411.007858 1116.846939C375.760132 1081.599167,327.956268 1061.792801,278.104721 1061.792801C228.253159 1061.792801,180.449295 1081.599167,145.201584 1116.846939C109.953873 1152.094650,90.147446 1199.898468,90.147446 1249.750076C90.147446 1299.601624,109.953873 1347.405441,145.201584 1382.653214C180.449295 1417.900925,228.253159 1437.707291,278.104721 1437.707291C327.956268 1437.707291,375.760132 1417.900925,411.007858 1382.653214C446.255569 1347.405441,466.061996 1299.601624,466.061996 1249.750076Z" style="fill: rgb(69.999695%,69.999695%,69.999695%);stroke: none;"></path>
  <path d="M466.061996 641.400589C466.061996 591.548981,446.255569 543.745178,411.007858 508.497452C375.760132 473.249741,327.956268 453.443314,278.104721 453.443314C228.253159 453.443314,180.449295 473.249741,145.201584 508.497452C109.953873 543.745178,90.147446 591.548981,90.147446 641.400589C90.147446 691.252151,109.953873 739.056015,145.201584 774.303726C180.449295 809.551437,228.253159 829.357819,278.104721 829.357819C327.956268 829.357819,375.760132 809.551437,411.007858 774.303726C446.255569 739.056015,466.061996 691.252151,466.061996 641.400589Z" style="fill: rgb(69.999695%,69.999695%,69.999695%);stroke: none;"></path>
  <path d="M0.000000 -0.000000L0.000000 0.720154L0.720154 0.720154L543.189011 0.720154L542.468857 0.720154L542.468857 1779.644669L542.468857 1778.924515L0.000000 1778.924515L0.720154 1778.924515L0.720154 -0.000000L0.000000 -0.000000L0.000000 0.720154L0.000000 1779.644669L0.720154 1779.644669L543.189011 1779.644669L543.189011 1778.924515L543.189011 -0.000000L542.468857 -0.000000Z" style="fill: rgb(69.999695%,69.999695%,69.999695%);stroke: none;"></path>
</svg>
