<?xml version="1.0"?>
<!-- Created by MetaPost 2.11 on 2025.07.28:2346 -->
<svg version="1.1" xmlns="http://www.w3.org/2000/svg" xmlns:xlink="http://www.w3.org/1999/xlink" width="215.592514" height="367.662094" viewBox="0 0 215.592514 367.662094">
<!-- Original BoundingBox: -0.199997 -80.538742 215.392517 287.123352 -->
  <path d="M14.343277 73.718765C38.548386 47.866562,72.381226 33.196121,107.796265 33.196121C154.939163 33.196121,189.091248 55.479233,189.091248 99.584564C189.091248 135.650909,162.311920 150.632217,134.695328 174.148041C120.233475 186.462463,107.077423 201.727036,107.077423 220.593155L78.384979 220.593155C78.384979 192.497940,104.016113 171.380539,126.844528 152.578384C143.925079 138.510330,160.398804 121.530319,160.398804 99.584564C160.398804 70.873871,138.380798 56.149963,107.796265 56.149963C77.759705 56.149963,49.142441 68.932465,29.097824 91.302261Z" style="fill: rgb(69.999695%,69.999695%,69.999695%);stroke: none;"></path>
  <path d="M110.663986 272.059860C110.663986 267.303589,108.774277 262.742676,105.411331 259.379745C102.048386 256.016800,97.487488 254.127090,92.731201 254.127090C87.974915 254.127090,83.414017 256.016800,80.051071 259.379745C76.688126 262.742676,74.798416 267.303589,74.798416 272.059860C74.798416 276.816147,76.688126 281.377060,80.051071 284.739990C83.414017 288.102936,87.974915 289.992645,92.731201 289.992645C97.487488 289.992645,102.048386 288.102936,105.411331 284.739990C108.774277 281.377060,110.663986 276.816147,110.663986 272.059860Z" style="fill: rgb(69.999695%,69.999695%,69.999695%);stroke: none;"></path>
  <g transform="translate(25.223434 88.302261)" style="fill: rgb(0.000000%,0.000000%,0.000000%);">
    <text font-size="9.962646">1l</text>
  </g>
  <path d="M29.097824 91.302261l0 0" style="stroke:rgb(0.000000%,0.000000%,0.000000%); stroke-width: 3.000000;stroke-linecap: round;stroke-linejoin: round;stroke-miterlimit: 10.000000;fill: none;"></path>
  <g transform="translate(103.921875 53.149963)" style="fill: rgb(0.000000%,0.000000%,0.000000%);">
    <text font-size="9.962646">2l</text>
  </g>
  <path d="M107.796265 56.149963l0 0" style="stroke:rgb(0.000000%,0.000000%,0.000000%); stroke-width: 3.000000;stroke-linecap: round;stroke-linejoin: round;stroke-miterlimit: 10.000000;fill: none;"></path>
  <g transform="translate(156.524414 96.584579)" style="fill: rgb(0.000000%,0.000000%,0.000000%);">
    <text font-size="9.962646">3l</text>
  </g>
  <path d="M160.398804 99.584564l0 0" style="stroke:rgb(0.000000%,0.000000%,0.000000%); stroke-width: 3.000000;stroke-linecap: round;stroke-linejoin: round;stroke-miterlimit: 10.000000;fill: none;"></path>
  <g transform="translate(122.970139 149.578384)" style="fill: rgb(0.000000%,0.000000%,0.000000%);">
    <text font-size="9.962646">4l</text>
  </g>
  <path d="M126.844528 152.578384l0 0" style="stroke:rgb(0.000000%,0.000000%,0.000000%); stroke-width: 3.000000;stroke-linecap: round;stroke-linejoin: round;stroke-miterlimit: 10.000000;fill: none;"></path>
  <g transform="translate(19.229874 79.510529)" style="fill: rgb(0.000000%,0.000000%,0.000000%);">
    <text font-size="9.962646">1</text>
  </g>
  <path d="M21.720566 82.510513l0 0" style="stroke:rgb(0.000000%,0.000000%,0.000000%); stroke-width: 3.000000;stroke-linecap: round;stroke-linejoin: round;stroke-miterlimit: 10.000000;fill: none;"></path>
  <g transform="translate(105.305573 41.673050)" style="fill: rgb(0.000000%,0.000000%,0.000000%);">
    <text font-size="9.962646">2</text>
  </g>
  <path d="M107.796265 44.673035l0 0" style="stroke:rgb(0.000000%,0.000000%,0.000000%); stroke-width: 3.000000;stroke-linecap: round;stroke-linejoin: round;stroke-miterlimit: 10.000000;fill: none;"></path>
  <g transform="translate(172.254349 96.584579)" style="fill: rgb(0.000000%,0.000000%,0.000000%);">
    <text font-size="9.962646">3</text>
  </g>
  <path d="M174.745026 99.584564l0 0" style="stroke:rgb(0.000000%,0.000000%,0.000000%); stroke-width: 3.000000;stroke-linecap: round;stroke-linejoin: round;stroke-miterlimit: 10.000000;fill: none;"></path>
  <g transform="translate(128.279251 160.363220)" style="fill: rgb(0.000000%,0.000000%,0.000000%);">
    <text font-size="9.962646">4</text>
  </g>
  <path d="M130.769928 163.363205l0 0" style="stroke:rgb(0.000000%,0.000000%,0.000000%); stroke-width: 3.000000;stroke-linecap: round;stroke-linejoin: round;stroke-miterlimit: 10.000000;fill: none;"></path>
  <g transform="translate(9.901566 70.718765)" style="fill: rgb(0.000000%,0.000000%,0.000000%);">
    <text font-size="9.962646">1r</text>
  </g>
  <path d="M14.343277 73.718765l0 0" style="stroke:rgb(0.000000%,0.000000%,0.000000%); stroke-width: 3.000000;stroke-linecap: round;stroke-linejoin: round;stroke-miterlimit: 10.000000;fill: none;"></path>
  <g transform="translate(103.354553 30.196121)" style="fill: rgb(0.000000%,0.000000%,0.000000%);">
    <text font-size="9.962646">2r</text>
  </g>
  <path d="M107.796265 33.196121l0 0" style="stroke:rgb(0.000000%,0.000000%,0.000000%); stroke-width: 3.000000;stroke-linecap: round;stroke-linejoin: round;stroke-miterlimit: 10.000000;fill: none;"></path>
  <g transform="translate(184.649536 96.584579)" style="fill: rgb(0.000000%,0.000000%,0.000000%);">
    <text font-size="9.962646">3r</text>
  </g>
  <path d="M189.091248 99.584564l0 0" style="stroke:rgb(0.000000%,0.000000%,0.000000%); stroke-width: 3.000000;stroke-linecap: round;stroke-linejoin: round;stroke-miterlimit: 10.000000;fill: none;"></path>
  <g transform="translate(130.253616 171.148056)" style="fill: rgb(0.000000%,0.000000%,0.000000%);">
    <text font-size="9.962646">4r</text>
  </g>
  <path d="M134.695328 174.148041l0 0" style="stroke:rgb(0.000000%,0.000000%,0.000000%); stroke-width: 3.000000;stroke-linecap: round;stroke-linejoin: round;stroke-miterlimit: 10.000000;fill: none;"></path>
  <path d="M0.199997 0.199997L215.392517 0.199997" style="stroke:rgb(0.000000%,0.000000%,0.000000%); stroke-width: 0.399994;stroke-linecap: square;stroke-linejoin: round;stroke-miterlimit: 10.000000;fill: none;"></path>
  <path d="M0.199997 367.462097L215.392517 367.462097" style="stroke:rgb(0.000000%,0.000000%,0.000000%); stroke-width: 0.399994;stroke-linecap: square;stroke-linejoin: round;stroke-miterlimit: 10.000000;fill: none;"></path>
</svg>
