<?xml version="1.0"?>
<!-- Created by MetaPost 2.11 on 2025.09.07:1145 -->
<svg version="1.1" xmlns="http://www.w3.org/2000/svg" xmlns:xlink="http://www.w3.org/1999/xlink" width="1910.739212" height="1930.275482" viewBox="0 0 1910.739212 1930.275482">
<!-- Original BoundingBox: -0.360077 -401.032135 1910.379135 1529.243347 -->
  <path d="M1631.486038 1333.651642L1631.486038 1627.462875C1410.938705 1676.284897,1185.725601 1700.914246,959.839096 1700.914246C415.213379 1700.914246,44.432632 1400.660355,44.432632 874.573303C44.432632 348.486252,415.213379 48.232361,959.839096 48.232361C1488.741989 48.232361,1875.245514 291.643814,1875.245514 784.136078C1875.245514 977.056381,1760.584290 1151.521545,1583.494537 1228.055740L1377.060898 1261.325607L1043.973831 1130.612244L1238.535904 910.451004L1436.588913 973.607040C1488.114868 924.042786,1517.232666 855.631195,1517.232666 784.136078C1517.232666 486.363861,1280.900925 342.043594,959.839096 342.043594C622.701218 342.043594,402.445419 542.640976,402.445419 874.573303C402.445419 1206.505569,622.701157 1407.103012,959.839096 1407.103012C1185.725601 1407.103012,1410.938705 1382.473663,1631.486038 1333.651642Z" style="fill: rgb(69.999695%,69.999695%,69.999695%);stroke: none;"></path>
  <path d="M1238.535904 496.778641L1043.973831 1130.612244L1337.785065 1130.612244L1532.347137 496.778641Z" style="fill: rgb(69.999695%,69.999695%,69.999695%);stroke: none;"></path>
  <path d="M1141.254868 813.695435C1082.896317 793.535843,1021.585785 783.244507,959.843384 783.244507C411.541183 783.244507,0.360077 1013.952072,0.360077 1517.282944C0.360138 2699.600922,642.396713 967.514313,959.843384 967.514313C1114.813202 967.514313,1249.435516 860.936035,1284.991074 710.100143L1238.535904 910.451004C1280.220627 1089.847107,1144.018738 1261.325607,959.843384 1261.325607C601.778992 1261.325607,0.360138 2289.787399,0.360077 1517.282944C0.360077 899.885941,356.733475 489.433212,959.843384 489.433212C1079.070511 489.433212,1190.805984 547.577911,1259.220932 645.222733Z" style="fill: rgb(69.999695%,69.999695%,69.999695%);stroke: none;"></path>
  <g transform="matrix(5.120010,-0.000000,-0.000000,5.120010,1611.649170 1318.291611)" style="fill: rgb(0.000000%,0.000000%,0.000000%);">
    <text font-size="9.962646">1l</text>
  </g>
  <path d="M1631.486038 1333.651642l0 0" style="stroke:rgb(0.000000%,0.000000%,0.000000%); stroke-width: 15.360031;stroke-linecap: round;stroke-linejoin: round;stroke-miterlimit: 10.000000;fill: none;"></path>
  <g transform="matrix(5.120010,-0.000000,-0.000000,5.120010,940.002182 1391.742996)" style="fill: rgb(0.000000%,0.000000%,0.000000%);">
    <text font-size="9.962646">2l</text>
  </g>
  <path d="M959.839096 1407.103012l0 0" style="stroke:rgb(0.000000%,0.000000%,0.000000%); stroke-width: 15.360031;stroke-linecap: round;stroke-linejoin: round;stroke-miterlimit: 10.000000;fill: none;"></path>
  <g transform="matrix(5.120010,-0.000000,-0.000000,5.120010,382.608551 859.213287)" style="fill: rgb(0.000000%,0.000000%,0.000000%);">
    <text font-size="9.962646">3l</text>
  </g>
  <path d="M402.445419 874.573303l0 0" style="stroke:rgb(0.000000%,0.000000%,0.000000%); stroke-width: 15.360031;stroke-linecap: round;stroke-linejoin: round;stroke-miterlimit: 10.000000;fill: none;"></path>
  <g transform="matrix(5.120010,-0.000000,-0.000000,5.120010,940.002182 326.683624)" style="fill: rgb(0.000000%,0.000000%,0.000000%);">
    <text font-size="9.962646">4l</text>
  </g>
  <path d="M959.839096 342.043594l0 0" style="stroke:rgb(0.000000%,0.000000%,0.000000%); stroke-width: 15.360031;stroke-linecap: round;stroke-linejoin: round;stroke-miterlimit: 10.000000;fill: none;"></path>
  <g transform="matrix(5.120010,-0.000000,-0.000000,5.120010,1497.395798 768.776047)" style="fill: rgb(0.000000%,0.000000%,0.000000%);">
    <text font-size="9.962646">5l</text>
  </g>
  <path d="M1517.232666 784.136078l0 0" style="stroke:rgb(0.000000%,0.000000%,0.000000%); stroke-width: 15.360031;stroke-linecap: round;stroke-linejoin: round;stroke-miterlimit: 10.000000;fill: none;"></path>
  <g transform="matrix(5.120010,-0.000000,-0.000000,5.120010,1416.751999 958.247009)" style="fill: rgb(0.000000%,0.000000%,0.000000%);">
    <text font-size="9.962646">6l</text>
  </g>
  <path d="M1436.588913 973.607040l0 0" style="stroke:rgb(0.000000%,0.000000%,0.000000%); stroke-width: 15.360031;stroke-linecap: round;stroke-linejoin: round;stroke-miterlimit: 10.000000;fill: none;"></path>
  <g transform="matrix(5.120010,-0.000000,-0.000000,5.120010,1416.751999 958.247009)" style="fill: rgb(0.000000%,0.000000%,0.000000%);">
    <text font-size="9.962646">7l</text>
  </g>
  <path d="M1436.588913 973.607040l0 0" style="stroke:rgb(0.000000%,0.000000%,0.000000%); stroke-width: 15.360031;stroke-linecap: round;stroke-linejoin: round;stroke-miterlimit: 10.000000;fill: none;"></path>
  <g transform="matrix(5.120010,-0.000000,-0.000000,5.120010,1218.698990 895.091034)" style="fill: rgb(0.000000%,0.000000%,0.000000%);">
    <text font-size="9.962646">8l</text>
  </g>
  <path d="M1238.535904 910.451004l0 0" style="stroke:rgb(0.000000%,0.000000%,0.000000%); stroke-width: 15.360031;stroke-linecap: round;stroke-linejoin: round;stroke-miterlimit: 10.000000;fill: none;"></path>
  <g transform="matrix(5.120010,-0.000000,-0.000000,5.120010,1218.698990 481.418625)" style="fill: rgb(0.000000%,0.000000%,0.000000%);">
    <text font-size="9.962646">9l</text>
  </g>
  <path d="M1238.535904 496.778641l0 0" style="stroke:rgb(0.000000%,0.000000%,0.000000%); stroke-width: 15.360031;stroke-linecap: round;stroke-linejoin: round;stroke-miterlimit: 10.000000;fill: none;"></path>
  <g transform="matrix(5.120010,-0.000000,-0.000000,5.120010,1011.384659 1115.252213)" style="fill: rgb(0.000000%,0.000000%,0.000000%);">
    <text font-size="9.962646">10l</text>
  </g>
  <path d="M1043.973831 1130.612244l0 0" style="stroke:rgb(0.000000%,0.000000%,0.000000%); stroke-width: 15.360031;stroke-linecap: round;stroke-linejoin: round;stroke-miterlimit: 10.000000;fill: none;"></path>
  <g transform="matrix(5.120010,-0.000000,-0.000000,5.120010,1108.665695 798.335464)" style="fill: rgb(0.000000%,0.000000%,0.000000%);">
    <text font-size="9.962646">11l</text>
  </g>
  <path d="M1141.254868 813.695435l0 0" style="stroke:rgb(0.000000%,0.000000%,0.000000%); stroke-width: 15.360031;stroke-linecap: round;stroke-linejoin: round;stroke-miterlimit: 10.000000;fill: none;"></path>
  <g transform="matrix(5.120010,-0.000000,-0.000000,5.120010,927.254211 767.884476)" style="fill: rgb(0.000000%,0.000000%,0.000000%);">
    <text font-size="9.962646">12l</text>
  </g>
  <path d="M959.843384 783.244507l0 0" style="stroke:rgb(0.000000%,0.000000%,0.000000%); stroke-width: 15.360031;stroke-linecap: round;stroke-linejoin: round;stroke-miterlimit: 10.000000;fill: none;"></path>
  <g transform="matrix(5.120010,-0.000000,-0.000000,5.120010,927.254211 952.154343)" style="fill: rgb(0.000000%,0.000000%,0.000000%);">
    <text font-size="9.962646">14l</text>
  </g>
  <path d="M959.843384 967.514313l0 0" style="stroke:rgb(0.000000%,0.000000%,0.000000%); stroke-width: 15.360031;stroke-linecap: round;stroke-linejoin: round;stroke-miterlimit: 10.000000;fill: none;"></path>
  <g transform="matrix(5.120010,-0.000000,-0.000000,5.120010,1252.401962 694.740173)" style="fill: rgb(0.000000%,0.000000%,0.000000%);">
    <text font-size="9.962646">15l</text>
  </g>
  <path d="M1284.991074 710.100143l0 0" style="stroke:rgb(0.000000%,0.000000%,0.000000%); stroke-width: 15.360031;stroke-linecap: round;stroke-linejoin: round;stroke-miterlimit: 10.000000;fill: none;"></path>
  <g transform="matrix(5.120010,-0.000000,-0.000000,5.120010,1484.643494 767.884476)" style="fill: rgb(0.000000%,0.000000%,0.000000%);">
    <text font-size="9.962646">41l</text>
  </g>
  <path d="M1517.232666 783.244507l0 0" style="stroke:rgb(0.000000%,0.000000%,0.000000%); stroke-width: 15.360031;stroke-linecap: round;stroke-linejoin: round;stroke-miterlimit: 10.000000;fill: none;"></path>
  <g transform="matrix(5.120010,-0.000000,-0.000000,5.120010,1618.733734 1465.197235)" style="fill: rgb(0.000000%,0.000000%,0.000000%);">
    <text font-size="9.962646">1</text>
  </g>
  <path d="M1631.486038 1480.557205l0 0" style="stroke:rgb(0.000000%,0.000000%,0.000000%); stroke-width: 15.360031;stroke-linecap: round;stroke-linejoin: round;stroke-miterlimit: 10.000000;fill: none;"></path>
  <g transform="matrix(5.120010,-0.000000,-0.000000,5.120010,947.086792 1538.648666)" style="fill: rgb(0.000000%,0.000000%,0.000000%);">
    <text font-size="9.962646">2</text>
  </g>
  <path d="M959.839096 1554.008682l0 0" style="stroke:rgb(0.000000%,0.000000%,0.000000%); stroke-width: 15.360031;stroke-linecap: round;stroke-linejoin: round;stroke-miterlimit: 10.000000;fill: none;"></path>
  <g transform="matrix(5.120010,-0.000000,-0.000000,5.120010,210.686722 859.213287)" style="fill: rgb(0.000000%,0.000000%,0.000000%);">
    <text font-size="9.962646">3</text>
  </g>
  <path d="M223.439026 874.573303l0 0" style="stroke:rgb(0.000000%,0.000000%,0.000000%); stroke-width: 15.360031;stroke-linecap: round;stroke-linejoin: round;stroke-miterlimit: 10.000000;fill: none;"></path>
  <g transform="matrix(5.120010,-0.000000,-0.000000,5.120010,947.086792 179.777954)" style="fill: rgb(0.000000%,0.000000%,0.000000%);">
    <text font-size="9.962646">4</text>
  </g>
  <path d="M959.839096 195.137985l0 0" style="stroke:rgb(0.000000%,0.000000%,0.000000%); stroke-width: 15.360031;stroke-linecap: round;stroke-linejoin: round;stroke-miterlimit: 10.000000;fill: none;"></path>
  <g transform="matrix(5.120010,-0.000000,-0.000000,5.120010,1683.486755 768.776047)" style="fill: rgb(0.000000%,0.000000%,0.000000%);">
    <text font-size="9.962646">5</text>
  </g>
  <path d="M1696.239105 784.136078l0 0" style="stroke:rgb(0.000000%,0.000000%,0.000000%); stroke-width: 15.360031;stroke-linecap: round;stroke-linejoin: round;stroke-miterlimit: 10.000000;fill: none;"></path>
  <g transform="matrix(5.120010,-0.000000,-0.000000,5.120010,1497.289429 1085.471359)" style="fill: rgb(0.000000%,0.000000%,0.000000%);">
    <text font-size="9.962646">6</text>
  </g>
  <path d="M1510.041779 1100.831390l0 0" style="stroke:rgb(0.000000%,0.000000%,0.000000%); stroke-width: 15.360031;stroke-linecap: round;stroke-linejoin: round;stroke-miterlimit: 10.000000;fill: none;"></path>
  <g transform="matrix(5.120010,-0.000000,-0.000000,5.120010,1394.072632 1102.106293)" style="fill: rgb(0.000000%,0.000000%,0.000000%);">
    <text font-size="9.962646">7</text>
  </g>
  <path d="M1406.824936 1117.466324l0 0" style="stroke:rgb(0.000000%,0.000000%,0.000000%); stroke-width: 15.360031;stroke-linecap: round;stroke-linejoin: round;stroke-miterlimit: 10.000000;fill: none;"></path>
  <g transform="matrix(5.120010,-0.000000,-0.000000,5.120010,1128.502563 1005.171570)" style="fill: rgb(0.000000%,0.000000%,0.000000%);">
    <text font-size="9.962646">8</text>
  </g>
  <path d="M1141.254868 1020.531586l0 0" style="stroke:rgb(0.000000%,0.000000%,0.000000%); stroke-width: 15.360031;stroke-linecap: round;stroke-linejoin: round;stroke-miterlimit: 10.000000;fill: none;"></path>
  <g transform="matrix(5.120010,-0.000000,-0.000000,5.120010,1372.689224 481.418625)" style="fill: rgb(0.000000%,0.000000%,0.000000%);">
    <text font-size="9.962646">9</text>
  </g>
  <path d="M1385.441574 496.778641l0 0" style="stroke:rgb(0.000000%,0.000000%,0.000000%); stroke-width: 15.360031;stroke-linecap: round;stroke-linejoin: round;stroke-miterlimit: 10.000000;fill: none;"></path>
  <g transform="matrix(5.120010,-0.000000,-0.000000,5.120010,1165.374908 1115.252213)" style="fill: rgb(0.000000%,0.000000%,0.000000%);">
    <text font-size="9.962646">10</text>
  </g>
  <path d="M1190.879456 1130.612244l0 0" style="stroke:rgb(0.000000%,0.000000%,0.000000%); stroke-width: 15.360031;stroke-linecap: round;stroke-linejoin: round;stroke-miterlimit: 10.000000;fill: none;"></path>
  <g transform="matrix(5.120010,-0.000000,-0.000000,5.120010,1174.733292 714.099030)" style="fill: rgb(0.000000%,0.000000%,0.000000%);">
    <text font-size="9.962646">11</text>
  </g>
  <path d="M1200.237900 729.459061l0 0" style="stroke:rgb(0.000000%,0.000000%,0.000000%); stroke-width: 15.360031;stroke-linecap: round;stroke-linejoin: round;stroke-miterlimit: 10.000000;fill: none;"></path>
  <g transform="matrix(5.120010,-0.000000,-0.000000,5.120010,934.338776 620.978806)" style="fill: rgb(0.000000%,0.000000%,0.000000%);">
    <text font-size="9.962646">12</text>
  </g>
  <path d="M959.843384 636.338837l0 0" style="stroke:rgb(0.000000%,0.000000%,0.000000%); stroke-width: 15.360031;stroke-linecap: round;stroke-linejoin: round;stroke-miterlimit: 10.000000;fill: none;"></path>
  <g transform="matrix(5.120010,-0.000000,-0.000000,5.120010,934.338776 1099.059906)" style="fill: rgb(0.000000%,0.000000%,0.000000%);">
    <text font-size="9.962646">14</text>
  </g>
  <path d="M959.843384 1114.419937l0 0" style="stroke:rgb(0.000000%,0.000000%,0.000000%); stroke-width: 15.360031;stroke-linecap: round;stroke-linejoin: round;stroke-miterlimit: 10.000000;fill: none;"></path>
  <g transform="matrix(5.120010,-0.000000,-0.000000,5.120010,1236.258942 794.915573)" style="fill: rgb(0.000000%,0.000000%,0.000000%);">
    <text font-size="9.962646">15</text>
  </g>
  <path d="M1261.763489 810.275543l0 0" style="stroke:rgb(0.000000%,0.000000%,0.000000%); stroke-width: 15.360031;stroke-linecap: round;stroke-linejoin: round;stroke-miterlimit: 10.000000;fill: none;"></path>
  <g transform="matrix(5.120010,-0.000000,-0.000000,5.120010,1670.734512 767.884476)" style="fill: rgb(0.000000%,0.000000%,0.000000%);">
    <text font-size="9.962646">41</text>
  </g>
  <path d="M1696.239105 783.244507l0 0" style="stroke:rgb(0.000000%,0.000000%,0.000000%); stroke-width: 15.360031;stroke-linecap: round;stroke-linejoin: round;stroke-miterlimit: 10.000000;fill: none;"></path>
  <g transform="matrix(5.120010,-0.000000,-0.000000,5.120010,1608.744431 1612.102844)" style="fill: rgb(0.000000%,0.000000%,0.000000%);">
    <text font-size="9.962646">1r</text>
  </g>
  <path d="M1631.486038 1627.462875l0 0" style="stroke:rgb(0.000000%,0.000000%,0.000000%); stroke-width: 15.360031;stroke-linecap: round;stroke-linejoin: round;stroke-miterlimit: 10.000000;fill: none;"></path>
  <g transform="matrix(5.120010,-0.000000,-0.000000,5.120010,937.097488 1685.554230)" style="fill: rgb(0.000000%,0.000000%,0.000000%);">
    <text font-size="9.962646">2r</text>
  </g>
  <path d="M959.839096 1700.914246l0 0" style="stroke:rgb(0.000000%,0.000000%,0.000000%); stroke-width: 15.360031;stroke-linecap: round;stroke-linejoin: round;stroke-miterlimit: 10.000000;fill: none;"></path>
  <g transform="matrix(5.120010,-0.000000,-0.000000,5.120010,21.691025 859.213287)" style="fill: rgb(0.000000%,0.000000%,0.000000%);">
    <text font-size="9.962646">3r</text>
  </g>
  <path d="M44.432632 874.573303l0 0" style="stroke:rgb(0.000000%,0.000000%,0.000000%); stroke-width: 15.360031;stroke-linecap: round;stroke-linejoin: round;stroke-miterlimit: 10.000000;fill: none;"></path>
  <g transform="matrix(5.120010,-0.000000,-0.000000,5.120010,937.097488 32.872330)" style="fill: rgb(0.000000%,0.000000%,0.000000%);">
    <text font-size="9.962646">4r</text>
  </g>
  <path d="M959.839096 48.232361l0 0" style="stroke:rgb(0.000000%,0.000000%,0.000000%); stroke-width: 15.360031;stroke-linecap: round;stroke-linejoin: round;stroke-miterlimit: 10.000000;fill: none;"></path>
  <g transform="matrix(5.120010,-0.000000,-0.000000,5.120010,1852.503891 768.776047)" style="fill: rgb(0.000000%,0.000000%,0.000000%);">
    <text font-size="9.962646">5r</text>
  </g>
  <path d="M1875.245514 784.136078l0 0" style="stroke:rgb(0.000000%,0.000000%,0.000000%); stroke-width: 15.360031;stroke-linecap: round;stroke-linejoin: round;stroke-miterlimit: 10.000000;fill: none;"></path>
  <g transform="matrix(5.120010,-0.000000,-0.000000,5.120010,1560.752975 1212.695770)" style="fill: rgb(0.000000%,0.000000%,0.000000%);">
    <text font-size="9.962646">6r</text>
  </g>
  <path d="M1583.494537 1228.055740l0 0" style="stroke:rgb(0.000000%,0.000000%,0.000000%); stroke-width: 15.360031;stroke-linecap: round;stroke-linejoin: round;stroke-miterlimit: 10.000000;fill: none;"></path>
  <g transform="matrix(5.120010,-0.000000,-0.000000,5.120010,1354.319351 1245.965576)" style="fill: rgb(0.000000%,0.000000%,0.000000%);">
    <text font-size="9.962646">7r</text>
  </g>
  <path d="M1377.060898 1261.325607l0 0" style="stroke:rgb(0.000000%,0.000000%,0.000000%); stroke-width: 15.360031;stroke-linecap: round;stroke-linejoin: round;stroke-miterlimit: 10.000000;fill: none;"></path>
  <g transform="matrix(5.120010,-0.000000,-0.000000,5.120010,1021.232224 1115.252213)" style="fill: rgb(0.000000%,0.000000%,0.000000%);">
    <text font-size="9.962646">8r</text>
  </g>
  <path d="M1043.973831 1130.612244l0 0" style="stroke:rgb(0.000000%,0.000000%,0.000000%); stroke-width: 15.360031;stroke-linecap: round;stroke-linejoin: round;stroke-miterlimit: 10.000000;fill: none;"></path>
  <g transform="matrix(5.120010,-0.000000,-0.000000,5.120010,1509.605591 481.418625)" style="fill: rgb(0.000000%,0.000000%,0.000000%);">
    <text font-size="9.962646">9r</text>
  </g>
  <path d="M1532.347137 496.778641l0 0" style="stroke:rgb(0.000000%,0.000000%,0.000000%); stroke-width: 15.360031;stroke-linecap: round;stroke-linejoin: round;stroke-miterlimit: 10.000000;fill: none;"></path>
  <g transform="matrix(5.120010,-0.000000,-0.000000,5.120010,1302.291214 1115.252213)" style="fill: rgb(0.000000%,0.000000%,0.000000%);">
    <text font-size="9.962646">10r</text>
  </g>
  <path d="M1337.785065 1130.612244l0 0" style="stroke:rgb(0.000000%,0.000000%,0.000000%); stroke-width: 15.360031;stroke-linecap: round;stroke-linejoin: round;stroke-miterlimit: 10.000000;fill: none;"></path>
  <g transform="matrix(5.120010,-0.000000,-0.000000,5.120010,1223.727020 629.862717)" style="fill: rgb(0.000000%,0.000000%,0.000000%);">
    <text font-size="9.962646">11r</text>
  </g>
  <path d="M1259.220932 645.222733l0 0" style="stroke:rgb(0.000000%,0.000000%,0.000000%); stroke-width: 15.360031;stroke-linecap: round;stroke-linejoin: round;stroke-miterlimit: 10.000000;fill: none;"></path>
  <g transform="matrix(5.120010,-0.000000,-0.000000,5.120010,924.349518 474.073242)" style="fill: rgb(0.000000%,0.000000%,0.000000%);">
    <text font-size="9.962646">12r</text>
  </g>
  <path d="M959.843384 489.433212l0 0" style="stroke:rgb(0.000000%,0.000000%,0.000000%); stroke-width: 15.360031;stroke-linecap: round;stroke-linejoin: round;stroke-miterlimit: 10.000000;fill: none;"></path>
  <g transform="matrix(5.120010,-0.000000,-0.000000,5.120010,924.349518 1245.965576)" style="fill: rgb(0.000000%,0.000000%,0.000000%);">
    <text font-size="9.962646">14r</text>
  </g>
  <path d="M959.843384 1261.325607l0 0" style="stroke:rgb(0.000000%,0.000000%,0.000000%); stroke-width: 15.360031;stroke-linecap: round;stroke-linejoin: round;stroke-miterlimit: 10.000000;fill: none;"></path>
  <g transform="matrix(5.120010,-0.000000,-0.000000,5.120010,1203.042053 895.091034)" style="fill: rgb(0.000000%,0.000000%,0.000000%);">
    <text font-size="9.962646">15r</text>
  </g>
  <path d="M1238.535904 910.451004l0 0" style="stroke:rgb(0.000000%,0.000000%,0.000000%); stroke-width: 15.360031;stroke-linecap: round;stroke-linejoin: round;stroke-miterlimit: 10.000000;fill: none;"></path>
  <g transform="matrix(5.120010,-0.000000,-0.000000,5.120010,1839.751648 767.884476)" style="fill: rgb(0.000000%,0.000000%,0.000000%);">
    <text font-size="9.962646">41r</text>
  </g>
  <path d="M1875.245514 783.244507l0 0" style="stroke:rgb(0.000000%,0.000000%,0.000000%); stroke-width: 15.360031;stroke-linecap: round;stroke-linejoin: round;stroke-miterlimit: 10.000000;fill: none;"></path>
  <path d="M0.000000 94.266464L0.000000 94.986618L0.720154 94.986618L1874.698746 94.986618L1873.978592 94.986618L1873.978592 1873.911133L1873.978592 1873.190979L0.000000 1873.190979L0.720154 1873.190979L0.720154 94.266464L0.000000 94.266464L0.000000 94.986618L0.000000 1873.911133L0.720154 1873.911133L1874.698746 1873.911133L1874.698746 1873.190979L1874.698746 94.266464L1873.978592 94.266464Z" style="fill: rgb(69.999695%,69.999695%,69.999695%);stroke: none;"></path>
</svg>
