<?xml version="1.0"?>
<!-- Created by MetaPost 2.11 on 2025.09.07:1145 -->
<svg version="1.1" xmlns="http://www.w3.org/2000/svg" xmlns:xlink="http://www.w3.org/1999/xlink" width="1123.233932" height="1779.644669" viewBox="0 0 1123.233932 1779.644669">
<!-- Original BoundingBox: -37.938889 -344.667786 1085.295044 1434.976883 -->
  <path d="M155.462830 137.597198L155.462830 1423.016479L513.475616 1423.016479L513.475616 137.597198Z" style="fill: rgb(69.999695%,69.999695%,69.999695%);stroke: none;"></path>
  <path d="M334.469223 431.408493L1037.810196 431.408493L1037.810196 137.597198L334.469223 137.597198Z" style="fill: rgb(69.999695%,69.999695%,69.999695%);stroke: none;"></path>
  <path d="M334.469223 927.212402L926.705780 927.212402L926.705780 633.401169L334.469223 633.401169Z" style="fill: rgb(69.999695%,69.999695%,69.999695%);stroke: none;"></path>
  <path d="M334.469223 1423.016479L1093.362335 1423.016479L1093.362335 1129.205246L334.469223 1129.205246Z" style="fill: rgb(69.999695%,69.999695%,69.999695%);stroke: none;"></path>
  <path d="M155.462830 137.597198L26.921478 137.597198L26.921478 431.408493L155.462830 431.408493Z" style="fill: rgb(69.999695%,69.999695%,69.999695%);stroke: none;"></path>
  <g transform="matrix(5.120010,-0.000000,-0.000000,5.120010,129.958267 122.237228)" style="fill: rgb(0.000000%,0.000000%,0.000000%);">
    <text font-size="9.962646">1a</text>
  </g>
  <path d="M155.462830 137.597198l0 0" style="stroke:rgb(0.000000%,0.000000%,0.000000%); stroke-width: 15.360031;stroke-linecap: round;stroke-linejoin: round;stroke-miterlimit: 10.000000;fill: none;"></path>
  <g transform="matrix(5.120010,-0.000000,-0.000000,5.120010,0.000000 122.237228)" style="fill: rgb(0.000000%,0.000000%,0.000000%);">
    <text font-size="9.962646">1b</text>
  </g>
  <path d="M26.921478 137.597198l0 0" style="stroke:rgb(0.000000%,0.000000%,0.000000%); stroke-width: 15.360031;stroke-linecap: round;stroke-linejoin: round;stroke-miterlimit: 10.000000;fill: none;"></path>
  <g transform="matrix(5.120010,-0.000000,-0.000000,5.120010,2.833801 416.048477)" style="fill: rgb(0.000000%,0.000000%,0.000000%);">
    <text font-size="9.962646">1c</text>
  </g>
  <path d="M26.921478 431.408493l0 0" style="stroke:rgb(0.000000%,0.000000%,0.000000%); stroke-width: 15.360031;stroke-linecap: round;stroke-linejoin: round;stroke-miterlimit: 10.000000;fill: none;"></path>
  <g transform="matrix(5.120010,-0.000000,-0.000000,5.120010,128.541336 416.048477)" style="fill: rgb(0.000000%,0.000000%,0.000000%);">
    <text font-size="9.962646">1d</text>
  </g>
  <path d="M155.462830 431.408493l0 0" style="stroke:rgb(0.000000%,0.000000%,0.000000%); stroke-width: 15.360031;stroke-linecap: round;stroke-linejoin: round;stroke-miterlimit: 10.000000;fill: none;"></path>
  <path d="M155.462830 1423.016479L26.921478 1423.016479L26.921478 1129.205246L155.462830 1129.205246Z" style="fill: rgb(69.999695%,69.999695%,69.999695%);stroke: none;"></path>
  <g transform="matrix(5.120010,-0.000000,-0.000000,5.120010,129.958267 1407.656448)" style="fill: rgb(0.000000%,0.000000%,0.000000%);">
    <text font-size="9.962646">2a</text>
  </g>
  <path d="M155.462830 1423.016479l0 0" style="stroke:rgb(0.000000%,0.000000%,0.000000%); stroke-width: 15.360031;stroke-linecap: round;stroke-linejoin: round;stroke-miterlimit: 10.000000;fill: none;"></path>
  <g transform="matrix(5.120010,-0.000000,-0.000000,5.120010,0.000000 1407.656448)" style="fill: rgb(0.000000%,0.000000%,0.000000%);">
    <text font-size="9.962646">2b</text>
  </g>
  <path d="M26.921478 1423.016479l0 0" style="stroke:rgb(0.000000%,0.000000%,0.000000%); stroke-width: 15.360031;stroke-linecap: round;stroke-linejoin: round;stroke-miterlimit: 10.000000;fill: none;"></path>
  <g transform="matrix(5.120010,-0.000000,-0.000000,5.120010,2.833801 1113.845215)" style="fill: rgb(0.000000%,0.000000%,0.000000%);">
    <text font-size="9.962646">2c</text>
  </g>
  <path d="M26.921478 1129.205246l0 0" style="stroke:rgb(0.000000%,0.000000%,0.000000%); stroke-width: 15.360031;stroke-linecap: round;stroke-linejoin: round;stroke-miterlimit: 10.000000;fill: none;"></path>
  <g transform="matrix(5.120010,-0.000000,-0.000000,5.120010,128.541336 1113.845215)" style="fill: rgb(0.000000%,0.000000%,0.000000%);">
    <text font-size="9.962646">2d</text>
  </g>
  <path d="M155.462830 1129.205246l0 0" style="stroke:rgb(0.000000%,0.000000%,0.000000%); stroke-width: 15.360031;stroke-linecap: round;stroke-linejoin: round;stroke-miterlimit: 10.000000;fill: none;"></path>
  <path d="M1037.810196 431.408493L743.998901 431.408493L743.998901 559.949844L1037.810196 559.949844Z" style="fill: rgb(69.999695%,69.999695%,69.999695%);stroke: none;"></path>
  <g transform="matrix(5.120010,-0.000000,-0.000000,5.120010,1012.305588 416.048477)" style="fill: rgb(0.000000%,0.000000%,0.000000%);">
    <text font-size="9.962646">3a</text>
  </g>
  <path d="M1037.810196 431.408493l0 0" style="stroke:rgb(0.000000%,0.000000%,0.000000%); stroke-width: 15.360031;stroke-linecap: round;stroke-linejoin: round;stroke-miterlimit: 10.000000;fill: none;"></path>
  <g transform="matrix(5.120010,-0.000000,-0.000000,5.120010,717.077408 416.048477)" style="fill: rgb(0.000000%,0.000000%,0.000000%);">
    <text font-size="9.962646">3b</text>
  </g>
  <path d="M743.998901 431.408493l0 0" style="stroke:rgb(0.000000%,0.000000%,0.000000%); stroke-width: 15.360031;stroke-linecap: round;stroke-linejoin: round;stroke-miterlimit: 10.000000;fill: none;"></path>
  <g transform="matrix(5.120010,-0.000000,-0.000000,5.120010,719.911224 544.589813)" style="fill: rgb(0.000000%,0.000000%,0.000000%);">
    <text font-size="9.962646">3c</text>
  </g>
  <path d="M743.998901 559.949844l0 0" style="stroke:rgb(0.000000%,0.000000%,0.000000%); stroke-width: 15.360031;stroke-linecap: round;stroke-linejoin: round;stroke-miterlimit: 10.000000;fill: none;"></path>
  <g transform="matrix(5.120010,-0.000000,-0.000000,5.120010,1010.888702 544.589813)" style="fill: rgb(0.000000%,0.000000%,0.000000%);">
    <text font-size="9.962646">3d</text>
  </g>
  <path d="M1037.810196 559.949844l0 0" style="stroke:rgb(0.000000%,0.000000%,0.000000%); stroke-width: 15.360031;stroke-linecap: round;stroke-linejoin: round;stroke-miterlimit: 10.000000;fill: none;"></path>
  <path d="M1093.362335 1129.205246L799.551102 1129.205246L799.551102 1000.663849L1093.362335 1000.663849Z" style="fill: rgb(69.999695%,69.999695%,69.999695%);stroke: none;"></path>
  <g transform="matrix(5.120010,-0.000000,-0.000000,5.120010,1067.857727 1113.845215)" style="fill: rgb(0.000000%,0.000000%,0.000000%);">
    <text font-size="9.962646">4a</text>
  </g>
  <path d="M1093.362335 1129.205246l0 0" style="stroke:rgb(0.000000%,0.000000%,0.000000%); stroke-width: 15.360031;stroke-linecap: round;stroke-linejoin: round;stroke-miterlimit: 10.000000;fill: none;"></path>
  <g transform="matrix(5.120010,-0.000000,-0.000000,5.120010,772.629608 1113.845215)" style="fill: rgb(0.000000%,0.000000%,0.000000%);">
    <text font-size="9.962646">4b</text>
  </g>
  <path d="M799.551102 1129.205246l0 0" style="stroke:rgb(0.000000%,0.000000%,0.000000%); stroke-width: 15.360031;stroke-linecap: round;stroke-linejoin: round;stroke-miterlimit: 10.000000;fill: none;"></path>
  <g transform="matrix(5.120010,-0.000000,-0.000000,5.120010,775.463379 985.303879)" style="fill: rgb(0.000000%,0.000000%,0.000000%);">
    <text font-size="9.962646">4c</text>
  </g>
  <path d="M799.551102 1000.663849l0 0" style="stroke:rgb(0.000000%,0.000000%,0.000000%); stroke-width: 15.360031;stroke-linecap: round;stroke-linejoin: round;stroke-miterlimit: 10.000000;fill: none;"></path>
  <g transform="matrix(5.120010,-0.000000,-0.000000,5.120010,1066.440857 985.303879)" style="fill: rgb(0.000000%,0.000000%,0.000000%);">
    <text font-size="9.962646">4d</text>
  </g>
  <path d="M1093.362335 1000.663849l0 0" style="stroke:rgb(0.000000%,0.000000%,0.000000%); stroke-width: 15.360031;stroke-linecap: round;stroke-linejoin: round;stroke-miterlimit: 10.000000;fill: none;"></path>
  <g transform="matrix(5.120010,-0.000000,-0.000000,5.120010,135.625900 122.237228)" style="fill: rgb(0.000000%,0.000000%,0.000000%);">
    <text font-size="9.962646">1l</text>
  </g>
  <path d="M155.462830 137.597198l0 0" style="stroke:rgb(0.000000%,0.000000%,0.000000%); stroke-width: 15.360031;stroke-linecap: round;stroke-linejoin: round;stroke-miterlimit: 10.000000;fill: none;"></path>
  <g transform="matrix(5.120010,-0.000000,-0.000000,5.120010,135.625900 1407.656448)" style="fill: rgb(0.000000%,0.000000%,0.000000%);">
    <text font-size="9.962646">2l</text>
  </g>
  <path d="M155.462830 1423.016479l0 0" style="stroke:rgb(0.000000%,0.000000%,0.000000%); stroke-width: 15.360031;stroke-linecap: round;stroke-linejoin: round;stroke-miterlimit: 10.000000;fill: none;"></path>
  <g transform="matrix(5.120010,-0.000000,-0.000000,5.120010,314.632355 416.048477)" style="fill: rgb(0.000000%,0.000000%,0.000000%);">
    <text font-size="9.962646">3l</text>
  </g>
  <path d="M334.469223 431.408493l0 0" style="stroke:rgb(0.000000%,0.000000%,0.000000%); stroke-width: 15.360031;stroke-linecap: round;stroke-linejoin: round;stroke-miterlimit: 10.000000;fill: none;"></path>
  <g transform="matrix(5.120010,-0.000000,-0.000000,5.120010,1017.973267 416.048477)" style="fill: rgb(0.000000%,0.000000%,0.000000%);">
    <text font-size="9.962646">4l</text>
  </g>
  <path d="M1037.810196 431.408493l0 0" style="stroke:rgb(0.000000%,0.000000%,0.000000%); stroke-width: 15.360031;stroke-linecap: round;stroke-linejoin: round;stroke-miterlimit: 10.000000;fill: none;"></path>
  <g transform="matrix(5.120010,-0.000000,-0.000000,5.120010,314.632355 911.852386)" style="fill: rgb(0.000000%,0.000000%,0.000000%);">
    <text font-size="9.962646">5l</text>
  </g>
  <path d="M334.469223 927.212402l0 0" style="stroke:rgb(0.000000%,0.000000%,0.000000%); stroke-width: 15.360031;stroke-linecap: round;stroke-linejoin: round;stroke-miterlimit: 10.000000;fill: none;"></path>
  <g transform="matrix(5.120010,-0.000000,-0.000000,5.120010,906.868912 911.852386)" style="fill: rgb(0.000000%,0.000000%,0.000000%);">
    <text font-size="9.962646">6l</text>
  </g>
  <path d="M926.705780 927.212402l0 0" style="stroke:rgb(0.000000%,0.000000%,0.000000%); stroke-width: 15.360031;stroke-linecap: round;stroke-linejoin: round;stroke-miterlimit: 10.000000;fill: none;"></path>
  <g transform="matrix(5.120010,-0.000000,-0.000000,5.120010,314.632355 1407.656448)" style="fill: rgb(0.000000%,0.000000%,0.000000%);">
    <text font-size="9.962646">7l</text>
  </g>
  <path d="M334.469223 1423.016479l0 0" style="stroke:rgb(0.000000%,0.000000%,0.000000%); stroke-width: 15.360031;stroke-linecap: round;stroke-linejoin: round;stroke-miterlimit: 10.000000;fill: none;"></path>
  <g transform="matrix(5.120010,-0.000000,-0.000000,5.120010,1073.525421 1407.656448)" style="fill: rgb(0.000000%,0.000000%,0.000000%);">
    <text font-size="9.962646">8l</text>
  </g>
  <path d="M1093.362335 1423.016479l0 0" style="stroke:rgb(0.000000%,0.000000%,0.000000%); stroke-width: 15.360031;stroke-linecap: round;stroke-linejoin: round;stroke-miterlimit: 10.000000;fill: none;"></path>
  <g transform="matrix(5.120010,-0.000000,-0.000000,5.120010,321.716919 122.237228)" style="fill: rgb(0.000000%,0.000000%,0.000000%);">
    <text font-size="9.962646">1</text>
  </g>
  <path d="M334.469223 137.597198l0 0" style="stroke:rgb(0.000000%,0.000000%,0.000000%); stroke-width: 15.360031;stroke-linecap: round;stroke-linejoin: round;stroke-miterlimit: 10.000000;fill: none;"></path>
  <g transform="matrix(5.120010,-0.000000,-0.000000,5.120010,321.716919 1407.656448)" style="fill: rgb(0.000000%,0.000000%,0.000000%);">
    <text font-size="9.962646">2</text>
  </g>
  <path d="M334.469223 1423.016479l0 0" style="stroke:rgb(0.000000%,0.000000%,0.000000%); stroke-width: 15.360031;stroke-linecap: round;stroke-linejoin: round;stroke-miterlimit: 10.000000;fill: none;"></path>
  <g transform="matrix(5.120010,-0.000000,-0.000000,5.120010,321.716919 269.142792)" style="fill: rgb(0.000000%,0.000000%,0.000000%);">
    <text font-size="9.962646">3</text>
  </g>
  <path d="M334.469223 284.502823l0 0" style="stroke:rgb(0.000000%,0.000000%,0.000000%); stroke-width: 15.360031;stroke-linecap: round;stroke-linejoin: round;stroke-miterlimit: 10.000000;fill: none;"></path>
  <g transform="matrix(5.120010,-0.000000,-0.000000,5.120010,1025.057831 269.142792)" style="fill: rgb(0.000000%,0.000000%,0.000000%);">
    <text font-size="9.962646">4</text>
  </g>
  <path d="M1037.810196 284.502823l0 0" style="stroke:rgb(0.000000%,0.000000%,0.000000%); stroke-width: 15.360031;stroke-linecap: round;stroke-linejoin: round;stroke-miterlimit: 10.000000;fill: none;"></path>
  <g transform="matrix(5.120010,-0.000000,-0.000000,5.120010,321.716919 764.946823)" style="fill: rgb(0.000000%,0.000000%,0.000000%);">
    <text font-size="9.962646">5</text>
  </g>
  <path d="M334.469223 780.306839l0 0" style="stroke:rgb(0.000000%,0.000000%,0.000000%); stroke-width: 15.360031;stroke-linecap: round;stroke-linejoin: round;stroke-miterlimit: 10.000000;fill: none;"></path>
  <g transform="matrix(5.120010,-0.000000,-0.000000,5.120010,913.953476 764.946823)" style="fill: rgb(0.000000%,0.000000%,0.000000%);">
    <text font-size="9.962646">6</text>
  </g>
  <path d="M926.705780 780.306839l0 0" style="stroke:rgb(0.000000%,0.000000%,0.000000%); stroke-width: 15.360031;stroke-linecap: round;stroke-linejoin: round;stroke-miterlimit: 10.000000;fill: none;"></path>
  <g transform="matrix(5.120010,-0.000000,-0.000000,5.120010,321.716919 1260.750839)" style="fill: rgb(0.000000%,0.000000%,0.000000%);">
    <text font-size="9.962646">7</text>
  </g>
  <path d="M334.469223 1276.110809l0 0" style="stroke:rgb(0.000000%,0.000000%,0.000000%); stroke-width: 15.360031;stroke-linecap: round;stroke-linejoin: round;stroke-miterlimit: 10.000000;fill: none;"></path>
  <g transform="matrix(5.120010,-0.000000,-0.000000,5.120010,1080.610031 1260.750839)" style="fill: rgb(0.000000%,0.000000%,0.000000%);">
    <text font-size="9.962646">8</text>
  </g>
  <path d="M1093.362335 1276.110809l0 0" style="stroke:rgb(0.000000%,0.000000%,0.000000%); stroke-width: 15.360031;stroke-linecap: round;stroke-linejoin: round;stroke-miterlimit: 10.000000;fill: none;"></path>
  <g transform="matrix(5.120010,-0.000000,-0.000000,5.120010,490.734055 122.237228)" style="fill: rgb(0.000000%,0.000000%,0.000000%);">
    <text font-size="9.962646">1r</text>
  </g>
  <path d="M513.475616 137.597198l0 0" style="stroke:rgb(0.000000%,0.000000%,0.000000%); stroke-width: 15.360031;stroke-linecap: round;stroke-linejoin: round;stroke-miterlimit: 10.000000;fill: none;"></path>
  <g transform="matrix(5.120010,-0.000000,-0.000000,5.120010,490.734055 1407.656448)" style="fill: rgb(0.000000%,0.000000%,0.000000%);">
    <text font-size="9.962646">2r</text>
  </g>
  <path d="M513.475616 1423.016479l0 0" style="stroke:rgb(0.000000%,0.000000%,0.000000%); stroke-width: 15.360031;stroke-linecap: round;stroke-linejoin: round;stroke-miterlimit: 10.000000;fill: none;"></path>
  <g transform="matrix(5.120010,-0.000000,-0.000000,5.120010,311.727600 122.237228)" style="fill: rgb(0.000000%,0.000000%,0.000000%);">
    <text font-size="9.962646">3r</text>
  </g>
  <path d="M334.469223 137.597198l0 0" style="stroke:rgb(0.000000%,0.000000%,0.000000%); stroke-width: 15.360031;stroke-linecap: round;stroke-linejoin: round;stroke-miterlimit: 10.000000;fill: none;"></path>
  <g transform="matrix(5.120010,-0.000000,-0.000000,5.120010,1015.068573 122.237228)" style="fill: rgb(0.000000%,0.000000%,0.000000%);">
    <text font-size="9.962646">4r</text>
  </g>
  <path d="M1037.810196 137.597198l0 0" style="stroke:rgb(0.000000%,0.000000%,0.000000%); stroke-width: 15.360031;stroke-linecap: round;stroke-linejoin: round;stroke-miterlimit: 10.000000;fill: none;"></path>
  <g transform="matrix(5.120010,-0.000000,-0.000000,5.120010,311.727600 618.041138)" style="fill: rgb(0.000000%,0.000000%,0.000000%);">
    <text font-size="9.962646">5r</text>
  </g>
  <path d="M334.469223 633.401169l0 0" style="stroke:rgb(0.000000%,0.000000%,0.000000%); stroke-width: 15.360031;stroke-linecap: round;stroke-linejoin: round;stroke-miterlimit: 10.000000;fill: none;"></path>
  <g transform="matrix(5.120010,-0.000000,-0.000000,5.120010,903.964172 618.041138)" style="fill: rgb(0.000000%,0.000000%,0.000000%);">
    <text font-size="9.962646">6r</text>
  </g>
  <path d="M926.705780 633.401169l0 0" style="stroke:rgb(0.000000%,0.000000%,0.000000%); stroke-width: 15.360031;stroke-linecap: round;stroke-linejoin: round;stroke-miterlimit: 10.000000;fill: none;"></path>
  <g transform="matrix(5.120010,-0.000000,-0.000000,5.120010,311.727600 1113.845215)" style="fill: rgb(0.000000%,0.000000%,0.000000%);">
    <text font-size="9.962646">7r</text>
  </g>
  <path d="M334.469223 1129.205246l0 0" style="stroke:rgb(0.000000%,0.000000%,0.000000%); stroke-width: 15.360031;stroke-linecap: round;stroke-linejoin: round;stroke-miterlimit: 10.000000;fill: none;"></path>
  <g transform="matrix(5.120010,-0.000000,-0.000000,5.120010,1070.620728 1113.845215)" style="fill: rgb(0.000000%,0.000000%,0.000000%);">
    <text font-size="9.962646">8r</text>
  </g>
  <path d="M1093.362335 1129.205246l0 0" style="stroke:rgb(0.000000%,0.000000%,0.000000%); stroke-width: 15.360031;stroke-linecap: round;stroke-linejoin: round;stroke-miterlimit: 10.000000;fill: none;"></path>
  <path d="M37.578812 -0.000000L37.578812 0.720154L38.298965 0.720154L1123.233932 0.720154L1122.513779 0.720154L1122.513779 1779.644669L1122.513779 1778.924515L37.578812 1778.924515L38.298965 1778.924515L38.298965 -0.000000L37.578812 -0.000000L37.578812 0.720154L37.578812 1779.644669L38.298965 1779.644669L1123.233932 1779.644669L1123.233932 1778.924515L1123.233932 -0.000000L1122.513779 -0.000000Z" style="fill: rgb(69.999695%,69.999695%,69.999695%);stroke: none;"></path>
</svg>
