<?xml version="1.0"?>
<!-- Created by MetaPost 2.11 on 2025.09.01:1857 -->
<svg version="1.1" xmlns="http://www.w3.org/2000/svg" xmlns:xlink="http://www.w3.org/1999/xlink" width="250.772598" height="356.505051" viewBox="0 0 250.772598 356.505051">
<!-- Original BoundingBox: -0.360077 -69.221619 250.412521 287.283432 -->
  <path d="M23.864868 27.807495L23.864868 284.891357L95.467422 284.891357L95.467422 27.807495Z" style="fill: rgb(69.999695%,69.999695%,69.999695%);stroke: none;"></path>
  <path d="M152.834000 27.807495L95.467422 156.349426L152.834000 284.891357L246.224304 284.891357L167.069992 156.349426L246.224304 27.807495Z" style="fill: rgb(69.999695%,69.999695%,69.999695%);stroke: none;"></path>
  <g transform="matrix(1.024002,-0.000000,-0.000000,1.024002,19.897476 24.735504)" style="fill: rgb(0.000000%,0.000000%,0.000000%);">
    <text font-size="9.962646">1l</text>
  </g>
  <path d="M23.864868 27.807495l0 0" style="stroke:rgb(0.000000%,0.000000%,0.000000%); stroke-width: 3.072006;stroke-linecap: round;stroke-linejoin: round;stroke-miterlimit: 10.000000;fill: none;"></path>
  <g transform="matrix(1.024002,-0.000000,-0.000000,1.024002,19.897476 281.819351)" style="fill: rgb(0.000000%,0.000000%,0.000000%);">
    <text font-size="9.962646">2l</text>
  </g>
  <path d="M23.864868 284.891357l0 0" style="stroke:rgb(0.000000%,0.000000%,0.000000%); stroke-width: 3.072006;stroke-linecap: round;stroke-linejoin: round;stroke-miterlimit: 10.000000;fill: none;"></path>
  <g transform="matrix(1.024002,-0.000000,-0.000000,1.024002,148.866608 24.735504)" style="fill: rgb(0.000000%,0.000000%,0.000000%);">
    <text font-size="9.962646">3l</text>
  </g>
  <path d="M152.834000 27.807495l0 0" style="stroke:rgb(0.000000%,0.000000%,0.000000%); stroke-width: 3.072006;stroke-linecap: round;stroke-linejoin: round;stroke-miterlimit: 10.000000;fill: none;"></path>
  <g transform="matrix(1.024002,-0.000000,-0.000000,1.024002,91.500046 153.277420)" style="fill: rgb(0.000000%,0.000000%,0.000000%);">
    <text font-size="9.962646">4l</text>
  </g>
  <path d="M95.467422 156.349426l0 0" style="stroke:rgb(0.000000%,0.000000%,0.000000%); stroke-width: 3.072006;stroke-linecap: round;stroke-linejoin: round;stroke-miterlimit: 10.000000;fill: none;"></path>
  <g transform="matrix(1.024002,-0.000000,-0.000000,1.024002,148.866608 281.819351)" style="fill: rgb(0.000000%,0.000000%,0.000000%);">
    <text font-size="9.962646">5l</text>
  </g>
  <path d="M152.834000 284.891357l0 0" style="stroke:rgb(0.000000%,0.000000%,0.000000%); stroke-width: 3.072006;stroke-linecap: round;stroke-linejoin: round;stroke-miterlimit: 10.000000;fill: none;"></path>
  <g transform="matrix(1.024002,-0.000000,-0.000000,1.024002,57.115677 24.735504)" style="fill: rgb(0.000000%,0.000000%,0.000000%);">
    <text font-size="9.962646">1</text>
  </g>
  <path d="M59.666138 27.807495l0 0" style="stroke:rgb(0.000000%,0.000000%,0.000000%); stroke-width: 3.072006;stroke-linecap: round;stroke-linejoin: round;stroke-miterlimit: 10.000000;fill: none;"></path>
  <g transform="matrix(1.024002,-0.000000,-0.000000,1.024002,57.115677 281.819351)" style="fill: rgb(0.000000%,0.000000%,0.000000%);">
    <text font-size="9.962646">2</text>
  </g>
  <path d="M59.666138 284.891357l0 0" style="stroke:rgb(0.000000%,0.000000%,0.000000%); stroke-width: 3.072006;stroke-linecap: round;stroke-linejoin: round;stroke-miterlimit: 10.000000;fill: none;"></path>
  <g transform="matrix(1.024002,-0.000000,-0.000000,1.024002,196.978683 24.735504)" style="fill: rgb(0.000000%,0.000000%,0.000000%);">
    <text font-size="9.962646">3</text>
  </g>
  <path d="M199.529144 27.807495l0 0" style="stroke:rgb(0.000000%,0.000000%,0.000000%); stroke-width: 3.072006;stroke-linecap: round;stroke-linejoin: round;stroke-miterlimit: 10.000000;fill: none;"></path>
  <g transform="matrix(1.024002,-0.000000,-0.000000,1.024002,128.718246 153.277420)" style="fill: rgb(0.000000%,0.000000%,0.000000%);">
    <text font-size="9.962646">4</text>
  </g>
  <path d="M131.268707 156.349426l0 0" style="stroke:rgb(0.000000%,0.000000%,0.000000%); stroke-width: 3.072006;stroke-linecap: round;stroke-linejoin: round;stroke-miterlimit: 10.000000;fill: none;"></path>
  <g transform="matrix(1.024002,-0.000000,-0.000000,1.024002,196.978699 281.819351)" style="fill: rgb(0.000000%,0.000000%,0.000000%);">
    <text font-size="9.962646">5</text>
  </g>
  <path d="M199.529160 284.891357l0 0" style="stroke:rgb(0.000000%,0.000000%,0.000000%); stroke-width: 3.072006;stroke-linecap: round;stroke-linejoin: round;stroke-miterlimit: 10.000000;fill: none;"></path>
  <g transform="matrix(1.024002,-0.000000,-0.000000,1.024002,90.919113 24.735504)" style="fill: rgb(0.000000%,0.000000%,0.000000%);">
    <text font-size="9.962646">1r</text>
  </g>
  <path d="M95.467422 27.807495l0 0" style="stroke:rgb(0.000000%,0.000000%,0.000000%); stroke-width: 3.072006;stroke-linecap: round;stroke-linejoin: round;stroke-miterlimit: 10.000000;fill: none;"></path>
  <g transform="matrix(1.024002,-0.000000,-0.000000,1.024002,90.919113 281.819351)" style="fill: rgb(0.000000%,0.000000%,0.000000%);">
    <text font-size="9.962646">2r</text>
  </g>
  <path d="M95.467422 284.891357l0 0" style="stroke:rgb(0.000000%,0.000000%,0.000000%); stroke-width: 3.072006;stroke-linecap: round;stroke-linejoin: round;stroke-miterlimit: 10.000000;fill: none;"></path>
  <g transform="matrix(1.024002,-0.000000,-0.000000,1.024002,241.675980 24.735504)" style="fill: rgb(0.000000%,0.000000%,0.000000%);">
    <text font-size="9.962646">3r</text>
  </g>
  <path d="M246.224304 27.807495l0 0" style="stroke:rgb(0.000000%,0.000000%,0.000000%); stroke-width: 3.072006;stroke-linecap: round;stroke-linejoin: round;stroke-miterlimit: 10.000000;fill: none;"></path>
  <g transform="matrix(1.024002,-0.000000,-0.000000,1.024002,162.521667 153.277420)" style="fill: rgb(0.000000%,0.000000%,0.000000%);">
    <text font-size="9.962646">4r</text>
  </g>
  <path d="M167.069992 156.349426l0 0" style="stroke:rgb(0.000000%,0.000000%,0.000000%); stroke-width: 3.072006;stroke-linecap: round;stroke-linejoin: round;stroke-miterlimit: 10.000000;fill: none;"></path>
  <g transform="matrix(1.024002,-0.000000,-0.000000,1.024002,241.675980 281.819351)" style="fill: rgb(0.000000%,0.000000%,0.000000%);">
    <text font-size="9.962646">5r</text>
  </g>
  <path d="M246.224304 284.891357l0 0" style="stroke:rgb(0.000000%,0.000000%,0.000000%); stroke-width: 3.072006;stroke-linecap: round;stroke-linejoin: round;stroke-miterlimit: 10.000000;fill: none;"></path>
  <path d="M0.000000 -0.000000L0.000000 0.720154L0.720154 0.720154L229.542801 0.720154L228.822647 0.720154L228.822647 356.505051L228.822647 355.784897L0.000000 355.784897L0.720154 355.784897L0.720154 -0.000000L0.000000 -0.000000L0.000000 0.720154L0.000000 356.505051L0.720154 356.505051L229.542801 356.505051L229.542801 355.784897L229.542801 -0.000000L228.822647 -0.000000Z" style="fill: rgb(69.999695%,69.999695%,69.999695%);stroke: none;"></path>
</svg>
