<?xml version="1.0"?>
<!-- Created by MetaPost 2.11 on 2025.09.07:1145 -->
<svg version="1.1" xmlns="http://www.w3.org/2000/svg" xmlns:xlink="http://www.w3.org/1999/xlink" width="1368.649353" height="1779.644669" viewBox="0 0 1368.649353 1779.644669">
<!-- Original BoundingBox: -37.938889 -344.667786 1330.710464 1434.976883 -->
  <path d="M155.462830 137.597198L26.921478 137.597198L26.921478 431.408493L155.462830 431.408493Z" style="fill: rgb(69.999695%,69.999695%,69.999695%);stroke: none;"></path>
  <g transform="matrix(5.120010,-0.000000,-0.000000,5.120010,129.958267 122.237228)" style="fill: rgb(0.000000%,0.000000%,0.000000%);">
    <text font-size="9.962646">1a</text>
  </g>
  <path d="M155.462830 137.597198l0 0" style="stroke:rgb(0.000000%,0.000000%,0.000000%); stroke-width: 15.360031;stroke-linecap: round;stroke-linejoin: round;stroke-miterlimit: 10.000000;fill: none;"></path>
  <g transform="matrix(5.120010,-0.000000,-0.000000,5.120010,0.000000 122.237228)" style="fill: rgb(0.000000%,0.000000%,0.000000%);">
    <text font-size="9.962646">1b</text>
  </g>
  <path d="M26.921478 137.597198l0 0" style="stroke:rgb(0.000000%,0.000000%,0.000000%); stroke-width: 15.360031;stroke-linecap: round;stroke-linejoin: round;stroke-miterlimit: 10.000000;fill: none;"></path>
  <g transform="matrix(5.120010,-0.000000,-0.000000,5.120010,2.833801 416.048477)" style="fill: rgb(0.000000%,0.000000%,0.000000%);">
    <text font-size="9.962646">1c</text>
  </g>
  <path d="M26.921478 431.408493l0 0" style="stroke:rgb(0.000000%,0.000000%,0.000000%); stroke-width: 15.360031;stroke-linecap: round;stroke-linejoin: round;stroke-miterlimit: 10.000000;fill: none;"></path>
  <g transform="matrix(5.120010,-0.000000,-0.000000,5.120010,128.541336 416.048477)" style="fill: rgb(0.000000%,0.000000%,0.000000%);">
    <text font-size="9.962646">1d</text>
  </g>
  <path d="M155.462830 431.408493l0 0" style="stroke:rgb(0.000000%,0.000000%,0.000000%); stroke-width: 15.360031;stroke-linecap: round;stroke-linejoin: round;stroke-miterlimit: 10.000000;fill: none;"></path>
  <path d="M1213.186646 137.597198L1341.728043 137.597198L1341.728043 431.408493L1213.186646 431.408493Z" style="fill: rgb(69.999695%,69.999695%,69.999695%);stroke: none;"></path>
  <g transform="matrix(5.120010,-0.000000,-0.000000,5.120010,1187.682098 122.237228)" style="fill: rgb(0.000000%,0.000000%,0.000000%);">
    <text font-size="9.962646">2a</text>
  </g>
  <path d="M1213.186646 137.597198l0 0" style="stroke:rgb(0.000000%,0.000000%,0.000000%); stroke-width: 15.360031;stroke-linecap: round;stroke-linejoin: round;stroke-miterlimit: 10.000000;fill: none;"></path>
  <g transform="matrix(5.120010,-0.000000,-0.000000,5.120010,1314.806503 122.237228)" style="fill: rgb(0.000000%,0.000000%,0.000000%);">
    <text font-size="9.962646">2b</text>
  </g>
  <path d="M1341.728043 137.597198l0 0" style="stroke:rgb(0.000000%,0.000000%,0.000000%); stroke-width: 15.360031;stroke-linecap: round;stroke-linejoin: round;stroke-miterlimit: 10.000000;fill: none;"></path>
  <g transform="matrix(5.120010,-0.000000,-0.000000,5.120010,1317.640320 416.048477)" style="fill: rgb(0.000000%,0.000000%,0.000000%);">
    <text font-size="9.962646">2c</text>
  </g>
  <path d="M1341.728043 431.408493l0 0" style="stroke:rgb(0.000000%,0.000000%,0.000000%); stroke-width: 15.360031;stroke-linecap: round;stroke-linejoin: round;stroke-miterlimit: 10.000000;fill: none;"></path>
  <g transform="matrix(5.120010,-0.000000,-0.000000,5.120010,1186.265152 416.048477)" style="fill: rgb(0.000000%,0.000000%,0.000000%);">
    <text font-size="9.962646">2d</text>
  </g>
  <path d="M1213.186646 431.408493l0 0" style="stroke:rgb(0.000000%,0.000000%,0.000000%); stroke-width: 15.360031;stroke-linecap: round;stroke-linejoin: round;stroke-miterlimit: 10.000000;fill: none;"></path>
  <path d="M155.462830 1423.016479L26.921478 1423.016479L26.921478 1129.205246L155.462830 1129.205246Z" style="fill: rgb(69.999695%,69.999695%,69.999695%);stroke: none;"></path>
  <g transform="matrix(5.120010,-0.000000,-0.000000,5.120010,129.958267 1407.656448)" style="fill: rgb(0.000000%,0.000000%,0.000000%);">
    <text font-size="9.962646">3a</text>
  </g>
  <path d="M155.462830 1423.016479l0 0" style="stroke:rgb(0.000000%,0.000000%,0.000000%); stroke-width: 15.360031;stroke-linecap: round;stroke-linejoin: round;stroke-miterlimit: 10.000000;fill: none;"></path>
  <g transform="matrix(5.120010,-0.000000,-0.000000,5.120010,0.000000 1407.656448)" style="fill: rgb(0.000000%,0.000000%,0.000000%);">
    <text font-size="9.962646">3b</text>
  </g>
  <path d="M26.921478 1423.016479l0 0" style="stroke:rgb(0.000000%,0.000000%,0.000000%); stroke-width: 15.360031;stroke-linecap: round;stroke-linejoin: round;stroke-miterlimit: 10.000000;fill: none;"></path>
  <g transform="matrix(5.120010,-0.000000,-0.000000,5.120010,2.833801 1113.845215)" style="fill: rgb(0.000000%,0.000000%,0.000000%);">
    <text font-size="9.962646">3c</text>
  </g>
  <path d="M26.921478 1129.205246l0 0" style="stroke:rgb(0.000000%,0.000000%,0.000000%); stroke-width: 15.360031;stroke-linecap: round;stroke-linejoin: round;stroke-miterlimit: 10.000000;fill: none;"></path>
  <g transform="matrix(5.120010,-0.000000,-0.000000,5.120010,128.541336 1113.845215)" style="fill: rgb(0.000000%,0.000000%,0.000000%);">
    <text font-size="9.962646">3d</text>
  </g>
  <path d="M155.462830 1129.205246l0 0" style="stroke:rgb(0.000000%,0.000000%,0.000000%); stroke-width: 15.360031;stroke-linecap: round;stroke-linejoin: round;stroke-miterlimit: 10.000000;fill: none;"></path>
  <path d="M1213.186646 1423.016479L1341.728043 1423.016479L1341.728043 1129.205246L1213.186646 1129.205246Z" style="fill: rgb(69.999695%,69.999695%,69.999695%);stroke: none;"></path>
  <g transform="matrix(5.120010,-0.000000,-0.000000,5.120010,1187.682098 1407.656448)" style="fill: rgb(0.000000%,0.000000%,0.000000%);">
    <text font-size="9.962646">4a</text>
  </g>
  <path d="M1213.186646 1423.016479l0 0" style="stroke:rgb(0.000000%,0.000000%,0.000000%); stroke-width: 15.360031;stroke-linecap: round;stroke-linejoin: round;stroke-miterlimit: 10.000000;fill: none;"></path>
  <g transform="matrix(5.120010,-0.000000,-0.000000,5.120010,1314.806503 1407.656448)" style="fill: rgb(0.000000%,0.000000%,0.000000%);">
    <text font-size="9.962646">4b</text>
  </g>
  <path d="M1341.728043 1423.016479l0 0" style="stroke:rgb(0.000000%,0.000000%,0.000000%); stroke-width: 15.360031;stroke-linecap: round;stroke-linejoin: round;stroke-miterlimit: 10.000000;fill: none;"></path>
  <g transform="matrix(5.120010,-0.000000,-0.000000,5.120010,1317.640320 1113.845215)" style="fill: rgb(0.000000%,0.000000%,0.000000%);">
    <text font-size="9.962646">4c</text>
  </g>
  <path d="M1341.728043 1129.205246l0 0" style="stroke:rgb(0.000000%,0.000000%,0.000000%); stroke-width: 15.360031;stroke-linecap: round;stroke-linejoin: round;stroke-miterlimit: 10.000000;fill: none;"></path>
  <g transform="matrix(5.120010,-0.000000,-0.000000,5.120010,1186.265152 1113.845215)" style="fill: rgb(0.000000%,0.000000%,0.000000%);">
    <text font-size="9.962646">4d</text>
  </g>
  <path d="M1213.186646 1129.205246l0 0" style="stroke:rgb(0.000000%,0.000000%,0.000000%); stroke-width: 15.360031;stroke-linecap: round;stroke-linejoin: round;stroke-miterlimit: 10.000000;fill: none;"></path>
  <path d="M155.462830 137.597198L155.462830 1423.016479L513.475616 1423.016479L513.475616 137.597198Z" style="fill: rgb(69.999695%,69.999695%,69.999695%);stroke: none;"></path>
  <path d="M855.173843 137.597198L855.173843 1423.016479L1213.186646 1423.016479L1213.186646 137.597198Z" style="fill: rgb(69.999695%,69.999695%,69.999695%);stroke: none;"></path>
  <path d="M155.462830 137.597198L855.173843 1423.016479L1148.985092 1423.016479L513.475616 137.597198Z" style="fill: rgb(69.999695%,69.999695%,69.999695%);stroke: none;"></path>
  <g transform="matrix(5.120010,-0.000000,-0.000000,5.120010,135.625900 122.237228)" style="fill: rgb(0.000000%,0.000000%,0.000000%);">
    <text font-size="9.962646">1l</text>
  </g>
  <path d="M155.462830 137.597198l0 0" style="stroke:rgb(0.000000%,0.000000%,0.000000%); stroke-width: 15.360031;stroke-linecap: round;stroke-linejoin: round;stroke-miterlimit: 10.000000;fill: none;"></path>
  <g transform="matrix(5.120010,-0.000000,-0.000000,5.120010,135.625900 1407.656448)" style="fill: rgb(0.000000%,0.000000%,0.000000%);">
    <text font-size="9.962646">2l</text>
  </g>
  <path d="M155.462830 1423.016479l0 0" style="stroke:rgb(0.000000%,0.000000%,0.000000%); stroke-width: 15.360031;stroke-linecap: round;stroke-linejoin: round;stroke-miterlimit: 10.000000;fill: none;"></path>
  <g transform="matrix(5.120010,-0.000000,-0.000000,5.120010,835.336929 122.237228)" style="fill: rgb(0.000000%,0.000000%,0.000000%);">
    <text font-size="9.962646">3l</text>
  </g>
  <path d="M855.173843 137.597198l0 0" style="stroke:rgb(0.000000%,0.000000%,0.000000%); stroke-width: 15.360031;stroke-linecap: round;stroke-linejoin: round;stroke-miterlimit: 10.000000;fill: none;"></path>
  <g transform="matrix(5.120010,-0.000000,-0.000000,5.120010,835.336929 1407.656448)" style="fill: rgb(0.000000%,0.000000%,0.000000%);">
    <text font-size="9.962646">4l</text>
  </g>
  <path d="M855.173843 1423.016479l0 0" style="stroke:rgb(0.000000%,0.000000%,0.000000%); stroke-width: 15.360031;stroke-linecap: round;stroke-linejoin: round;stroke-miterlimit: 10.000000;fill: none;"></path>
  <g transform="matrix(5.120010,-0.000000,-0.000000,5.120010,122.873657 122.237228)" style="fill: rgb(0.000000%,0.000000%,0.000000%);">
    <text font-size="9.962646">11l</text>
  </g>
  <path d="M155.462830 137.597198l0 0" style="stroke:rgb(0.000000%,0.000000%,0.000000%); stroke-width: 15.360031;stroke-linecap: round;stroke-linejoin: round;stroke-miterlimit: 10.000000;fill: none;"></path>
  <g transform="matrix(5.120010,-0.000000,-0.000000,5.120010,822.584686 1407.656448)" style="fill: rgb(0.000000%,0.000000%,0.000000%);">
    <text font-size="9.962646">41l</text>
  </g>
  <path d="M855.173843 1423.016479l0 0" style="stroke:rgb(0.000000%,0.000000%,0.000000%); stroke-width: 15.360031;stroke-linecap: round;stroke-linejoin: round;stroke-miterlimit: 10.000000;fill: none;"></path>
  <g transform="matrix(5.120010,-0.000000,-0.000000,5.120010,321.716919 122.237228)" style="fill: rgb(0.000000%,0.000000%,0.000000%);">
    <text font-size="9.962646">1</text>
  </g>
  <path d="M334.469223 137.597198l0 0" style="stroke:rgb(0.000000%,0.000000%,0.000000%); stroke-width: 15.360031;stroke-linecap: round;stroke-linejoin: round;stroke-miterlimit: 10.000000;fill: none;"></path>
  <g transform="matrix(5.120010,-0.000000,-0.000000,5.120010,321.716919 1407.656448)" style="fill: rgb(0.000000%,0.000000%,0.000000%);">
    <text font-size="9.962646">2</text>
  </g>
  <path d="M334.469223 1423.016479l0 0" style="stroke:rgb(0.000000%,0.000000%,0.000000%); stroke-width: 15.360031;stroke-linecap: round;stroke-linejoin: round;stroke-miterlimit: 10.000000;fill: none;"></path>
  <g transform="matrix(5.120010,-0.000000,-0.000000,5.120010,1021.427948 122.237228)" style="fill: rgb(0.000000%,0.000000%,0.000000%);">
    <text font-size="9.962646">3</text>
  </g>
  <path d="M1034.180252 137.597198l0 0" style="stroke:rgb(0.000000%,0.000000%,0.000000%); stroke-width: 15.360031;stroke-linecap: round;stroke-linejoin: round;stroke-miterlimit: 10.000000;fill: none;"></path>
  <g transform="matrix(5.120010,-0.000000,-0.000000,5.120010,1021.427948 1407.656448)" style="fill: rgb(0.000000%,0.000000%,0.000000%);">
    <text font-size="9.962646">4</text>
  </g>
  <path d="M1034.180252 1423.016479l0 0" style="stroke:rgb(0.000000%,0.000000%,0.000000%); stroke-width: 15.360031;stroke-linecap: round;stroke-linejoin: round;stroke-miterlimit: 10.000000;fill: none;"></path>
  <g transform="matrix(5.120010,-0.000000,-0.000000,5.120010,308.964676 122.237228)" style="fill: rgb(0.000000%,0.000000%,0.000000%);">
    <text font-size="9.962646">11</text>
  </g>
  <path d="M334.469223 137.597198l0 0" style="stroke:rgb(0.000000%,0.000000%,0.000000%); stroke-width: 15.360031;stroke-linecap: round;stroke-linejoin: round;stroke-miterlimit: 10.000000;fill: none;"></path>
  <g transform="matrix(5.120010,-0.000000,-0.000000,5.120010,976.574921 1407.656448)" style="fill: rgb(0.000000%,0.000000%,0.000000%);">
    <text font-size="9.962646">41</text>
  </g>
  <path d="M1002.079529 1423.016479l0 0" style="stroke:rgb(0.000000%,0.000000%,0.000000%); stroke-width: 15.360031;stroke-linecap: round;stroke-linejoin: round;stroke-miterlimit: 10.000000;fill: none;"></path>
  <g transform="matrix(5.120010,-0.000000,-0.000000,5.120010,490.734055 122.237228)" style="fill: rgb(0.000000%,0.000000%,0.000000%);">
    <text font-size="9.962646">1r</text>
  </g>
  <path d="M513.475616 137.597198l0 0" style="stroke:rgb(0.000000%,0.000000%,0.000000%); stroke-width: 15.360031;stroke-linecap: round;stroke-linejoin: round;stroke-miterlimit: 10.000000;fill: none;"></path>
  <g transform="matrix(5.120010,-0.000000,-0.000000,5.120010,490.734055 1407.656448)" style="fill: rgb(0.000000%,0.000000%,0.000000%);">
    <text font-size="9.962646">2r</text>
  </g>
  <path d="M513.475616 1423.016479l0 0" style="stroke:rgb(0.000000%,0.000000%,0.000000%); stroke-width: 15.360031;stroke-linecap: round;stroke-linejoin: round;stroke-miterlimit: 10.000000;fill: none;"></path>
  <g transform="matrix(5.120010,-0.000000,-0.000000,5.120010,1190.445023 122.237228)" style="fill: rgb(0.000000%,0.000000%,0.000000%);">
    <text font-size="9.962646">3r</text>
  </g>
  <path d="M1213.186646 137.597198l0 0" style="stroke:rgb(0.000000%,0.000000%,0.000000%); stroke-width: 15.360031;stroke-linecap: round;stroke-linejoin: round;stroke-miterlimit: 10.000000;fill: none;"></path>
  <g transform="matrix(5.120010,-0.000000,-0.000000,5.120010,1190.445023 1407.656448)" style="fill: rgb(0.000000%,0.000000%,0.000000%);">
    <text font-size="9.962646">4r</text>
  </g>
  <path d="M1213.186646 1423.016479l0 0" style="stroke:rgb(0.000000%,0.000000%,0.000000%); stroke-width: 15.360031;stroke-linecap: round;stroke-linejoin: round;stroke-miterlimit: 10.000000;fill: none;"></path>
  <g transform="matrix(5.120010,-0.000000,-0.000000,5.120010,477.981750 122.237228)" style="fill: rgb(0.000000%,0.000000%,0.000000%);">
    <text font-size="9.962646">11r</text>
  </g>
  <path d="M513.475616 137.597198l0 0" style="stroke:rgb(0.000000%,0.000000%,0.000000%); stroke-width: 15.360031;stroke-linecap: round;stroke-linejoin: round;stroke-miterlimit: 10.000000;fill: none;"></path>
  <g transform="matrix(5.120010,-0.000000,-0.000000,5.120010,1113.491226 1407.656448)" style="fill: rgb(0.000000%,0.000000%,0.000000%);">
    <text font-size="9.962646">41r</text>
  </g>
  <path d="M1148.985092 1423.016479l0 0" style="stroke:rgb(0.000000%,0.000000%,0.000000%); stroke-width: 15.360031;stroke-linecap: round;stroke-linejoin: round;stroke-miterlimit: 10.000000;fill: none;"></path>
  <path d="M37.578812 -0.000000L37.578812 0.720154L38.298965 0.720154L1300.768784 0.720154L1300.048630 0.720154L1300.048630 1779.644669L1300.048630 1778.924515L37.578812 1778.924515L38.298965 1778.924515L38.298965 -0.000000L37.578812 -0.000000L37.578812 0.720154L37.578812 1779.644669L38.298965 1779.644669L1300.768784 1779.644669L1300.768784 1778.924515L1300.768784 -0.000000L1300.048630 -0.000000Z" style="fill: rgb(69.999695%,69.999695%,69.999695%);stroke: none;"></path>
</svg>
