<?xml version="1.0"?>
<!-- Created by MetaPost 2.11 on 2025.09.01:1857 -->
<svg version="1.1" xmlns="http://www.w3.org/2000/svg" xmlns:xlink="http://www.w3.org/1999/xlink" width="253.214111" height="356.505051" viewBox="0 0 253.214111 356.505051">
<!-- Original BoundingBox: -0.360077 -69.221619 252.854034 287.283432 -->
  <path d="M23.864868 27.807495L23.864868 284.891357L95.467422 284.891357L95.467422 27.807495Z" style="fill: rgb(69.999695%,69.999695%,69.999695%);stroke: none;"></path>
  <path d="M163.807068 27.807495L163.807068 284.891357L235.409622 284.891357L235.409622 27.807495Z" style="fill: rgb(69.999695%,69.999695%,69.999695%);stroke: none;"></path>
  <path d="M23.864868 27.807495L163.807068 284.891357L222.569321 284.891357L95.467422 27.807495Z" style="fill: rgb(69.999695%,69.999695%,69.999695%);stroke: none;"></path>
  <g transform="matrix(1.024002,-0.000000,-0.000000,1.024002,19.897476 24.735504)" style="fill: rgb(0.000000%,0.000000%,0.000000%);">
    <text font-size="9.962646">1l</text>
  </g>
  <path d="M23.864868 27.807495l0 0" style="stroke:rgb(0.000000%,0.000000%,0.000000%); stroke-width: 3.072006;stroke-linecap: round;stroke-linejoin: round;stroke-miterlimit: 10.000000;fill: none;"></path>
  <g transform="matrix(1.024002,-0.000000,-0.000000,1.024002,19.897476 281.819351)" style="fill: rgb(0.000000%,0.000000%,0.000000%);">
    <text font-size="9.962646">2l</text>
  </g>
  <path d="M23.864868 284.891357l0 0" style="stroke:rgb(0.000000%,0.000000%,0.000000%); stroke-width: 3.072006;stroke-linecap: round;stroke-linejoin: round;stroke-miterlimit: 10.000000;fill: none;"></path>
  <g transform="matrix(1.024002,-0.000000,-0.000000,1.024002,159.839691 24.735504)" style="fill: rgb(0.000000%,0.000000%,0.000000%);">
    <text font-size="9.962646">3l</text>
  </g>
  <path d="M163.807068 27.807495l0 0" style="stroke:rgb(0.000000%,0.000000%,0.000000%); stroke-width: 3.072006;stroke-linecap: round;stroke-linejoin: round;stroke-miterlimit: 10.000000;fill: none;"></path>
  <g transform="matrix(1.024002,-0.000000,-0.000000,1.024002,159.839691 281.819351)" style="fill: rgb(0.000000%,0.000000%,0.000000%);">
    <text font-size="9.962646">4l</text>
  </g>
  <path d="M163.807068 284.891357l0 0" style="stroke:rgb(0.000000%,0.000000%,0.000000%); stroke-width: 3.072006;stroke-linecap: round;stroke-linejoin: round;stroke-miterlimit: 10.000000;fill: none;"></path>
  <g transform="matrix(1.024002,-0.000000,-0.000000,1.024002,17.347031 24.735504)" style="fill: rgb(0.000000%,0.000000%,0.000000%);">
    <text font-size="9.962646">11l</text>
  </g>
  <path d="M23.864868 27.807495l0 0" style="stroke:rgb(0.000000%,0.000000%,0.000000%); stroke-width: 3.072006;stroke-linecap: round;stroke-linejoin: round;stroke-miterlimit: 10.000000;fill: none;"></path>
  <g transform="matrix(1.024002,-0.000000,-0.000000,1.024002,157.289230 281.819351)" style="fill: rgb(0.000000%,0.000000%,0.000000%);">
    <text font-size="9.962646">41l</text>
  </g>
  <path d="M163.807068 284.891357l0 0" style="stroke:rgb(0.000000%,0.000000%,0.000000%); stroke-width: 3.072006;stroke-linecap: round;stroke-linejoin: round;stroke-miterlimit: 10.000000;fill: none;"></path>
  <g transform="matrix(1.024002,-0.000000,-0.000000,1.024002,57.115677 24.735504)" style="fill: rgb(0.000000%,0.000000%,0.000000%);">
    <text font-size="9.962646">1</text>
  </g>
  <path d="M59.666138 27.807495l0 0" style="stroke:rgb(0.000000%,0.000000%,0.000000%); stroke-width: 3.072006;stroke-linecap: round;stroke-linejoin: round;stroke-miterlimit: 10.000000;fill: none;"></path>
  <g transform="matrix(1.024002,-0.000000,-0.000000,1.024002,57.115677 281.819351)" style="fill: rgb(0.000000%,0.000000%,0.000000%);">
    <text font-size="9.962646">2</text>
  </g>
  <path d="M59.666138 284.891357l0 0" style="stroke:rgb(0.000000%,0.000000%,0.000000%); stroke-width: 3.072006;stroke-linecap: round;stroke-linejoin: round;stroke-miterlimit: 10.000000;fill: none;"></path>
  <g transform="matrix(1.024002,-0.000000,-0.000000,1.024002,197.057892 24.735504)" style="fill: rgb(0.000000%,0.000000%,0.000000%);">
    <text font-size="9.962646">3</text>
  </g>
  <path d="M199.608353 27.807495l0 0" style="stroke:rgb(0.000000%,0.000000%,0.000000%); stroke-width: 3.072006;stroke-linecap: round;stroke-linejoin: round;stroke-miterlimit: 10.000000;fill: none;"></path>
  <g transform="matrix(1.024002,-0.000000,-0.000000,1.024002,197.057892 281.819351)" style="fill: rgb(0.000000%,0.000000%,0.000000%);">
    <text font-size="9.962646">4</text>
  </g>
  <path d="M199.608353 284.891357l0 0" style="stroke:rgb(0.000000%,0.000000%,0.000000%); stroke-width: 3.072006;stroke-linecap: round;stroke-linejoin: round;stroke-miterlimit: 10.000000;fill: none;"></path>
  <g transform="matrix(1.024002,-0.000000,-0.000000,1.024002,54.565231 24.735504)" style="fill: rgb(0.000000%,0.000000%,0.000000%);">
    <text font-size="9.962646">11</text>
  </g>
  <path d="M59.666138 27.807495l0 0" style="stroke:rgb(0.000000%,0.000000%,0.000000%); stroke-width: 3.072006;stroke-linecap: round;stroke-linejoin: round;stroke-miterlimit: 10.000000;fill: none;"></path>
  <g transform="matrix(1.024002,-0.000000,-0.000000,1.024002,188.087280 281.819351)" style="fill: rgb(0.000000%,0.000000%,0.000000%);">
    <text font-size="9.962646">41</text>
  </g>
  <path d="M193.188202 284.891357l0 0" style="stroke:rgb(0.000000%,0.000000%,0.000000%); stroke-width: 3.072006;stroke-linecap: round;stroke-linejoin: round;stroke-miterlimit: 10.000000;fill: none;"></path>
  <g transform="matrix(1.024002,-0.000000,-0.000000,1.024002,90.919113 24.735504)" style="fill: rgb(0.000000%,0.000000%,0.000000%);">
    <text font-size="9.962646">1r</text>
  </g>
  <path d="M95.467422 27.807495l0 0" style="stroke:rgb(0.000000%,0.000000%,0.000000%); stroke-width: 3.072006;stroke-linecap: round;stroke-linejoin: round;stroke-miterlimit: 10.000000;fill: none;"></path>
  <g transform="matrix(1.024002,-0.000000,-0.000000,1.024002,90.919113 281.819351)" style="fill: rgb(0.000000%,0.000000%,0.000000%);">
    <text font-size="9.962646">2r</text>
  </g>
  <path d="M95.467422 284.891357l0 0" style="stroke:rgb(0.000000%,0.000000%,0.000000%); stroke-width: 3.072006;stroke-linecap: round;stroke-linejoin: round;stroke-miterlimit: 10.000000;fill: none;"></path>
  <g transform="matrix(1.024002,-0.000000,-0.000000,1.024002,230.861298 24.735504)" style="fill: rgb(0.000000%,0.000000%,0.000000%);">
    <text font-size="9.962646">3r</text>
  </g>
  <path d="M235.409622 27.807495l0 0" style="stroke:rgb(0.000000%,0.000000%,0.000000%); stroke-width: 3.072006;stroke-linecap: round;stroke-linejoin: round;stroke-miterlimit: 10.000000;fill: none;"></path>
  <g transform="matrix(1.024002,-0.000000,-0.000000,1.024002,230.861298 281.819351)" style="fill: rgb(0.000000%,0.000000%,0.000000%);">
    <text font-size="9.962646">4r</text>
  </g>
  <path d="M235.409622 284.891357l0 0" style="stroke:rgb(0.000000%,0.000000%,0.000000%); stroke-width: 3.072006;stroke-linecap: round;stroke-linejoin: round;stroke-miterlimit: 10.000000;fill: none;"></path>
  <g transform="matrix(1.024002,-0.000000,-0.000000,1.024002,88.368652 24.735504)" style="fill: rgb(0.000000%,0.000000%,0.000000%);">
    <text font-size="9.962646">11r</text>
  </g>
  <path d="M95.467422 27.807495l0 0" style="stroke:rgb(0.000000%,0.000000%,0.000000%); stroke-width: 3.072006;stroke-linecap: round;stroke-linejoin: round;stroke-miterlimit: 10.000000;fill: none;"></path>
  <g transform="matrix(1.024002,-0.000000,-0.000000,1.024002,215.470551 281.819351)" style="fill: rgb(0.000000%,0.000000%,0.000000%);">
    <text font-size="9.962646">41r</text>
  </g>
  <path d="M222.569321 284.891357l0 0" style="stroke:rgb(0.000000%,0.000000%,0.000000%); stroke-width: 3.072006;stroke-linecap: round;stroke-linejoin: round;stroke-miterlimit: 10.000000;fill: none;"></path>
  <path d="M0.000000 -0.000000L0.000000 0.720154L0.720154 0.720154L253.214111 0.720154L252.493958 0.720154L252.493958 356.505051L252.493958 355.784897L0.000000 355.784897L0.720154 355.784897L0.720154 -0.000000L0.000000 -0.000000L0.000000 0.720154L0.000000 356.505051L0.720154 356.505051L253.214111 356.505051L253.214111 355.784897L253.214111 -0.000000L252.493958 -0.000000Z" style="fill: rgb(69.999695%,69.999695%,69.999695%);stroke: none;"></path>
</svg>
