<?xml version="1.0"?>
<!-- Created by MetaPost 2.11 on 2025.09.01:1857 -->
<svg version="1.1" xmlns="http://www.w3.org/2000/svg" xmlns:xlink="http://www.w3.org/1999/xlink" width="233.488022" height="356.505051" viewBox="0 0 233.488022 356.505051">
<!-- Original BoundingBox: -0.360077 -69.221619 233.127945 287.283432 -->
  <path d="M12.112473 27.807495L83.736191 169.204407L133.857758 169.204407L83.715027 27.807495Z" style="fill: rgb(69.999695%,69.999695%,69.999695%);stroke: none;"></path>
  <path d="M155.359909 27.807495L105.217163 169.204407L155.338745 169.204407L226.962463 27.807495Z" style="fill: rgb(69.999695%,69.999695%,69.999695%);stroke: none;"></path>
  <path d="M83.736191 169.204407L83.736191 284.891357L155.338745 284.891357L155.338745 169.204407Z" style="fill: rgb(69.999695%,69.999695%,69.999695%);stroke: none;"></path>
  <g transform="matrix(1.024002,-0.000000,-0.000000,1.024002,8.145096 24.735504)" style="fill: rgb(0.000000%,0.000000%,0.000000%);">
    <text font-size="9.962646">1l</text>
  </g>
  <path d="M12.112473 27.807495l0 0" style="stroke:rgb(0.000000%,0.000000%,0.000000%); stroke-width: 3.072006;stroke-linecap: round;stroke-linejoin: round;stroke-miterlimit: 10.000000;fill: none;"></path>
  <g transform="matrix(1.024002,-0.000000,-0.000000,1.024002,79.768799 166.132401)" style="fill: rgb(0.000000%,0.000000%,0.000000%);">
    <text font-size="9.962646">2l</text>
  </g>
  <path d="M83.736191 169.204407l0 0" style="stroke:rgb(0.000000%,0.000000%,0.000000%); stroke-width: 3.072006;stroke-linecap: round;stroke-linejoin: round;stroke-miterlimit: 10.000000;fill: none;"></path>
  <g transform="matrix(1.024002,-0.000000,-0.000000,1.024002,151.392532 24.735504)" style="fill: rgb(0.000000%,0.000000%,0.000000%);">
    <text font-size="9.962646">3l</text>
  </g>
  <path d="M155.359909 27.807495l0 0" style="stroke:rgb(0.000000%,0.000000%,0.000000%); stroke-width: 3.072006;stroke-linecap: round;stroke-linejoin: round;stroke-miterlimit: 10.000000;fill: none;"></path>
  <g transform="matrix(1.024002,-0.000000,-0.000000,1.024002,79.768799 281.819351)" style="fill: rgb(0.000000%,0.000000%,0.000000%);">
    <text font-size="9.962646">4l</text>
  </g>
  <path d="M83.736191 284.891357l0 0" style="stroke:rgb(0.000000%,0.000000%,0.000000%); stroke-width: 3.072006;stroke-linecap: round;stroke-linejoin: round;stroke-miterlimit: 10.000000;fill: none;"></path>
  <g transform="matrix(1.024002,-0.000000,-0.000000,1.024002,45.363281 24.735504)" style="fill: rgb(0.000000%,0.000000%,0.000000%);">
    <text font-size="9.962646">1</text>
  </g>
  <path d="M47.913757 27.807495l0 0" style="stroke:rgb(0.000000%,0.000000%,0.000000%); stroke-width: 3.072006;stroke-linecap: round;stroke-linejoin: round;stroke-miterlimit: 10.000000;fill: none;"></path>
  <g transform="matrix(1.024002,-0.000000,-0.000000,1.024002,116.987000 166.132401)" style="fill: rgb(0.000000%,0.000000%,0.000000%);">
    <text font-size="9.962646">2</text>
  </g>
  <path d="M119.537460 169.204407l0 0" style="stroke:rgb(0.000000%,0.000000%,0.000000%); stroke-width: 3.072006;stroke-linecap: round;stroke-linejoin: round;stroke-miterlimit: 10.000000;fill: none;"></path>
  <g transform="matrix(1.024002,-0.000000,-0.000000,1.024002,188.610733 24.735504)" style="fill: rgb(0.000000%,0.000000%,0.000000%);">
    <text font-size="9.962646">3</text>
  </g>
  <path d="M191.161194 27.807495l0 0" style="stroke:rgb(0.000000%,0.000000%,0.000000%); stroke-width: 3.072006;stroke-linecap: round;stroke-linejoin: round;stroke-miterlimit: 10.000000;fill: none;"></path>
  <g transform="matrix(1.024002,-0.000000,-0.000000,1.024002,116.987000 281.819351)" style="fill: rgb(0.000000%,0.000000%,0.000000%);">
    <text font-size="9.962646">4</text>
  </g>
  <path d="M119.537460 284.891357l0 0" style="stroke:rgb(0.000000%,0.000000%,0.000000%); stroke-width: 3.072006;stroke-linecap: round;stroke-linejoin: round;stroke-miterlimit: 10.000000;fill: none;"></path>
  <g transform="matrix(1.024002,-0.000000,-0.000000,1.024002,79.166718 24.735504)" style="fill: rgb(0.000000%,0.000000%,0.000000%);">
    <text font-size="9.962646">1r</text>
  </g>
  <path d="M83.715027 27.807495l0 0" style="stroke:rgb(0.000000%,0.000000%,0.000000%); stroke-width: 3.072006;stroke-linecap: round;stroke-linejoin: round;stroke-miterlimit: 10.000000;fill: none;"></path>
  <g transform="matrix(1.024002,-0.000000,-0.000000,1.024002,150.790436 166.132401)" style="fill: rgb(0.000000%,0.000000%,0.000000%);">
    <text font-size="9.962646">2r</text>
  </g>
  <path d="M155.338745 169.204407l0 0" style="stroke:rgb(0.000000%,0.000000%,0.000000%); stroke-width: 3.072006;stroke-linecap: round;stroke-linejoin: round;stroke-miterlimit: 10.000000;fill: none;"></path>
  <g transform="matrix(1.024002,-0.000000,-0.000000,1.024002,222.414139 24.735504)" style="fill: rgb(0.000000%,0.000000%,0.000000%);">
    <text font-size="9.962646">3r</text>
  </g>
  <path d="M226.962463 27.807495l0 0" style="stroke:rgb(0.000000%,0.000000%,0.000000%); stroke-width: 3.072006;stroke-linecap: round;stroke-linejoin: round;stroke-miterlimit: 10.000000;fill: none;"></path>
  <g transform="matrix(1.024002,-0.000000,-0.000000,1.024002,150.790436 281.819351)" style="fill: rgb(0.000000%,0.000000%,0.000000%);">
    <text font-size="9.962646">4r</text>
  </g>
  <path d="M155.338745 284.891357l0 0" style="stroke:rgb(0.000000%,0.000000%,0.000000%); stroke-width: 3.072006;stroke-linecap: round;stroke-linejoin: round;stroke-miterlimit: 10.000000;fill: none;"></path>
  <path d="M0.000000 -0.000000L0.000000 0.720154L0.720154 0.720154L233.488022 0.720154L232.767868 0.720154L232.767868 356.505051L232.767868 355.784897L0.000000 355.784897L0.720154 355.784897L0.720154 -0.000000L0.000000 -0.000000L0.000000 0.720154L0.000000 356.505051L0.720154 356.505051L233.488022 356.505051L233.488022 355.784897L233.488022 -0.000000L232.767868 -0.000000Z" style="fill: rgb(69.999695%,69.999695%,69.999695%);stroke: none;"></path>
</svg>
