<?xml version="1.0"?>
<!-- Created by MetaPost 2.11 on 2025.09.01:1857 -->
<svg version="1.1" xmlns="http://www.w3.org/2000/svg" xmlns:xlink="http://www.w3.org/1999/xlink" width="198.089447" height="365.380280" viewBox="0 0 198.089447 365.380280">
<!-- Original BoundingBox: -0.360077 -69.221619 197.729370 296.158661 -->
  <path d="M9.174591 95.444977L69.033066 9.646454L133.682678 9.646454L193.541138 95.444977L161.216339 144.517242L101.357864 58.718704L101.357864 58.718704L41.499390 144.517242Z" style="fill: rgb(69.999695%,69.999695%,69.999695%);stroke: none;"></path>
  <g transform="matrix(1.024002,-0.000000,-0.000000,1.024002,37.532013 141.445236)" style="fill: rgb(0.000000%,0.000000%,0.000000%);">
    <text font-size="9.962646">1l</text>
  </g>
  <path d="M41.499390 144.517242l0 0" style="stroke:rgb(0.000000%,0.000000%,0.000000%); stroke-width: 3.072006;stroke-linecap: round;stroke-linejoin: round;stroke-miterlimit: 10.000000;fill: none;"></path>
  <g transform="matrix(1.024002,-0.000000,-0.000000,1.024002,97.390488 55.646713)" style="fill: rgb(0.000000%,0.000000%,0.000000%);">
    <text font-size="9.962646">2l</text>
  </g>
  <path d="M101.357864 58.718704l0 0" style="stroke:rgb(0.000000%,0.000000%,0.000000%); stroke-width: 3.072006;stroke-linecap: round;stroke-linejoin: round;stroke-miterlimit: 10.000000;fill: none;"></path>
  <g transform="matrix(1.024002,-0.000000,-0.000000,1.024002,97.390488 55.646713)" style="fill: rgb(0.000000%,0.000000%,0.000000%);">
    <text font-size="9.962646">3l</text>
  </g>
  <path d="M101.357864 58.718704l0 0" style="stroke:rgb(0.000000%,0.000000%,0.000000%); stroke-width: 3.072006;stroke-linecap: round;stroke-linejoin: round;stroke-miterlimit: 10.000000;fill: none;"></path>
  <g transform="matrix(1.024002,-0.000000,-0.000000,1.024002,157.248962 141.445236)" style="fill: rgb(0.000000%,0.000000%,0.000000%);">
    <text font-size="9.962646">4l</text>
  </g>
  <path d="M161.216339 144.517242l0 0" style="stroke:rgb(0.000000%,0.000000%,0.000000%); stroke-width: 3.072006;stroke-linecap: round;stroke-linejoin: round;stroke-miterlimit: 10.000000;fill: none;"></path>
  <g transform="matrix(1.024002,-0.000000,-0.000000,1.024002,22.786530 116.909103)" style="fill: rgb(0.000000%,0.000000%,0.000000%);">
    <text font-size="9.962646">1</text>
  </g>
  <path d="M25.336990 119.981110l0 0" style="stroke:rgb(0.000000%,0.000000%,0.000000%); stroke-width: 3.072006;stroke-linecap: round;stroke-linejoin: round;stroke-miterlimit: 10.000000;fill: none;"></path>
  <g transform="matrix(1.024002,-0.000000,-0.000000,1.024002,82.645020 31.110580)" style="fill: rgb(0.000000%,0.000000%,0.000000%);">
    <text font-size="9.962646">2</text>
  </g>
  <path d="M85.195465 34.182587l0 0" style="stroke:rgb(0.000000%,0.000000%,0.000000%); stroke-width: 3.072006;stroke-linecap: round;stroke-linejoin: round;stroke-miterlimit: 10.000000;fill: none;"></path>
  <g transform="matrix(1.024002,-0.000000,-0.000000,1.024002,114.969803 31.110580)" style="fill: rgb(0.000000%,0.000000%,0.000000%);">
    <text font-size="9.962646">3</text>
  </g>
  <path d="M117.520264 34.182587l0 0" style="stroke:rgb(0.000000%,0.000000%,0.000000%); stroke-width: 3.072006;stroke-linecap: round;stroke-linejoin: round;stroke-miterlimit: 10.000000;fill: none;"></path>
  <g transform="matrix(1.024002,-0.000000,-0.000000,1.024002,174.828278 116.909103)" style="fill: rgb(0.000000%,0.000000%,0.000000%);">
    <text font-size="9.962646">4</text>
  </g>
  <path d="M177.378738 119.981110l0 0" style="stroke:rgb(0.000000%,0.000000%,0.000000%); stroke-width: 3.072006;stroke-linecap: round;stroke-linejoin: round;stroke-miterlimit: 10.000000;fill: none;"></path>
  <g transform="matrix(1.024002,-0.000000,-0.000000,1.024002,4.626266 92.372986)" style="fill: rgb(0.000000%,0.000000%,0.000000%);">
    <text font-size="9.962646">1r</text>
  </g>
  <path d="M9.174591 95.444977l0 0" style="stroke:rgb(0.000000%,0.000000%,0.000000%); stroke-width: 3.072006;stroke-linecap: round;stroke-linejoin: round;stroke-miterlimit: 10.000000;fill: none;"></path>
  <g transform="matrix(1.024002,-0.000000,-0.000000,1.024002,64.484756 6.574463)" style="fill: rgb(0.000000%,0.000000%,0.000000%);">
    <text font-size="9.962646">2r</text>
  </g>
  <path d="M69.033066 9.646454l0 0" style="stroke:rgb(0.000000%,0.000000%,0.000000%); stroke-width: 3.072006;stroke-linecap: round;stroke-linejoin: round;stroke-miterlimit: 10.000000;fill: none;"></path>
  <g transform="matrix(1.024002,-0.000000,-0.000000,1.024002,129.134354 6.574463)" style="fill: rgb(0.000000%,0.000000%,0.000000%);">
    <text font-size="9.962646">3r</text>
  </g>
  <path d="M133.682678 9.646454l0 0" style="stroke:rgb(0.000000%,0.000000%,0.000000%); stroke-width: 3.072006;stroke-linecap: round;stroke-linejoin: round;stroke-miterlimit: 10.000000;fill: none;"></path>
  <g transform="matrix(1.024002,-0.000000,-0.000000,1.024002,188.992828 92.372986)" style="fill: rgb(0.000000%,0.000000%,0.000000%);">
    <text font-size="9.962646">4r</text>
  </g>
  <path d="M193.541138 95.444977l0 0" style="stroke:rgb(0.000000%,0.000000%,0.000000%); stroke-width: 3.072006;stroke-linecap: round;stroke-linejoin: round;stroke-miterlimit: 10.000000;fill: none;"></path>
  <path d="M0.000000 8.875229L0.000000 9.595383L0.720154 9.595383L197.981064 9.595383L197.260910 9.595383L197.260910 365.380280L197.260910 364.660126L0.000000 364.660126L0.720154 364.660126L0.720154 8.875229L0.000000 8.875229L0.000000 9.595383L0.000000 365.380280L0.720154 365.380280L197.981064 365.380280L197.981064 364.660126L197.981064 8.875229L197.260910 8.875229Z" style="fill: rgb(69.999695%,69.999695%,69.999695%);stroke: none;"></path>
</svg>
