<?xml version="1.0"?>
<!-- Created by MetaPost 2.11 on 2025.09.07:1145 -->
<svg version="1.1" xmlns="http://www.w3.org/2000/svg" xmlns:xlink="http://www.w3.org/1999/xlink" width="1198.340485" height="1779.644669" viewBox="0 0 1198.340485 1779.644669">
<!-- Original BoundingBox: -45.978378 -344.667786 1152.362106 1434.976883 -->
  <path d="M477.442612 122.906387L477.442612 122.906387L477.442612 1165.936584L477.442612 1283.459259L387.939407 1423.016479L119.429764 1423.016479L119.429764 269.812057L0.000000 269.812057L0.000000 196.359253Z" style="fill: rgb(69.999695%,69.999695%,69.999695%);stroke: none;"></path>
  <path d="M381.173523 755.784729C419.886292 579.242218,576.259750 453.443314,756.997025 453.443314C1032.315369 453.443314,1181.558334 656.302719,1181.558334 945.575302C1181.558334 1234.847885,1032.315369 1437.707291,756.997025 1437.707291C643.507416 1437.707291,537.957626 1379.468750,477.442612 1283.459259L477.442612 1165.936584C479.702255 1251.774246,549.937256 1320.184616,635.804626 1320.184616C807.052750 1320.184616,823.545486 1144.935196,823.545486 945.575302C823.545486 746.215408,807.052750 570.965988,635.804626 570.965988C506.182388 570.965988,421.120102 706.446899,477.442612 823.193161Z" style="fill: rgb(69.999695%,69.999695%,69.999695%);stroke: none;"></path>
  <g transform="matrix(5.120010,-0.000000,-0.000000,5.120010,106.677460 107.546371)" style="fill: rgb(0.000000%,0.000000%,0.000000%);">
    <text font-size="9.962646">1</text>
  </g>
  <path d="M119.429764 122.906387l0 0" style="stroke:rgb(0.000000%,0.000000%,0.000000%); stroke-width: 15.360031;stroke-linecap: round;stroke-linejoin: round;stroke-miterlimit: 10.000000;fill: none;"></path>
  <g transform="matrix(5.120010,-0.000000,-0.000000,5.120010,106.677460 1150.576569)" style="fill: rgb(0.000000%,0.000000%,0.000000%);">
    <text font-size="9.962646">2</text>
  </g>
  <path d="M119.429764 1165.936584l0 0" style="stroke:rgb(0.000000%,0.000000%,0.000000%); stroke-width: 15.360031;stroke-linecap: round;stroke-linejoin: round;stroke-miterlimit: 10.000000;fill: none;"></path>
  <g transform="matrix(5.120010,-0.000000,-0.000000,5.120010,106.677460 1407.656448)" style="fill: rgb(0.000000%,0.000000%,0.000000%);">
    <text font-size="9.962646">3</text>
  </g>
  <path d="M119.429764 1423.016479l0 0" style="stroke:rgb(0.000000%,0.000000%,0.000000%); stroke-width: 15.360031;stroke-linecap: round;stroke-linejoin: round;stroke-miterlimit: 10.000000;fill: none;"></path>
  <g transform="matrix(5.120010,-0.000000,-0.000000,5.120010,106.677460 774.128952)" style="fill: rgb(0.000000%,0.000000%,0.000000%);">
    <text font-size="9.962646">4</text>
  </g>
  <path d="M119.429764 789.488983l0 0" style="stroke:rgb(0.000000%,0.000000%,0.000000%); stroke-width: 15.360031;stroke-linecap: round;stroke-linejoin: round;stroke-miterlimit: 10.000000;fill: none;"></path>
  <g transform="matrix(5.120010,-0.000000,-0.000000,5.120010,623.052277 438.083298)" style="fill: rgb(0.000000%,0.000000%,0.000000%);">
    <text font-size="9.962646">5</text>
  </g>
  <path d="M635.804626 453.443314l0 0" style="stroke:rgb(0.000000%,0.000000%,0.000000%); stroke-width: 15.360031;stroke-linecap: round;stroke-linejoin: round;stroke-miterlimit: 10.000000;fill: none;"></path>
  <g transform="matrix(5.120010,-0.000000,-0.000000,5.120010,1168.805969 930.215286)" style="fill: rgb(0.000000%,0.000000%,0.000000%);">
    <text font-size="9.962646">6</text>
  </g>
  <path d="M1181.558334 945.575302l0 0" style="stroke:rgb(0.000000%,0.000000%,0.000000%); stroke-width: 15.360031;stroke-linecap: round;stroke-linejoin: round;stroke-miterlimit: 10.000000;fill: none;"></path>
  <g transform="matrix(5.120010,-0.000000,-0.000000,5.120010,623.052277 1422.347321)" style="fill: rgb(0.000000%,0.000000%,0.000000%);">
    <text font-size="9.962646">7</text>
  </g>
  <path d="M635.804626 1437.707291l0 0" style="stroke:rgb(0.000000%,0.000000%,0.000000%); stroke-width: 15.360031;stroke-linecap: round;stroke-linejoin: round;stroke-miterlimit: 10.000000;fill: none;"></path>
  <path d="M45.618301 -0.000000L45.618301 0.720154L46.338455 0.720154L1198.340485 0.720154L1197.620331 0.720154L1197.620331 1779.644669L1197.620331 1778.924515L45.618301 1778.924515L46.338455 1778.924515L46.338455 -0.000000L45.618301 -0.000000L45.618301 0.720154L45.618301 1779.644669L46.338455 1779.644669L1198.340485 1779.644669L1198.340485 1778.924515L1198.340485 -0.000000L1197.620331 -0.000000Z" style="fill: rgb(69.999695%,69.999695%,69.999695%);stroke: none;"></path>
</svg>
